<?xml version="1.0" encoding="UTF-8" standalone="no"?>
<!-- Created with Inkscape (http://www.inkscape.org/) -->

<svg
   xmlns:dc="http://purl.org/dc/elements/1.1/"
   xmlns:cc="http://creativecommons.org/ns#"
   xmlns:rdf="http://www.w3.org/1999/02/22-rdf-syntax-ns#"
   xmlns:svg="http://www.w3.org/2000/svg"
   xmlns="http://www.w3.org/2000/svg"
   xmlns:sodipodi="http://sodipodi.sourceforge.net/DTD/sodipodi-0.dtd"
   xmlns:inkscape="http://www.inkscape.org/namespaces/inkscape"
   id="svg2"
   version="1.1"
   inkscape:version="0.48.5 r10040"
   width="1000"
   height="750"
   xml:space="preserve"
   sodipodi:docname="anderson-withwithoutacceleration.pdf"><metadata
     id="metadata8"><rdf:RDF><cc:Work
         rdf:about=""><dc:format>image/svg+xml</dc:format><dc:type
           rdf:resource="http://purl.org/dc/dcmitype/StillImage" /><dc:title></dc:title></cc:Work></rdf:RDF></metadata><defs
     id="defs6"><clipPath
       clipPathUnits="userSpaceOnUse"
       id="clipPath26"><path
         d="m 0,0 13333,0 0,10000 L 0,10000 0,0 z"
         clip-rule="evenodd"
         id="path28" /></clipPath><clipPath
       clipPathUnits="userSpaceOnUse"
       id="clipPath48"><path
         d="m 0,0 13333,0 0,10000 L 0,10000 0,0 z"
         clip-rule="evenodd"
         id="path50" /></clipPath><clipPath
       clipPathUnits="userSpaceOnUse"
       id="clipPath54"><path
         d="m 6116.5137,9224.7694 2583.2688,0 0,499.9875 -2583.2688,0 0,-499.9875 z"
         clip-rule="evenodd"
         id="path56" /></clipPath><clipPath
       clipPathUnits="userSpaceOnUse"
       id="clipPath74"><path
         d="m 0,0 13333,0 0,10000 L 0,10000 0,0 z"
         clip-rule="evenodd"
         id="path76" /></clipPath><clipPath
       clipPathUnits="userSpaceOnUse"
       id="clipPath92"><path
         d="m 0,0 13333,0 0,10000 L 0,10000 0,0 z"
         clip-rule="evenodd"
         id="path94" /></clipPath><clipPath
       clipPathUnits="userSpaceOnUse"
       id="clipPath98"><path
         d="m 274.99312,4908.2106 0,-916.6437 499.9875,0 0,916.6437 -499.9875,0 z"
         clip-rule="evenodd"
         id="path100" /></clipPath><clipPath
       clipPathUnits="userSpaceOnUse"
       id="clipPath118"><path
         d="m 0,0 13333,0 0,10000 L 0,10000 0,0 z"
         clip-rule="evenodd"
         id="path120" /></clipPath><clipPath
       clipPathUnits="userSpaceOnUse"
       id="clipPath136"><path
         d="m 0,0 13333,0 0,10000 L 0,10000 0,0 z"
         clip-rule="evenodd"
         id="path138" /></clipPath><clipPath
       clipPathUnits="userSpaceOnUse"
       id="clipPath142"><path
         d="m 1749.9562,8641.4506 299.9926,0 0,499.9875 -299.9926,0 0,-499.9875 z"
         clip-rule="evenodd"
         id="path144" /></clipPath><clipPath
       clipPathUnits="userSpaceOnUse"
       id="clipPath162"><path
         d="m 0,0 13333,0 0,10000 L 0,10000 0,0 z"
         clip-rule="evenodd"
         id="path164" /></clipPath><clipPath
       clipPathUnits="userSpaceOnUse"
       id="clipPath180"><path
         d="m 0,0 13333,0 0,10000 L 0,10000 0,0 z"
         clip-rule="evenodd"
         id="path182" /></clipPath><clipPath
       clipPathUnits="userSpaceOnUse"
       id="clipPath186"><path
         d="m 3703.2407,8641.4506 799.98,0 0,499.9875 -799.98,0 0,-499.9875 z"
         clip-rule="evenodd"
         id="path188" /></clipPath><clipPath
       clipPathUnits="userSpaceOnUse"
       id="clipPath206"><path
         d="m 0,0 13333,0 0,10000 L 0,10000 0,0 z"
         clip-rule="evenodd"
         id="path208" /></clipPath><clipPath
       clipPathUnits="userSpaceOnUse"
       id="clipPath224"><path
         d="m 0,0 13333,0 0,10000 L 0,10000 0,0 z"
         clip-rule="evenodd"
         id="path226" /></clipPath><clipPath
       clipPathUnits="userSpaceOnUse"
       id="clipPath230"><path
         d="m 5906.519,8641.4506 799.98,0 0,499.9875 -799.98,0 0,-499.9875 z"
         clip-rule="evenodd"
         id="path232" /></clipPath><clipPath
       clipPathUnits="userSpaceOnUse"
       id="clipPath250"><path
         d="m 0,0 13333,0 0,10000 L 0,10000 0,0 z"
         clip-rule="evenodd"
         id="path252" /></clipPath><clipPath
       clipPathUnits="userSpaceOnUse"
       id="clipPath268"><path
         d="m 0,0 13333,0 0,10000 L 0,10000 0,0 z"
         clip-rule="evenodd"
         id="path270" /></clipPath><clipPath
       clipPathUnits="userSpaceOnUse"
       id="clipPath274"><path
         d="m 8109.7972,8641.4506 799.9801,0 0,499.9875 -799.9801,0 0,-499.9875 z"
         clip-rule="evenodd"
         id="path276" /></clipPath><clipPath
       clipPathUnits="userSpaceOnUse"
       id="clipPath294"><path
         d="m 0,0 13333,0 0,10000 L 0,10000 0,0 z"
         clip-rule="evenodd"
         id="path296" /></clipPath><clipPath
       clipPathUnits="userSpaceOnUse"
       id="clipPath312"><path
         d="m 0,0 13333,0 0,10000 L 0,10000 0,0 z"
         clip-rule="evenodd"
         id="path314" /></clipPath><clipPath
       clipPathUnits="userSpaceOnUse"
       id="clipPath318"><path
         d="m 10313.075,8641.4506 799.98,0 0,499.9875 -799.98,0 0,-499.9875 z"
         clip-rule="evenodd"
         id="path320" /></clipPath><clipPath
       clipPathUnits="userSpaceOnUse"
       id="clipPath338"><path
         d="m 0,0 13333,0 0,10000 L 0,10000 0,0 z"
         clip-rule="evenodd"
         id="path340" /></clipPath><clipPath
       clipPathUnits="userSpaceOnUse"
       id="clipPath356"><path
         d="m 0,0 13333,0 0,10000 L 0,10000 0,0 z"
         clip-rule="evenodd"
         id="path358" /></clipPath><clipPath
       clipPathUnits="userSpaceOnUse"
       id="clipPath362"><path
         d="m 12624.684,8641.4506 583.319,0 0,499.9875 -583.319,0 0,-499.9875 z"
         clip-rule="evenodd"
         id="path364" /></clipPath><clipPath
       clipPathUnits="userSpaceOnUse"
       id="clipPath388"><path
         d="m 0,0 13333,0 0,10000 L 0,10000 0,0 z"
         clip-rule="evenodd"
         id="path390" /></clipPath><clipPath
       clipPathUnits="userSpaceOnUse"
       id="clipPath406"><path
         d="m 0,0 13333,0 0,10000 L 0,10000 0,0 z"
         clip-rule="evenodd"
         id="path408" /></clipPath><clipPath
       clipPathUnits="userSpaceOnUse"
       id="clipPath412"><path
         d="m 974.97562,8233.1275 649.98378,0 0,499.9875 -649.98378,0 0,-499.9875 z"
         clip-rule="evenodd"
         id="path414" /></clipPath><clipPath
       clipPathUnits="userSpaceOnUse"
       id="clipPath438"><path
         d="m 0,0 13333,0 0,10000 L 0,10000 0,0 z"
         clip-rule="evenodd"
         id="path440" /></clipPath><clipPath
       clipPathUnits="userSpaceOnUse"
       id="clipPath456"><path
         d="m 0,0 13333,0 0,10000 L 0,10000 0,0 z"
         clip-rule="evenodd"
         id="path458" /></clipPath><clipPath
       clipPathUnits="userSpaceOnUse"
       id="clipPath462"><path
         d="m 974.97562,6216.5113 649.98378,0 0,499.9874 -649.98378,0 0,-499.9874 z"
         clip-rule="evenodd"
         id="path464" /></clipPath><clipPath
       clipPathUnits="userSpaceOnUse"
       id="clipPath488"><path
         d="m 0,0 13333,0 0,10000 L 0,10000 0,0 z"
         clip-rule="evenodd"
         id="path490" /></clipPath><clipPath
       clipPathUnits="userSpaceOnUse"
       id="clipPath506"><path
         d="m 0,0 13333,0 0,10000 L 0,10000 0,0 z"
         clip-rule="evenodd"
         id="path508" /></clipPath><clipPath
       clipPathUnits="userSpaceOnUse"
       id="clipPath512"><path
         d="m 866.645,4199.895 866.645,0 0,499.9875 -866.645,0 0,-499.9875 z"
         clip-rule="evenodd"
         id="path514" /></clipPath><clipPath
       clipPathUnits="userSpaceOnUse"
       id="clipPath532"><path
         d="m 0,0 13333,0 0,10000 L 0,10000 0,0 z"
         clip-rule="evenodd"
         id="path534" /></clipPath><clipPath
       clipPathUnits="userSpaceOnUse"
       id="clipPath550"><path
         d="m 0,0 13333,0 0,10000 L 0,10000 0,0 z"
         clip-rule="evenodd"
         id="path552" /></clipPath><clipPath
       clipPathUnits="userSpaceOnUse"
       id="clipPath556"><path
         d="m 949.97625,2183.2788 699.98255,0 0,499.9874 -699.98255,0 0,-499.9874 z"
         clip-rule="evenodd"
         id="path558" /></clipPath><clipPath
       clipPathUnits="userSpaceOnUse"
       id="clipPath576"><path
         d="m 0,0 13333,0 0,10000 L 0,10000 0,0 z"
         clip-rule="evenodd"
         id="path578" /></clipPath><clipPath
       clipPathUnits="userSpaceOnUse"
       id="clipPath594"><path
         d="m 0,0 13333,0 0,10000 L 0,10000 0,0 z"
         clip-rule="evenodd"
         id="path596" /></clipPath><clipPath
       clipPathUnits="userSpaceOnUse"
       id="clipPath600"><path
         d="m 1033.3075,166.6625 533.32,0 0,499.9875 -533.32,0 0,-499.9875 z"
         clip-rule="evenodd"
         id="path602" /></clipPath><clipPath
       clipPathUnits="userSpaceOnUse"
       id="clipPath620"><path
         d="m 0,0 13333,0 0,10000 L 0,10000 0,0 z"
         clip-rule="evenodd"
         id="path622" /></clipPath><clipPath
       clipPathUnits="userSpaceOnUse"
       id="clipPath640"><path
         d="m 0,0 13333,0 0,10000 L 0,10000 0,0 z"
         clip-rule="evenodd"
         id="path642" /></clipPath><clipPath
       clipPathUnits="userSpaceOnUse"
       id="clipPath646"><path
         d="m 1899.9525,408.32312 11016.3915,0 8.333,8.33313 0,8066.46505 -8.333,8.3331 -11016.3915,0 -8.3331,-8.3331 0,-8066.46505 8.3331,-8.33313 z m 8.3331,8.33313 0,8066.46505 -8.3331,0 0,-8.3332 11016.3915,0 0,8.3332 -8.333,0 0,-8066.46505 8.333,0 0,8.33312 -11016.3915,0 0,-8.33312 8.3331,0 z m -8.3331,0 11016.3915,0 0,8066.46505 -11016.3915,0 0,-8066.46505 z"
         id="path648" /></clipPath><clipPath
       clipPathUnits="userSpaceOnUse"
       id="clipPath668"><path
         d="m 0,0 13333,0 0,10000 L 0,10000 0,0 z"
         clip-rule="evenodd"
         id="path670" /></clipPath><clipPath
       clipPathUnits="userSpaceOnUse"
       id="clipPath702"><path
         d="m 0,0 13333,0 0,10000 L 0,10000 0,0 z"
         clip-rule="evenodd"
         id="path704" /></clipPath><clipPath
       clipPathUnits="userSpaceOnUse"
       id="clipPath708"><path
         d="m 8983.1088,499.9875 2599.9352,0 0,499.9875 -2599.9352,0 0,-499.9875 z"
         clip-rule="evenodd"
         id="path710" /></clipPath><clipPath
       clipPathUnits="userSpaceOnUse"
       id="clipPath728"><path
         d="m 0,0 13333,0 0,10000 L 0,10000 0,0 z"
         clip-rule="evenodd"
         id="path730" /></clipPath><clipPath
       clipPathUnits="userSpaceOnUse"
       id="clipPath750"><path
         d="m 0,0 13333,0 0,10000 L 0,10000 0,0 z"
         clip-rule="evenodd"
         id="path752" /></clipPath><clipPath
       clipPathUnits="userSpaceOnUse"
       id="clipPath756"><path
         d="m 9383.0988,1033.3075 2199.9452,0 0,499.9875 -2199.9452,0 0,-499.9875 z"
         clip-rule="evenodd"
         id="path758" /></clipPath><clipPath
       clipPathUnits="userSpaceOnUse"
       id="clipPath776"><path
         d="m 0,0 13333,0 0,10000 L 0,10000 0,0 z"
         clip-rule="evenodd"
         id="path778" /></clipPath></defs><sodipodi:namedview
     pagecolor="#ffffff"
     bordercolor="#666666"
     borderopacity="1"
     objecttolerance="10"
     gridtolerance="10"
     guidetolerance="10"
     inkscape:pageopacity="0"
     inkscape:pageshadow="2"
     inkscape:window-width="640"
     inkscape:window-height="480"
     id="namedview4"
     showgrid="false"
     inkscape:zoom="0.31466667"
     inkscape:cx="500"
     inkscape:cy="375"
     inkscape:window-x="154"
     inkscape:window-y="66"
     inkscape:window-maximized="0"
     inkscape:current-layer="g10" /><g
     id="g10"
     inkscape:groupmode="layer"
     inkscape:label="anderson-withwithoutacceleration"
     transform="matrix(1.25,0,0,-1.25,0,750)"><g
       id="g12"
       transform="matrix(0.06,0,0,-0.06,0,600)"><g
         id="g14"><g
           id="g16" /></g><g
         id="g18"><g
           id="g20" /></g><g
         id="g22"><g
           id="g24"
           clip-path="url(#clipPath26)"><g
             id="g30" /><g
             id="g32"><g
               id="g34"
               transform="scale(16.66625,16.66625)"><path
                 d="M 0,0 800,0 800,600 0,600 0,0 z"
                 style="fill:#ffffff;fill-opacity:1;fill-rule:nonzero;stroke:none"
                 id="path36" /></g></g><g
             id="g38"
             transform="scale(16.66625,16.66625)" /><g
             id="g40"
             transform="matrix(16.66625,0,0,16.66625,6116.5137,9224.7694)" /><g
             id="g42"
             transform="matrix(16.66625,0,0,16.66625,6116.5137,9224.7694)" /></g></g><g
         id="g44"><g
           id="g46"
           clip-path="url(#clipPath48)"><g
             id="g52"
             clip-path="url(#clipPath54)"><g
               id="g58"
               transform="matrix(16.66625,0,0,16.66625,6116.5137,9224.7694)"><g
                 id="g60"><text
                   transform="translate(4,21)"
                   id="text62"><tspan
                     style="fill:#313739;fill-opacity:1;fill-rule:nonzero;stroke:none;font-family:Cantarell;font-variant:normal;font-weight:normal;font-size:16;writing-mode:lr;-inkscape-font-specification:Cantarell-Regular"
                     x="0 12 21 34 43 51 57 61 70 76 80 84 90 98 104 112 118 122 131 140"
                     y="0"
                     sodipodi:role="line"
                     id="tspan64">Number	of	iterations</tspan></text>
</g></g></g></g></g><g
         id="g66"><g
           id="g68"
           transform="matrix(16.66625,0,0,16.66625,6116.5137,9224.7694)" /></g><g
         id="g70"><g
           id="g72"
           clip-path="url(#clipPath74)"><g
             id="g78" /><g
             id="g80"
             transform="matrix(16.66625,0,0,16.66625,6116.5137,9224.7694)" /><g
             id="g82"
             transform="matrix(16.66625,0,0,16.66625,6116.5137,9224.7694)" /><g
             id="g84"
             transform="matrix(0,-16.66625,16.66625,0,274.99312,4908.2106)" /><g
             id="g86"
             transform="matrix(0,-16.66625,16.66625,0,274.99312,4908.2106)" /></g></g><g
         id="g88"><g
           id="g90"
           clip-path="url(#clipPath92)"><g
             id="g96"
             clip-path="url(#clipPath98)"><g
               id="g102"
               transform="matrix(0,-16.66625,16.66625,0,274.99312,4908.2106)"><g
                 id="g104"><text
                   transform="translate(4,21)"
                   id="text106"><tspan
                     style="fill:#313739;fill-opacity:1;fill-rule:nonzero;stroke:none;font-family:Cantarell;font-variant:normal;font-weight:normal;font-size:16;writing-mode:lr;-inkscape-font-specification:Cantarell-Regular"
                     x="0 10 18 25 29 38"
                     y="0"
                     sodipodi:role="line"
                     id="tspan108">Residu</tspan></text>
</g></g></g></g></g><g
         id="g110"><g
           id="g112"
           transform="matrix(0,-16.66625,16.66625,0,274.99312,4908.2106)" /></g><g
         id="g114"><g
           id="g116"
           clip-path="url(#clipPath118)"><g
             id="g122" /><g
             id="g124"
             transform="matrix(0,-16.66625,16.66625,0,274.99312,4908.2106)" /><g
             id="g126"
             transform="matrix(0,-16.66625,16.66625,0,274.99312,4908.2106)" /><g
             id="g128"
             transform="matrix(16.66625,0,0,16.66625,1749.9562,8641.4506)" /><g
             id="g130"
             transform="matrix(16.66625,0,0,16.66625,1749.9562,8641.4506)" /></g></g><g
         id="g132"><g
           id="g134"
           clip-path="url(#clipPath136)"><g
             id="g140"
             clip-path="url(#clipPath142)"><g
               id="g146"
               transform="matrix(16.66625,0,0,16.66625,1749.9562,8641.4506)"><g
                 id="g148"><text
                   transform="translate(4,21)"
                   id="text150"><tspan
                     style="fill:#313739;fill-opacity:1;fill-rule:nonzero;stroke:none;font-family:Cantarell;font-variant:normal;font-weight:normal;font-size:16;writing-mode:lr;-inkscape-font-specification:Cantarell-Regular"
                     x="0"
                     y="0"
                     id="tspan152">0</tspan></text>
</g></g></g></g></g><g
         id="g154"><g
           id="g156"
           transform="matrix(16.66625,0,0,16.66625,1749.9562,8641.4506)" /></g><g
         id="g158"><g
           id="g160"
           clip-path="url(#clipPath162)"><g
             id="g166" /><g
             id="g168"
             transform="matrix(16.66625,0,0,16.66625,1749.9562,8641.4506)" /><g
             id="g170"
             transform="matrix(16.66625,0,0,16.66625,1749.9562,8641.4506)" /><g
             id="g172"
             transform="matrix(16.66625,0,0,16.66625,3703.2407,8641.4506)" /><g
             id="g174"
             transform="matrix(16.66625,0,0,16.66625,3703.2407,8641.4506)" /></g></g><g
         id="g176"><g
           id="g178"
           clip-path="url(#clipPath180)"><g
             id="g184"
             clip-path="url(#clipPath186)"><g
               id="g190"
               transform="matrix(16.66625,0,0,16.66625,3703.2407,8641.4506)"><g
                 id="g192"><text
                   transform="translate(4,21)"
                   id="text194"><tspan
                     style="fill:#313739;fill-opacity:1;fill-rule:nonzero;stroke:none;font-family:Cantarell;font-variant:normal;font-weight:normal;font-size:16;writing-mode:lr;-inkscape-font-specification:Cantarell-Regular"
                     x="0 10 20 30"
                     y="0"
                     sodipodi:role="line"
                     id="tspan196">2000</tspan></text>
</g></g></g></g></g><g
         id="g198"><g
           id="g200"
           transform="matrix(16.66625,0,0,16.66625,3703.2407,8641.4506)" /></g><g
         id="g202"><g
           id="g204"
           clip-path="url(#clipPath206)"><g
             id="g210" /><g
             id="g212"
             transform="matrix(16.66625,0,0,16.66625,3703.2407,8641.4506)" /><g
             id="g214"
             transform="matrix(16.66625,0,0,16.66625,3703.2407,8641.4506)" /><g
             id="g216"
             transform="matrix(16.66625,0,0,16.66625,5906.519,8641.4506)" /><g
             id="g218"
             transform="matrix(16.66625,0,0,16.66625,5906.519,8641.4506)" /></g></g><g
         id="g220"><g
           id="g222"
           clip-path="url(#clipPath224)"><g
             id="g228"
             clip-path="url(#clipPath230)"><g
               id="g234"
               transform="matrix(16.66625,0,0,16.66625,5906.519,8641.4506)"><g
                 id="g236"><text
                   transform="translate(4,21)"
                   id="text238"><tspan
                     style="fill:#313739;fill-opacity:1;fill-rule:nonzero;stroke:none;font-family:Cantarell;font-variant:normal;font-weight:normal;font-size:16;writing-mode:lr;-inkscape-font-specification:Cantarell-Regular"
                     x="0 10 20 30"
                     y="0"
                     sodipodi:role="line"
                     id="tspan240">4000</tspan></text>
</g></g></g></g></g><g
         id="g242"><g
           id="g244"
           transform="matrix(16.66625,0,0,16.66625,5906.519,8641.4506)" /></g><g
         id="g246"><g
           id="g248"
           clip-path="url(#clipPath250)"><g
             id="g254" /><g
             id="g256"
             transform="matrix(16.66625,0,0,16.66625,5906.519,8641.4506)" /><g
             id="g258"
             transform="matrix(16.66625,0,0,16.66625,5906.519,8641.4506)" /><g
             id="g260"
             transform="matrix(16.66625,0,0,16.66625,8109.7972,8641.4506)" /><g
             id="g262"
             transform="matrix(16.66625,0,0,16.66625,8109.7972,8641.4506)" /></g></g><g
         id="g264"><g
           id="g266"
           clip-path="url(#clipPath268)"><g
             id="g272"
             clip-path="url(#clipPath274)"><g
               id="g278"
               transform="matrix(16.66625,0,0,16.66625,8109.7972,8641.4506)"><g
                 id="g280"><text
                   transform="translate(4,21)"
                   id="text282"><tspan
                     style="fill:#313739;fill-opacity:1;fill-rule:nonzero;stroke:none;font-family:Cantarell;font-variant:normal;font-weight:normal;font-size:16;writing-mode:lr;-inkscape-font-specification:Cantarell-Regular"
                     x="0 10 20 30"
                     y="0"
                     sodipodi:role="line"
                     id="tspan284">6000</tspan></text>
</g></g></g></g></g><g
         id="g286"><g
           id="g288"
           transform="matrix(16.66625,0,0,16.66625,8109.7972,8641.4506)" /></g><g
         id="g290"><g
           id="g292"
           clip-path="url(#clipPath294)"><g
             id="g298" /><g
             id="g300"
             transform="matrix(16.66625,0,0,16.66625,8109.7972,8641.4506)" /><g
             id="g302"
             transform="matrix(16.66625,0,0,16.66625,8109.7972,8641.4506)" /><g
             id="g304"
             transform="matrix(16.66625,0,0,16.66625,10313.075,8641.4506)" /><g
             id="g306"
             transform="matrix(16.66625,0,0,16.66625,10313.075,8641.4506)" /></g></g><g
         id="g308"><g
           id="g310"
           clip-path="url(#clipPath312)"><g
             id="g316"
             clip-path="url(#clipPath318)"><g
               id="g322"
               transform="matrix(16.66625,0,0,16.66625,10313.075,8641.4506)"><g
                 id="g324"><text
                   transform="translate(4,21)"
                   id="text326"><tspan
                     style="fill:#313739;fill-opacity:1;fill-rule:nonzero;stroke:none;font-family:Cantarell;font-variant:normal;font-weight:normal;font-size:16;writing-mode:lr;-inkscape-font-specification:Cantarell-Regular"
                     x="0 10 20 30"
                     y="0"
                     sodipodi:role="line"
                     id="tspan328">8000</tspan></text>
</g></g></g></g></g><g
         id="g330"><g
           id="g332"
           transform="matrix(16.66625,0,0,16.66625,10313.075,8641.4506)" /></g><g
         id="g334"><g
           id="g336"
           clip-path="url(#clipPath338)"><g
             id="g342" /><g
             id="g344"
             transform="matrix(16.66625,0,0,16.66625,10313.075,8641.4506)" /><g
             id="g346"
             transform="matrix(16.66625,0,0,16.66625,10313.075,8641.4506)" /><g
             id="g348"
             transform="matrix(16.66625,0,0,16.66625,12624.684,8641.4506)" /><g
             id="g350"
             transform="matrix(16.66625,0,0,16.66625,12624.684,8641.4506)" /></g></g><g
         id="g352"><g
           id="g354"
           clip-path="url(#clipPath356)"><g
             id="g360"
             clip-path="url(#clipPath362)"><g
               id="g366"
               transform="matrix(16.66625,0,0,16.66625,12624.684,8641.4506)"><g
                 id="g368"><text
                   transform="translate(4,21)"
                   id="text370"><tspan
                     style="fill:#313739;fill-opacity:1;fill-rule:nonzero;stroke:none;font-family:Cantarell;font-variant:normal;font-weight:normal;font-size:16;writing-mode:lr;-inkscape-font-specification:Cantarell-Regular"
                     x="0 10"
                     y="0"
                     sodipodi:role="line"
                     id="tspan372">10</tspan></text>
</g><g
                 id="g374"><text
                   transform="translate(24,13)"
                   id="text376"><tspan
                     style="fill:#313739;fill-opacity:1;fill-rule:nonzero;stroke:none;font-family:Cantarell;font-variant:normal;font-weight:normal;font-size:11;writing-mode:lr;-inkscape-font-specification:Cantarell-Regular"
                     x="0"
                     y="0"
                     id="tspan378">4</tspan></text>
</g></g></g></g></g><g
         id="g380"><g
           id="g382"
           transform="matrix(16.66625,0,0,16.66625,12624.684,8641.4506)" /></g><g
         id="g384"><g
           id="g386"
           clip-path="url(#clipPath388)"><g
             id="g392" /><g
             id="g394"
             transform="matrix(16.66625,0,0,16.66625,12624.684,8641.4506)" /><g
             id="g396"
             transform="matrix(16.66625,0,0,16.66625,12624.684,8641.4506)" /><g
             id="g398"
             transform="matrix(16.66625,0,0,16.66625,974.97562,8233.1275)" /><g
             id="g400"
             transform="matrix(16.66625,0,0,16.66625,974.97562,8233.1275)" /></g></g><g
         id="g402"><g
           id="g404"
           clip-path="url(#clipPath406)"><g
             id="g410"
             clip-path="url(#clipPath412)"><g
               id="g416"
               transform="matrix(16.66625,0,0,16.66625,974.97562,8233.1275)"><g
                 id="g418"><text
                   transform="translate(4,21)"
                   id="text420"><tspan
                     style="fill:#313739;fill-opacity:1;fill-rule:nonzero;stroke:none;font-family:Cantarell;font-variant:normal;font-weight:normal;font-size:16;writing-mode:lr;-inkscape-font-specification:Cantarell-Regular"
                     x="0 10"
                     y="0"
                     sodipodi:role="line"
                     id="tspan422">10</tspan></text>
</g><g
                 id="g424"><text
                   transform="translate(24,13)"
                   id="text426"><tspan
                     style="fill:#313739;fill-opacity:1;fill-rule:nonzero;stroke:none;font-family:Cantarell;font-variant:normal;font-weight:normal;font-size:11;writing-mode:lr;-inkscape-font-specification:Cantarell-Regular"
                     x="0 4"
                     y="0"
                     sodipodi:role="line"
                     id="tspan428">-5</tspan></text>
</g></g></g></g></g><g
         id="g430"><g
           id="g432"
           transform="matrix(16.66625,0,0,16.66625,974.97562,8233.1275)" /></g><g
         id="g434"><g
           id="g436"
           clip-path="url(#clipPath438)"><g
             id="g442" /><g
             id="g444"
             transform="matrix(16.66625,0,0,16.66625,974.97562,8233.1275)" /><g
             id="g446"
             transform="matrix(16.66625,0,0,16.66625,974.97562,8233.1275)" /><g
             id="g448"
             transform="matrix(16.66625,0,0,16.66625,974.97562,6216.5113)" /><g
             id="g450"
             transform="matrix(16.66625,0,0,16.66625,974.97562,6216.5113)" /></g></g><g
         id="g452"><g
           id="g454"
           clip-path="url(#clipPath456)"><g
             id="g460"
             clip-path="url(#clipPath462)"><g
               id="g466"
               transform="matrix(16.66625,0,0,16.66625,974.97562,6216.5113)"><g
                 id="g468"><text
                   transform="translate(4,21)"
                   id="text470"><tspan
                     style="fill:#313739;fill-opacity:1;fill-rule:nonzero;stroke:none;font-family:Cantarell;font-variant:normal;font-weight:normal;font-size:16;writing-mode:lr;-inkscape-font-specification:Cantarell-Regular"
                     x="0 10"
                     y="0"
                     sodipodi:role="line"
                     id="tspan472">10</tspan></text>
</g><g
                 id="g474"><text
                   transform="translate(24,13)"
                   id="text476"><tspan
                     style="fill:#313739;fill-opacity:1;fill-rule:nonzero;stroke:none;font-family:Cantarell;font-variant:normal;font-weight:normal;font-size:11;writing-mode:lr;-inkscape-font-specification:Cantarell-Regular"
                     x="0 4"
                     y="0"
                     sodipodi:role="line"
                     id="tspan478">-4</tspan></text>
</g></g></g></g></g><g
         id="g480"><g
           id="g482"
           transform="matrix(16.66625,0,0,16.66625,974.97562,6216.5113)" /></g><g
         id="g484"><g
           id="g486"
           clip-path="url(#clipPath488)"><g
             id="g492" /><g
             id="g494"
             transform="matrix(16.66625,0,0,16.66625,974.97562,6216.5113)" /><g
             id="g496"
             transform="matrix(16.66625,0,0,16.66625,974.97562,6216.5113)" /><g
             id="g498"
             transform="matrix(16.66625,0,0,16.66625,866.645,4199.895)" /><g
             id="g500"
             transform="matrix(16.66625,0,0,16.66625,866.645,4199.895)" /></g></g><g
         id="g502"><g
           id="g504"
           clip-path="url(#clipPath506)"><g
             id="g510"
             clip-path="url(#clipPath512)"><g
               id="g516"
               transform="matrix(16.66625,0,0,16.66625,866.645,4199.895)"><g
                 id="g518"><text
                   transform="translate(4,21)"
                   id="text520"><tspan
                     style="fill:#313739;fill-opacity:1;fill-rule:nonzero;stroke:none;font-family:Cantarell;font-variant:normal;font-weight:normal;font-size:16;writing-mode:lr;-inkscape-font-specification:Cantarell-Regular"
                     x="0 10 14 24 34"
                     y="0"
                     sodipodi:role="line"
                     id="tspan522">0.001</tspan></text>
</g></g></g></g></g><g
         id="g524"><g
           id="g526"
           transform="matrix(16.66625,0,0,16.66625,866.645,4199.895)" /></g><g
         id="g528"><g
           id="g530"
           clip-path="url(#clipPath532)"><g
             id="g536" /><g
             id="g538"
             transform="matrix(16.66625,0,0,16.66625,866.645,4199.895)" /><g
             id="g540"
             transform="matrix(16.66625,0,0,16.66625,866.645,4199.895)" /><g
             id="g542"
             transform="matrix(16.66625,0,0,16.66625,949.97625,2183.2788)" /><g
             id="g544"
             transform="matrix(16.66625,0,0,16.66625,949.97625,2183.2788)" /></g></g><g
         id="g546"><g
           id="g548"
           clip-path="url(#clipPath550)"><g
             id="g554"
             clip-path="url(#clipPath556)"><g
               id="g560"
               transform="matrix(16.66625,0,0,16.66625,949.97625,2183.2788)"><g
                 id="g562"><text
                   transform="translate(4,21)"
                   id="text564"><tspan
                     style="fill:#313739;fill-opacity:1;fill-rule:nonzero;stroke:none;font-family:Cantarell;font-variant:normal;font-weight:normal;font-size:16;writing-mode:lr;-inkscape-font-specification:Cantarell-Regular"
                     x="0 10 14 24"
                     y="0"
                     sodipodi:role="line"
                     id="tspan566">0.01</tspan></text>
</g></g></g></g></g><g
         id="g568"><g
           id="g570"
           transform="matrix(16.66625,0,0,16.66625,949.97625,2183.2788)" /></g><g
         id="g572"><g
           id="g574"
           clip-path="url(#clipPath576)"><g
             id="g580" /><g
             id="g582"
             transform="matrix(16.66625,0,0,16.66625,949.97625,2183.2788)" /><g
             id="g584"
             transform="matrix(16.66625,0,0,16.66625,949.97625,2183.2788)" /><g
             id="g586"
             transform="matrix(16.66625,0,0,16.66625,1033.3075,166.6625)" /><g
             id="g588"
             transform="matrix(16.66625,0,0,16.66625,1033.3075,166.6625)" /></g></g><g
         id="g590"><g
           id="g592"
           clip-path="url(#clipPath594)"><g
             id="g598"
             clip-path="url(#clipPath600)"><g
               id="g604"
               transform="matrix(16.66625,0,0,16.66625,1033.3075,166.6625)"><g
                 id="g606"><text
                   transform="translate(4,21)"
                   id="text608"><tspan
                     style="fill:#313739;fill-opacity:1;fill-rule:nonzero;stroke:none;font-family:Cantarell;font-variant:normal;font-weight:normal;font-size:16;writing-mode:lr;-inkscape-font-specification:Cantarell-Regular"
                     x="0 10 14"
                     y="0"
                     sodipodi:role="line"
                     id="tspan610">0.1</tspan></text>
</g></g></g></g></g><g
         id="g612"><g
           id="g614"
           transform="matrix(16.66625,0,0,16.66625,1033.3075,166.6625)" /></g><g
         id="g616"><g
           id="g618"
           clip-path="url(#clipPath620)"><g
             id="g624" /><g
             id="g626"
             transform="matrix(16.66625,0,0,16.66625,1033.3075,166.6625)" /><g
             id="g628"
             transform="matrix(16.66625,0,0,16.66625,1033.3075,166.6625)" /><g
             id="g630"
             transform="scale(16.66625,16.66625)" /><g
             id="g632" /><g
             id="g634"
             transform="scale(16.66625,16.66625)" /></g></g><g
         id="g636"><g
           id="g638"
           clip-path="url(#clipPath640)"><g
             id="g644"
             clip-path="url(#clipPath646)"><g
               id="g650"
               transform="scale(16.66625,16.66625)" /><g
               id="g652"
               transform="scale(16.66625,16.66625)"><path
                 d="m 114,57.366733 0.0661,21.167618 0.0661,18.681835 0.0661,15.420984 0.0661,11.97177 0.0661,9.04641 0.0661,6.9506 0.0661,5.56775 0.0661,4.66001 0.0661,4.03529 0.0661,3.57469 0.0661,3.21336 0.0661,2.9182 0.0661,2.66772 0.0661,2.45533 0.0661,2.26904 0.0661,2.10898 0.0661,1.96676 0.0661,1.8433 0.0661,1.73367 0.0661,1.63532 0.0661,1.54793 0.0661,1.46957 0.0661,1.39882 0.0661,1.33491 0.0661,1.27563 0.0661,1.22312 0.0661,1.17351 0.0661,1.12739 0.0661,1.08665 0.0661,1.04806 0.0661,1.01067 0.1322,1.9236 0.1322,1.80304 0.1322,1.69971 0.1322,1.60382 0.1322,1.52073 0.1322,1.44329 0.1322,1.37465 0.1322,1.31129 0.1322,1.25435 0.1322,1.19956 0.1322,1.15296 0.1322,1.10635 0.1322,1.06567 0.1322,1.02583 0.1983,1.47386 0.1983,1.39786 0.1983,1.33337 0.1983,1.27362 0.1983,1.21737 0.1983,1.16538 0.1983,1.12068 0.1983,1.07718 0.1983,1.03762 0.1983,1.00011 0.2644,1.27813 0.2644,1.22316 0.2644,1.17398 0.2644,1.12345 0.2644,1.07993 0.2644,1.04149 0.2644,1.00311 0.2644,0.96498 0.3305,1.16241 0.3305,1.11644 0.3305,1.07 0.3305,1.03269 0.3305,0.99273 0.3305,0.95656 0.3966,1.1069 0.3966,1.05954 0.3966,1.02261 0.3966,0.98305 0.3966,0.94801 0.4627,1.06406 0.4627,1.02264 0.4627,0.98592 0.4627,0.94673 0.4627,0.91684 0.5288,1.00931 0.5288,0.97182 0.5288,0.93601 0.5288,0.90218 0.5288,0.87489 0.5949,0.95101 0.5949,0.91501 0.5949,0.88585 0.5949,0.85493 0.5949,0.8316 0.661,0.89257 0.661,0.8644 0.661,0.83457 0.661,0.81305 0.661,0.79031 0.661,0.76634 0.7271,0.81425 0.7271,0.79735 0.7271,0.773 0.7271,0.7523 0.7271,0.73275 0.7271,0.7139 0.7271,0.69698 0.7932,0.74155 0.7932,0.72231 0.7932,0.70568 0.7932,0.68824 0.7932,0.67303 0.7932,0.65772 0.7932,0.6436 0.7932,0.6301 0.7932,0.61731 0.8593,0.65438 0.8593,0.64103 0.8593,0.62774 0.8593,0.61453 0.8593,0.60282 0.8593,0.59197 0.8593,0.58 0.8593,0.56964 0.8593,0.55887 0.8593,0.54985 0.8593,0.53974 0.8593,0.53146 0.8593,0.52213 0.8593,0.5132 0.9254,0.54386 0.9254,0.5351 0.9254,0.526 0.9254,0.51734 0.9254,0.50839 0.9254,0.50148 0.9254,0.49354 0.9254,0.48532 0.9254,0.47846 0.9254,0.47219 0.9254,0.46405 0.9254,0.45816 0.9254,0.45208 0.9254,0.44496 0.9254,0.43933 0.9254,0.43354 0.9254,0.42756 0.9254,0.42229 0.9254,0.41598 0.9254,0.41127 0.9254,0.40643 0.9254,0.40054 0.9254,0.39631 0.9254,0.39106 0.9254,0.38657 0.9254,0.38198 0.9915,0.40451 0.9915,0.39912 0.9915,0.39359 0.9915,0.38983 0.9915,0.385 0.9915,0.38003 0.9915,0.37592 0.9915,0.37171 0.9915,0.36737 0.9915,0.36294 0.9915,0.35941 0.9915,0.35476 0.9915,0.35102 0.9915,0.34823 0.9915,0.3433 0.9915,0.34033 0.9915,0.33624 0.9915,0.33312 0.9915,0.32886 0.9915,0.32665 0.9915,0.32331 0.9915,0.3188 0.9915,0.31747 0.9915,0.31282 0.9915,0.31029 0.9915,0.30768 0.9915,0.30391 0.9915,0.30232 0.9915,0.29841 0.9915,0.29558 0.9915,0.29382 0.9915,0.29088 0.9915,0.28788 0.9915,0.28483 0.9915,0.28287 0.9915,0.28088 0.9915,0.27767 0.9915,0.2756 0.9915,0.27227 0.9915,0.2713 0.9915,0.26909 0.9915,0.26563 0.9915,0.26455 0.9915,0.261 0.9915,0.25985 0.9915,0.25866 0.9915,0.25498 0.9915,0.25374 0.9915,0.2512 0.9915,0.24989 0.9915,0.2473 0.9915,0.24592 0.9915,0.24324 0.9915,0.2431 0.9915,0.23907 0.9915,0.23887 0.9915,0.23607 0.9915,0.23582 0.9915,0.23295 0.9915,0.23135 0.9915,0.22973 0.9915,0.22808 0.9915,0.2264 0.9915,0.2247 0.9915,0.22298 0.9915,0.22122 0.9915,0.2208 0.9915,0.21764 0.9915,0.21718 0.9915,0.21671 0.9915,0.21346 0.9915,0.21295 0.9915,0.21103 0.9915,0.21048 0.9915,0.20853 0.9915,0.20655 0.9915,0.20594 0.9915,0.20392 0.9915,0.20328 0.9915,0.20265 0.9915,0.20056 0.9915,0.19989 0.9915,0.19776 0.9915,0.19705 0.9915,0.19488 0.9915,0.19415 0.9915,0.19339 0.9915,0.19264 0.9915,0.19039 0.9915,0.1896 0.9915,0.18879 0.9915,0.18799 0.9915,0.18715 0.9915,0.18482 0.9915,0.18395 0.9915,0.18309 0.9915,0.18221 0.9915,0.18131 0.9915,0.18041 0.9915,0.17949 0.9915,0.17703 0.9915,0.17762 0.9915,0.17512 0.9915,0.17571 0.9915,0.17474 0.9915,0.17218 0.9915,0.17275 0.9915,0.17173 0.9915,0.17072 0.9915,0.1681 0.9915,0.16864 0.9915,0.16758 0.9915,0.16812 0.9915,0.16544 0.9915,0.16435 0.9915,0.16486 0.9915,0.16376 0.9915,0.16264 0.9915,0.16151 0.9915,0.16038 0.9915,0.15922 0.9915,0.1597 0.9915,0.15853 0.9915,0.15736 0.9915,0.15783 0.9915,0.15497 0.9915,0.15542 0.9915,0.15421 0.9915,0.15466 0.9915,0.15343 0.9915,0.15219 0.9915,0.15093 0.9915,0.15136 0.9915,0.15009 0.9915,0.14881 0.9915,0.14924 0.9915,0.14793 0.9915,0.14835 0.9915,0.14531 0.9915,0.14745 0.9915,0.14438 0.9915,0.14478 0.9915,0.14342 0.9915,0.14382 0.9915,0.14245 0.9915,0.14284 0.9915,0.14146 0.9915,0.14006 0.9915,0.14044 0.9915,0.13903 0.9915,0.1394 0.9915,0.13797 0.9915,0.13834 0.9915,0.1369 0.9915,0.13726 0.9915,0.1358 0.9915,0.13434 0.9915,0.13468 0.9915,0.13503 0.9915,0.13354 0.9915,0.13389 0.9915,0.13238 0.9915,0.13088 0.9915,0.1312 0.9915,0.13153 1.0576,0.1393 1.0576,0.1378 1.0576,0.13817 1.0576,0.13665 1.0576,0.13701 1.0576,0.13549 1.0576,0.13583 1.0576,0.1343 1.0576,0.13464 1.0576,0.13308 1.0576,0.13342 1.0576,0.13375 1.0576,0.13218 1.0576,0.1306 1.0576,0.13091 1.0576,0.13125 1.0576,0.12963 1.0576,0.12802 1.0576,0.13027 1.0576,0.12669 1.0576,0.12896 1.0576,0.12731 1.0576,0.12566 1.0576,0.12595 1.0576,0.12627 1.0576,0.12656 1.0576,0.1229 1.0576,0.12518 1.0576,0.12348 1.0576,0.12377 1.0576,0.12206 1.0576,0.12235 1.0576,0.12263 1.0576,0.1209 1.0576,0.12118 1.0576,0.11943 1.0576,0.11971 1.0576,0.11998 1.0576,0.12025 1.0576,0.11849 1.0576,0.1167 1.0576,0.11901 1.0576,0.11723 1.0576,0.11543 1.0576,0.11774 1.0576,0.11594 1.0576,0.1162 1.0576,0.11437 1.0576,0.11462 1.0576,0.11487 1.0576,0.11303 1.0576,0.11327 1.0576,0.11352 1.0576,0.11165 1.0576,0.11401 1.0576,0.11213 1.0576,0.11025 1.0576,0.11049 1.0576,0.11071 1.0576,0.11095 1.0576,0.10905 1.0576,0.11141 1.0576,0.10736 1.0576,0.10972 1.0576,0.1078 1.0576,0.10802 1.0576,0.10825 1.0576,0.10629 1.0576,0.10869 1.0576,0.10455 1.0576,0.10694 1.0576,0.10716 1.0576,0.10519 1.0576,0.1054 1.0576,0.1034 1.0576,0.10582 1.0576,0.10382 1.0576,0.10403 1.0576,0.10201 1.0576,0.10444 1.0576,0.10241 1.0576,0.10261 1.0576,0.10058 1.0576,0.10301 1.0576,0.10097 1.0576,0.10116 1.0576,0.0991 1.0576,0.10155 1.0576,0.0995 1.0576,0.0997 1.0576,0.0999 1.0576,0.10006 1.0576,0.098 1.0576,0.0981 1.0576,0.0983 1.0576,0.0985 1.0576,0.0964 1.0576,0.0989 1.0576,0.0968 1.0576,0.0969 1.0576,0.0948 1.0576,0.0973 1.0576,0.0951 1.0576,0.0953 1.0576,0.0955 1.0576,0.0957 1.0576,0.0935 1.0576,0.096 1.0576,0.0939 1.0576,0.094 1.0576,0.0918 1.0576,0.0943 1.0576,0.0922 1.0576,0.0923 1.0576,0.0925 1.0576,0.0926 1.0576,0.0928 1.0576,0.0906 1.0576,0.0931 1.0576,0.0909 1.0576,0.091 1.0576,0.0888 1.0576,0.0914 1.0576,0.0891 1.0576,0.0893 1.0576,0.0894 1.0576,0.0896 1.0576,0.0897 1.0576,0.0899 1.0576,0.0876 1.0576,0.0877 1.0576,0.0879 1.0576,0.088 1.0576,0.0882 1.0576,0.0859 1.0576,0.0885 1.0576,0.0862 1.0576,0.0863 1.0576,0.0865 1.0576,0.0866 1.0576,0.0842 1.0576,0.0869 1.0576,0.0845 1.0576,0.0847 1.0576,0.0873 1.0576,0.0824 1.0576,0.0851 1.0576,0.0852 1.0576,0.0828 1.0576,0.0855 1.0576,0.0831 1.0576,0.0832 1.0576,0.0834 1.0576,0.081 1.0576,0.0836 1.0576,0.0838 1.0576,0.0814 1.0576,0.0815 1.0576,0.0816 1.0576,0.0817 1.0576,0.0819 1.0576,0.082 1.0576,0.0796 1.0576,0.0822 1.0576,0.0798 1.0576,0.0799 1.0576,0.08 1.0576,0.0802 1.0576,0.0803 1.0576,0.0778 1.0576,0.0805 1.0576,0.078 1.0576,0.0808 1.0576,0.0783 1.0576,0.0784 1.0576,0.0785 1.0576,0.0786 1.0576,0.0761 1.0576,0.0789 1.0576,0.0763 1.0576,0.0791 1.0576,0.0766 1.0576,0.0767 1.0576,0.0768 1.0576,0.0769 1.0576,0.077 1.0576,0.0745 1.0576,0.0772 1.0576,0.0747 1.0576,0.0775 1.0576,0.0749 1.0576,0.075 1.0576,0.0751 1.0576,0.0752 1.0576,0.0753 1.0576,0.0727 1.0576,0.0756 1.0576,0.0729 1.0576,0.0758 1.0576,0.0731 1.0576,0.0733 1.0576,0.0734 1.0576,0.0735 1.0576,0.0736 1.0576,0.0737 1.0576,0.071 1.0576,0.0739 1.0576,0.0712 1.0576,0.0741 1.0576,0.0714 1.0576,0.0715 1.0576,0.0716 1.0576,0.0717 1.0576,0.0718 1.0576,0.0719 1.0576,0.072 1.0576,0.0694 1.0576,0.0722 1.0576,0.0695 1.0576,0.0724 1.0576,0.0697 1.0576,0.0698 1.0576,0.0699 1.0576,0.07 1.0576,0.0701 1.0576,0.0702 1.0576,0.0675 1.0576,0.0704 1.0576,0.0705 1.0576,0.0677 1.0576,0.0678 1.0576,0.0707 1.0576,0.068 1.0576,0.0681 1.0576,0.0682 1.0576,0.0683 1.0576,0.0684 1.0576,0.0684 1.0576,0.0657 1.0576,0.0686 1.0576,0.0687 1.0576,0.0659 1.0576,0.066 1.0576,0.069 1.0576,0.0662 1.0576,0.0663 1.0576,0.0663 1.0576,0.0664 1.0576,0.0665 1.0576,0.0666 1.0576,0.0667 1.0576,0.0639 1.0576,0.0668 1.0576,0.064 1.0576,0.067 1.0576,0.0642 1.0576,0.0643 1.0576,0.0673 1.0576,0.0644 1.0576,0.0645 1.0576,0.0646 1.0576,0.0647 1.0576,0.0647 1.0576,0.0648 1.0576,0.0619 1.0576,0.065 1.0576,0.0651 1.0576,0.0622 1.0576,0.0623 1.0576,0.0653 1.0576,0.0624 1.0576,0.0625 1.0576,0.0655 1.0576,0.0626 1.0576,0.0627 1.0576,0.0628 1.0576,0.0629 1.0576,0.0599 1.0576,0.063 1.0576,0.0631 1.0576,0.0601 1.0576,0.0632 1.0576,0.0633 1.0576,0.0604 1.0576,0.0604 1.0576,0.0635 1.0576,0.0606 1.0576,0.0606 1.0576,0.0607 1.0576,0.0608 1.0576,0.0608 1.0576,0.0609 1.0576,0.061 1.0576,0.0611 1.0576,0.0611 1.0576,0.0581 1.0576,0.0613 1.0576,0.0613 1.0576,0.0583 1.0576,0.0615 1.0576,0.0585 1.0576,0.0585 1.0576,0.0617 1.0576,0.0587 1.0576,0.0587 1.0576,0.0588 1.0576,0.0589 1.0576,0.0589 1.0576,0.059 1.0576,0.0591 1.0576,0.0591 1.0576,0.0592 1.0576,0.0562 1.0576,0.0593 1.0576,0.0594 1.0576,0.0563 1.0576,0.0595 1.0576,0.0565 1.0576,0.0597 1.0576,0.0566 1.0576,0.0566 1.0576,0.0567 1.0576,0.0599 1.0576,0.0568 1.0576,0.0569 1.0576,0.057 1.0576,0.057 1.0576,0.0571 1.0576,0.0572 1.0576,0.054 1.0576,0.0573 1.0576,0.0573 1.0576,0.0574 1.0576,0.0543 1.0576,0.0575 1.0576,0.0544 1.0576,0.0576 1.0576,0.0545 1.0576,0.0546 1.0576,0.0578 1.0576,0.0547 1.0576,0.0547 1.0576,0.0548 1.0576,0.0581 1.0576,0.0549 1.0576,0.0549 1.0576,0.055 1.0576,0.0551 1.0576,0.0519 1.0576,0.0552 1.0576,0.0552 1.0576,0.0553 1.0576,0.0553 1.0576,0.0521 1.0576,0.0555 1.0576,0.0523 1.0576,0.0556 1.0576,0.0524 1.0576,0.0557 1.0576,0.0525 1.0576,0.0558 1.0576,0.0526 1.0576,0.0526 1.0576,0.0527 1.0576,0.0527 1.0576,0.0561 1.0576,0.0528 1.0576,0.0529 1.0576,0.053 1.0576,0.053 1.0576,0.0531 1.0576,0.0498 1.0576,0.0532 1.0576,0.0532 1.0576,0.0533 1.0576,0.05 1.0576,0.0534 1.0576,0.0534 1.0576,0.0501 1.0576,0.0535 1.0576,0.0503 1.0576,0.0536 1.0576,0.0503 1.0576,0.0538 1.0576,0.0504 1.0576,0.0505 1.0576,0.0539 1.0576,0.0506 1.0576,0.0506 1.0576,0.0507 1.0576,0.0507 1.0576,0.0508 1.0576,0.0508 1.0576,0.0509 1.0576,0.0509 1.0576,0.051 1.0576,0.051 1.0576,0.0511 1.0576,0.0511 1.0576,0.0478 1.0576,0.0512 1.0576,0.0513 m 0,0 z"
                 style="fill:none;stroke:#ffb310;stroke-opacity:1;stroke-width:2;stroke-linecap:square;stroke-linejoin:bevel;stroke-miterlimit:10;stroke-dasharray:none"
                 id="path654" /></g><g
               id="g656"
               transform="scale(16.66625,16.66625)"><path
                 d="m 114,57.366733 0.0661,21.167618 0.0661,39.488679 0.0661,11.08588 0.0661,24.28421 0.0661,3.99644 0.0661,21.40503 0.0661,2.15127 0.0661,15.02673 0.0661,1.63693 0.0661,12.5153 0.0661,1.14838 0.0661,7.85848 0.0661,1.02216 0.0661,7.96283 0.1322,7.72455 0.1322,6.98177 0.1322,5.3593 0.1322,5.79196 0.1322,4.19015 0.1322,3.96102 0.1322,3.39786 0.1322,3.49124 0.1322,3.35483 0.1322,3.41697 0.1322,3.26529 0.1322,3.00226 0.1322,3.18199 0.1322,2.72053 0.1322,2.93696 0.1322,2.7554 0.1322,2.27357 0.1322,2.27164 0.1322,2.41015 0.1322,2.19264 0.1322,2.2621 0.1322,1.99095 0.1322,1.87646 0.1322,2.02595 0.1322,1.99747 0.1322,1.63007 0.1322,1.65409 0.1322,1.51287 0.1322,1.41573 0.1322,1.60384 0.1322,1.76156 0.1322,1.79606 0.1322,1.73498 0.1322,1.36436 0.1322,1.35815 0.1322,1.03173 0.1322,1.41328 0.1322,1.40103 0.1322,1.30587 0.1322,1.34494 0.1322,1.38423 0.1322,1.26742 0.1322,1.44645 0.1322,1.28848 0.1322,1.17221 0.1322,1.40258 0.1322,1.1813 0.1322,1.18266 0.1322,1.17151 0.1322,1.21049 0.1322,1.21642 0.1322,1.05016 0.2644,1.71618 0.2644,1.4874 0.1983,1.0507 0.1983,1.9038 0.1983,1.0974 0.0661,1.00375 0.1983,0.99579 0.1983,1.55043 0.2644,1.73075 0.2644,1.66534 0.2644,1.41547 0.2644,1.47239 0.2644,1.51484 0.2644,1.52597 0.2644,1.51355 0.2644,1.35167 0.2644,1.16372 0.2644,1.14858 0.2644,1.22941 0.2644,1.36333 0.2644,1.30129 0.2644,1.35724 0.2644,1.33679 0.2644,1.48763 0.2644,1.29251 0.2644,1.1931 0.2644,1.1275 0.2644,1.06017 0.3305,0.94457 0.1983,1.02659 0.2644,1.12772 0.2644,1.1708 0.2644,1.20628 0.2644,1.06013 0.2644,1.14984 0.2644,1.15679 0.2644,1.08058 0.2644,1.14109 0.2644,1.11909 0.2644,1.20545 0.2644,1.01568 0.3305,1.00167 0.3305,1.16803 0.3966,1.43306 0.2644,1.18913 0.2644,1.05866 0.3966,1.30781 0.3966,1.42708 0.3966,1.26191 0.3966,1.06055 0.3305,0.98029 0.3305,1.20369 0.3305,0.96685 0.2644,0.99701 0.1983,1.07486 0.2644,1.01052 0.2644,0.96749 0.3966,1.26234 0.3966,1.18021 0.3966,1.32949 0.3305,0.9587 0.3305,1.34426 0.3966,1.30949 0.3966,1.24918 0.3966,1.24525 0.3966,1.31675 0.3966,1.1988 0.3966,1.03384 0.3966,1.09597 0.3966,1.24502 m 0,0 z"
                 style="fill:none;stroke:#70bc10;stroke-opacity:1;stroke-width:2;stroke-linecap:square;stroke-linejoin:bevel;stroke-miterlimit:10;stroke-dasharray:none"
                 id="path658" /></g></g></g></g><g
         id="g660"><g
           id="g662"
           transform="scale(16.66625,16.66625)" /></g><g
         id="g664"><g
           id="g666"
           clip-path="url(#clipPath668)"><g
             id="g672" /><g
             id="g674"
             transform="scale(16.66625,16.66625)" /><g
             id="g676"
             transform="scale(16.66625,16.66625)"><path
               d="m 114,25 0,484 m 132.2,-484 0,484 m 132.2,-484 0,484 m 132.2,-484 0,484 m 132.2,-484 0,484 M 775,25 l 0,484"
               style="fill:none;stroke:#4b5755;stroke-opacity:1;stroke-width:1;stroke-linecap:square;stroke-linejoin:bevel;stroke-miterlimit:10;stroke-dasharray:4,8;stroke-dashoffset:0"
               id="path678" /></g><g
             id="g680"
             transform="scale(16.66625,16.66625)"><path
               d="m 114,509 661,0 M 114,388 775,388 M 114,267 775,267 M 114,146 775,146 M 114,25 775,25"
               style="fill:none;stroke:#4b5755;stroke-opacity:1;stroke-width:1;stroke-linecap:square;stroke-linejoin:bevel;stroke-miterlimit:10;stroke-dasharray:4,8;stroke-dashoffset:0"
               id="path682" /></g><g
             id="g684"
             transform="scale(16.66625,16.66625)"><path
               d="m 114,25 0,10 m 0,474 0,-10 m 132.2,-474 0,10 m 0,474 0,-10 m 132.2,-474 0,10 m 0,474 0,-10 m 132.2,-474 0,10 m 0,474 0,-10 m 132.2,-474 0,10 m 0,474 0,-10 M 775,25 l 0,10 m 0,474 0,-10"
               style="fill:none;stroke:#000000;stroke-opacity:1;stroke-width:2;stroke-linecap:square;stroke-linejoin:bevel;stroke-miterlimit:10;stroke-dasharray:none"
               id="path686" /></g><g
             id="g688"
             transform="scale(16.66625,16.66625)"><path
               d="m 114,509 10,0 m 651,0 -10,0 m -651,-121 10,0 m 651,0 -10,0 m -651,-121 10,0 m 651,0 -10,0 m -651,-121 10,0 m 651,0 -10,0 M 114,25 l 10,0 m 651,0 -10,0"
               style="fill:none;stroke:#000000;stroke-opacity:1;stroke-width:2;stroke-linecap:square;stroke-linejoin:bevel;stroke-miterlimit:10;stroke-dasharray:none"
               id="path690" /></g><g
             id="g692"
             transform="matrix(16.66625,0,0,16.66625,12583.019,749.98125)" /><g
             id="g694"
             transform="matrix(16.66625,0,0,16.66625,8983.1088,499.9875)" /><g
             id="g696"
             transform="matrix(16.66625,0,0,16.66625,8983.1088,499.9875)" /></g></g><g
         id="g698"><g
           id="g700"
           clip-path="url(#clipPath702)"><g
             id="g706"
             clip-path="url(#clipPath708)"><g
               id="g712"
               transform="matrix(16.66625,0,0,16.66625,8983.1088,499.9875)"><g
                 id="g714"><text
                   transform="translate(4,21)"
                   id="text716"><tspan
                     style="fill:#313739;fill-opacity:1;fill-rule:nonzero;stroke:none;font-family:Cantarell;font-variant:normal;font-weight:normal;font-size:16;writing-mode:lr;-inkscape-font-specification:Cantarell-Regular"
                     x="0 16 20 26 35 44 53 59 63 71 78 85 93 98 106 112 120 126 130 139"
                     y="0"
                     sodipodi:role="line"
                     id="tspan718">Without	acceleration</tspan></text>
</g></g></g></g></g><g
         id="g720"><g
           id="g722"
           transform="matrix(16.66625,0,0,16.66625,8983.1088,499.9875)" /></g><g
         id="g724"><g
           id="g726"
           clip-path="url(#clipPath728)"><g
             id="g732" /><g
             id="g734"
             transform="matrix(16.66625,0,0,16.66625,8983.1088,499.9875)" /><g
             id="g736"
             transform="matrix(16.66625,0,0,16.66625,8983.1088,499.9875)" /><g
             id="g738"
             transform="matrix(16.66625,0,0,16.66625,12583.019,749.98125)"><path
               d="M 0,0 -40,0"
               style="fill:none;stroke:#ffb310;stroke-opacity:1;stroke-width:2;stroke-linecap:square;stroke-linejoin:bevel;stroke-miterlimit:10;stroke-dasharray:none"
               id="path740" /></g><g
             id="g742"
             transform="matrix(16.66625,0,0,16.66625,9383.0988,1033.3075)" /><g
             id="g744"
             transform="matrix(16.66625,0,0,16.66625,9383.0988,1033.3075)" /></g></g><g
         id="g746"><g
           id="g748"
           clip-path="url(#clipPath750)"><g
             id="g754"
             clip-path="url(#clipPath756)"><g
               id="g760"
               transform="matrix(16.66625,0,0,16.66625,9383.0988,1033.3075)"><g
                 id="g762"><text
                   transform="translate(4,21)"
                   id="text764"><tspan
                     style="fill:#313739;fill-opacity:1;fill-rule:nonzero;stroke:none;font-family:Cantarell;font-variant:normal;font-weight:normal;font-size:16;writing-mode:lr;-inkscape-font-specification:Cantarell-Regular"
                     x="0 16 20 26 35 39 47 54 61 69 74 82 88 96 102 106 115"
                     y="0"
                     sodipodi:role="line"
                     id="tspan766">With	acceleration</tspan></text>
</g></g></g></g></g><g
         id="g768"><g
           id="g770"
           transform="matrix(16.66625,0,0,16.66625,9383.0988,1033.3075)" /></g><g
         id="g772"><g
           id="g774"
           clip-path="url(#clipPath776)"><g
             id="g780" /><g
             id="g782"
             transform="matrix(16.66625,0,0,16.66625,9383.0988,1033.3075)" /><g
             id="g784"
             transform="matrix(16.66625,0,0,16.66625,9383.0988,1033.3075)" /><g
             id="g786"
             transform="matrix(16.66625,0,0,16.66625,12583.019,749.98125)"><path
               d="m 0,32 -40,0"
               style="fill:none;stroke:#70bc10;stroke-opacity:1;stroke-width:2;stroke-linecap:square;stroke-linejoin:bevel;stroke-miterlimit:10;stroke-dasharray:none"
               id="path788" /></g><g
             id="g790"
             transform="scale(16.66625,16.66625)"><path
               d="m 114,509 661,0"
               style="fill:none;stroke:#000000;stroke-opacity:1;stroke-width:2;stroke-linecap:square;stroke-linejoin:bevel;stroke-miterlimit:10;stroke-dasharray:none"
               id="path792" /></g><g
             id="g794"
             transform="scale(16.66625,16.66625)"><path
               d="M 775,25 114,25"
               style="fill:none;stroke:#000000;stroke-opacity:1;stroke-width:2;stroke-linecap:square;stroke-linejoin:bevel;stroke-miterlimit:10;stroke-dasharray:none"
               id="path796" /></g><g
             id="g798"
             transform="scale(16.66625,16.66625)"><path
               d="m 114,25 0,484"
               style="fill:none;stroke:#000000;stroke-opacity:1;stroke-width:2;stroke-linecap:square;stroke-linejoin:bevel;stroke-miterlimit:10;stroke-dasharray:none"
               id="path800" /></g><g
             id="g802"
             transform="scale(16.66625,16.66625)"><path
               d="M 775,509 775,25"
               style="fill:none;stroke:#000000;stroke-opacity:1;stroke-width:2;stroke-linecap:square;stroke-linejoin:bevel;stroke-miterlimit:10;stroke-dasharray:none"
               id="path804" /></g></g></g><g
         id="g806"><g
           id="g808" /></g></g></g></svg>