<?xml version="1.0" encoding="UTF-8" standalone="no"?>
<!DOCTYPE svg PUBLIC "-//W3C//DTD SVG 1.1//EN"
 "http://www.w3.org/Graphics/SVG/1.1/DTD/svg11.dtd">
<!-- Generated by graphviz version 2.38.0 (20140413.2041)
 -->
<!-- Title: tangent_operator_converter Pages: 1 -->
<svg width="702pt" height="542pt"
 viewBox="0.00 0.00 702.39 542.07" xmlns="http://www.w3.org/2000/svg" xmlns:xlink="http://www.w3.org/1999/xlink">
<g id="graph0" class="graph" transform="scale(1 1) rotate(0) translate(4 538.073)">
<title>tangent_operator_converter</title>
<polygon fill="white" stroke="none" points="-4,4 -4,-538.073 698.388,-538.073 698.388,4 -4,4"/>
<!-- DSIG_DF -->
<g id="node1" class="node"><title>DSIG_DF</title>
<ellipse fill="none" stroke="red" cx="53.2953" cy="-303.037" rx="50.8235" ry="26.7407"/>
<text text-anchor="middle" x="53.2953" y="-306.837" font-family="Times,serif" font-size="14.00">DSIG_DF</text>
<text text-anchor="middle" x="53.2953" y="-291.837" font-family="Times,serif" font-size="14.00">MTest</text>
</g>
<!-- DSIG_DDF -->
<g id="node10" class="node"><title>DSIG_DDF</title>
<ellipse fill="none" stroke="black" cx="53.2953" cy="-192.083" rx="53.0913" ry="18"/>
<text text-anchor="middle" x="53.2953" y="-188.383" font-family="Times,serif" font-size="14.00">DSIG_DDF</text>
</g>
<!-- DSIG_DF&#45;&gt;DSIG_DDF -->
<g id="edge13" class="edge"><title>DSIG_DF&#45;&gt;DSIG_DDF</title>
<path fill="none" stroke="black" d="M47.4554,-276.216C46.2827,-259.491 46.2433,-237.728 47.3372,-220.665"/>
<polygon fill="black" stroke="black" points="50.8644,-220.49 48.2192,-210.231 43.8893,-219.9 50.8644,-220.49"/>
</g>
<!-- C_TRUESDELL -->
<g id="node2" class="node"><title>C_TRUESDELL</title>
<ellipse fill="none" stroke="green" cx="424.295" cy="-192.083" rx="77.5641" ry="37.4533"/>
<text text-anchor="middle" x="424.295" y="-203.383" font-family="Times,serif" font-size="14.00">C_TRUESDELL</text>
<text text-anchor="middle" x="424.295" y="-188.383" font-family="Times,serif" font-size="14.00">Cast3M</text>
<text text-anchor="middle" x="424.295" y="-173.383" font-family="Times,serif" font-size="14.00">ZeBuLoN</text>
</g>
<!-- SPATIAL_MODULI -->
<g id="node9" class="node"><title>SPATIAL_MODULI</title>
<ellipse fill="none" stroke="black" cx="427.295" cy="-303.037" rx="87.1846" ry="18"/>
<text text-anchor="middle" x="427.295" y="-299.337" font-family="Times,serif" font-size="14.00">SPATIAL_MODULI</text>
</g>
<!-- C_TRUESDELL&#45;&gt;SPATIAL_MODULI -->
<g id="edge21" class="edge"><title>C_TRUESDELL&#45;&gt;SPATIAL_MODULI</title>
<path fill="none" stroke="black" d="M431.728,-229.818C432.698,-244.553 432.995,-261.233 432.479,-274.847"/>
<polygon fill="black" stroke="black" points="428.975,-274.827 431.889,-285.013 435.963,-275.232 428.975,-274.827"/>
</g>
<!-- DTAU_DDF -->
<g id="node3" class="node"><title>DTAU_DDF</title>
<ellipse fill="none" stroke="blue" cx="260.295" cy="-303.037" rx="62.4516" ry="26.7407"/>
<text text-anchor="middle" x="260.295" y="-306.837" font-family="Times,serif" font-size="14.00">DTAU_DDF</text>
<text text-anchor="middle" x="260.295" y="-291.837" font-family="Times,serif" font-size="14.00">Code_Aster</text>
</g>
<!-- DTAU_DF -->
<g id="node7" class="node"><title>DTAU_DF</title>
<ellipse fill="none" stroke="black" cx="339.295" cy="-383.907" rx="50.8918" ry="18"/>
<text text-anchor="middle" x="339.295" y="-380.207" font-family="Times,serif" font-size="14.00">DTAU_DF</text>
</g>
<!-- DTAU_DDF&#45;&gt;DTAU_DF -->
<g id="edge7" class="edge"><title>DTAU_DDF&#45;&gt;DTAU_DF</title>
<path fill="none" stroke="black" d="M289.516,-327.021C300.123,-336.91 311.744,-348.479 321.16,-358.519"/>
<polygon fill="black" stroke="black" points="318.842,-361.17 328.177,-366.18 324.004,-356.442 318.842,-361.17"/>
</g>
<!-- ABAQUS -->
<g id="node4" class="node"><title>ABAQUS</title>
<ellipse fill="none" stroke="yellow" cx="383.295" cy="-485.99" rx="77.5641" ry="48.1667"/>
<text text-anchor="middle" x="383.295" y="-504.79" font-family="Times,serif" font-size="14.00">ABAQUS</text>
<text text-anchor="middle" x="383.295" y="-489.79" font-family="Times,serif" font-size="14.00">Abaqus/Standard</text>
<text text-anchor="middle" x="383.295" y="-474.79" font-family="Times,serif" font-size="14.00">Ansys</text>
<text text-anchor="middle" x="383.295" y="-459.79" font-family="Times,serif" font-size="14.00">Calculix</text>
</g>
<!-- ABAQUS&#45;&gt;DSIG_DF -->
<g id="edge24" class="edge"><title>ABAQUS&#45;&gt;DSIG_DF</title>
<path fill="none" stroke="black" d="M307.388,-475.139C250.719,-464.678 173.811,-443.602 118.295,-401.907 96.5583,-385.581 79.837,-359.727 68.8004,-338.692"/>
<polygon fill="black" stroke="black" points="71.9027,-337.07 64.2763,-329.716 65.6518,-340.221 71.9027,-337.07"/>
</g>
<!-- ABAQUS&#45;&gt;DTAU_DF -->
<g id="edge25" class="edge"><title>ABAQUS&#45;&gt;DTAU_DF</title>
<path fill="none" stroke="black" d="M357.027,-440.509C352.607,-430.753 348.407,-420.711 345.091,-411.892"/>
<polygon fill="black" stroke="black" points="348.29,-410.442 341.644,-402.192 341.694,-412.786 348.29,-410.442"/>
</g>
<!-- C_TAU_JAUMANN -->
<g id="node8" class="node"><title>C_TAU_JAUMANN</title>
<ellipse fill="none" stroke="black" cx="607.295" cy="-192.083" rx="87.1846" ry="18"/>
<text text-anchor="middle" x="607.295" y="-188.383" font-family="Times,serif" font-size="14.00">C_TAU_JAUMANN</text>
</g>
<!-- ABAQUS&#45;&gt;C_TAU_JAUMANN -->
<g id="edge23" class="edge"><title>ABAQUS&#45;&gt;C_TAU_JAUMANN</title>
<path fill="none" stroke="black" d="M434.79,-449.664C474.602,-421.994 528.024,-379.885 560.295,-329.907 582.21,-295.967 591.64,-249.412 597.949,-220.301"/>
<polygon fill="black" stroke="black" points="601.392,-220.943 600.149,-210.421 594.559,-219.421 601.392,-220.943"/>
</g>
<!-- ABAQUS&#45;&gt;SPATIAL_MODULI -->
<g id="edge22" class="edge"><title>ABAQUS&#45;&gt;SPATIAL_MODULI</title>
<path fill="none" stroke="black" d="M388.735,-437.919C395.768,-403.784 407.046,-358.847 415.86,-330.698"/>
<polygon fill="black" stroke="black" points="419.204,-331.73 418.983,-321.138 412.551,-329.557 419.204,-331.73"/>
</g>
<!-- DS_DEGL -->
<g id="node5" class="node"><title>DS_DEGL</title>
<ellipse fill="none" stroke="pink" cx="271.295" cy="-192.083" rx="57.0522" ry="48.1667"/>
<text text-anchor="middle" x="271.295" y="-210.883" font-family="Times,serif" font-size="14.00">DS_DEGL</text>
<text text-anchor="middle" x="271.295" y="-195.883" font-family="Times,serif" font-size="14.00">Calculix</text>
<text text-anchor="middle" x="271.295" y="-180.883" font-family="Times,serif" font-size="14.00">Code_Aster</text>
<text text-anchor="middle" x="271.295" y="-165.883" font-family="Times,serif" font-size="14.00">ZeBuLoN</text>
</g>
<!-- DS_DEGL&#45;&gt;ABAQUS -->
<g id="edge17" class="edge"><title>DS_DEGL&#45;&gt;ABAQUS</title>
<path fill="none" stroke="black" d="M228.663,-224.368C213.204,-238.299 197.528,-256.105 189.295,-276.167 180.228,-298.263 178.949,-308.379 189.295,-329.907 215.037,-383.466 269.285,-424.303 313.887,-450.594"/>
<polygon fill="black" stroke="black" points="312.257,-453.694 322.668,-455.658 315.754,-447.63 312.257,-453.694"/>
</g>
<!-- DS_DF -->
<g id="node6" class="node"><title>DS_DF</title>
<ellipse fill="none" stroke="black" cx="208.295" cy="-18" rx="37.8943" ry="18"/>
<text text-anchor="middle" x="208.295" y="-14.3" font-family="Times,serif" font-size="14.00">DS_DF</text>
</g>
<!-- DS_DEGL&#45;&gt;DS_DF -->
<g id="edge18" class="edge"><title>DS_DEGL&#45;&gt;DS_DF</title>
<path fill="none" stroke="black" d="M245.888,-148.573C239.089,-135.854 232.258,-121.652 227.295,-108 219.974,-87.8619 215.078,-64.0825 212.092,-46.1718"/>
<polygon fill="black" stroke="black" points="215.522,-45.4558 210.512,-36.1203 208.607,-46.5423 215.522,-45.4558"/>
</g>
<!-- DS_DEGL&#45;&gt;SPATIAL_MODULI -->
<g id="edge16" class="edge"><title>DS_DEGL&#45;&gt;SPATIAL_MODULI</title>
<path fill="none" stroke="black" d="M317.992,-220.335C327.416,-226.862 337.187,-233.788 346.295,-240.167 364.903,-253.198 385.807,-267.584 401.859,-279.202"/>
<polygon fill="black" stroke="black" points="400.1,-282.252 410.233,-285.345 404.24,-276.608 400.1,-282.252"/>
</g>
<!-- DS_DC -->
<g id="node11" class="node"><title>DS_DC</title>
<ellipse fill="none" stroke="black" cx="274.295" cy="-90" rx="38.1938" ry="18"/>
<text text-anchor="middle" x="274.295" y="-86.3" font-family="Times,serif" font-size="14.00">DS_DC</text>
</g>
<!-- DS_DEGL&#45;&gt;DS_DC -->
<g id="edge15" class="edge"><title>DS_DEGL&#45;&gt;DS_DC</title>
<path fill="none" stroke="black" d="M265.968,-143.972C266.169,-135.188 266.652,-126.284 267.385,-118.346"/>
<polygon fill="black" stroke="black" points="270.884,-118.554 268.535,-108.223 263.928,-117.764 270.884,-118.554"/>
</g>
<!-- DS_DF&#45;&gt;DTAU_DF -->
<g id="edge1" class="edge"><title>DS_DF&#45;&gt;DTAU_DF</title>
<path fill="none" stroke="black" d="M200.633,-35.8072C179.039,-85.9453 123.408,-236.748 189.295,-329.907 209.746,-358.823 247.346,-372.069 279.784,-378.087"/>
<polygon fill="black" stroke="black" points="279.221,-381.542 289.66,-379.733 280.371,-374.637 279.221,-381.542"/>
</g>
<!-- DTAU_DF&#45;&gt;DSIG_DF -->
<g id="edge5" class="edge"><title>DTAU_DF&#45;&gt;DSIG_DF</title>
<path fill="none" stroke="black" d="M300.426,-372.188C250.575,-358.44 163.848,-334.524 107.522,-318.991"/>
<polygon fill="black" stroke="black" points="108.29,-315.572 97.7192,-316.287 106.429,-322.32 108.29,-315.572"/>
</g>
<!-- DTAU_DF&#45;&gt;DTAU_DDF -->
<g id="edge6" class="edge"><title>DTAU_DF&#45;&gt;DTAU_DDF</title>
<path fill="none" stroke="black" d="M318.184,-367.324C308.199,-358.424 296.302,-346.928 285.846,-336.18"/>
<polygon fill="black" stroke="black" points="288.32,-333.704 278.877,-328.9 283.264,-338.544 288.32,-333.704"/>
</g>
<!-- DTAU_DF&#45;&gt;ABAQUS -->
<g id="edge4" class="edge"><title>DTAU_DF&#45;&gt;ABAQUS</title>
<path fill="none" stroke="black" d="M351.716,-401.412C356.029,-409.203 360.852,-419.004 365.445,-429.126"/>
<polygon fill="black" stroke="black" points="362.33,-430.735 369.576,-438.464 368.731,-427.903 362.33,-430.735"/>
</g>
<!-- DTAU_DF&#45;&gt;C_TAU_JAUMANN -->
<g id="edge2" class="edge"><title>DTAU_DF&#45;&gt;C_TAU_JAUMANN</title>
<path fill="none" stroke="black" d="M387.247,-377.61C424.96,-371.481 476.99,-358.286 514.295,-329.907 551.929,-301.278 576.572,-250.51 591.534,-219.516"/>
<polygon fill="black" stroke="black" points="594.838,-220.725 596.056,-210.201 588.54,-217.668 594.838,-220.725"/>
</g>
<!-- DTAU_DF&#45;&gt;SPATIAL_MODULI -->
<g id="edge3" class="edge"><title>DTAU_DF&#45;&gt;SPATIAL_MODULI</title>
<path fill="none" stroke="black" d="M352.322,-366.18C363.745,-354.811 380.504,-339.621 395.352,-327.105"/>
<polygon fill="black" stroke="black" points="397.893,-329.545 403.358,-320.468 393.426,-324.156 397.893,-329.545"/>
</g>
<!-- C_TAU_JAUMANN&#45;&gt;ABAQUS -->
<g id="edge26" class="edge"><title>C_TAU_JAUMANN&#45;&gt;ABAQUS</title>
<path fill="none" stroke="black" d="M611.466,-210.421C611.767,-237.788 602.902,-291.799 578.295,-329.907 546.291,-379.472 493.482,-421.298 450.813,-448.976"/>
<polygon fill="black" stroke="black" points="448.704,-446.169 442.149,-454.493 452.464,-452.074 448.704,-446.169"/>
</g>
<!-- C_TAU_JAUMANN&#45;&gt;DTAU_DF -->
<g id="edge27" class="edge"><title>C_TAU_JAUMANN&#45;&gt;DTAU_DF</title>
<path fill="none" stroke="black" d="M606.927,-210.201C599.753,-239.262 574.001,-298.18 532.295,-329.907 493.798,-359.192 439.622,-372.309 398.374,-378.176"/>
<polygon fill="black" stroke="black" points="397.907,-374.707 388.45,-379.485 398.822,-381.647 397.907,-374.707"/>
</g>
<!-- C_TAU_JAUMANN&#45;&gt;SPATIAL_MODULI -->
<g id="edge28" class="edge"><title>C_TAU_JAUMANN&#45;&gt;SPATIAL_MODULI</title>
<path fill="none" stroke="black" d="M584.922,-209.66C555.449,-228.808 503.501,-260.34 467.251,-281.149"/>
<polygon fill="black" stroke="black" points="465.353,-278.202 458.397,-286.194 468.818,-284.284 465.353,-278.202"/>
</g>
<!-- SPATIAL_MODULI&#45;&gt;C_TRUESDELL -->
<g id="edge8" class="edge"><title>SPATIAL_MODULI&#45;&gt;C_TRUESDELL</title>
<path fill="none" stroke="black" d="M421.764,-285.013C420.101,-272.935 419.094,-256.097 418.897,-240.128"/>
<polygon fill="black" stroke="black" points="422.397,-239.814 418.886,-229.818 415.397,-239.822 422.397,-239.814"/>
</g>
<!-- SPATIAL_MODULI&#45;&gt;ABAQUS -->
<g id="edge9" class="edge"><title>SPATIAL_MODULI&#45;&gt;ABAQUS</title>
<path fill="none" stroke="black" d="M427.264,-321.324C423.731,-345.911 413.203,-392.107 403.159,-429.165"/>
<polygon fill="black" stroke="black" points="399.77,-428.289 400.483,-438.86 406.517,-430.151 399.77,-428.289"/>
</g>
<!-- SPATIAL_MODULI&#45;&gt;DS_DEGL -->
<g id="edge10" class="edge"><title>SPATIAL_MODULI&#45;&gt;DS_DEGL</title>
<path fill="none" stroke="black" d="M396.544,-286.123C376.698,-273.692 350.815,-255.938 328.295,-240.167 325.08,-237.915 321.781,-235.594 318.468,-233.248"/>
<polygon fill="black" stroke="black" points="320.415,-230.337 310.241,-227.383 316.352,-236.038 320.415,-230.337"/>
</g>
<!-- SPATIAL_MODULI&#45;&gt;DTAU_DF -->
<g id="edge11" class="edge"><title>SPATIAL_MODULI&#45;&gt;DTAU_DF</title>
<path fill="none" stroke="black" d="M414.196,-320.835C402.417,-332.552 385.005,-348.3 369.854,-361.002"/>
<polygon fill="black" stroke="black" points="367.215,-358.641 361.721,-367.7 371.665,-364.045 367.215,-358.641"/>
</g>
<!-- SPATIAL_MODULI&#45;&gt;C_TAU_JAUMANN -->
<g id="edge12" class="edge"><title>SPATIAL_MODULI&#45;&gt;C_TAU_JAUMANN</title>
<path fill="none" stroke="black" d="M449.624,-285.489C479.017,-266.391 530.815,-234.947 567.07,-214.126"/>
<polygon fill="black" stroke="black" points="568.975,-217.069 575.929,-209.076 565.508,-210.987 568.975,-217.069"/>
</g>
<!-- DSIG_DDF&#45;&gt;DSIG_DF -->
<g id="edge14" class="edge"><title>DSIG_DDF&#45;&gt;DSIG_DF</title>
<path fill="none" stroke="black" d="M58.3713,-210.231C60.0072,-225.184 60.4441,-247.365 59.6819,-266.178"/>
<polygon fill="black" stroke="black" points="56.1843,-266.041 59.1352,-276.216 63.174,-266.421 56.1843,-266.041"/>
</g>
<!-- DS_DC&#45;&gt;DS_DEGL -->
<g id="edge20" class="edge"><title>DS_DC&#45;&gt;DS_DEGL</title>
<path fill="none" stroke="black" d="M278.994,-107.865C279.604,-115.331 279.823,-124.591 279.694,-134.194"/>
<polygon fill="black" stroke="black" points="276.193,-134.179 279.436,-144.265 283.191,-134.358 276.193,-134.179"/>
</g>
<!-- DS_DC&#45;&gt;DS_DF -->
<g id="edge19" class="edge"><title>DS_DC&#45;&gt;DS_DF</title>
<path fill="none" stroke="black" d="M259.319,-73.1159C250.712,-63.987 239.744,-52.3552 230.185,-42.2168"/>
<polygon fill="black" stroke="black" points="232.619,-39.6961 223.212,-34.8212 227.526,-44.4982 232.619,-39.6961"/>
</g>
</g>
</svg>
