<?xml version="1.0" encoding="UTF-8" standalone="no"?>
<!-- Created with Inkscape (http://www.inkscape.org/) -->

<svg
   xmlns:dc="http://purl.org/dc/elements/1.1/"
   xmlns:cc="http://creativecommons.org/ns#"
   xmlns:rdf="http://www.w3.org/1999/02/22-rdf-syntax-ns#"
   xmlns:svg="http://www.w3.org/2000/svg"
   xmlns="http://www.w3.org/2000/svg"
   xmlns:sodipodi="http://sodipodi.sourceforge.net/DTD/sodipodi-0.dtd"
   xmlns:inkscape="http://www.inkscape.org/namespaces/inkscape"
   version="1.1"
   id="svg2"
   xml:space="preserve"
   width="748"
   height="206.66667"
   viewBox="0 0 748 206.66667"
   sodipodi:docname="expression_templates.svg"
   inkscape:version="0.92.4 (5da689c313, 2019-01-14)"><metadata
     id="metadata8"><rdf:RDF><cc:Work
         rdf:about=""><dc:format>image/svg+xml</dc:format><dc:type
           rdf:resource="http://purl.org/dc/dcmitype/StillImage" /><dc:title></dc:title></cc:Work></rdf:RDF></metadata><defs
     id="defs6" /><sodipodi:namedview
     pagecolor="#ffffff"
     bordercolor="#666666"
     borderopacity="1"
     objecttolerance="10"
     gridtolerance="10"
     guidetolerance="10"
     inkscape:pageopacity="0"
     inkscape:pageshadow="2"
     inkscape:window-width="898"
     inkscape:window-height="480"
     id="namedview4"
     showgrid="false"
     inkscape:zoom="0.57620321"
     inkscape:cx="374"
     inkscape:cy="103.33334"
     inkscape:window-x="0"
     inkscape:window-y="27"
     inkscape:window-maximized="0"
     inkscape:current-layer="g10" /><g
     id="g10"
     inkscape:groupmode="layer"
     inkscape:label="expression_templates"
     transform="matrix(1.3333333,0,0,-1.3333333,0,206.66667)"><g
       id="g12"><path
         d="m 16.219,139.766 v -1.407 H 3 c 0.125,-1.98 0.719,-3.492 1.781,-4.531 1.071,-1.031 2.563,-1.547 4.469,-1.547 1.102,0 2.172,0.133 3.203,0.407 1.039,0.269 2.07,0.675 3.094,1.218 v -2.718 c -1.031,-0.438 -2.09,-0.774 -3.172,-1 -1.086,-0.227 -2.184,-0.344 -3.297,-0.344 -2.793,0 -5.008,0.812 -6.64,2.437 C 0.812,133.906 0,136.102 0,138.875 c 0,2.863 0.77,5.133 2.312,6.813 1.551,1.687 3.641,2.531 6.266,2.531 2.352,0 4.211,-0.762 5.578,-2.281 1.375,-1.512 2.063,-3.571 2.063,-6.172 z m -2.875,0.843 c -0.024,1.571 -0.465,2.829 -1.328,3.766 -0.856,0.937 -1.993,1.406 -3.407,1.406 -1.605,0 -2.89,-0.453 -3.859,-1.359 -0.961,-0.906 -1.512,-2.184 -1.656,-3.828 z m 10.718,-7.656 h 11.016 v -2.656 H 20.266 v 2.656 c 1.195,1.238 2.828,2.899 4.89,4.985 2.071,2.093 3.375,3.441 3.906,4.046 1.008,1.133 1.711,2.094 2.11,2.875 0.406,0.789 0.609,1.567 0.609,2.329 0,1.238 -0.437,2.25 -1.312,3.031 -0.867,0.781 -1.996,1.172 -3.391,1.172 -0.992,0 -2.039,-0.172 -3.14,-0.516 -1.094,-0.344 -2.266,-0.867 -3.516,-1.563 v 3.188 c 1.269,0.508 2.457,0.895 3.562,1.156 1.102,0.258 2.114,0.391 3.032,0.391 2.414,0 4.343,-0.606 5.781,-1.813 1.437,-1.211 2.156,-2.824 2.156,-4.843 0,-0.961 -0.183,-1.871 -0.547,-2.735 -0.355,-0.855 -1.008,-1.867 -1.953,-3.031 -0.262,-0.305 -1.09,-1.18 -2.484,-2.625 -1.399,-1.438 -3.367,-3.453 -5.907,-6.047 z m 24.157,21.625 c -1.399,-2.398 -2.434,-4.766 -3.11,-7.109 -0.679,-2.344 -1.015,-4.719 -1.015,-7.125 0,-2.406 0.336,-4.793 1.015,-7.156 0.688,-2.356 1.723,-4.723 3.11,-7.11 h -2.5 c -1.563,2.449 -2.735,4.852 -3.516,7.219 -0.773,2.363 -1.156,4.711 -1.156,7.047 0,2.32 0.383,4.66 1.156,7.015 0.77,2.352 1.942,4.758 3.516,7.219 z m 5.593,-6.781 h 2.876 v -17.5 h -2.876 z m 0,6.812 h 2.876 v -3.64 h -2.876 z m 8.422,-0.031 h 2.5 c 1.563,-2.461 2.727,-4.867 3.5,-7.219 0.782,-2.355 1.172,-4.695 1.172,-7.015 0,-2.336 -0.39,-4.684 -1.172,-7.047 -0.773,-2.367 -1.937,-4.77 -3.5,-7.219 h -2.5 c 1.383,2.387 2.414,4.754 3.094,7.11 0.688,2.363 1.031,4.75 1.031,7.156 0,2.406 -0.343,4.781 -1.031,7.125 -0.68,2.343 -1.711,4.711 -3.094,7.109"
         style="fill:#000000;fill-opacity:1;fill-rule:nonzero;stroke:none"
         id="path14"
         inkscape:connector-curvature="0" /><g
         id="g16"
         transform="translate(0,155)"><path
           d="M 187.66,-76.703 34.641,-76.824"
           style="fill:none;stroke:#000000;stroke-width:0.80000001;stroke-linecap:butt;stroke-linejoin:miter;stroke-miterlimit:4;stroke-dasharray:none;stroke-opacity:1"
           id="path18"
           inkscape:connector-curvature="0" /></g><path
         d="m 179.66,78.293 -3.199,-3.203 11.199,3.207 -11.203,3.191"
         style="fill:#000000;fill-opacity:1;fill-rule:evenodd;stroke:none"
         id="path20"
         inkscape:connector-curvature="0" /><g
         id="g22"
         transform="translate(0,155)"><path
           d="m 179.66,-76.707 -3.199,-3.203 11.199,3.207 -11.203,3.191 z"
           style="fill:none;stroke:#000000;stroke-width:0.80000001;stroke-linecap:butt;stroke-linejoin:miter;stroke-miterlimit:4;stroke-dasharray:none;stroke-opacity:1"
           id="path24"
           inkscape:connector-curvature="0" /></g><g
         id="g26"
         transform="translate(0,155)"><path
           d="m 34.605,-38.48 0.196,-37.711"
           style="fill:none;stroke:#000000;stroke-width:0.726592;stroke-linecap:butt;stroke-linejoin:miter;stroke-miterlimit:4;stroke-dasharray:none;stroke-opacity:1"
           id="path28"
           inkscape:connector-curvature="0" /></g><path
         d="m 219.551,78.875 v -1.406 h -13.219 c 0.125,-1.981 0.719,-3.492 1.781,-4.531 1.071,-1.032 2.563,-1.547 4.469,-1.547 1.102,0 2.172,0.132 3.203,0.406 1.039,0.269 2.07,0.676 3.094,1.219 v -2.719 c -1.031,-0.438 -2.09,-0.774 -3.172,-1 -1.086,-0.227 -2.184,-0.344 -3.297,-0.344 -2.793,0 -5.008,0.813 -6.64,2.438 -1.625,1.625 -2.438,3.82 -2.438,6.593 0,2.864 0.77,5.133 2.313,6.813 1.55,1.687 3.64,2.531 6.265,2.531 2.352,0 4.211,-0.762 5.578,-2.281 1.375,-1.512 2.063,-3.57 2.063,-6.172 z m -2.875,0.844 c -0.024,1.57 -0.465,2.828 -1.328,3.765 -0.856,0.938 -1.993,1.407 -3.407,1.407 -1.605,0 -2.89,-0.453 -3.859,-1.36 -0.961,-0.906 -1.512,-2.183 -1.656,-3.828 z m 8.547,-7.657 h 5.156 v 17.797 l -5.609,-1.125 v 2.875 l 5.578,1.125 h 3.156 V 72.062 h 5.156 v -2.656 h -13.437 z m 26.328,21.626 c -1.399,-2.399 -2.434,-4.766 -3.11,-7.11 -0.679,-2.344 -1.015,-4.719 -1.015,-7.125 0,-2.406 0.336,-4.793 1.015,-7.156 0.688,-2.356 1.723,-4.723 3.11,-7.109 h -2.5 c -1.563,2.449 -2.735,4.851 -3.516,7.218 -0.773,2.364 -1.156,4.711 -1.156,7.047 0,2.32 0.383,4.66 1.156,7.016 0.77,2.351 1.942,4.758 3.516,7.219 z m 5.594,-6.782 h 2.875 v -17.5 h -2.875 z m 0,6.813 h 2.875 v -3.641 h -2.875 z m 8.421,-0.031 h 2.5 c 1.563,-2.461 2.727,-4.868 3.5,-7.219 0.782,-2.356 1.172,-4.696 1.172,-7.016 0,-2.336 -0.39,-4.683 -1.172,-7.047 -0.773,-2.367 -1.937,-4.769 -3.5,-7.218 h -2.5 c 1.383,2.386 2.414,4.753 3.094,7.109 0.688,2.363 1.031,4.75 1.031,7.156 0,2.406 -0.343,4.781 -1.031,7.125 -0.68,2.344 -1.711,4.711 -3.094,7.11"
         style="fill:#000000;fill-opacity:1;fill-rule:nonzero;stroke:none"
         id="path30"
         inkscape:connector-curvature="0" /><path
         d="m 332.48,86.234 v -2.687 c -0.812,0.445 -1.632,0.781 -2.453,1 -0.812,0.226 -1.636,0.344 -2.468,0.344 -1.868,0 -3.313,-0.594 -4.344,-1.782 -1.031,-1.179 -1.547,-2.836 -1.547,-4.968 0,-2.137 0.516,-3.797 1.547,-4.985 1.031,-1.179 2.476,-1.765 4.344,-1.765 0.832,0 1.656,0.109 2.468,0.328 0.821,0.226 1.641,0.566 2.453,1.015 v -2.656 c -0.804,-0.375 -1.636,-0.656 -2.5,-0.844 -0.855,-0.187 -1.765,-0.281 -2.734,-0.281 -2.637,0 -4.73,0.828 -6.281,2.485 -1.555,1.656 -2.328,3.89 -2.328,6.703 0,2.851 0.781,5.097 2.343,6.734 1.571,1.633 3.723,2.453 6.454,2.453 0.882,0 1.75,-0.094 2.593,-0.281 0.844,-0.18 1.661,-0.449 2.453,-0.813 z m 11.938,7.454 c -1.398,-2.399 -2.434,-4.766 -3.109,-7.11 -0.68,-2.344 -1.016,-4.719 -1.016,-7.125 0,-2.406 0.336,-4.793 1.016,-7.156 0.687,-2.356 1.722,-4.723 3.109,-7.109 h -2.5 c -1.563,2.449 -2.734,4.851 -3.516,7.218 -0.773,2.364 -1.156,4.711 -1.156,7.047 0,2.32 0.383,4.66 1.156,7.016 0.77,2.351 1.942,4.758 3.516,7.219 z m 5.594,-6.782 h 2.875 v -17.5 h -2.875 z m 0,6.813 h 2.875 v -3.641 h -2.875 z m 8.422,-0.031 h 2.5 c 1.562,-2.461 2.726,-4.868 3.5,-7.219 0.781,-2.356 1.171,-4.696 1.171,-7.016 0,-2.336 -0.39,-4.683 -1.171,-7.047 -0.774,-2.367 -1.938,-4.769 -3.5,-7.218 h -2.5 c 1.382,2.386 2.414,4.753 3.093,7.109 0.688,2.363 1.032,4.75 1.032,7.156 0,2.406 -0.344,4.781 -1.032,7.125 -0.679,2.344 -1.711,4.711 -3.093,7.11"
         style="fill:#000000;fill-opacity:1;fill-rule:nonzero;stroke:none"
         id="path32"
         inkscape:connector-curvature="0" /><path
         d="m 293.523,89.484 v -8.703 h 8.704 v -2.656 h -8.704 v -8.703 h -2.625 v 8.703 h -8.703 v 2.656 h 8.703 v 8.703"
         style="fill:#000000;fill-opacity:1;fill-rule:nonzero;stroke:none"
         id="path34"
         inkscape:connector-curvature="0" /><path
         d="m 414.812,14.016 c -2.324,0 -3.933,-0.266 -4.828,-0.797 -0.898,-0.531 -1.343,-1.438 -1.343,-2.719 0,-1.023 0.332,-1.836 1,-2.438 0.675,-0.593 1.593,-0.89 2.75,-0.89 1.593,0 2.867,0.562 3.828,1.687 0.969,1.133 1.453,2.641 1.453,4.516 v 0.641 z m 5.735,1.187 V 5.219 h -2.875 v 2.656 c -0.656,-1.063 -1.477,-1.852 -2.453,-2.359 -0.981,-0.5 -2.18,-0.75 -3.594,-0.75 -1.793,0 -3.219,0.5 -4.281,1.5 -1.055,1.007 -1.578,2.359 -1.578,4.046 0,1.969 0.656,3.454 1.968,4.454 1.321,1 3.289,1.5 5.907,1.5 h 4.031 v 0.281 c 0,1.32 -0.438,2.344 -1.313,3.062 -0.867,0.727 -2.086,1.094 -3.656,1.094 -1,0 -1.976,-0.121 -2.922,-0.359 -0.949,-0.242 -1.859,-0.602 -2.734,-1.078 v 2.656 c 1.051,0.406 2.07,0.707 3.062,0.906 0.989,0.207 1.953,0.313 2.891,0.313 2.531,0 4.422,-0.657 5.672,-1.969 1.25,-1.313 1.875,-3.305 1.875,-5.969 z M 433.391,29.5 c -1.399,-2.398 -2.434,-4.766 -3.11,-7.109 -0.679,-2.344 -1.015,-4.719 -1.015,-7.125 0,-2.407 0.336,-4.793 1.015,-7.157 0.688,-2.355 1.723,-4.722 3.11,-7.109 h -2.5 c -1.563,2.449 -2.735,4.852 -3.516,7.219 -0.773,2.363 -1.156,4.711 -1.156,7.047 0,2.32 0.383,4.66 1.156,7.015 0.77,2.352 1.941,4.758 3.516,7.219 z m 5.593,-6.781 h 2.875 v -17.5 h -2.875 z m 0,6.812 h 2.875 v -3.64 h -2.875 z m 8.422,-0.031 h 2.5 c 1.563,-2.461 2.727,-4.867 3.5,-7.219 0.782,-2.355 1.172,-4.695 1.172,-7.015 0,-2.336 -0.39,-4.684 -1.172,-7.047 -0.773,-2.367 -1.937,-4.77 -3.5,-7.219 h -2.5 c 1.383,2.387 2.414,4.754 3.094,7.109 0.688,2.364 1.031,4.75 1.031,7.157 0,2.406 -0.343,4.781 -1.031,7.125 -0.68,2.343 -1.711,4.711 -3.094,7.109"
         style="fill:#000000;fill-opacity:1;fill-rule:nonzero;stroke:none"
         id="path36"
         inkscape:connector-curvature="0" /><path
         d="m 524.723,13.953 c 0,2.113 -0.438,3.77 -1.313,4.969 -0.867,1.207 -2.058,1.812 -3.578,1.812 -1.523,0 -2.719,-0.605 -3.594,-1.812 -0.867,-1.199 -1.297,-2.856 -1.297,-4.969 0,-2.117 0.43,-3.777 1.297,-4.984 0.875,-1.199 2.071,-1.797 3.594,-1.797 1.52,0 2.711,0.598 3.578,1.797 0.875,1.207 1.313,2.867 1.313,4.984 z m -9.782,6.109 c 0.602,1.04 1.364,1.813 2.282,2.313 0.925,0.508 2.031,0.766 3.312,0.766 2.125,0 3.848,-0.844 5.172,-2.532 1.332,-1.687 2,-3.906 2,-6.656 0,-2.75 -0.668,-4.969 -2,-6.656 -1.324,-1.688 -3.047,-2.531 -5.172,-2.531 -1.281,0 -2.387,0.25 -3.312,0.75 -0.918,0.507 -1.68,1.285 -2.282,2.328 V 5.219 h -2.89 v 24.312 h 2.89 z m 24.438,9.438 c -1.399,-2.398 -2.434,-4.766 -3.109,-7.109 -0.68,-2.344 -1.016,-4.719 -1.016,-7.125 0,-2.407 0.336,-4.793 1.016,-7.157 0.687,-2.355 1.722,-4.722 3.109,-7.109 h -2.5 c -1.563,2.449 -2.734,4.852 -3.516,7.219 -0.773,2.363 -1.156,4.711 -1.156,7.047 0,2.32 0.383,4.66 1.156,7.015 0.77,2.352 1.942,4.758 3.516,7.219 z m 5.594,-6.781 h 2.875 v -17.5 h -2.875 z m 0,6.812 h 2.875 v -3.64 h -2.875 z m 8.422,-0.031 h 2.5 c 1.562,-2.461 2.726,-4.867 3.5,-7.219 0.781,-2.355 1.171,-4.695 1.171,-7.015 0,-2.336 -0.39,-4.684 -1.171,-7.047 -0.774,-2.367 -1.938,-4.77 -3.5,-7.219 h -2.5 c 1.382,2.387 2.414,4.754 3.093,7.109 0.688,2.364 1.032,4.75 1.032,7.157 0,2.406 -0.344,4.781 -1.032,7.125 -0.679,2.343 -1.711,4.711 -3.093,7.109"
         style="fill:#000000;fill-opacity:1;fill-rule:nonzero;stroke:none"
         id="path38"
         inkscape:connector-curvature="0" /><path
         d="m 481.203,25.297 v -8.703 h 8.703 v -2.656 h -8.703 V 5.234 h -2.625 v 8.704 h -8.703 v 2.656 h 8.703 v 8.703"
         style="fill:#000000;fill-opacity:1;fill-rule:nonzero;stroke:none"
         id="path40"
         inkscape:connector-curvature="0" /><g
         id="g42"
         transform="translate(0,155)"><path
           d="m 390.992,-139.727 -153.019,-0.125"
           style="fill:none;stroke:#000000;stroke-width:0.80000001;stroke-linecap:butt;stroke-linejoin:miter;stroke-miterlimit:4;stroke-dasharray:none;stroke-opacity:1"
           id="path44"
           inkscape:connector-curvature="0" /></g><path
         d="m 382.992,15.27 -3.195,-3.204 11.195,3.207 -11.203,3.192"
         style="fill:#000000;fill-opacity:1;fill-rule:evenodd;stroke:none"
         id="path46"
         inkscape:connector-curvature="0" /><g
         id="g48"
         transform="translate(0,155)"><path
           d="m 382.992,-139.73 -3.195,-3.204 11.195,3.207 -11.203,3.192 z"
           style="fill:none;stroke:#000000;stroke-width:0.80000001;stroke-linecap:butt;stroke-linejoin:miter;stroke-miterlimit:4;stroke-dasharray:none;stroke-opacity:1"
           id="path50"
           inkscape:connector-curvature="0" /></g><g
         id="g52"
         transform="translate(0,155)"><path
           d="m 237.938,-101.504 0.195,-37.715"
           style="fill:none;stroke:#000000;stroke-width:0.726592;stroke-linecap:butt;stroke-linejoin:miter;stroke-miterlimit:4;stroke-dasharray:none;stroke-opacity:1"
           id="path54"
           inkscape:connector-curvature="0" /></g></g></g></svg>