<?xml version="1.0" encoding="UTF-8" standalone="no"?>
<!-- Created with Inkscape (http://www.inkscape.org/) -->

<svg
   xmlns:dc="http://purl.org/dc/elements/1.1/"
   xmlns:cc="http://creativecommons.org/ns#"
   xmlns:rdf="http://www.w3.org/1999/02/22-rdf-syntax-ns#"
   xmlns:svg="http://www.w3.org/2000/svg"
   xmlns="http://www.w3.org/2000/svg"
   xmlns:sodipodi="http://sodipodi.sourceforge.net/DTD/sodipodi-0.dtd"
   xmlns:inkscape="http://www.inkscape.org/namespaces/inkscape"
   version="1.1"
   id="svg2"
   xml:space="preserve"
   width="1357.3333"
   height="894.66669"
   viewBox="0 0 1357.3333 894.66669"
   sodipodi:docname="solveNonLinearSystem.svg"
   inkscape:version="0.92.4 (5da689c313, 2019-01-14)"><metadata
     id="metadata8"><rdf:RDF><cc:Work
         rdf:about=""><dc:format>image/svg+xml</dc:format><dc:type
           rdf:resource="http://purl.org/dc/dcmitype/StillImage" /><dc:title></dc:title></cc:Work></rdf:RDF></metadata><defs
     id="defs6"><clipPath
       clipPathUnits="userSpaceOnUse"
       id="clipPath20"><path
         d="M 36,36 H 981.859 V 635 H 36 Z"
         id="path18"
         inkscape:connector-curvature="0" /></clipPath></defs><sodipodi:namedview
     pagecolor="#ffffff"
     bordercolor="#666666"
     borderopacity="1"
     objecttolerance="10"
     gridtolerance="10"
     guidetolerance="10"
     inkscape:pageopacity="0"
     inkscape:pageshadow="2"
     inkscape:window-width="898"
     inkscape:window-height="480"
     id="namedview4"
     showgrid="false"
     inkscape:zoom="0.26378539"
     inkscape:cx="678.66663"
     inkscape:cy="447.33334"
     inkscape:window-x="0"
     inkscape:window-y="27"
     inkscape:window-maximized="0"
     inkscape:current-layer="g10" /><g
     id="g10"
     inkscape:groupmode="layer"
     inkscape:label="solveNonLinearSystem"
     transform="matrix(1.3333333,0,0,1.3333333,0,2.57e-5)"><g
       id="g12" /><g
       id="g14"><g
         id="g16"
         clip-path="url(#clipPath20)"><path
           d="M 36,36 H 981.859 V 635 H 36 Z"
           style="fill:#ffffff;fill-opacity:1;fill-rule:nonzero;stroke:none"
           id="path22"
           inkscape:connector-curvature="0" /><path
           d="m 741.5,40 h 178 v 36 h -178 z"
           style="fill:none;stroke:#0000ff;stroke-width:1;stroke-linecap:butt;stroke-linejoin:miter;stroke-miterlimit:10;stroke-dasharray:none;stroke-opacity:1"
           id="path24"
           inkscape:connector-curvature="0" /><text
           transform="translate(749.5,61.699219)"
           style="font-variant:normal;font-weight:normal;font-size:14.00024414px;font-family:TeXGyreTermes;-inkscape-font-specification:TeXGyreTermes-Regular;writing-mode:lr-tb;fill:#000000;fill-opacity:1;fill-rule:nonzero;stroke:none"
           id="text28"><tspan
             x="0 4.4940782 10.500183 17.248301 23.996418 28.504498 32.256561 41.24472 47.250824 53.99894 57.751007 64.499123 71.247238 74.999306 81.747421 88.495544 98.253716 102.74779 111.74995 117.75605 123.00614 129.75426 133.50633 140.25444 144.00652 147.74457 154.5067"
             y="0"
             sodipodi:role="line"
             id="tspan26">reportBeginningOfResolution</tspan></text>
<path
           d="m 708.5,113 h 244 v 36 h -244 z"
           style="fill:none;stroke:#0000ff;stroke-width:1;stroke-linecap:butt;stroke-linejoin:miter;stroke-miterlimit:10;stroke-dasharray:none;stroke-opacity:1"
           id="path30"
           inkscape:connector-curvature="0" /><text
           transform="translate(716.5,134.69922)"
           style="font-variant:normal;font-weight:normal;font-size:14.00024414px;font-family:TeXGyreTermes;-inkscape-font-specification:TeXGyreTermes-Regular;writing-mode:lr-tb;fill:#000000;fill-opacity:1;fill-rule:nonzero;stroke:none"
           id="text34"><tspan
             x="0 5.2500916 11.256196 17.248301 23.254406 30.002523 33.754589 39.746693 44.254772 51.002888 54.754955 58.493019 62.245087 68.25119 72.003258 75.755318 81.005409 86.997513 90.74958 94.501648 101.24976 107.25587 114.746 120.75211 126.0022 132.75032 141.75247 147.74457 151.49664 158.24475 162.75284 168.74493 177.7471 183.7532 189.0033 195.75142 199.50348 206.2516 210.00366 213.75572 220.50385"
             y="0"
             sodipodi:role="line"
             id="tspan32">executeInitialisationTaskBeforeResolution</tspan></text>
<path
           d="m 830.5,76.047 c 0,0 0,26.863 0,26.863"
           style="fill:none;stroke:#000000;stroke-width:1;stroke-linecap:butt;stroke-linejoin:miter;stroke-miterlimit:10;stroke-dasharray:none;stroke-opacity:1"
           id="path36"
           inkscape:connector-curvature="0" /><path
           d="m 834,102.91 -3.5,10 -3.5,-10 z"
           style="fill:#000000;fill-opacity:1;fill-rule:nonzero;stroke:#000000;stroke-width:1;stroke-linecap:butt;stroke-linejoin:miter;stroke-miterlimit:10;stroke-dasharray:none;stroke-opacity:1"
           id="path38"
           inkscape:connector-curvature="0" /><path
           d="m 765.5,186 h 130 v 36 h -130 z"
           style="fill:none;stroke:#0000ff;stroke-width:1;stroke-linecap:butt;stroke-linejoin:miter;stroke-miterlimit:10;stroke-dasharray:none;stroke-opacity:1"
           id="path40"
           inkscape:connector-curvature="0" /><text
           transform="translate(773.5,207.69922)"
           style="font-variant:normal;font-weight:normal;font-size:14.00024414px;font-family:TeXGyreTermes;-inkscape-font-specification:TeXGyreTermes-Regular;writing-mode:lr-tb;fill:#000000;fill-opacity:1;fill-rule:nonzero;stroke:none"
           id="text44"><tspan
             x="0 6.7481174 11.256196 18.004314 23.996418 30.002523 35.252613 40.502705 50.246876 55.496967 65.255135 73.501282 78.751373 82.503441 86.255501 97.497696 103.50381 107.25587"
             y="0"
             sodipodi:role="line"
             id="tspan42">processNewEstimate</tspan></text>
<path
           d="m 830.5,149.047 c 0,0 0,26.863 0,26.863"
           style="fill:none;stroke:#000000;stroke-width:1;stroke-linecap:butt;stroke-linejoin:miter;stroke-miterlimit:10;stroke-dasharray:none;stroke-opacity:1"
           id="path46"
           inkscape:connector-curvature="0" /><path
           d="m 834,175.91 -3.5,10 -3.5,-10 z"
           style="fill:#000000;fill-opacity:1;fill-rule:nonzero;stroke:#000000;stroke-width:1;stroke-linecap:butt;stroke-linejoin:miter;stroke-miterlimit:10;stroke-dasharray:none;stroke-opacity:1"
           id="path48"
           inkscape:connector-curvature="0" /><path
           d="m 676,259 h 149 v 36 H 676 Z"
           style="fill:none;stroke:#0000ff;stroke-width:1;stroke-linecap:butt;stroke-linejoin:miter;stroke-miterlimit:10;stroke-dasharray:none;stroke-opacity:1"
           id="path50"
           inkscape:connector-curvature="0" /><text
           transform="translate(684,280.69922)"
           style="font-variant:normal;font-weight:normal;font-size:14.00024414px;font-family:TeXGyreTermes;-inkscape-font-specification:TeXGyreTermes-Regular;writing-mode:lr-tb;fill:#000000;fill-opacity:1;fill-rule:nonzero;stroke:none"
           id="text54"><tspan
             x="0 5.2500916 11.998209 14.994262 21.000366 27.00647 36.750641 43.498756 50.246876 58.493019 62.245087 68.993202 74.999306 81.005409 85.499489 93.003624 99.75174 105.00183 108.7539 114.746 126.0022"
             y="0"
             sodipodi:role="line"
             id="tspan52">solveNonLinearSystem2</tspan></text>
<path
           d="m 795.25,222.047 c 0,0 0,26.863 0,26.863"
           style="fill:none;stroke:#000000;stroke-width:1;stroke-linecap:butt;stroke-linejoin:miter;stroke-miterlimit:10;stroke-dasharray:none;stroke-opacity:1"
           id="path56"
           inkscape:connector-curvature="0" /><path
           d="m 798.75,248.91 -3.5,10 -3.5,-10 z"
           style="fill:#000000;fill-opacity:1;fill-rule:nonzero;stroke:#000000;stroke-width:1;stroke-linecap:butt;stroke-linejoin:miter;stroke-miterlimit:10;stroke-dasharray:none;stroke-opacity:1"
           id="path58"
           inkscape:connector-curvature="0" /><path
           d="m 722,433 h 57 v 36 h -57 z"
           style="fill:none;stroke:#0000ff;stroke-width:1;stroke-linecap:butt;stroke-linejoin:miter;stroke-miterlimit:10;stroke-dasharray:none;stroke-opacity:1"
           id="path60"
           inkscape:connector-curvature="0" /><text
           transform="translate(730,454.69922)"
           style="font-variant:normal;font-weight:normal;font-size:14.00024414px;font-family:TeXGyreTermes;-inkscape-font-specification:TeXGyreTermes-Regular;writing-mode:lr-tb;fill:#000000;fill-opacity:1;fill-rule:nonzero;stroke:none"
           id="text64"><tspan
             x="0 5.2500916 11.998209 18.004314 23.996418 30.002523 35.252613"
             y="0"
             sodipodi:role="line"
             id="tspan62">success</tspan></text>
<path
           d="m 750.5,295.293 c 0,0 0,127.66 0,127.66"
           style="fill:none;stroke:#000000;stroke-width:1;stroke-linecap:butt;stroke-linejoin:miter;stroke-miterlimit:10;stroke-dasharray:none;stroke-opacity:1"
           id="path66"
           inkscape:connector-curvature="0" /><path
           d="m 754,422.953 -3.5,10 -3.5,-10 z"
           style="fill:#000000;fill-opacity:1;fill-rule:nonzero;stroke:#000000;stroke-width:1;stroke-linecap:butt;stroke-linejoin:miter;stroke-miterlimit:10;stroke-dasharray:none;stroke-opacity:1"
           id="path68"
           inkscape:connector-curvature="0" /><text
           transform="translate(750.5,367.69922)"
           style="font-variant:normal;font-weight:normal;font-size:14.00024414px;font-family:TeXGyreTermes;-inkscape-font-specification:TeXGyreTermes-Regular;writing-mode:lr-tb;fill:#000000;fill-opacity:1;fill-rule:nonzero;stroke:none"
           id="text72"><tspan
             x="0 3.7520654 8.2461433 14.994262"
             y="0"
             sodipodi:role="line"
             id="tspan70">true</tspan></text>
<path
           d="m 517.5,346 h 116 v 36 h -116 z"
           style="fill:none;stroke:#0000ff;stroke-width:1;stroke-linecap:butt;stroke-linejoin:miter;stroke-miterlimit:10;stroke-dasharray:none;stroke-opacity:1"
           id="path74"
           inkscape:connector-curvature="0" /><text
           transform="translate(525.5,367.69922)"
           style="font-variant:normal;font-weight:normal;font-size:14.00024414px;font-family:TeXGyreTermes;-inkscape-font-specification:TeXGyreTermes-Regular;writing-mode:lr-tb;fill:#000000;fill-opacity:1;fill-rule:nonzero;stroke:none"
           id="text78"><tspan
             x="0 3.7520654 7.5041308 13.496235 18.004314 21.75638 30.002523 38.248665 42.000732 45.752796 49.504864 55.496967 60.005047 72.74527 78.751373 85.499489 89.251556 95.24366"
             y="0"
             sodipodi:role="line"
             id="tspan76">iter == iterMax ? </tspan></text>
<path
           d="m 699,295.027 c 0,25.481 0,68.973 0,68.973 0,0 -55.367,0 -55.367,0"
           style="fill:none;stroke:#000000;stroke-width:1;stroke-linecap:butt;stroke-linejoin:miter;stroke-miterlimit:10;stroke-dasharray:none;stroke-opacity:1"
           id="path80"
           inkscape:connector-curvature="0" /><path
           d="m 643.633,367.5 -10,-3.5 10,-3.5 z"
           style="fill:#000000;fill-opacity:1;fill-rule:nonzero;stroke:#000000;stroke-width:1;stroke-linecap:butt;stroke-linejoin:miter;stroke-miterlimit:10;stroke-dasharray:none;stroke-opacity:1"
           id="path82"
           inkscape:connector-curvature="0" /><text
           transform="translate(633.5,324.19922)"
           style="font-variant:normal;font-weight:normal;font-size:14.00024414px;font-family:TeXGyreTermes;-inkscape-font-specification:TeXGyreTermes-Regular;writing-mode:lr-tb;fill:#000000;fill-opacity:1;fill-rule:nonzero;stroke:none"
           id="text86"><tspan
             x="0 4.4940782 10.500183 14.252249 19.50234"
             y="0"
             sodipodi:role="line"
             id="tspan84">false</tspan></text>
<path
           d="m 548.5,433 h 54 v 36 h -54 z"
           style="fill:none;stroke:#0000ff;stroke-width:1;stroke-linecap:butt;stroke-linejoin:miter;stroke-miterlimit:10;stroke-dasharray:none;stroke-opacity:1"
           id="path88"
           inkscape:connector-curvature="0" /><text
           transform="translate(557.5,454.69922)"
           style="font-variant:normal;font-weight:normal;font-size:14.00024414px;font-family:TeXGyreTermes;-inkscape-font-specification:TeXGyreTermes-Regular;writing-mode:lr-tb;fill:#000000;fill-opacity:1;fill-rule:nonzero;stroke:none"
           id="text92"><tspan
             x="0 4.4940782 10.500183 14.252249 18.004314 24.752432 29.24651"
             y="0"
             sodipodi:role="line"
             id="tspan90">failure</tspan></text>
<path
           d="m 529.5,521 h 88 v 36 h -88 z"
           style="fill:none;stroke:#0000ff;stroke-width:1;stroke-linecap:butt;stroke-linejoin:miter;stroke-miterlimit:10;stroke-dasharray:none;stroke-opacity:1"
           id="path94"
           inkscape:connector-curvature="0" /><text
           transform="translate(537.5,542.69922)"
           style="font-variant:normal;font-weight:normal;font-size:14.00024414px;font-family:TeXGyreTermes;-inkscape-font-specification:TeXGyreTermes-Regular;writing-mode:lr-tb;fill:#000000;fill-opacity:1;fill-rule:nonzero;stroke:none"
           id="text98"><tspan
             x="0 4.4940782 10.500183 17.248301 23.996418 28.504498 32.256561 35.994629 40.502705 46.494812 50.246876 53.99894 60.747059 65.255135"
             y="0"
             sodipodi:role="line"
             id="tspan96">report failure</tspan></text>
<path
           d="m 575.5,469.234 c 0,0 0,41.555 0,41.555"
           style="fill:none;stroke:#000000;stroke-width:1;stroke-linecap:butt;stroke-linejoin:miter;stroke-miterlimit:10;stroke-dasharray:none;stroke-opacity:1"
           id="path100"
           inkscape:connector-curvature="0" /><path
           d="m 579,510.789 -3.5,10 -3.5,-10 z"
           style="fill:#000000;fill-opacity:1;fill-rule:nonzero;stroke:#000000;stroke-width:1;stroke-linecap:butt;stroke-linejoin:miter;stroke-miterlimit:10;stroke-dasharray:none;stroke-opacity:1"
           id="path102"
           inkscape:connector-curvature="0" /><path
           d="m 733,521 h 93 v 36 h -93 z"
           style="fill:none;stroke:#0000ff;stroke-width:1;stroke-linecap:butt;stroke-linejoin:miter;stroke-miterlimit:10;stroke-dasharray:none;stroke-opacity:1"
           id="path104"
           inkscape:connector-curvature="0" /><text
           transform="translate(741,542.69922)"
           style="font-variant:normal;font-weight:normal;font-size:14.00024414px;font-family:TeXGyreTermes;-inkscape-font-specification:TeXGyreTermes-Regular;writing-mode:lr-tb;fill:#000000;fill-opacity:1;fill-rule:nonzero;stroke:none"
           id="text108"><tspan
             x="0 4.4940782 10.500183 17.248301 23.996418 28.504498 32.256561 35.994629 41.24472 48.006836 53.99894 60.005047 65.997147 71.247238"
             y="0"
             sodipodi:role="line"
             id="tspan106">report success</tspan></text>
<path
           d="m 756,469.234 c 0,0 0,41.555 0,41.555"
           style="fill:none;stroke:#000000;stroke-width:1;stroke-linecap:butt;stroke-linejoin:miter;stroke-miterlimit:10;stroke-dasharray:none;stroke-opacity:1"
           id="path110"
           inkscape:connector-curvature="0" /><path
           d="m 759.5,510.789 -3.5,10 -3.5,-10 z"
           style="fill:#000000;fill-opacity:1;fill-rule:nonzero;stroke:#000000;stroke-width:1;stroke-linecap:butt;stroke-linejoin:miter;stroke-miterlimit:10;stroke-dasharray:none;stroke-opacity:1"
           id="path112"
           inkscape:connector-curvature="0" /><path
           d="m 575.5,382.027 c 0,0 0,40.969 0,40.969"
           style="fill:none;stroke:#000000;stroke-width:1;stroke-linecap:butt;stroke-linejoin:miter;stroke-miterlimit:10;stroke-dasharray:none;stroke-opacity:1"
           id="path114"
           inkscape:connector-curvature="0" /><path
           d="m 579,422.996 -3.5,10 -3.5,-10 z"
           style="fill:#000000;fill-opacity:1;fill-rule:nonzero;stroke:#000000;stroke-width:1;stroke-linecap:butt;stroke-linejoin:miter;stroke-miterlimit:10;stroke-dasharray:none;stroke-opacity:1"
           id="path116"
           inkscape:connector-curvature="0" /><text
           transform="translate(575.5,411.19922)"
           style="font-variant:normal;font-weight:normal;font-size:14.00024414px;font-family:TeXGyreTermes;-inkscape-font-specification:TeXGyreTermes-Regular;writing-mode:lr-tb;fill:#000000;fill-opacity:1;fill-rule:nonzero;stroke:none"
           id="text120"><tspan
             x="0 3.7520654 8.2461433 14.994262"
             y="0"
             sodipodi:role="line"
             id="tspan118">true</tspan></text>
<path
           d="m 310,433 h 141 v 36 H 310 Z"
           style="fill:none;stroke:#0000ff;stroke-width:1;stroke-linecap:butt;stroke-linejoin:miter;stroke-miterlimit:10;stroke-dasharray:none;stroke-opacity:1"
           id="path122"
           inkscape:connector-curvature="0" /><text
           transform="translate(318,454.69922)"
           style="font-variant:normal;font-weight:normal;font-size:14.00024414px;font-family:TeXGyreTermes;-inkscape-font-specification:TeXGyreTermes-Regular;writing-mode:lr-tb;fill:#000000;fill-opacity:1;fill-rule:nonzero;stroke:none"
           id="text126"><tspan
             x="0 3.7520654 9.0021572 12.754222 19.50234 25.494444 29.24651 32.998573 39.004681 42.756744 48.748848 54.754955 59.249031 65.997147 71.247238 74.999306 81.747421"
             y="0"
             sodipodi:role="line"
             id="tspan124">is delta zeros de</tspan></text>
<text
           transform="translate(405.75353,454.69922)"
           style="font-variant:normal;font-weight:normal;font-size:14.00024414px;font-family:TeXGyreTermes;-inkscape-font-specification:TeXGyreTermes-Regular;writing-mode:lr-tb;fill:#000000;fill-opacity:1;fill-rule:nonzero;stroke:none"
           id="text130"><tspan
             x="0"
             y="0"
             id="tspan128">ﬁ</tspan></text>
<text
           transform="translate(413.24366,454.69922)"
           style="font-variant:normal;font-weight:normal;font-size:14.00024414px;font-family:TeXGyreTermes;-inkscape-font-specification:TeXGyreTermes-Regular;writing-mode:lr-tb;fill:#000000;fill-opacity:1;fill-rule:nonzero;stroke:none"
           id="text134"><tspan
             x="0 6.7621179 12.754222 19.50234 23.254406"
             y="0"
             sodipodi:role="line"
             id="tspan132">ned ?</tspan></text>
<path
           d="m 523.5,382.027 c 0,25.481 0,68.973 0,68.973 0,0 -62.336,0 -62.336,0"
           style="fill:none;stroke:#000000;stroke-width:1;stroke-linecap:butt;stroke-linejoin:miter;stroke-miterlimit:10;stroke-dasharray:none;stroke-opacity:1"
           id="path136"
           inkscape:connector-curvature="0" /><path
           d="m 461.164,454.5 -10,-3.5 9.996,-3.5 z"
           style="fill:#000000;fill-opacity:1;fill-rule:nonzero;stroke:#000000;stroke-width:1;stroke-linecap:butt;stroke-linejoin:miter;stroke-miterlimit:10;stroke-dasharray:none;stroke-opacity:1"
           id="path138"
           inkscape:connector-curvature="0" /><text
           transform="translate(432.5,411.19922)"
           style="font-variant:normal;font-weight:normal;font-size:14.00024414px;font-family:TeXGyreTermes;-inkscape-font-specification:TeXGyreTermes-Regular;writing-mode:lr-tb;fill:#000000;fill-opacity:1;fill-rule:nonzero;stroke:none"
           id="text142"><tspan
             x="0 4.4940782 10.500183 14.252249 19.50234"
             y="0"
             sodipodi:role="line"
             id="tspan140">false</tspan></text>
<path
           d="m 289.5,521 h 182 v 36 h -182 z"
           style="fill:none;stroke:#0000ff;stroke-width:1;stroke-linecap:butt;stroke-linejoin:miter;stroke-miterlimit:10;stroke-dasharray:none;stroke-opacity:1"
           id="path144"
           inkscape:connector-curvature="0" /><text
           transform="translate(297.5,542.69922)"
           style="font-variant:normal;font-weight:normal;font-size:14.00024414px;font-family:TeXGyreTermes;-inkscape-font-specification:TeXGyreTermes-Regular;writing-mode:lr-tb;fill:#000000;fill-opacity:1;fill-rule:nonzero;stroke:none"
           id="text148"><tspan
             x="0 6.7481174 10.500183 17.248301 21.000366 27.748484 33.754589 37.506653 43.498756 50.246876 54.754955 59.249031 65.255135 72.003258 75.755318 79.493385 85.499489 90.74958 94.501648 98.253716 109.49591 115.50201 119.25408 125.24619 128.99825 135.00435 141.75247 145.50453 149.25661 158.24475"
             y="0"
             sodipodi:role="line"
             id="tspan146">divide current estimate by two</tspan></text>
<path
           d="m 380.5,469.234 c 0,0 0,41.555 0,41.555"
           style="fill:none;stroke:#000000;stroke-width:1;stroke-linecap:butt;stroke-linejoin:miter;stroke-miterlimit:10;stroke-dasharray:none;stroke-opacity:1"
           id="path150"
           inkscape:connector-curvature="0" /><path
           d="m 384,510.789 -3.5,10 -3.5,-10 z"
           style="fill:#000000;fill-opacity:1;fill-rule:nonzero;stroke:#000000;stroke-width:1;stroke-linecap:butt;stroke-linejoin:miter;stroke-miterlimit:10;stroke-dasharray:none;stroke-opacity:1"
           id="path152"
           inkscape:connector-curvature="0" /><text
           transform="translate(380.5,498.19922)"
           style="font-variant:normal;font-weight:normal;font-size:14.00024414px;font-family:TeXGyreTermes;-inkscape-font-specification:TeXGyreTermes-Regular;writing-mode:lr-tb;fill:#000000;fill-opacity:1;fill-rule:nonzero;stroke:none"
           id="text156"><tspan
             x="0 4.4940782 10.500183 14.252249 19.50234"
             y="0"
             sodipodi:role="line"
             id="tspan154">false</tspan></text>
<path
           d="m 40,520 h 191 v 38 H 40 Z"
           style="fill:none;stroke:#0000ff;stroke-width:1;stroke-linecap:butt;stroke-linejoin:miter;stroke-miterlimit:10;stroke-dasharray:none;stroke-opacity:1"
           id="path158"
           inkscape:connector-curvature="0" /><text
           transform="translate(48,535.19922)"
           style="font-variant:normal;font-weight:normal;font-size:14.00024414px;font-family:TeXGyreTermes;-inkscape-font-specification:TeXGyreTermes-Regular;writing-mode:lr-tb;fill:#000000;fill-opacity:1;fill-rule:nonzero;stroke:none"
           id="text164"><tspan
             x="0 6.7481174 10.500183 17.248301 21.000366 27.748484 33.754589 37.506653 43.498756 50.246876 54.754955 59.249031 65.255135 72.003258 75.755318 79.493385 85.499489 92.247604 96.755684 101.24976 107.25587 113.24797 117.00004 120.75211 127.50022 134.24834 138.00041 144.00652 150.75462 154.5067 158.24475 167.24692"
             y="0"
             sodipodi:role="line"
             id="tspan160">divide current correction by two</tspan><tspan
             x="33.000004 39.006107 45.754227 52.502342 56.25441 63.002525 69.750641 76.498764 82.504868 86.256935 92.249039 96.001099 101.9932 107.24329 110.99536 114.74743 126.00362 131.99573 135.74779"
             y="15.000001"
             sodipodi:role="line"
             id="tspan162">and update estimate</tspan></text>
<path
           d="m 309.965,451 c -72.379,0 -174.465,0 -174.465,0 0,0 0,58.906 0,58.906"
           style="fill:none;stroke:#000000;stroke-width:1;stroke-linecap:butt;stroke-linejoin:miter;stroke-miterlimit:10;stroke-dasharray:none;stroke-opacity:1"
           id="path166"
           inkscape:connector-curvature="0" /><path
           d="m 139,509.906 -3.5,10 -3.5,-10 z"
           style="fill:#000000;fill-opacity:1;fill-rule:nonzero;stroke:#000000;stroke-width:1;stroke-linecap:butt;stroke-linejoin:miter;stroke-miterlimit:10;stroke-dasharray:none;stroke-opacity:1"
           id="path168"
           inkscape:connector-curvature="0" /><text
           transform="translate(215.5,498.19922)"
           style="font-variant:normal;font-weight:normal;font-size:14.00024414px;font-family:TeXGyreTermes;-inkscape-font-specification:TeXGyreTermes-Regular;writing-mode:lr-tb;fill:#000000;fill-opacity:1;fill-rule:nonzero;stroke:none"
           id="text172"><tspan
             x="0 3.7520654 8.2461433 14.994262"
             y="0"
             sodipodi:role="line"
             id="tspan170">true</tspan></text>
<path
           d="m 348,595 h 65 v 36 h -65 z"
           style="fill:none;stroke:#0000ff;stroke-width:1;stroke-linecap:butt;stroke-linejoin:miter;stroke-miterlimit:10;stroke-dasharray:none;stroke-opacity:1"
           id="path174"
           inkscape:connector-curvature="0" /><text
           transform="translate(356,616.69922)"
           style="font-variant:normal;font-weight:normal;font-size:14.00024414px;font-family:TeXGyreTermes;-inkscape-font-specification:TeXGyreTermes-Regular;writing-mode:lr-tb;fill:#000000;fill-opacity:1;fill-rule:nonzero;stroke:none"
           id="text178"><tspan
             x="0 3.7520654 7.5041308 13.496235 18.004314 21.75638 30.002523 38.248665 42.000732"
             y="0"
             sodipodi:role="line"
             id="tspan176">iter += 1</tspan></text>
<path
           d="m 380.5,557.293 c 0,0 0,27.625 0,27.625"
           style="fill:none;stroke:#000000;stroke-width:1;stroke-linecap:butt;stroke-linejoin:miter;stroke-miterlimit:10;stroke-dasharray:none;stroke-opacity:1"
           id="path180"
           inkscape:connector-curvature="0" /><path
           d="m 384,584.918 -3.5,10 -3.5,-10 z"
           style="fill:#000000;fill-opacity:1;fill-rule:nonzero;stroke:#000000;stroke-width:1;stroke-linecap:butt;stroke-linejoin:miter;stroke-miterlimit:10;stroke-dasharray:none;stroke-opacity:1"
           id="path182"
           inkscape:connector-curvature="0" /><path
           d="m 135.5,558.059 c 0,21.925 0,54.941 0,54.941 0,0 202.465,0 202.465,0"
           style="fill:none;stroke:#000000;stroke-width:1;stroke-linecap:butt;stroke-linejoin:miter;stroke-miterlimit:10;stroke-dasharray:none;stroke-opacity:1"
           id="path184"
           inkscape:connector-curvature="0" /><path
           d="m 337.965,609.5 10,3.5 -10,3.5 z"
           style="fill:#000000;fill-opacity:1;fill-rule:nonzero;stroke:#000000;stroke-width:1;stroke-linecap:butt;stroke-linejoin:miter;stroke-miterlimit:10;stroke-dasharray:none;stroke-opacity:1"
           id="path186"
           inkscape:connector-curvature="0" /><path
           d="m 413.133,613 c 108.09,0 447.617,0 447.617,0 0,0 0,-380.898 0,-380.898"
           style="fill:none;stroke:#000000;stroke-width:1;stroke-linecap:butt;stroke-linejoin:miter;stroke-miterlimit:10;stroke-dasharray:none;stroke-opacity:1"
           id="path188"
           inkscape:connector-curvature="0" /><path
           d="m 857.25,232.102 3.5,-10 3.5,10 z"
           style="fill:#000000;fill-opacity:1;fill-rule:nonzero;stroke:#000000;stroke-width:1;stroke-linecap:butt;stroke-linejoin:miter;stroke-miterlimit:10;stroke-dasharray:none;stroke-opacity:1"
           id="path190"
           inkscape:connector-curvature="0" /><path
           d="m 977.859,58 c 0,0.48 -0.718,0.48 -0.718,0 0,-0.48 0.718,-0.48 0.718,0"
           style="fill:#0000ff;fill-opacity:1;fill-rule:nonzero;stroke:none"
           id="path192"
           inkscape:connector-curvature="0" /><path
           d="m 977.859,58 c 0,0.48 -0.718,0.48 -0.718,0 0,-0.48 0.718,-0.48 0.718,0"
           style="fill:none;stroke:#0000ff;stroke-width:1;stroke-linecap:butt;stroke-linejoin:miter;stroke-miterlimit:10;stroke-dasharray:none;stroke-opacity:1"
           id="path194"
           inkscape:connector-curvature="0" /></g></g></g></svg>