<?xml version="1.0" encoding="UTF-8" standalone="no"?>
<!-- Created with Inkscape (http://www.inkscape.org/) -->

<svg
   xmlns:dc="http://purl.org/dc/elements/1.1/"
   xmlns:cc="http://creativecommons.org/ns#"
   xmlns:rdf="http://www.w3.org/1999/02/22-rdf-syntax-ns#"
   xmlns:svg="http://www.w3.org/2000/svg"
   xmlns="http://www.w3.org/2000/svg"
   xmlns:sodipodi="http://sodipodi.sourceforge.net/DTD/sodipodi-0.dtd"
   xmlns:inkscape="http://www.inkscape.org/namespaces/inkscape"
   version="1.1"
   id="svg2"
   xml:space="preserve"
   width="2938.2766"
   height="689.7099"
   viewBox="0 0 2938.2766 689.7099"
   sodipodi:docname="view.svg"
   inkscape:version="0.92.4 (5da689c313, 2019-01-14)"><metadata
     id="metadata8"><rdf:RDF><cc:Work
         rdf:about=""><dc:format>image/svg+xml</dc:format><dc:type
           rdf:resource="http://purl.org/dc/dcmitype/StillImage" /><dc:title></dc:title></cc:Work></rdf:RDF></metadata><defs
     id="defs6" /><sodipodi:namedview
     pagecolor="#ffffff"
     bordercolor="#666666"
     borderopacity="1"
     objecttolerance="10"
     gridtolerance="10"
     guidetolerance="10"
     inkscape:pageopacity="0"
     inkscape:pageshadow="2"
     inkscape:window-width="898"
     inkscape:window-height="480"
     id="namedview4"
     showgrid="false"
     inkscape:zoom="0.14668462"
     inkscape:cx="1469.1383"
     inkscape:cy="344.85495"
     inkscape:window-x="0"
     inkscape:window-y="27"
     inkscape:window-maximized="0"
     inkscape:current-layer="g10" /><g
     id="g10"
     inkscape:groupmode="layer"
     inkscape:label="view"
     transform="matrix(1.3333333,0,0,1.3333333,0,1.7242747e-5)"><g
       id="g12"><g
         id="g14"><path
           d="m 31.309,0.426 h 2141.089 c 17.11,0 30.883,13.773 30.883,30.883 v 398.949 c 0,17.109 -13.773,30.883 -30.883,30.883 H 31.309 c -17.11,0 -30.883,-13.774 -30.883,-30.883 V 31.309 c 0,-17.11 13.773,-30.883 30.883,-30.883 z"
           style="fill:none;stroke:#000000;stroke-width:0.85039401;stroke-linecap:butt;stroke-linejoin:round;stroke-miterlimit:4;stroke-dasharray:none;stroke-opacity:1"
           id="path16"
           inkscape:connector-curvature="0" /></g><g
         id="g18"><path
           d="m 65.059,41.141 h 1804.664 c 17.109,0 30.882,13.773 30.882,30.882 v 317.52 c 0,17.109 -13.773,30.883 -30.882,30.883 H 65.059 c -17.11,0 -30.883,-13.774 -30.883,-30.883 V 72.023 c 0,-17.109 13.773,-30.882 30.883,-30.882 z"
           style="fill:none;stroke:#000000;stroke-width:0.85039401;stroke-linecap:butt;stroke-linejoin:round;stroke-miterlimit:4;stroke-dasharray:none;stroke-opacity:1"
           id="path20"
           inkscape:connector-curvature="0" /></g><g
         id="g22"><path
           d="m 109.074,112.926 h 124.664 c 17.11,0 30.883,13.773 30.883,30.883 v 124.664 c 0,17.109 -13.773,30.882 -30.883,30.882 H 109.074 c -17.109,0 -30.883,-13.773 -30.883,-30.882 V 143.809 c 0,-17.11 13.774,-30.883 30.883,-30.883 z"
           style="fill:none;stroke:#000000;stroke-width:0.85039401;stroke-linecap:butt;stroke-linejoin:round;stroke-miterlimit:4;stroke-dasharray:none;stroke-opacity:1"
           id="path24"
           inkscape:connector-curvature="0" /></g><g
         id="g26"><path
           d="m 427.469,112.926 h 124.664 c 17.109,0 30.883,13.773 30.883,30.883 v 124.664 c 0,17.109 -13.774,30.882 -30.883,30.882 H 427.469 c -17.11,0 -30.883,-13.773 -30.883,-30.882 V 143.809 c 0,-17.11 13.773,-30.883 30.883,-30.883 z"
           style="fill:none;stroke:#000000;stroke-width:0.85039401;stroke-linecap:butt;stroke-linejoin:round;stroke-miterlimit:4;stroke-dasharray:none;stroke-opacity:1"
           id="path28"
           inkscape:connector-curvature="0" /></g><g
         id="g30"><path
           d="m 745.859,112.926 h 124.664 c 17.11,0 30.883,13.773 30.883,30.883 v 124.664 c 0,17.109 -13.773,30.882 -30.883,30.882 H 745.859 c -17.105,0 -30.879,-13.773 -30.879,-30.882 V 143.809 c 0,-17.11 13.774,-30.883 30.879,-30.883 z"
           style="fill:none;stroke:#000000;stroke-width:0.85039401;stroke-linecap:butt;stroke-linejoin:round;stroke-miterlimit:4;stroke-dasharray:none;stroke-opacity:1"
           id="path32"
           inkscape:connector-curvature="0" /></g><g
         id="g34"><path
           d="m 1064.254,112.926 h 124.664 c 17.109,0 30.883,13.773 30.883,30.883 v 124.664 c 0,17.109 -13.774,30.882 -30.883,30.882 h -124.664 c -17.109,0 -30.883,-13.773 -30.883,-30.882 V 143.809 c 0,-17.11 13.774,-30.883 30.883,-30.883 z"
           style="fill:none;stroke:#000000;stroke-width:0.85039401;stroke-linecap:butt;stroke-linejoin:round;stroke-miterlimit:4;stroke-dasharray:none;stroke-opacity:1"
           id="path36"
           inkscape:connector-curvature="0" /></g><g
         id="g38"><path
           d="m 1382.648,112.926 h 124.664 c 17.106,0 30.879,13.773 30.879,30.883 v 124.664 c 0,17.109 -13.773,30.882 -30.879,30.882 h -124.664 c -17.109,0 -30.882,-13.773 -30.882,-30.882 V 143.809 c 0,-17.11 13.773,-30.883 30.882,-30.883 z"
           style="fill:none;stroke:#000000;stroke-width:0.85039401;stroke-linecap:butt;stroke-linejoin:round;stroke-miterlimit:4;stroke-dasharray:none;stroke-opacity:1"
           id="path40"
           inkscape:connector-curvature="0" /></g><g
         id="g42"><path
           d="m 1701.039,112.926 h 124.664 c 17.109,0 30.883,13.773 30.883,30.883 v 124.664 c 0,17.109 -13.774,30.882 -30.883,30.882 h -124.664 c -17.109,0 -30.883,-13.773 -30.883,-30.882 V 143.809 c 0,-17.11 13.774,-30.883 30.883,-30.883 z"
           style="fill:none;stroke:#000000;stroke-width:0.85039401;stroke-linecap:butt;stroke-linejoin:round;stroke-miterlimit:4;stroke-dasharray:none;stroke-opacity:1"
           id="path44"
           inkscape:connector-curvature="0" /></g><text
         transform="translate(156.14957,223.61214)"
         style="font-variant:normal;font-weight:normal;font-size:47.99999619px;font-family:'DejaVu Sans';-inkscape-font-specification:DejaVuSans;writing-mode:lr-tb;fill:#000000;fill-opacity:1;fill-rule:nonzero;stroke:none"
         id="text54"><tspan
           x="0 317.95197"
           y="0"
           sodipodi:role="line"
           id="tspan46">01</tspan><tspan
           x="637.41858"
           y="0.3398515"
           id="tspan48">2</tspan><tspan
           x="955.26062 1273.7406"
           y="0"
           sodipodi:role="line"
           id="tspan50">34</tspan><tspan
           x="1592.1987"
           y="-0.31639773"
           id="tspan52">5</tspan></text>
<g
         id="g56"><path
           d="m 2013.984,112.926 h 124.664 c 17.11,0 30.883,13.773 30.883,30.883 v 124.664 c 0,17.109 -13.773,30.882 -30.883,30.882 h -124.664 c -17.105,0 -30.879,-13.773 -30.879,-30.882 V 143.809 c 0,-17.11 13.774,-30.883 30.879,-30.883 z"
           style="fill:none;stroke:#000000;stroke-width:0.85039401;stroke-linecap:butt;stroke-linejoin:round;stroke-miterlimit:4;stroke-dasharray:none;stroke-opacity:1"
           id="path58"
           inkscape:connector-curvature="0" /></g><text
         transform="translate(2060.8845,223.61214)"
         style="font-variant:normal;font-weight:normal;font-size:47.99999619px;font-family:'DejaVu Sans';-inkscape-font-specification:DejaVuSans;writing-mode:lr-tb;fill:#000000;fill-opacity:1;fill-rule:nonzero;stroke:none"
         id="text68"><tspan
           x="0"
           y="0"
           id="tspan60">6</tspan><tspan
           x="-1248.241 -1217.953 -1204.657 -1175.281 -1150.321 -1131.505 -1118.209 -1091.8569 -1076.4969 -1051.537 -1032.7209 -1012.993 -983.617 -970.32098"
           y="158.24164"
           sodipodi:role="line"
           id="tspan62">Elastic strain</tspan><tspan
           x="-0.57422394"
           y="157.8432"
           id="tspan64">P</tspan><tspan
           x="-973.69086"
           y="293.67023"
           id="tspan66">Y</tspan></text>
</g></g></svg>