<?xml version="1.0" encoding="UTF-8" standalone="no"?>
<!-- Created with Inkscape (http://www.inkscape.org/) -->

<svg
   xmlns:dc="http://purl.org/dc/elements/1.1/"
   xmlns:cc="http://creativecommons.org/ns#"
   xmlns:rdf="http://www.w3.org/1999/02/22-rdf-syntax-ns#"
   xmlns:svg="http://www.w3.org/2000/svg"
   xmlns="http://www.w3.org/2000/svg"
   xmlns:sodipodi="http://sodipodi.sourceforge.net/DTD/sodipodi-0.dtd"
   xmlns:inkscape="http://www.inkscape.org/namespaces/inkscape"
   id="svg2"
   version="1.1"
   inkscape:version="0.48.3.1 r9886"
   width="639.93652"
   height="442.0675"
   xml:space="preserve"
   sodipodi:docname="cyrano-mfront.svg"><metadata
     id="metadata8"><rdf:RDF><cc:Work
         rdf:about=""><dc:format>image/svg+xml</dc:format><dc:type
           rdf:resource="http://purl.org/dc/dcmitype/StillImage" /><dc:title /></cc:Work></rdf:RDF></metadata><defs
     id="defs6"><clipPath
       clipPathUnits="userSpaceOnUse"
       id="clipPath18"><path
         d="m 429.77,5978.27 0,-3536.54 5090.46,0 0,3536.54 -5090.46,0 z"
         id="path20"
         inkscape:connector-curvature="0" /></clipPath><clipPath
       clipPathUnits="userSpaceOnUse"
       id="clipPath28"><path
         d="m 451.184,2462.31 5060.046,0 0,3306.2 -5060.046,0 0,-3306.2 z"
         id="path30"
         inkscape:connector-curvature="0" /></clipPath><clipPath
       clipPathUnits="userSpaceOnUse"
       id="clipPath256"><path
         d="m 458.363,2476.56 5038.407,0 0,3284.81 -5038.407,0 0,-3284.81 z"
         clip-rule="evenodd"
         id="path258"
         inkscape:connector-curvature="0" /></clipPath><clipPath
       clipPathUnits="userSpaceOnUse"
       id="clipPath270"><path
         d="m 451.184,2462.31 5060.046,0 0,3306.2 -5060.046,0 0,-3306.2 z"
         id="path272"
         inkscape:connector-curvature="0" /></clipPath><clipPath
       clipPathUnits="userSpaceOnUse"
       id="clipPath284"><path
         d="m 458.363,2476.56 5038.407,0 0,3284.81 -5038.407,0 0,-3284.81 z"
         clip-rule="evenodd"
         id="path286"
         inkscape:connector-curvature="0" /></clipPath><clipPath
       clipPathUnits="userSpaceOnUse"
       id="clipPath298"><path
         d="m 451.184,2462.31 5060.046,0 0,3306.2 -5060.046,0 0,-3306.2 z"
         id="path300"
         inkscape:connector-curvature="0" /></clipPath><clipPath
       clipPathUnits="userSpaceOnUse"
       id="clipPath312"><path
         d="m 458.363,2476.56 5038.407,0 0,3284.81 -5038.407,0 0,-3284.81 z"
         clip-rule="evenodd"
         id="path314"
         inkscape:connector-curvature="0" /></clipPath><clipPath
       clipPathUnits="userSpaceOnUse"
       id="clipPath326"><path
         d="m 451.184,2462.31 5060.046,0 0,3306.2 -5060.046,0 0,-3306.2 z"
         id="path328"
         inkscape:connector-curvature="0" /></clipPath><clipPath
       clipPathUnits="userSpaceOnUse"
       id="clipPath362"><path
         d="m 458.363,2476.56 5038.407,0 0,3284.81 -5038.407,0 0,-3284.81 z"
         clip-rule="evenodd"
         id="path364"
         inkscape:connector-curvature="0" /></clipPath><clipPath
       clipPathUnits="userSpaceOnUse"
       id="clipPath376"><path
         d="m 451.184,2462.31 5060.046,0 0,3306.2 -5060.046,0 0,-3306.2 z"
         id="path378"
         inkscape:connector-curvature="0" /></clipPath><clipPath
       clipPathUnits="userSpaceOnUse"
       id="clipPath388"><path
         d="m 429.77,5978.27 0,-3536.54 5090.46,0 0,3536.54 -5090.46,0 z"
         id="path390"
         inkscape:connector-curvature="0" /></clipPath></defs><sodipodi:namedview
     pagecolor="#ffffff"
     bordercolor="#666666"
     borderopacity="1"
     objecttolerance="10"
     gridtolerance="10"
     guidetolerance="10"
     inkscape:pageopacity="0"
     inkscape:pageshadow="2"
     inkscape:window-width="1920"
     inkscape:window-height="1021"
     id="namedview4"
     showgrid="false"
     inkscape:zoom="1.8617066"
     inkscape:cx="322.85708"
     inkscape:cy="221.03375"
     inkscape:window-x="0"
     inkscape:window-y="27"
     inkscape:window-maximized="1"
     inkscape:current-layer="g12"
     fit-margin-top="0"
     fit-margin-left="0"
     fit-margin-right="0"
     fit-margin-bottom="0" /><g
     id="g10"
     inkscape:groupmode="layer"
     inkscape:label="ink_ext_XXXXXX"
     transform="matrix(1.25,0,0,-1.25,-50.0922,747.28375)"><g
       id="g12"
       transform="scale(0.1,0.1)"><g
   id="g14"><g
     id="g16"
     clip-path="url(#clipPath18)"><path
       d="m 0,1602.31 6546.18,0 0,5400 -6546.18,0 0,-5400 z"
       style="fill:#ffffff;fill-opacity:1;fill-rule:evenodd;stroke:none"
       id="path22"
       inkscape:connector-curvature="0" /></g></g><g
   id="g24"><g
     id="g26"
     clip-path="url(#clipPath28)"><path
       d="m 458.363,2476.56 5038.4,0 0,3284.81 -5038.4,0 0,-3284.81 z"
       style="fill:#ffffff;fill-opacity:1;fill-rule:evenodd;stroke:none"
       id="path32"
       inkscape:connector-curvature="0" /><path
       d="m 1061.24,3021.64 4205.85,0 0,2560.42 -4205.85,0 0,-2560.42 z"
       style="fill:#ffffff;fill-opacity:1;fill-rule:evenodd;stroke:none"
       id="path34"
       inkscape:connector-curvature="0" /><g
       id="g36"
       transform="scale(1.00036,0.99964)"><path
         d="m 1064.45,3341.99 4204.34,0 m -4204.34,322.84 4204.34,0 m -4204.34,315.68 4204.34,0 m -4204.34,322.86 4204.34,0 m -4204.34,322.86 4204.34,0 m -4204.34,315.69 4204.34,0 m -4204.34,322.85 4204.34,0 m -4204.34,322.86 4204.34,0"
         style="fill:none;stroke:#969595;stroke-width:7.17462015;stroke-linecap:butt;stroke-linejoin:round;stroke-miterlimit:10;stroke-opacity:1;stroke-dasharray:none"
         id="path38"
         inkscape:connector-curvature="0" /></g><g
       id="g40"
       transform="scale(1.00036,0.99964)"><path
         d="m 1064.45,3019.14 4204.34,0 0,2568.52 -4204.34,0 0,-2568.52 z"
         style="fill:none;stroke:#231f20;stroke-width:7.17462015;stroke-linecap:butt;stroke-linejoin:round;stroke-miterlimit:10;stroke-opacity:1;stroke-dasharray:none"
         id="path42"
         inkscape:connector-curvature="0" /></g><g
       id="g44"
       transform="scale(1.00036,0.99964)"><path
         d="m 1064.45,3019.14 0,2568.49"
         style="fill:none;stroke:#969595;stroke-width:7.17462015;stroke-linecap:butt;stroke-linejoin:round;stroke-miterlimit:10;stroke-opacity:1;stroke-dasharray:none"
         id="path46"
         inkscape:connector-curvature="0" /></g><g
       id="g48"
       transform="scale(1.00036,0.99964)"><path
         d="m 999.883,3019.14 64.567,0 m -64.567,322.85 64.567,0 m -64.567,322.84 64.567,0 m -64.567,315.68 64.567,0 m -64.567,322.86 64.567,0 m -64.567,322.86 64.567,0 m -64.567,315.69 64.567,0 m -64.567,322.85 64.567,0 m -64.567,322.86 64.567,0"
         style="fill:none;stroke:#969595;stroke-width:7.17462015;stroke-linecap:butt;stroke-linejoin:round;stroke-miterlimit:10;stroke-opacity:1;stroke-dasharray:none"
         id="path50"
         inkscape:connector-curvature="0" /></g><g
       id="g52"
       transform="scale(1.00036,0.99964)"><path
         d="m 1064.45,3019.14 4204.34,0"
         style="fill:none;stroke:#969595;stroke-width:7.17462015;stroke-linecap:butt;stroke-linejoin:round;stroke-miterlimit:10;stroke-opacity:1;stroke-dasharray:none"
         id="path54"
         inkscape:connector-curvature="0" /></g><g
       id="g56"
       transform="scale(1.00036,0.99964)"><path
         d="m 1064.45,3019.14 0,-57.4 m 1047.49,57.4 0,-57.4 m 1054.68,57.4 0,-57.4 m 1047.5,57.4 0,-57.4 m 1054.67,57.4 0,-57.4"
         style="fill:none;stroke:#969595;stroke-width:7.17462015;stroke-linecap:butt;stroke-linejoin:round;stroke-miterlimit:10;stroke-opacity:1;stroke-dasharray:none"
         id="path58"
         inkscape:connector-curvature="0" /></g><path
       d="m 1171.23,4449.93 -41.8,41.83 41.8,41.84 41.81,-41.84"
       style="fill:#547dc4;fill-opacity:1;fill-rule:evenodd;stroke:none"
       id="path60"
       inkscape:connector-curvature="0" /><g
       id="g62"
       transform="scale(1.00036,0.99964)"><path
         d="m 1170.81,4451.53 -41.78,41.85 41.78,41.85 41.79,-41.85 -41.79,-41.85"
         style="fill:none;stroke:#4f7ac2;stroke-width:7.17462015;stroke-linecap:butt;stroke-linejoin:round;stroke-miterlimit:10;stroke-opacity:1;stroke-dasharray:none"
         id="path64"
         inkscape:connector-curvature="0" /></g><path
       d="m 1276.2,4708.84 -41.81,41.84 41.81,41.83 41.8,-41.83"
       style="fill:#547dc4;fill-opacity:1;fill-rule:evenodd;stroke:none"
       id="path66"
       inkscape:connector-curvature="0" /><g
       id="g68"
       transform="scale(1.00036,0.99964)"><path
         d="m 1275.74,4710.53 -41.79,41.86 41.79,41.85 41.79,-41.85 -41.79,-41.86"
         style="fill:none;stroke:#4f7ac2;stroke-width:7.17462015;stroke-linecap:butt;stroke-linejoin:round;stroke-miterlimit:10;stroke-opacity:1;stroke-dasharray:none"
         id="path70"
         inkscape:connector-curvature="0" /></g><path
       d="m 1381.16,4472.16 -41.8,41.72 41.8,41.84 41.8,-41.84"
       style="fill:#547dc4;fill-opacity:1;fill-rule:evenodd;stroke:none"
       id="path72"
       inkscape:connector-curvature="0" /><g
       id="g74"
       transform="scale(1.00036,0.99964)"><path
         d="m 1380.67,4473.77 -41.8,41.73 41.8,41.86 41.78,-41.86 -41.78,-41.73"
         style="fill:none;stroke:#4f7ac2;stroke-width:7.17462015;stroke-linecap:butt;stroke-linejoin:round;stroke-miterlimit:10;stroke-opacity:1;stroke-dasharray:none"
         id="path76"
         inkscape:connector-curvature="0" /></g><path
       d="m 1486.11,4424.35 -41.8,41.83 41.8,41.84 41.82,-41.84"
       style="fill:#547dc4;fill-opacity:1;fill-rule:evenodd;stroke:none"
       id="path78"
       inkscape:connector-curvature="0" /><g
       id="g80"
       transform="scale(1.00036,0.99964)"><path
         d="m 1485.58,4425.94 -41.79,41.85 41.79,41.85 41.8,-41.85 -41.8,-41.85"
         style="fill:none;stroke:#4f7ac2;stroke-width:7.17462015;stroke-linecap:butt;stroke-linejoin:round;stroke-miterlimit:10;stroke-opacity:1;stroke-dasharray:none"
         id="path82"
         inkscape:connector-curvature="0" /></g><path
       d="m 1591.09,4745.42 -41.82,41.83 41.82,41.84 41.79,-41.84"
       style="fill:#547dc4;fill-opacity:1;fill-rule:evenodd;stroke:none"
       id="path84"
       inkscape:connector-curvature="0" /><g
       id="g86"
       transform="scale(1.00036,0.99964)"><path
         d="m 1590.51,4747.13 -41.79,41.84 41.79,41.86 41.79,-41.86 -41.79,-41.84"
         style="fill:none;stroke:#4f7ac2;stroke-width:7.17462015;stroke-linecap:butt;stroke-linejoin:round;stroke-miterlimit:10;stroke-opacity:1;stroke-dasharray:none"
         id="path88"
         inkscape:connector-curvature="0" /></g><path
       d="m 1696.07,4425.78 -41.87,41.84 41.87,41.84 41.74,-41.84"
       style="fill:#547dc4;fill-opacity:1;fill-rule:evenodd;stroke:none"
       id="path90"
       inkscape:connector-curvature="0" /><g
       id="g92"
       transform="scale(1.00036,0.99964)"><path
         d="m 1695.46,4427.37 -41.85,41.86 41.85,41.85 41.73,-41.85 -41.73,-41.86"
         style="fill:none;stroke:#4f7ac2;stroke-width:7.17462015;stroke-linecap:butt;stroke-linejoin:round;stroke-miterlimit:10;stroke-opacity:1;stroke-dasharray:none"
         id="path94"
         inkscape:connector-curvature="0" /></g><path
       d="m 1800.97,4335.89 -41.74,41.84 41.74,41.84 41.87,-41.84"
       style="fill:#547dc4;fill-opacity:1;fill-rule:evenodd;stroke:none"
       id="path96"
       inkscape:connector-curvature="0" /><g
       id="g98"
       transform="scale(1.00036,0.99964)"><path
         d="m 1800.33,4337.45 -41.73,41.86 41.73,41.85 41.85,-41.85 -41.85,-41.86"
         style="fill:none;stroke:#4f7ac2;stroke-width:7.17462015;stroke-linecap:butt;stroke-linejoin:round;stroke-miterlimit:10;stroke-opacity:1;stroke-dasharray:none"
         id="path100"
         inkscape:connector-curvature="0" /></g><path
       d="m 1906,4563.84 -41.87,41.84 41.87,41.84 41.75,-41.84"
       style="fill:#547dc4;fill-opacity:1;fill-rule:evenodd;stroke:none"
       id="path102"
       inkscape:connector-curvature="0" /><g
       id="g104"
       transform="scale(1.00036,0.99964)"><path
         d="m 1905.32,4565.48 -41.86,41.86 41.86,41.85 41.73,-41.85 -41.73,-41.86"
         style="fill:none;stroke:#4f7ac2;stroke-width:7.17462015;stroke-linecap:butt;stroke-linejoin:round;stroke-miterlimit:10;stroke-opacity:1;stroke-dasharray:none"
         id="path106"
         inkscape:connector-curvature="0" /></g><path
       d="m 2010.91,5229.41 -41.75,41.84 41.75,41.83 41.86,-41.83"
       style="fill:#547dc4;fill-opacity:1;fill-rule:evenodd;stroke:none"
       id="path108"
       inkscape:connector-curvature="0" /><g
       id="g110"
       transform="scale(1.00036,0.99964)"><path
         d="m 2010.19,5231.29 -41.73,41.86 41.73,41.84 41.85,-41.84 -41.85,-41.86"
         style="fill:none;stroke:#4f7ac2;stroke-width:7.17462015;stroke-linecap:butt;stroke-linejoin:round;stroke-miterlimit:10;stroke-opacity:1;stroke-dasharray:none"
         id="path112"
         inkscape:connector-curvature="0" /></g><path
       d="m 2115.93,5015.92 -41.86,41.84 41.86,41.84 41.75,-41.84"
       style="fill:#547dc4;fill-opacity:1;fill-rule:evenodd;stroke:none"
       id="path114"
       inkscape:connector-curvature="0" /><g
       id="g116"
       transform="scale(1.00036,0.99964)"><path
         d="m 2115.17,5017.73 -41.84,41.85 41.84,41.86 41.74,-41.86 -41.74,-41.85"
         style="fill:none;stroke:#4f7ac2;stroke-width:7.17462015;stroke-linecap:butt;stroke-linejoin:round;stroke-miterlimit:10;stroke-opacity:1;stroke-dasharray:none"
         id="path118"
         inkscape:connector-curvature="0" /></g><path
       d="m 2220.84,3920.51 -41.75,41.84 41.75,41.83 41.75,-41.83"
       style="fill:#547dc4;fill-opacity:1;fill-rule:evenodd;stroke:none"
       id="path120"
       inkscape:connector-curvature="0" /><g
       id="g122"
       transform="scale(1.00036,0.99964)"><path
         d="m 2220.05,3921.92 -41.74,41.86 41.74,41.84 41.73,-41.84 -41.73,-41.86"
         style="fill:none;stroke:#4f7ac2;stroke-width:7.17462015;stroke-linecap:butt;stroke-linejoin:round;stroke-miterlimit:10;stroke-opacity:1;stroke-dasharray:none"
         id="path124"
         inkscape:connector-curvature="0" /></g><path
       d="m 2325.75,3942.15 -41.75,41.83 41.75,41.84 41.86,-41.84"
       style="fill:#547dc4;fill-opacity:1;fill-rule:evenodd;stroke:none"
       id="path126"
       inkscape:connector-curvature="0" /><g
       id="g128"
       transform="scale(1.00036,0.99964)"><path
         d="m 2324.92,3943.57 -41.74,41.84 41.74,41.86 41.84,-41.86 -41.84,-41.84"
         style="fill:none;stroke:#4f7ac2;stroke-width:7.17462015;stroke-linecap:butt;stroke-linejoin:round;stroke-miterlimit:10;stroke-opacity:1;stroke-dasharray:none"
         id="path130"
         inkscape:connector-curvature="0" /></g><path
       d="m 2430.77,4026.42 -41.86,41.83 41.86,41.84 41.75,-41.84"
       style="fill:#547dc4;fill-opacity:1;fill-rule:evenodd;stroke:none"
       id="path132"
       inkscape:connector-curvature="0" /><g
       id="g134"
       transform="scale(1.00036,0.99964)"><path
         d="m 2429.9,4027.87 -41.84,41.84 41.84,41.86 41.73,-41.86 -41.73,-41.84"
         style="fill:none;stroke:#4f7ac2;stroke-width:7.17462015;stroke-linecap:butt;stroke-linejoin:round;stroke-miterlimit:10;stroke-opacity:1;stroke-dasharray:none"
         id="path136"
         inkscape:connector-curvature="0" /></g><path
       d="m 2535.68,3924.22 -41.75,41.83 41.75,41.84 41.87,-41.84"
       style="fill:#547dc4;fill-opacity:1;fill-rule:evenodd;stroke:none"
       id="path138"
       inkscape:connector-curvature="0" /><g
       id="g140"
       transform="scale(1.00036,0.99964)"><path
         d="m 2534.77,3925.63 -41.73,41.85 41.73,41.85 41.86,-41.85 -41.86,-41.85"
         style="fill:none;stroke:#4f7ac2;stroke-width:7.17462015;stroke-linecap:butt;stroke-linejoin:round;stroke-miterlimit:10;stroke-opacity:1;stroke-dasharray:none"
         id="path142"
         inkscape:connector-curvature="0" /></g><path
       d="m 2640.71,4056.78 -41.87,41.84 41.87,41.83 41.75,-41.83"
       style="fill:#547dc4;fill-opacity:1;fill-rule:evenodd;stroke:none"
       id="path144"
       inkscape:connector-curvature="0" /><g
       id="g146"
       transform="scale(1.00036,0.99964)"><path
         d="m 2639.77,4058.24 -41.86,41.86 41.86,41.84 41.73,-41.84 -41.73,-41.86"
         style="fill:none;stroke:#4f7ac2;stroke-width:7.17462015;stroke-linecap:butt;stroke-linejoin:round;stroke-miterlimit:10;stroke-opacity:1;stroke-dasharray:none"
         id="path148"
         inkscape:connector-curvature="0" /></g><path
       d="m 2745.61,4181.09 -41.73,41.84 41.73,41.84 41.87,-41.84"
       style="fill:#547dc4;fill-opacity:1;fill-rule:evenodd;stroke:none"
       id="path150"
       inkscape:connector-curvature="0" /><g
       id="g152"
       transform="scale(1.00036,0.99964)"><path
         d="m 2744.63,4182.59 -41.73,41.86 41.73,41.85 41.85,-41.85 -41.85,-41.86"
         style="fill:none;stroke:#4f7ac2;stroke-width:7.17462015;stroke-linecap:butt;stroke-linejoin:round;stroke-miterlimit:10;stroke-opacity:1;stroke-dasharray:none"
         id="path154"
         inkscape:connector-curvature="0" /></g><path
       d="m 2850.64,4555.48 -41.87,41.83 41.87,41.84 41.75,-41.84"
       style="fill:#547dc4;fill-opacity:1;fill-rule:evenodd;stroke:none"
       id="path156"
       inkscape:connector-curvature="0" /><g
       id="g158"
       transform="scale(1.00036,0.99964)"><path
         d="m 2849.62,4557.12 -41.86,41.84 41.86,41.86 41.73,-41.86 -41.73,-41.84"
         style="fill:none;stroke:#4f7ac2;stroke-width:7.17462015;stroke-linecap:butt;stroke-linejoin:round;stroke-miterlimit:10;stroke-opacity:1;stroke-dasharray:none"
         id="path160"
         inkscape:connector-curvature="0" /></g><path
       d="m 2955.55,4452.32 -41.75,41.83 41.75,41.84 41.88,-41.84"
       style="fill:#547dc4;fill-opacity:1;fill-rule:evenodd;stroke:none"
       id="path162"
       inkscape:connector-curvature="0" /><g
       id="g164"
       transform="scale(1.00036,0.99964)"><path
         d="m 2954.49,4453.92 -41.73,41.85 41.73,41.85 41.86,-41.85 -41.86,-41.85"
         style="fill:none;stroke:#4f7ac2;stroke-width:7.17462015;stroke-linecap:butt;stroke-linejoin:round;stroke-miterlimit:10;stroke-opacity:1;stroke-dasharray:none"
         id="path166"
         inkscape:connector-curvature="0" /></g><path
       d="m 3060.57,4374.14 -41.86,41.84 41.86,41.72 41.75,-41.72"
       style="fill:#547dc4;fill-opacity:1;fill-rule:evenodd;stroke:none"
       id="path168"
       inkscape:connector-curvature="0" /><g
       id="g170"
       transform="scale(1.00036,0.99964)"><path
         d="m 3059.47,4375.71 -41.84,41.86 41.84,41.73 41.74,-41.73 -41.74,-41.86"
         style="fill:none;stroke:#4f7ac2;stroke-width:7.17462015;stroke-linecap:butt;stroke-linejoin:round;stroke-miterlimit:10;stroke-opacity:1;stroke-dasharray:none"
         id="path172"
         inkscape:connector-curvature="0" /></g><path
       d="m 3165.48,4145.35 -41.75,41.84 41.75,41.84 41.88,-41.84"
       style="fill:#547dc4;fill-opacity:1;fill-rule:evenodd;stroke:none"
       id="path174"
       inkscape:connector-curvature="0" /><g
       id="g176"
       transform="scale(1.00036,0.99964)"><path
         d="m 3164.35,4146.84 -41.74,41.86 41.74,41.85 41.85,-41.85 -41.85,-41.86"
         style="fill:none;stroke:#4f7ac2;stroke-width:7.17462015;stroke-linecap:butt;stroke-linejoin:round;stroke-miterlimit:10;stroke-opacity:1;stroke-dasharray:none"
         id="path178"
         inkscape:connector-curvature="0" /></g><path
       d="m 3270.52,3233.21 -41.88,41.84 41.88,41.82 41.75,-41.82"
       style="fill:#547dc4;fill-opacity:1;fill-rule:evenodd;stroke:none"
       id="path180"
       inkscape:connector-curvature="0" /><g
       id="g182"
       transform="scale(1.00036,0.99964)"><path
         d="m 3269.34,3234.37 -41.86,41.86 41.86,41.83 41.74,-41.83 -41.74,-41.86"
         style="fill:none;stroke:#4f7ac2;stroke-width:7.17462015;stroke-linecap:butt;stroke-linejoin:round;stroke-miterlimit:10;stroke-opacity:1;stroke-dasharray:none"
         id="path184"
         inkscape:connector-curvature="0" /></g><path
       d="m 3375.43,3496.11 -41.75,41.83 41.75,41.84 41.73,-41.84"
       style="fill:#547dc4;fill-opacity:1;fill-rule:evenodd;stroke:none"
       id="path186"
       inkscape:connector-curvature="0" /><g
       id="g188"
       transform="scale(1.00036,0.99964)"><path
         d="m 3374.21,3497.37 -41.73,41.84 41.73,41.86 41.73,-41.86 -41.73,-41.84"
         style="fill:none;stroke:#4f7ac2;stroke-width:7.17462015;stroke-linecap:butt;stroke-linejoin:round;stroke-miterlimit:10;stroke-opacity:1;stroke-dasharray:none"
         id="path190"
         inkscape:connector-curvature="0" /></g><path
       d="m 3480.32,4418.01 -41.75,41.84 41.75,41.84 41.88,-41.84"
       style="fill:#547dc4;fill-opacity:1;fill-rule:evenodd;stroke:none"
       id="path192"
       inkscape:connector-curvature="0" /><g
       id="g194"
       transform="scale(1.00036,0.99964)"><path
         d="m 3479.07,4419.6 -41.73,41.86 41.73,41.85 41.86,-41.85 -41.86,-41.86"
         style="fill:none;stroke:#4f7ac2;stroke-width:7.17462015;stroke-linecap:butt;stroke-linejoin:round;stroke-miterlimit:10;stroke-opacity:1;stroke-dasharray:none"
         id="path196"
         inkscape:connector-curvature="0" /></g><path
       d="m 3585.36,3817.35 -41.88,41.84 41.88,41.84 41.75,-41.84"
       style="fill:#547dc4;fill-opacity:1;fill-rule:evenodd;stroke:none"
       id="path198"
       inkscape:connector-curvature="0" /><g
       id="g200"
       transform="scale(1.00036,0.99964)"><path
         d="m 3584.07,3818.72 -41.86,41.86 41.86,41.85 41.73,-41.85 -41.73,-41.86"
         style="fill:none;stroke:#4f7ac2;stroke-width:7.17462015;stroke-linecap:butt;stroke-linejoin:round;stroke-miterlimit:10;stroke-opacity:1;stroke-dasharray:none"
         id="path202"
         inkscape:connector-curvature="0" /></g><path
       d="m 3690.27,4349.16 -41.75,41.84 41.75,41.83 41.85,-41.83"
       style="fill:#547dc4;fill-opacity:1;fill-rule:evenodd;stroke:none"
       id="path204"
       inkscape:connector-curvature="0" /><g
       id="g206"
       transform="scale(1.00036,0.99964)"><path
         d="m 3688.94,4350.72 -41.74,41.86 41.74,41.85 41.84,-41.85 -41.84,-41.86"
         style="fill:none;stroke:#4f7ac2;stroke-width:7.17462015;stroke-linecap:butt;stroke-linejoin:round;stroke-miterlimit:10;stroke-opacity:1;stroke-dasharray:none"
         id="path208"
         inkscape:connector-curvature="0" /></g><path
       d="m 3795.29,4311.87 -41.88,41.83 41.88,41.84 41.75,-41.84"
       style="fill:#547dc4;fill-opacity:1;fill-rule:evenodd;stroke:none"
       id="path210"
       inkscape:connector-curvature="0" /><g
       id="g212"
       transform="scale(1.00036,0.99964)"><path
         d="m 3793.92,4313.42 -41.85,41.85 41.85,41.85 41.74,-41.85 -41.74,-41.85"
         style="fill:none;stroke:#4f7ac2;stroke-width:7.17462015;stroke-linecap:butt;stroke-linejoin:round;stroke-miterlimit:10;stroke-opacity:1;stroke-dasharray:none"
         id="path214"
         inkscape:connector-curvature="0" /></g><path
       d="m 3900.2,3550.37 -41.75,41.83 41.75,41.83 41.86,-41.83"
       style="fill:#547dc4;fill-opacity:1;fill-rule:evenodd;stroke:none"
       id="path216"
       inkscape:connector-curvature="0" /><g
       id="g218"
       transform="scale(1.00036,0.99964)"><path
         d="m 3898.79,3551.65 -41.73,41.84 41.73,41.85 41.86,-41.85 -41.86,-41.84"
         style="fill:none;stroke:#4f7ac2;stroke-width:7.17462015;stroke-linecap:butt;stroke-linejoin:round;stroke-miterlimit:10;stroke-opacity:1;stroke-dasharray:none"
         id="path220"
         inkscape:connector-curvature="0" /></g><path
       d="m 4005.22,4519.85 -41.86,41.84 41.86,41.84 41.74,-41.84"
       style="fill:#547dc4;fill-opacity:1;fill-rule:evenodd;stroke:none"
       id="path222"
       inkscape:connector-curvature="0" /><g
       id="g224"
       transform="scale(1.00036,0.99964)"><path
         d="m 4003.78,4521.48 -41.85,41.85 41.85,41.86 41.73,-41.86 -41.73,-41.85"
         style="fill:none;stroke:#4f7ac2;stroke-width:7.17462015;stroke-linecap:butt;stroke-linejoin:round;stroke-miterlimit:10;stroke-opacity:1;stroke-dasharray:none"
         id="path226"
         inkscape:connector-curvature="0" /></g><path
       d="m 4110.12,4261.3 -41.74,41.84 41.74,41.84 41.88,-41.84"
       style="fill:#547dc4;fill-opacity:1;fill-rule:evenodd;stroke:none"
       id="path228"
       inkscape:connector-curvature="0" /><g
       id="g230"
       transform="scale(1.00036,0.99964)"><path
         d="m 4108.65,4262.83 -41.73,41.86 41.73,41.85 41.85,-41.85 -41.85,-41.86"
         style="fill:none;stroke:#4f7ac2;stroke-width:7.17462015;stroke-linecap:butt;stroke-linejoin:round;stroke-miterlimit:10;stroke-opacity:1;stroke-dasharray:none"
         id="path232"
         inkscape:connector-curvature="0" /></g><path
       d="m 4215.16,4311.87 -41.87,41.83 41.87,41.84 41.74,-41.84"
       style="fill:#547dc4;fill-opacity:1;fill-rule:evenodd;stroke:none"
       id="path234"
       inkscape:connector-curvature="0" /><g
       id="g236"
       transform="scale(1.00036,0.99964)"><path
         d="m 4213.64,4313.42 -41.85,41.85 41.85,41.85 41.73,-41.85 -41.73,-41.85"
         style="fill:none;stroke:#4f7ac2;stroke-width:7.17462015;stroke-linecap:butt;stroke-linejoin:round;stroke-miterlimit:10;stroke-opacity:1;stroke-dasharray:none"
         id="path238"
         inkscape:connector-curvature="0" /></g><path
       d="m 4320.06,4463.43 -41.75,41.84 41.75,41.84 41.87,-41.84"
       style="fill:#547dc4;fill-opacity:1;fill-rule:evenodd;stroke:none"
       id="path240"
       inkscape:connector-curvature="0" /><g
       id="g242"
       transform="scale(1.00036,0.99964)"><path
         d="m 4318.51,4465.04 -41.74,41.85 41.74,41.86 41.85,-41.86 -41.85,-41.85"
         style="fill:none;stroke:#4f7ac2;stroke-width:7.17462015;stroke-linecap:butt;stroke-linejoin:round;stroke-miterlimit:10;stroke-opacity:1;stroke-dasharray:none"
         id="path244"
         inkscape:connector-curvature="0" /></g><path
       d="m 4425.09,4430.08 -41.87,41.84 41.87,41.84 41.75,-41.84"
       style="fill:#547dc4;fill-opacity:1;fill-rule:evenodd;stroke:none"
       id="path246"
       inkscape:connector-curvature="0" /><g
       id="g248"
       transform="scale(1.00036,0.99964)"><path
         d="m 4423.5,4431.68 -41.85,41.85 41.85,41.86 41.73,-41.86 -41.73,-41.85"
         style="fill:none;stroke:#4f7ac2;stroke-width:7.17462015;stroke-linecap:butt;stroke-linejoin:round;stroke-miterlimit:10;stroke-opacity:1;stroke-dasharray:none"
         id="path250"
         inkscape:connector-curvature="0" /></g></g></g><g
   id="g280"><g
     id="g282"
     clip-path="url(#clipPath284)"><g
       id="g288"
       transform="scale(10,10)"><text
   transform="matrix(1,0,0,-0.99928052,59.4434,328.222)"
   id="text290"><tspan
     style="font-size:19.40836334px;font-variant:normal;font-weight:normal;writing-mode:lr-tb;fill:#231f20;fill-opacity:1;fill-rule:nonzero;stroke:none;font-family:Calibri;-inkscape-font-specification:Calibri"
     x="0"
     y="0"
     id="tspan292">-</tspan></text>

</g></g></g><g
   id="g294"><g
     id="g296"
     clip-path="url(#clipPath298)"><g
       id="g302"
       transform="scale(10,10)"><text
   transform="matrix(1,0,0,-0.99928052,65.2145,328.222)"
   id="text304"><tspan
     style="font-size:19.40836334px;font-variant:normal;font-weight:normal;writing-mode:lr-tb;fill:#231f20;fill-opacity:1;fill-rule:nonzero;stroke:none;font-family:Calibri;-inkscape-font-specification:Calibri"
     x="0 10.078181 20.156368"
     y="0"
     sodipodi:role="line"
     id="tspan306">15 </tspan></text>

</g></g></g><g
   id="g308"><g
     id="g310"
     clip-path="url(#clipPath312)"><g
       id="g316"
       transform="scale(10,10)"><text
   transform="matrix(1,0,0,-0.99928052,59.4434,360.377)"
   id="text318"><tspan
     style="font-size:19.43828583px;font-variant:normal;font-weight:normal;writing-mode:lr-tb;fill:#231f20;fill-opacity:1;fill-rule:nonzero;stroke:none;font-family:Calibri;-inkscape-font-specification:Calibri"
     x="0"
     y="0"
     id="tspan320">-</tspan></text>

</g></g></g><text
   id="text332"
   transform="scale(1.0003599,-0.9996402)"
   x="651.91034"
   y="-3605.0671"
   style="font-size:119.95682526px"><tspan
     id="tspan334"
     sodipodi:role="line"
     y="-3605.0671"
     x="651.91034 752.65204 853.39362"
     style="font-size:194.31291199px;font-variant:normal;font-weight:normal;writing-mode:lr-tb;fill:#231f20;fill-opacity:1;fill-rule:nonzero;stroke:none;font-family:Calibri;-inkscape-font-specification:Calibri">10 </tspan></text>

<text
   id="text336"
   transform="scale(1.0003599,-0.9996402)"
   x="685.98706"
   y="-3926.4626"
   style="font-size:119.95682526px"><tspan
     id="tspan338"
     sodipodi:role="line"
     y="-3926.4626"
     x="685.98706 743.38428 843.83093"
     style="font-size:194.01379395px;font-variant:normal;font-weight:normal;writing-mode:lr-tb;fill:#231f20;fill-opacity:1;fill-rule:nonzero;stroke:none;font-family:Calibri;-inkscape-font-specification:Calibri">-5 </tspan><tspan
     id="tspan340"
     sodipodi:role="line"
     y="-4248.1294"
     x="743.98566 844.43134"
     style="font-size:194.01379395px;font-variant:normal;font-weight:normal;writing-mode:lr-tb;fill:#231f20;fill-opacity:1;fill-rule:nonzero;stroke:none;font-family:Calibri;-inkscape-font-specification:Calibri">0 </tspan></text>

<text
   id="text342"
   transform="scale(1.0003599,-0.9996402)"
   x="743.98621"
   y="-4569.7944"
   style="font-size:119.95682526px"><tspan
     id="tspan344"
     sodipodi:role="line"
     y="-4569.7944"
     x="743.98621 844.42902"
     style="font-size:194.31291199px;font-variant:normal;font-weight:normal;writing-mode:lr-tb;fill:#231f20;fill-opacity:1;fill-rule:nonzero;stroke:none;font-family:Calibri;-inkscape-font-specification:Calibri">5 </tspan><tspan
     id="tspan346"
     sodipodi:role="line"
     y="-4891.0967"
     x="652.50751 752.95026 853.39307"
     style="font-size:194.31291199px;font-variant:normal;font-weight:normal;writing-mode:lr-tb;fill:#231f20;fill-opacity:1;fill-rule:nonzero;stroke:none;font-family:Calibri;-inkscape-font-specification:Calibri">10 </tspan></text>

<text
   id="text348"
   transform="scale(1.0003599,-0.9996402)"
   x="652.50714"
   y="-5212.7554"
   style="font-size:119.95682526px"><tspan
     id="tspan350"
     sodipodi:role="line"
     y="-5212.7554"
     x="652.50714 752.9538 853.40051"
     style="font-size:194.01379395px;font-variant:normal;font-weight:normal;writing-mode:lr-tb;fill:#231f20;fill-opacity:1;fill-rule:nonzero;stroke:none;font-family:Calibri;-inkscape-font-specification:Calibri">15 </tspan></text>

<g
   id="g392"
   transform="matrix(0,6.1841811,-6.1841811,0,4090.9206,2626.141)"><text
   xml:space="preserve"
   style="font-size:20px;font-style:normal;font-weight:normal;line-height:125%;letter-spacing:0px;word-spacing:0px;fill:#000000;fill-opacity:1;stroke:none;font-family:Sans"
   x="59.085571"
   y="318.76465"
   id="text3375"
   sodipodi:linespacing="125%"
   transform="matrix(0.8,0,0,-0.8,0,842)"><tspan
     sodipodi:role="line"
     id="tspan3377"
     x="59.085571"
     y="318.76465"
     style="font-size:16px">(MFront Times - Cyrano Times)/max(MFront Times,Cyrano Times)*100</tspan></text>

</g><path
   d="m 904.984,4302.31 4606.196,0"
   style="fill:none;stroke:#ed1e24;stroke-width:17.5;stroke-linecap:butt;stroke-linejoin:round;stroke-miterlimit:10;stroke-opacity:1;stroke-dasharray:none"
   id="path398"
   inkscape:connector-curvature="0" /></g></g></svg>