<?xml version="1.0" encoding="UTF-8" standalone="no"?>
<!DOCTYPE svg PUBLIC "-//W3C//DTD SVG 1.1//EN"
 "http://www.w3.org/Graphics/SVG/1.1/DTD/svg11.dtd">
<!-- Generated by graphviz version 2.38.0 (20140413.2041)
 -->
<!-- Title: tangent_operator_converter Pages: 1 -->
<svg width="638pt" height="785pt"
 viewBox="0.00 0.00 638.26 785.19" xmlns="http://www.w3.org/2000/svg" xmlns:xlink="http://www.w3.org/1999/xlink">
<g id="graph0" class="graph" transform="scale(1 1) rotate(0) translate(4 781.193)">
<title>tangent_operator_converter</title>
<polygon fill="white" stroke="none" points="-4,4 -4,-781.193 634.255,-781.193 634.255,4 -4,4"/>
<!-- DSIG_DF -->
<g id="node1" class="node"><title>DSIG_DF</title>
<ellipse fill="none" stroke="red" cx="162.697" cy="-159.037" rx="50.8235" ry="26.7407"/>
<text text-anchor="middle" x="162.697" y="-162.837" font-family="Times,serif" font-size="14.00">DSIG_DF</text>
<text text-anchor="middle" x="162.697" y="-147.837" font-family="Times,serif" font-size="14.00">MTest</text>
</g>
<!-- DPK1_DF -->
<g id="node6" class="node"><title>DPK1_DF</title>
<ellipse fill="none" stroke="orange" cx="462.697" cy="-48.0833" rx="52.1524" ry="48.1667"/>
<text text-anchor="middle" x="462.697" y="-66.8833" font-family="Times,serif" font-size="14.00">DPK1_DF</text>
<text text-anchor="middle" x="462.697" y="-51.8833" font-family="Times,serif" font-size="14.00">ZeBuLoN</text>
<text text-anchor="middle" x="462.697" y="-36.8833" font-family="Times,serif" font-size="14.00">FEniCS</text>
<text text-anchor="middle" x="462.697" y="-21.8833" font-family="Times,serif" font-size="14.00">XPer</text>
</g>
<!-- DSIG_DF&#45;&gt;DPK1_DF -->
<g id="edge34" class="edge"><title>DSIG_DF&#45;&gt;DPK1_DF</title>
<path fill="none" stroke="black" d="M200.933,-141.051C208.125,-137.999 215.611,-134.916 222.697,-132.167 283.843,-108.438 354.961,-84.2332 403.818,-68.1173"/>
<polygon fill="black" stroke="black" points="405.182,-71.3532 413.589,-64.9044 402.996,-64.7035 405.182,-71.3532"/>
</g>
<!-- DSIG_DDF -->
<g id="node13" class="node"><title>DSIG_DDF</title>
<ellipse fill="none" stroke="black" cx="162.697" cy="-48.0833" rx="53.0913" ry="18"/>
<text text-anchor="middle" x="162.697" y="-44.3833" font-family="Times,serif" font-size="14.00">DSIG_DDF</text>
</g>
<!-- DSIG_DF&#45;&gt;DSIG_DDF -->
<g id="edge17" class="edge"><title>DSIG_DF&#45;&gt;DSIG_DDF</title>
<path fill="none" stroke="black" d="M156.857,-132.216C155.684,-115.491 155.645,-93.7285 156.739,-76.6651"/>
<polygon fill="black" stroke="black" points="160.266,-76.4901 157.621,-66.2308 153.291,-75.9005 160.266,-76.4901"/>
</g>
<!-- C_TRUESDELL -->
<g id="node2" class="node"><title>C_TRUESDELL</title>
<ellipse fill="none" stroke="green" cx="532.697" cy="-331.383" rx="77.5641" ry="37.4533"/>
<text text-anchor="middle" x="532.697" y="-342.683" font-family="Times,serif" font-size="14.00">C_TRUESDELL</text>
<text text-anchor="middle" x="532.697" y="-327.683" font-family="Times,serif" font-size="14.00">Cast3M</text>
<text text-anchor="middle" x="532.697" y="-312.683" font-family="Times,serif" font-size="14.00">ZeBuLoN</text>
</g>
<!-- SPATIAL_MODULI -->
<g id="node9" class="node"><title>SPATIAL_MODULI</title>
<ellipse fill="none" stroke="black" cx="417.697" cy="-422.86" rx="87.1846" ry="18"/>
<text text-anchor="middle" x="417.697" y="-419.16" font-family="Times,serif" font-size="14.00">SPATIAL_MODULI</text>
</g>
<!-- C_TRUESDELL&#45;&gt;SPATIAL_MODULI -->
<g id="edge25" class="edge"><title>C_TRUESDELL&#45;&gt;SPATIAL_MODULI</title>
<path fill="none" stroke="black" d="M497.119,-365.145C482.731,-376.677 466.23,-389.355 451.968,-399.794"/>
<polygon fill="black" stroke="black" points="449.914,-396.96 443.862,-405.656 454.016,-402.632 449.914,-396.96"/>
</g>
<!-- DTAU_DDF -->
<g id="node3" class="node"><title>DTAU_DDF</title>
<ellipse fill="none" stroke="blue" cx="293.697" cy="-159.037" rx="62.4516" ry="26.7407"/>
<text text-anchor="middle" x="293.697" y="-162.837" font-family="Times,serif" font-size="14.00">DTAU_DDF</text>
<text text-anchor="middle" x="293.697" y="-147.837" font-family="Times,serif" font-size="14.00">Code_Aster</text>
</g>
<!-- DTAU_DF -->
<g id="node11" class="node"><title>DTAU_DF</title>
<ellipse fill="none" stroke="black" cx="293.697" cy="-239.907" rx="50.8918" ry="18"/>
<text text-anchor="middle" x="293.697" y="-236.207" font-family="Times,serif" font-size="14.00">DTAU_DF</text>
</g>
<!-- DTAU_DDF&#45;&gt;DTAU_DF -->
<g id="edge11" class="edge"><title>DTAU_DDF&#45;&gt;DTAU_DF</title>
<path fill="none" stroke="black" d="M300.073,-185.814C300.545,-194.113 300.57,-203.333 300.148,-211.729"/>
<polygon fill="black" stroke="black" points="296.651,-211.554 299.375,-221.793 303.631,-212.09 296.651,-211.554"/>
</g>
<!-- ABAQUS -->
<g id="node4" class="node"><title>ABAQUS</title>
<ellipse fill="none" stroke="yellow" cx="293.697" cy="-524.943" rx="77.5641" ry="48.1667"/>
<text text-anchor="middle" x="293.697" y="-543.743" font-family="Times,serif" font-size="14.00">ABAQUS</text>
<text text-anchor="middle" x="293.697" y="-528.743" font-family="Times,serif" font-size="14.00">Abaqus/Standard</text>
<text text-anchor="middle" x="293.697" y="-513.743" font-family="Times,serif" font-size="14.00">Ansys</text>
<text text-anchor="middle" x="293.697" y="-498.743" font-family="Times,serif" font-size="14.00">Calculix</text>
</g>
<!-- ABAQUS&#45;&gt;DSIG_DF -->
<g id="edge28" class="edge"><title>ABAQUS&#45;&gt;DSIG_DF</title>
<path fill="none" stroke="black" d="M246.786,-486.57C232.631,-473.372 218.105,-457.612 207.697,-440.86 159.839,-363.83 157.489,-252.785 159.982,-196.18"/>
<polygon fill="black" stroke="black" points="163.49,-196.106 160.513,-185.938 156.5,-195.743 163.49,-196.106"/>
</g>
<!-- ABAQUS&#45;&gt;SPATIAL_MODULI -->
<g id="edge26" class="edge"><title>ABAQUS&#45;&gt;SPATIAL_MODULI</title>
<path fill="none" stroke="black" d="M336.088,-484.388C351.714,-471.507 369.163,-457.657 383.944,-446.46"/>
<polygon fill="black" stroke="black" points="386.397,-448.996 392.305,-440.201 382.202,-443.392 386.397,-448.996"/>
</g>
<!-- ABAQUS&#45;&gt;DTAU_DF -->
<g id="edge29" class="edge"><title>ABAQUS&#45;&gt;DTAU_DF</title>
<path fill="none" stroke="black" d="M252.627,-483.856C228.597,-454.186 200.869,-411.652 188.697,-368.86 179.582,-336.819 171.765,-322.595 188.697,-293.907 200.141,-274.516 221.501,-261.73 242.059,-253.584"/>
<polygon fill="black" stroke="black" points="243.531,-256.773 251.724,-250.056 241.13,-250.198 243.531,-256.773"/>
</g>
<!-- C_TAU_JAUMANN -->
<g id="node12" class="node"><title>C_TAU_JAUMANN</title>
<ellipse fill="none" stroke="black" cx="293.697" cy="-331.383" rx="87.1846" ry="18"/>
<text text-anchor="middle" x="293.697" y="-327.683" font-family="Times,serif" font-size="14.00">C_TAU_JAUMANN</text>
</g>
<!-- ABAQUS&#45;&gt;C_TAU_JAUMANN -->
<g id="edge27" class="edge"><title>ABAQUS&#45;&gt;C_TAU_JAUMANN</title>
<path fill="none" stroke="black" d="M287.781,-476.591C286.397,-439.884 286.735,-390.298 288.793,-359.872"/>
<polygon fill="black" stroke="black" points="292.307,-359.839 289.629,-349.589 285.33,-359.272 292.307,-359.839"/>
</g>
<!-- DS_DEGL -->
<g id="node5" class="node"><title>DS_DEGL</title>
<ellipse fill="none" stroke="pink" cx="350.697" cy="-657.11" rx="57.0522" ry="48.1667"/>
<text text-anchor="middle" x="350.697" y="-675.91" font-family="Times,serif" font-size="14.00">DS_DEGL</text>
<text text-anchor="middle" x="350.697" y="-660.91" font-family="Times,serif" font-size="14.00">Calculix</text>
<text text-anchor="middle" x="350.697" y="-645.91" font-family="Times,serif" font-size="14.00">Code_Aster</text>
<text text-anchor="middle" x="350.697" y="-630.91" font-family="Times,serif" font-size="14.00">ZeBuLoN</text>
</g>
<!-- DS_DEGL&#45;&gt;ABAQUS -->
<g id="edge21" class="edge"><title>DS_DEGL&#45;&gt;ABAQUS</title>
<path fill="none" stroke="black" d="M331.24,-611.678C326.894,-601.754 322.235,-591.115 317.729,-580.825"/>
<polygon fill="black" stroke="black" points="320.865,-579.26 313.647,-571.503 314.453,-582.068 320.865,-579.26"/>
</g>
<!-- DS_DEGL&#45;&gt;DPK1_DF -->
<g id="edge33" class="edge"><title>DS_DEGL&#45;&gt;DPK1_DF</title>
<path fill="none" stroke="black" d="M394.732,-626.206C458.598,-579.844 574.252,-483.872 619.697,-368.86 660.563,-265.434 566.568,-149.539 506.998,-89.7144"/>
<polygon fill="black" stroke="black" points="509.127,-86.8971 499.557,-82.3514 504.204,-91.873 509.127,-86.8971"/>
</g>
<!-- DS_DC -->
<g id="node8" class="node"><title>DS_DC</title>
<ellipse fill="none" stroke="black" cx="121.697" cy="-524.943" rx="38.1938" ry="18"/>
<text text-anchor="middle" x="121.697" y="-521.243" font-family="Times,serif" font-size="14.00">DS_DC</text>
</g>
<!-- DS_DEGL&#45;&gt;DS_DC -->
<g id="edge19" class="edge"><title>DS_DEGL&#45;&gt;DS_DC</title>
<path fill="none" stroke="black" d="M297.446,-638.94C258.786,-624.128 206.376,-600.773 164.697,-573.026 154.812,-566.446 144.914,-558.049 136.944,-550.173"/>
<polygon fill="black" stroke="black" points="139.12,-547.383 129.688,-542.557 134.052,-552.211 139.12,-547.383"/>
</g>
<!-- DS_DEGL&#45;&gt;SPATIAL_MODULI -->
<g id="edge20" class="edge"><title>DS_DEGL&#45;&gt;SPATIAL_MODULI</title>
<path fill="none" stroke="black" d="M359.812,-609.379C363.758,-597.594 368.087,-584.912 371.697,-573.026 384.527,-530.776 396.231,-480.816 405.334,-450.77"/>
<polygon fill="black" stroke="black" points="408.741,-451.609 408.444,-441.018 402.071,-449.482 408.741,-451.609"/>
</g>
<!-- DS_DF -->
<g id="node10" class="node"><title>DS_DF</title>
<ellipse fill="none" stroke="black" cx="37.6967" cy="-422.86" rx="37.8943" ry="18"/>
<text text-anchor="middle" x="37.6967" y="-419.16" font-family="Times,serif" font-size="14.00">DS_DF</text>
</g>
<!-- DS_DEGL&#45;&gt;DS_DF -->
<g id="edge22" class="edge"><title>DS_DEGL&#45;&gt;DS_DF</title>
<path fill="none" stroke="black" d="M301.408,-632.109C265.362,-613.759 220.461,-588.979 206.697,-573.026 176.674,-538.232 201.06,-509.488 168.697,-476.86 161.827,-469.934 112.929,-451.157 76.8771,-437.927"/>
<polygon fill="black" stroke="black" points="77.6887,-434.498 67.0948,-434.358 75.289,-441.074 77.6887,-434.498"/>
</g>
<!-- DT_DELOG -->
<g id="node7" class="node"><title>DT_DELOG</title>
<ellipse fill="none" stroke="black" cx="422.697" cy="-759.193" rx="56.59" ry="18"/>
<text text-anchor="middle" x="422.697" y="-755.493" font-family="Times,serif" font-size="14.00">DT_DELOG</text>
</g>
<!-- DT_DELOG&#45;&gt;C_TRUESDELL -->
<g id="edge4" class="edge"><title>DT_DELOG&#45;&gt;C_TRUESDELL</title>
<path fill="none" stroke="black" d="M428.273,-741.16C443.591,-693.913 486.945,-557.031 513.697,-440.86 518.315,-420.802 522.41,-398.431 525.603,-379.24"/>
<polygon fill="black" stroke="black" points="529.08,-379.665 527.236,-369.232 522.172,-378.538 529.08,-379.665"/>
</g>
<!-- DT_DELOG&#45;&gt;DS_DEGL -->
<g id="edge1" class="edge"><title>DT_DELOG&#45;&gt;DS_DEGL</title>
<path fill="none" stroke="black" d="M410.483,-741.215C403.702,-731.79 394.884,-719.533 386.112,-707.339"/>
<polygon fill="black" stroke="black" points="388.754,-705.017 380.073,-698.944 383.071,-709.105 388.754,-705.017"/>
</g>
<!-- DT_DELOG&#45;&gt;DS_DC -->
<g id="edge2" class="edge"><title>DT_DELOG&#45;&gt;DS_DC</title>
<path fill="none" stroke="black" d="M379.776,-747.348C351.202,-738.823 313.72,-725.039 284.697,-705.193 221.212,-661.783 165.263,-588.943 138.47,-550.857"/>
<polygon fill="black" stroke="black" points="141.177,-548.619 132.599,-542.4 135.426,-552.611 141.177,-548.619"/>
</g>
<!-- DT_DELOG&#45;&gt;SPATIAL_MODULI -->
<g id="edge3" class="edge"><title>DT_DELOG&#45;&gt;SPATIAL_MODULI</title>
<path fill="none" stroke="black" d="M422.442,-741.154C421.629,-686.826 419.095,-517.388 418.102,-450.963"/>
<polygon fill="black" stroke="black" points="421.6,-450.811 417.951,-440.865 414.601,-450.916 421.6,-450.811"/>
</g>
<!-- DS_DC&#45;&gt;DS_DEGL -->
<g id="edge24" class="edge"><title>DS_DC&#45;&gt;DS_DEGL</title>
<path fill="none" stroke="black" d="M142.837,-540.364C154.283,-550.383 168.504,-563.578 182.697,-573.026 216.645,-595.626 257.712,-615.313 290.81,-629.842"/>
<polygon fill="black" stroke="black" points="289.797,-633.218 300.364,-633.992 292.586,-626.798 289.797,-633.218"/>
</g>
<!-- DS_DC&#45;&gt;DS_DF -->
<g id="edge23" class="edge"><title>DS_DC&#45;&gt;DS_DF</title>
<path fill="none" stroke="black" d="M108.201,-507.863C94.5459,-491.594 73.2806,-466.257 57.6733,-447.662"/>
<polygon fill="black" stroke="black" points="60.2689,-445.31 51.1592,-439.9 54.9071,-449.81 60.2689,-445.31"/>
</g>
<!-- SPATIAL_MODULI&#45;&gt;C_TRUESDELL -->
<g id="edge12" class="edge"><title>SPATIAL_MODULI&#45;&gt;C_TRUESDELL</title>
<path fill="none" stroke="black" d="M433.916,-405.03C446.066,-394.676 463.235,-381.001 479.888,-368.311"/>
<polygon fill="black" stroke="black" points="482.132,-371.003 487.997,-362.18 477.91,-365.419 482.132,-371.003"/>
</g>
<!-- SPATIAL_MODULI&#45;&gt;ABAQUS -->
<g id="edge13" class="edge"><title>SPATIAL_MODULI&#45;&gt;ABAQUS</title>
<path fill="none" stroke="black" d="M401.911,-440.809C389.201,-452.078 370.698,-467.405 352.548,-481.829"/>
<polygon fill="black" stroke="black" points="349.936,-479.432 344.256,-488.376 354.274,-484.927 349.936,-479.432"/>
</g>
<!-- SPATIAL_MODULI&#45;&gt;DS_DEGL -->
<g id="edge14" class="edge"><title>SPATIAL_MODULI&#45;&gt;DS_DEGL</title>
<path fill="none" stroke="black" d="M419.65,-441.018C416.975,-468.928 404.04,-525.795 389.697,-573.026 386.624,-583.146 383.029,-593.842 379.242,-604.07"/>
<polygon fill="black" stroke="black" points="375.862,-603.109 375.561,-613.699 382.401,-605.608 375.862,-603.109"/>
</g>
<!-- SPATIAL_MODULI&#45;&gt;DTAU_DF -->
<g id="edge15" class="edge"><title>SPATIAL_MODULI&#45;&gt;DTAU_DF</title>
<path fill="none" stroke="black" d="M412.522,-404.717C409.195,-378.314 405.578,-327.263 380.697,-293.907 369.088,-278.344 351.493,-266.769 335.092,-258.475"/>
<polygon fill="black" stroke="black" points="336.162,-255.108 325.628,-253.966 333.15,-261.427 336.162,-255.108"/>
</g>
<!-- SPATIAL_MODULI&#45;&gt;C_TAU_JAUMANN -->
<g id="edge16" class="edge"><title>SPATIAL_MODULI&#45;&gt;C_TAU_JAUMANN</title>
<path fill="none" stroke="black" d="M389.901,-405.656C368.759,-391.581 340.078,-371.038 319.455,-355.283"/>
<polygon fill="black" stroke="black" points="321.481,-352.425 311.43,-349.073 317.196,-357.961 321.481,-352.425"/>
</g>
<!-- DS_DF&#45;&gt;DTAU_DF -->
<g id="edge5" class="edge"><title>DS_DF&#45;&gt;DTAU_DF</title>
<path fill="none" stroke="black" d="M47.6795,-405.322C64.7524,-378.35 102.072,-324.806 146.697,-293.907 175.252,-274.134 212.011,-260.883 241.627,-252.575"/>
<polygon fill="black" stroke="black" points="242.632,-255.929 251.375,-249.945 240.809,-249.171 242.632,-255.929"/>
</g>
<!-- DTAU_DF&#45;&gt;DSIG_DF -->
<g id="edge9" class="edge"><title>DTAU_DF&#45;&gt;DSIG_DF</title>
<path fill="none" stroke="black" d="M269.057,-224.072C250.898,-213.139 225.764,-198.007 204.488,-185.197"/>
<polygon fill="black" stroke="black" points="206.01,-182.028 195.637,-179.869 202.399,-188.025 206.01,-182.028"/>
</g>
<!-- DTAU_DF&#45;&gt;DTAU_DDF -->
<g id="edge10" class="edge"><title>DTAU_DF&#45;&gt;DTAU_DDF</title>
<path fill="none" stroke="black" d="M288.018,-221.793C287.193,-214.156 286.844,-204.854 286.973,-195.811"/>
<polygon fill="black" stroke="black" points="290.47,-195.929 287.32,-185.814 283.475,-195.686 290.47,-195.929"/>
</g>
<!-- DTAU_DF&#45;&gt;ABAQUS -->
<g id="edge8" class="edge"><title>DTAU_DF&#45;&gt;ABAQUS</title>
<path fill="none" stroke="black" d="M259.107,-253.23C240.128,-261.357 218.308,-274.232 206.697,-293.907 189.765,-322.595 197.582,-336.819 206.697,-368.86 217.257,-405.984 239.525,-442.914 258.986,-471.419"/>
<polygon fill="black" stroke="black" points="256.348,-473.757 264.919,-479.985 262.103,-469.772 256.348,-473.757"/>
</g>
<!-- DTAU_DF&#45;&gt;SPATIAL_MODULI -->
<g id="edge7" class="edge"><title>DTAU_DF&#45;&gt;SPATIAL_MODULI</title>
<path fill="none" stroke="black" d="M334.154,-251.064C356.705,-259.292 383.102,-273 398.697,-293.907 420.662,-323.354 426.055,-366.592 424.783,-394.488"/>
<polygon fill="black" stroke="black" points="421.273,-394.466 423.947,-404.717 428.25,-395.036 421.273,-394.466"/>
</g>
<!-- DTAU_DF&#45;&gt;C_TAU_JAUMANN -->
<g id="edge6" class="edge"><title>DTAU_DF&#45;&gt;C_TAU_JAUMANN</title>
<path fill="none" stroke="black" d="M299.149,-258.106C300.54,-270.842 300.813,-288.452 299.968,-303.1"/>
<polygon fill="black" stroke="black" points="296.474,-302.881 299.155,-313.131 303.451,-303.447 296.474,-302.881"/>
</g>
<!-- C_TAU_JAUMANN&#45;&gt;ABAQUS -->
<g id="edge30" class="edge"><title>C_TAU_JAUMANN&#45;&gt;ABAQUS</title>
<path fill="none" stroke="black" d="M297.764,-349.589C300.327,-375.656 301.053,-426.362 299.944,-466.401"/>
<polygon fill="black" stroke="black" points="296.439,-466.483 299.612,-476.591 303.436,-466.71 296.439,-466.483"/>
</g>
<!-- C_TAU_JAUMANN&#45;&gt;SPATIAL_MODULI -->
<g id="edge32" class="edge"><title>C_TAU_JAUMANN&#45;&gt;SPATIAL_MODULI</title>
<path fill="none" stroke="black" d="M321.414,-348.535C342.5,-362.569 371.116,-383.061 391.751,-398.817"/>
<polygon fill="black" stroke="black" points="389.733,-401.681 399.785,-405.03 394.016,-396.144 389.733,-401.681"/>
</g>
<!-- C_TAU_JAUMANN&#45;&gt;DTAU_DF -->
<g id="edge31" class="edge"><title>C_TAU_JAUMANN&#45;&gt;DTAU_DF</title>
<path fill="none" stroke="black" d="M288.239,-313.131C286.851,-300.382 286.581,-282.769 287.429,-268.129"/>
<polygon fill="black" stroke="black" points="290.922,-268.357 288.244,-258.106 283.945,-267.789 290.922,-268.357"/>
</g>
<!-- DSIG_DDF&#45;&gt;DSIG_DF -->
<g id="edge18" class="edge"><title>DSIG_DDF&#45;&gt;DSIG_DF</title>
<path fill="none" stroke="black" d="M167.773,-66.2308C169.409,-81.1836 169.845,-103.365 169.083,-122.178"/>
<polygon fill="black" stroke="black" points="165.586,-122.041 168.537,-132.216 172.575,-122.421 165.586,-122.041"/>
</g>
</g>
</svg>
