<?xml version="1.0" encoding="UTF-8" standalone="no"?>
<!-- Created with Inkscape (http://www.inkscape.org/) -->

<svg
   xmlns:dc="http://purl.org/dc/elements/1.1/"
   xmlns:cc="http://creativecommons.org/ns#"
   xmlns:rdf="http://www.w3.org/1999/02/22-rdf-syntax-ns#"
   xmlns:svg="http://www.w3.org/2000/svg"
   xmlns="http://www.w3.org/2000/svg"
   xmlns:sodipodi="http://sodipodi.sourceforge.net/DTD/sodipodi-0.dtd"
   xmlns:inkscape="http://www.inkscape.org/namespaces/inkscape"
   id="svg2"
   version="1.1"
   inkscape:version="0.48.3.1 r9886"
   width="1836.9261"
   height="819.18903"
   xml:space="preserve"
   sodipodi:docname="tubeaxi2.eps"><metadata
     id="metadata8"><rdf:RDF><cc:Work
         rdf:about=""><dc:format>image/svg+xml</dc:format><dc:type
           rdf:resource="http://purl.org/dc/dcmitype/StillImage" /><dc:title></dc:title></cc:Work></rdf:RDF></metadata><defs
     id="defs6"><clipPath
       clipPathUnits="userSpaceOnUse"
       id="clipPath18"><path
         d="m 846.957,0 6726.083,0 0,5950 -6726.083,0 0,-5950 z"
         id="path20"
         inkscape:connector-curvature="0" /></clipPath><clipPath
       clipPathUnits="userSpaceOnUse"
       id="clipPath3045"><path
         inkscape:connector-curvature="0"
         d="m 947.562,5950 0,-5950 6524.878,0 0,5950 -6524.878,0 z"
         id="path3047" /></clipPath></defs><sodipodi:namedview
     pagecolor="#ffffff"
     bordercolor="#666666"
     borderopacity="1"
     objecttolerance="10"
     gridtolerance="10"
     guidetolerance="10"
     inkscape:pageopacity="0"
     inkscape:pageshadow="2"
     inkscape:window-width="1920"
     inkscape:window-height="1021"
     id="namedview4"
     showgrid="false"
     fit-margin-top="0"
     fit-margin-left="0"
     fit-margin-right="0"
     fit-margin-bottom="0"
     inkscape:zoom="0.22422803"
     inkscape:cx="1516.4789"
     inkscape:cy="447.50761"
     inkscape:window-x="0"
     inkscape:window-y="27"
     inkscape:window-maximized="1"
     inkscape:current-layer="g10" /><g
     id="g10"
     inkscape:groupmode="layer"
     inkscape:label="ink_ext_XXXXXX"
     transform="matrix(0,1.25,1.25,0,1871.5425,-154.56858)"><g
       id="g12"
       transform="matrix(0.1,0,0,0.1,28.542368,-617.22881)"><g
         id="g14"><g
           id="g16"
           clip-path="url(#clipPath18)"><path
             d="m 1363.29,3317.07 0,2.88 -0.32,0.96 0,6.73 -0.32,1.6 0,2.88 -0.32,1.61 0,1.6 -0.32,3.53 -0.33,3.52 -0.64,3.2 -0.64,3.53 -0.64,3.52 -0.64,3.52 -0.64,1.6 -0.28,1.61 -0.68,1.6 -0.64,1.6 -0.32,1.6 -0.64,1.6 c -9.61,22.43 -28.47,24.03 -32.99,24.03 -14.1,0 -27.23,-12.17 -27.23,-34.28 l 7.08,0 c 0,15.06 9.25,23.71 20.15,23.71 33.31,0 33.31,-51.26 33.31,-64.07 l 0,-13.13 c -48.69,12.49 -53.46,45.16 -53.46,53.49 l -7.08,0 c 0,-35.24 31.11,-83.61 86.81,-83.61 32.67,0 57.98,18.9 57.98,50.3 0,45.48 -33.95,72.39 -37.8,72.39 -1.92,0 -4.17,-1.92 -4.17,-3.84 0,-1.6 0.64,-2.24 3.21,-4.16 31.71,-25.31 31.71,-60.23 31.71,-63.75 0,-24.99 -26.9,-27.87 -37.16,-27.87 -3.84,0 -13.77,0.32 -32.99,5.12 l 0,16.98"
             style="fill:#000000;fill-opacity:1;fill-rule:nonzero;stroke:none"
             id="path22"
             inkscape:connector-curvature="0" /><path
             d="m 1363.29,3317.07 0,2.88 -0.33,0.96 0,6.73 -0.31,1.6 0,2.88 -0.32,1.61 0,1.6 -0.32,3.53 -0.33,3.52 -0.64,3.2 -0.64,3.53 -0.64,3.52 -0.64,3.52 -0.64,1.6 -0.28,1.61 -0.68,1.6 -0.64,1.6 -0.32,1.6 -0.64,1.6 c -9.62,22.43 -28.47,24.03 -33,24.03 -14.09,0 -27.22,-12.17 -27.22,-34.28 l 7.08,0 c 0,15.06 9.25,23.71 20.14,23.71 33.31,0 33.31,-51.26 33.31,-64.07 l 0,-13.13 c -48.68,12.49 -53.45,45.16 -53.45,53.49 l -7.08,0 c 0,-35.24 31.11,-83.61 86.8,-83.61 32.68,0 57.98,18.9 57.98,50.3 0,45.48 -33.94,72.39 -37.79,72.39 -1.92,0 -4.17,-1.92 -4.17,-3.84 0,-1.6 0.64,-2.24 3.21,-4.16 31.71,-25.31 31.71,-60.23 31.71,-63.75 0,-24.99 -26.9,-27.87 -37.16,-27.87 -3.84,0 -13.78,0.32 -32.99,5.12 l 0,16.98 z"
             style="fill:none;stroke:none"
             id="path24"
             inkscape:connector-curvature="0" /><path
             d="m 1375.78,3519.85 -4.16,0 -2.24,-0.32 -2.25,0 -2.24,-0.32 -2.24,-0.32 -1.92,-0.32 -2.25,-0.32 -2.24,-0.64 -1.93,-0.32 -1.92,-0.65 -2.19,-0.64 -1.97,-0.96 -1.92,-0.64 -1.6,-0.96 -1.89,-0.64 -1.64,-0.96 -1.6,-1.28 -1.6,-0.96 -1.28,-1.28 -1.6,-0.96 -1.28,-1.61 -0.96,-1.28 -1.29,-1.28 -0.96,-1.6 -0.64,-1.6 -0.96,-1.6 -0.32,-1.61 -0.64,-1.92 -0.32,-1.92 -0.28,-1.92 0,-1.93 6.37,-0.32 c 0,14.42 24.66,14.42 28.83,14.42 8.65,0 21.78,-1.92 40.68,-6.41 l 0,-51.89 c -48.37,11.53 -69.51,30.75 -69.51,43.88 l -6.37,0.32 c 0,-33.63 59.86,-69.19 111.11,-69.19 26.6,0 48.42,10.25 48.42,30.76 l -6.44,0.32 c 0,-12.5 -16.95,-14.42 -28.84,-14.42 -14.74,0 -32.35,4.16 -40.36,6.4 l 0,51.58 c 24.34,-6.08 36.24,-11.21 47.09,-17.94 11.89,-7.05 22.11,-16.01 22.11,-25.62 l 6.44,-0.32 c 0,33.95 -60.91,69.19 -111.2,69.19"
             style="fill:#000000;fill-opacity:1;fill-rule:nonzero;stroke:none"
             id="path26"
             inkscape:connector-curvature="0" /><path
             d="m 1375.78,3519.85 -4.16,0 -2.24,-0.32 -2.25,0 -2.24,-0.32 -2.24,-0.32 -1.92,-0.32 -2.25,-0.32 -2.25,-0.64 -1.92,-0.32 -1.92,-0.65 -2.19,-0.64 -1.97,-0.96 -1.93,-0.64 -1.59,-0.96 -1.89,-0.64 -1.64,-0.96 -1.6,-1.28 -1.6,-0.96 -1.28,-1.28 -1.6,-0.96 -1.28,-1.61 -0.97,-1.28 -1.28,-1.28 -0.96,-1.6 -0.64,-1.6 -0.96,-1.6 -0.32,-1.61 -0.64,-1.92 -0.32,-1.92 -0.28,-1.92 0,-1.93 6.37,-0.32 c 0,14.42 24.66,14.42 28.83,14.42 8.65,0 21.78,-1.92 40.68,-6.41 l 0,-51.89 c -48.38,11.53 -69.51,30.75 -69.51,43.88 l -6.37,0.32 c 0,-33.63 59.86,-69.19 111.11,-69.19 26.6,0 48.42,10.25 48.42,30.76 l -6.45,0.32 c 0,-12.5 -16.94,-14.42 -28.83,-14.42 -14.74,0 -32.35,4.16 -40.36,6.4 l 0,51.58 c 24.34,-6.08 36.23,-11.21 47.09,-17.94 11.89,-7.05 22.1,-16.01 22.1,-25.62 l 6.45,-0.32 c 0,33.95 -60.91,69.19 -111.2,69.19 z"
             style="fill:none;stroke:none"
             id="path28"
             inkscape:connector-curvature="0" /><path
             d="m 1018.72,5376.6 0,2.88 -0.32,0.97 0,6.72 -0.32,1.61 0,2.88 -0.32,1.6 0,1.6 -0.32,3.53 -0.32,3.52 -0.64,3.2 -0.64,3.53 -0.64,3.52 -0.65,3.52 -0.64,1.61 -0.32,1.6 -0.64,1.6 -0.64,1.6 -0.32,1.6 -0.64,1.6 c -9.61,22.43 -28.51,24.03 -32.995,24.03 -14.097,0 -27.23,-12.17 -27.23,-34.28 l 7.047,0 c 0,15.06 9.289,23.71 20.183,23.71 33.315,0 33.315,-51.26 33.315,-64.07 l 0,-13.13 c -48.693,12.49 -53.498,45.16 -53.498,53.49 l -7.047,0 c 0,-35.24 31.074,-83.61 86.815,-83.61 32.67,0 57.98,18.9 57.98,50.3 0,45.48 -33.96,72.39 -37.8,72.39 -1.92,0 -4.16,-1.92 -4.16,-3.84 0,-1.6 0.64,-2.24 3.2,-4.16 31.71,-25.31 31.71,-60.23 31.71,-63.75 0,-24.99 -26.91,-27.87 -37.16,-27.87 -3.84,0 -13.77,0.32 -32.99,5.12 l 0,16.98"
             style="fill:#000000;fill-opacity:1;fill-rule:nonzero;stroke:none"
             id="path30"
             inkscape:connector-curvature="0" /><path
             d="m 1018.72,5376.6 0,2.88 -0.32,0.97 0,6.72 -0.32,1.61 0,2.88 -0.32,1.6 0,1.6 -0.32,3.53 -0.33,3.52 -0.63,3.2 -0.65,3.53 -0.63,3.52 -0.65,3.52 -0.64,1.61 -0.32,1.6 -0.64,1.6 -0.64,1.6 -0.32,1.6 -0.65,1.6 c -9.6,22.43 -28.5,24.03 -32.985,24.03 -14.097,0 -27.23,-12.17 -27.23,-34.28 l 7.047,0 c 0,15.06 9.285,23.71 20.183,23.71 33.305,0 33.305,-51.26 33.305,-64.07 l 0,-13.13 c -48.687,12.49 -53.488,45.16 -53.488,53.49 l -7.047,0 c 0,-35.24 31.074,-83.61 86.805,-83.61 32.68,0 57.99,18.9 57.99,50.3 0,45.48 -33.96,72.39 -37.8,72.39 -1.92,0 -4.16,-1.92 -4.16,-3.84 0,-1.6 0.64,-2.24 3.2,-4.16 31.71,-25.31 31.71,-60.23 31.71,-63.75 0,-24.99 -26.91,-27.87 -37.16,-27.87 -3.84,0 -13.78,0.32 -32.99,5.12 l 0,16.98 z"
             style="fill:none;stroke:none"
             id="path32"
             inkscape:connector-curvature="0" /><path
             d="m 1094.96,5517.88 -0.96,0 -0.32,0.32 -1.29,0 -0.31,0.32 -0.33,0 -0.64,0.32 -0.96,0 -0.64,0.32 -0.96,0.32 -0.96,0 -0.96,0.32 -0.96,0.32 -1.92,0.32 -2.25,0.64 -0.96,0.32 -0.96,0.32 -0.64,0 -0.96,0.32 -0.96,0.32 -0.64,0 -0.96,0.32 -0.32,0 -0.32,0.32 -0.96,0 0,0.32 -0.96,0 0,0.32 -0.32,0 c -1.93,0.32 -13.14,6.73 -18.58,14.09 -1.61,2.25 -6.09,8.33 -6.09,17.95 0,2.24 0.32,8 3.2,12.17 1.92,-7.05 8.01,-9.61 12.18,-9.61 4.8,0 8.32,3.84 8.32,8.97 0,5.12 -4.16,12.49 -13.77,12.49 -11.53,0 -16.34,-12.17 -16.34,-23.7 0,-11.54 4.81,-21.79 16.02,-31.4 -13.78,-4.16 -16.02,-17.62 -16.02,-23.06 0,-8.33 5.44,-14.1 11.53,-17.62 8.65,-5.13 21.79,-8.01 22.75,-8.01 2.88,0 2.88,2.88 2.88,3.52 0,3.21 -0.64,3.53 -6.73,5.13 -13.45,3.2 -24.02,7.37 -24.02,16.33 0,5.77 4.81,7.37 10.89,7.37 4.17,0 12.49,-2.24 18.58,-3.84 6.09,-1.28 15.38,-3.53 20.18,-4.81 l 28.51,-7.04 c 2.88,-0.96 8.65,-2.25 9.29,-2.25 4.81,0 7.05,3.85 7.05,7.69 0,3.2 -1.92,7.69 -6.41,9.61 -1.28,0.32 -11.21,2.88 -16.98,4.17 l -24.02,6.09"
             style="fill:#000000;fill-opacity:1;fill-rule:nonzero;stroke:none"
             id="path34"
             inkscape:connector-curvature="0" /><path
             d="m 1094.96,5517.88 -0.96,0 -0.32,0.32 -1.29,0 -0.31,0.32 -0.33,0 -0.64,0.32 -0.96,0 -0.64,0.32 -0.96,0.32 -0.96,0 -0.96,0.32 -0.96,0.32 -1.92,0.32 -2.25,0.64 -0.96,0.32 -0.96,0.32 -0.64,0 -0.96,0.32 -0.96,0.32 -0.64,0 -0.96,0.32 -0.33,0 -0.32,0.32 -0.96,0 0,0.32 -0.95,0 0,0.32 -0.32,0 c -1.93,0.32 -13.14,6.73 -18.58,14.09 -1.61,2.25 -6.09,8.33 -6.09,17.95 0,2.24 0.32,8 3.2,12.17 1.92,-7.05 8.01,-9.61 12.18,-9.61 4.8,0 8.32,3.84 8.32,8.97 0,5.12 -4.16,12.49 -13.77,12.49 -11.53,0 -16.34,-12.17 -16.34,-23.7 0,-11.54 4.81,-21.79 16.02,-31.4 -13.78,-4.16 -16.02,-17.62 -16.02,-23.06 0,-8.33 5.44,-14.1 11.53,-17.62 8.65,-5.13 21.78,-8.01 22.75,-8.01 2.88,0 2.88,2.88 2.88,3.52 0,3.21 -0.64,3.53 -6.73,5.13 -13.45,3.2 -24.02,7.37 -24.02,16.33 0,5.77 4.81,7.37 10.89,7.37 4.17,0 12.49,-2.24 18.58,-3.84 6.08,-1.28 15.38,-3.53 20.18,-4.81 l 28.51,-7.04 c 2.88,-0.96 8.65,-2.25 9.29,-2.25 4.8,0 7.05,3.85 7.05,7.69 0,3.2 -1.92,7.69 -6.41,9.61 -1.28,0.32 -11.21,2.88 -16.98,4.17 l -24.02,6.09 z"
             style="fill:none;stroke:none"
             id="path36"
             inkscape:connector-curvature="0" /><path
             d="m 2214.96,4617.19 c -339.28,224.04 -678.61,448.04 -1017.93,672.04"
             style="fill:none;stroke:#000000;stroke-width:31.78219986;stroke-linecap:butt;stroke-linejoin:miter;stroke-miterlimit:10;stroke-opacity:1;stroke-dasharray:none"
             id="path38"
             inkscape:connector-curvature="0" /><path
             d="m 1462.27,5114.12 176.11,36.08 -441.31,139.03 301.28,-351.22 -36.08,176.11"
             style="fill:#000000;fill-opacity:1;fill-rule:evenodd;stroke:none"
             id="path40"
             inkscape:connector-curvature="0" /><path
             d="m 1462.27,5114.12 176.11,36.08 -441.31,139.03 301.28,-351.22 -36.08,176.11 z"
             style="fill:none;stroke:#000000;stroke-width:31.78219986;stroke-linecap:butt;stroke-linejoin:miter;stroke-miterlimit:10;stroke-opacity:1;stroke-dasharray:none"
             id="path42"
             inkscape:connector-curvature="0" /><path
             d="m 1728.44,2999.25 c 0,-1589.79 1290.31,-2880.094 2880.09,-2880.094 1589.75,0 2880.09,1290.304 2880.09,2880.094 0,1589.75 -1290.34,2880.09 -2880.09,2880.09 -1589.78,0 -2880.09,-1290.34 -2880.09,-2880.09 z m 210.22,0 c 0,1473.66 1196.21,2669.87 2669.87,2669.87 1473.67,0 2669.87,-1196.21 2669.87,-2669.87 0,-1473.66 -1196.2,-2669.867 -2669.87,-2669.867 -1473.66,0 -2669.87,1196.207 -2669.87,2669.867"
             style="fill:#e3dbdb;fill-opacity:1;fill-rule:evenodd;stroke:none"
             id="path44"
             inkscape:connector-curvature="0" /><path
             d="m 1728.44,2999.25 c 0,-1589.79 1290.31,-2880.094 2880.09,-2880.094 1589.75,0 2880.09,1290.304 2880.09,2880.094 0,1589.75 -1290.34,2880.09 -2880.09,2880.09 -1589.78,0 -2880.09,-1290.34 -2880.09,-2880.09 z m 210.22,0 c 0,1473.66 1196.21,2669.87 2669.87,2669.87 1473.67,0 2669.87,-1196.21 2669.87,-2669.87 0,-1473.66 -1196.2,-2669.867 -2669.87,-2669.867 -1473.66,0 -2669.87,1196.207 -2669.87,2669.867 z"
             style="fill:none;stroke:#aa0000;stroke-width:32.03440094;stroke-linecap:butt;stroke-linejoin:miter;stroke-miterlimit:10;stroke-opacity:1;stroke-dasharray:none"
             id="path46"
             inkscape:connector-curvature="0" /><path
             d="m 2202.87,4637.77 c -224,-339.32 -448.04,-678.65 -672.04,-1017.93"
             style="fill:none;stroke:#000000;stroke-width:31.78219986;stroke-linecap:butt;stroke-linejoin:miter;stroke-miterlimit:10;stroke-opacity:1;stroke-dasharray:none"
             id="path48"
             inkscape:connector-curvature="0" /><path
             d="m 1705.98,3885.04 -36.08,176.11 -139.03,-441.31 351.22,301.24 -176.11,-36.04"
             style="fill:#000000;fill-opacity:1;fill-rule:evenodd;stroke:none"
             id="path50"
             inkscape:connector-curvature="0" /><path
             d="m 1705.98,3885.04 -36.09,176.11 -139.02,-441.31 351.22,301.24 -176.11,-36.04 z"
             style="fill:none;stroke:#000000;stroke-width:31.78219986;stroke-linecap:butt;stroke-linejoin:miter;stroke-miterlimit:10;stroke-opacity:1;stroke-dasharray:none"
             id="path52"
             inkscape:connector-curvature="0" /></g></g></g><g
       id="g3039"
       transform="matrix(0,0.1,-0.1,0,748.49312,-1619.9772)"><g
         id="g3041"><g
           id="g3043"
           clip-path="url(#clipPath3045)"><path
             inkscape:connector-curvature="0"
             d="m 7014.7,1550.62 -0.22,5.34"
             style="fill:#e3dbdb;fill-opacity:1;fill-rule:nonzero;stroke:none"
             id="path3049" /><path
             inkscape:connector-curvature="0"
             d="m 7014.7,1550.62 -0.22,5.34"
             style="fill:none;stroke:#aa0000;stroke-width:27.53590012;stroke-linecap:butt;stroke-linejoin:miter;stroke-miterlimit:10;stroke-opacity:1;stroke-dasharray:none"
             id="path3051" /><path
             inkscape:connector-curvature="0"
             d="m 7014.25,1561.25 0.45,-10.63"
             style="fill:#e3dbdb;fill-opacity:1;fill-rule:nonzero;stroke:none"
             id="path3053" /><path
             inkscape:connector-curvature="0"
             d="m 7014.25,1561.25 0.45,-10.63"
             style="fill:none;stroke:#aa0000;stroke-width:27.53590012;stroke-linecap:butt;stroke-linejoin:miter;stroke-miterlimit:10;stroke-opacity:1;stroke-dasharray:none"
             id="path3055" /><path
             inkscape:connector-curvature="0"
             d="m 7014.74,4193.86 c -14.06,658.62 -1301.71,1189.37 -2886.12,1189.37 -1593.43,0 -2887.01,-537.6 -2887.01,-1199.96 0,-662.36 1293.58,-1199.91 2887.01,-1199.91 1593.4,0 2886.57,537.55 2886.57,1199.91 m -481.54,10.59 0.44,-8.45 m 481.1,-2.14 -0.45,10.59 m -480.65,-8.45 c 0,-549.44 -1055.36,-1006.46 -2377.04,-1006.46 -1321.69,0 -2394.39,445.99 -2394.39,995.42 0,549.39 1072.7,994.98 2394.39,994.98 1314.21,0 2364.9,-429.17 2376.6,-975.49"
             style="fill:#c8b7b7;fill-opacity:1;fill-rule:nonzero;stroke:none"
             id="path3057" /><path
             inkscape:connector-curvature="0"
             d="m 7014.74,4193.86 c -14.06,658.62 -1301.71,1189.37 -2886.12,1189.37 -1593.43,0 -2887.01,-537.6 -2887.01,-1199.96 0,-662.36 1293.58,-1199.91 2887.01,-1199.91 1593.4,0 2886.57,537.55 2886.57,1199.91 m -481.54,10.59 0.44,-8.45 m 481.1,-2.14 -0.45,10.59 m -480.65,-8.45 c 0,-549.44 -1055.36,-1006.46 -2377.04,-1006.46 -1321.69,0 -2394.39,445.99 -2394.39,995.42 0,549.39 1072.7,994.99 2394.39,994.99 1314.21,0 2364.9,-429.18 2376.6,-975.5"
             style="fill:none;stroke:#aa0000;stroke-width:27.53590012;stroke-linecap:butt;stroke-linejoin:miter;stroke-miterlimit:10;stroke-opacity:1;stroke-dasharray:none"
             id="path3059" /><path
             inkscape:connector-curvature="0"
             d="m 7014.74,4193.86 c 0,662.4 0.09,-2227.06 0.09,-2889.42 0,-662.358 -1293.17,-1199.956 -2886.57,-1199.956 -1593.43,0 -2887.01,537.598 -2887.01,1199.956 0,662.36 -0.05,3551.82 -0.05,2889.42 0,-662.36 1293.56,-1199.91 2886.97,-1199.91 1593.45,0 2886.57,537.55 2886.57,1199.91"
             style="fill:#e3dbdb;fill-opacity:1;fill-rule:nonzero;stroke:none"
             id="path3061" /><path
             inkscape:connector-curvature="0"
             d="m 7014.74,4193.86 c 0,662.4 0.09,-2227.06 0.09,-2889.42 0,-662.358 -1293.17,-1199.956 -2886.57,-1199.956 -1593.43,0 -2887.01,537.598 -2887.01,1199.956 0,662.36 -0.05,3551.82 -0.05,2889.42 0,-662.36 1293.56,-1199.91 2886.97,-1199.91 1593.45,0 2886.57,537.55 2886.57,1199.91 z"
             style="fill:none;stroke:#aa0000;stroke-width:27.53590012;stroke-linecap:butt;stroke-linejoin:miter;stroke-miterlimit:10;stroke-opacity:1;stroke-dasharray:none"
             id="path3063" /><path
             inkscape:connector-curvature="0"
             d="M 4128.13,4193.86 6533.65,2510.01"
             style="fill:none;stroke:#000000;stroke-width:25.22400093;stroke-linecap:butt;stroke-linejoin:miter;stroke-miterlimit:10;stroke-opacity:1;stroke-dasharray:none"
             id="path3065" /><path
             inkscape:connector-curvature="0"
             d="m 6326.98,2654.65 -140.46,-24.78 347.09,-119.87 -231.41,285.16 24.78,-140.51"
             style="fill:#000000;fill-opacity:1;fill-rule:evenodd;stroke:none"
             id="path3067" /><path
             inkscape:connector-curvature="0"
             d="m 6326.98,2654.65 -140.46,-24.78 347.09,-119.86 -231.41,285.15 24.78,-140.51 z"
             style="fill:none;stroke:#000000;stroke-width:25.22400093;stroke-linecap:butt;stroke-linejoin:miter;stroke-miterlimit:10;stroke-opacity:1;stroke-dasharray:none"
             id="path3069" /><path
             inkscape:connector-curvature="0"
             d="M 5612.57,3164.67 6733.06,3492.8"
             style="fill:none;stroke:#000000;stroke-width:25.22400093;stroke-linecap:butt;stroke-linejoin:miter;stroke-miterlimit:10;stroke-opacity:1;stroke-dasharray:none"
             id="path3071" /><path
             inkscape:connector-curvature="0"
             d="m 6490.98,3421.92 -68.47,-125.21 310.51,196.09 -367.2,-2.41 125.16,-68.47"
             style="fill:#000000;fill-opacity:1;fill-rule:evenodd;stroke:none"
             id="path3073" /><path
             inkscape:connector-curvature="0"
             d="m 6490.98,3421.92 -68.47,-125.21 310.51,196.09 -367.2,-2.41 125.16,-68.47 z"
             style="fill:none;stroke:#000000;stroke-width:25.22400093;stroke-linecap:butt;stroke-linejoin:miter;stroke-miterlimit:10;stroke-opacity:1;stroke-dasharray:none"
             id="path3075" /><path
             inkscape:connector-curvature="0"
             d="m 5592.01,3169.96 2.63,1138.96"
             style="fill:none;stroke:#000000;stroke-width:25.22400093;stroke-linecap:butt;stroke-linejoin:miter;stroke-miterlimit:10;stroke-opacity:1;stroke-dasharray:none"
             id="path3077" /><path
             inkscape:connector-curvature="0"
             d="m 5594.06,4056.64 100.69,-101.12 -100.11,353.35 -101.67,-352.87 101.09,100.64"
             style="fill:#000000;fill-opacity:1;fill-rule:evenodd;stroke:none"
             id="path3079" /><path
             inkscape:connector-curvature="0"
             d="m 5594.06,4056.64 100.69,-101.12 -100.11,353.35 -101.67,-352.86 101.09,100.63 z"
             style="fill:none;stroke:#000000;stroke-width:25.22400093;stroke-linecap:butt;stroke-linejoin:miter;stroke-miterlimit:10;stroke-opacity:1;stroke-dasharray:none"
             id="path3081" /><path
             inkscape:connector-curvature="0"
             d="m 5548.14,4590.82 3.21,0 1.06,0.36 7.48,0 1.78,0.35 3.2,0 1.78,0.36 1.78,0 3.92,0.35 3.91,0.36 3.56,0.71 3.92,0.71 3.91,0.71 3.92,0.72 1.78,0.71 1.78,0.36 1.78,0.71 1.78,0.71 1.77,0.35 1.79,0.72 c 24.91,10.67 26.69,31.67 26.69,36.66 0,15.66 -13.52,30.25 -38.08,30.25 l 0,-7.83 c 16.73,0 26.34,-10.32 26.34,-22.42 0,-37.02 -56.95,-37.02 -71.19,-37.02 l -14.6,0 c 13.89,54.1 50.19,59.44 59.45,59.44 l 0,7.83 c -39.16,0 -92.9,-34.52 -92.9,-96.46 0,-36.3 21,-64.42 55.88,-64.42 50.54,0 80.44,37.73 80.44,42 0,2.14 -2.14,4.63 -4.27,4.63 -1.78,0 -2.49,-0.72 -4.63,-3.56 -28.12,-35.23 -66.92,-35.23 -70.83,-35.23 -27.76,0 -30.96,29.89 -30.96,41.28 0,4.27 0.35,15.3 5.69,36.66 l 18.86,0"
             style="fill:#000000;fill-opacity:1;fill-rule:nonzero;stroke:none"
             id="path3083" /><path
             inkscape:connector-curvature="0"
             d="m 5548.14,4590.82 3.21,0 1.06,0.36 7.48,0 1.78,0.35 3.2,0 1.78,0.36 1.78,0 3.92,0.35 3.91,0.36 3.56,0.71 3.92,0.71 3.91,0.71 3.92,0.72 1.78,0.71 1.78,0.36 1.78,0.71 1.78,0.71 1.77,0.35 1.79,0.72 c 24.91,10.67 26.69,31.68 26.69,36.66 0,15.66 -13.52,30.26 -38.08,30.26 l 0,-7.84 c 16.73,0 26.34,-10.32 26.34,-22.42 0,-37.02 -56.95,-37.02 -71.19,-37.02 l -14.6,0 c 13.89,54.1 50.19,59.44 59.45,59.44 l 0,7.84 c -39.16,0 -92.9,-34.53 -92.9,-96.47 0,-36.3 21,-64.42 55.88,-64.42 50.54,0 80.44,37.73 80.44,42 0,2.14 -2.14,4.63 -4.27,4.63 -1.78,0 -2.49,-0.71 -4.63,-3.56 -28.12,-35.23 -66.92,-35.23 -70.83,-35.23 -27.76,0 -30.96,29.89 -30.96,41.28 0,4.27 0.35,15.3 5.69,36.66 l 18.86,0 z"
             style="fill:none;stroke:none"
             id="path3085" /><path
             inkscape:connector-curvature="0"
             d="m 5688.38,4477.64 1.07,1.41 1.43,1.07 1.06,1.07 1.07,1.42 1.42,1.07 0.72,0.71 0.71,0.72 0.71,0.71 0.71,0.71 0.71,0.71 0.72,0.71 1.06,0.71 1.07,0.72 0.71,1.07 1.07,0.71 1.07,1.07 1.07,1.06 1.42,0.71 1.07,1.07 1.42,1.43 1.43,1.07 1.42,1.06 1.78,1.42 1.42,1.43 1.78,1.42 1.78,1.43 2.14,1.42 c 5.34,4.27 23.85,19.22 30.96,25.98 15.31,14.95 24.57,27.77 24.57,30.61 0,3.21 -3.21,3.21 -4.28,3.21 -2.13,0 -2.85,-0.71 -4.27,-2.49 -7.47,-11.39 -12.81,-15.31 -18.86,-15.31 -2.85,0 -6.77,0.36 -13.88,7.48 -8.55,8.54 -13.89,10.32 -19.58,10.32 -19.93,0 -33.46,-21.71 -33.46,-29.19 0,-2.13 2.49,-2.84 4.27,-2.84 2.85,0 3.56,0.71 4.27,3.2 3.92,8.9 17.8,9.25 21.72,9.25 5.69,0 12.1,-1.42 15.66,-2.13 13.88,-2.85 15.3,-2.85 21.71,-2.85 -6.41,-6.76 -11.04,-11.39 -34.53,-30.26 -19.57,-15.3 -25.98,-21.35 -30.96,-26.69 -14.6,-14.59 -22.07,-25.27 -22.07,-27.77 0,-2.84 3.2,-2.84 4.27,-2.84 2.49,0 3.2,0.36 4.27,2.49 6.76,9.61 14.24,14.95 22.78,14.95 3.2,0 6.76,0 13.53,-6.41 7.47,-7.47 12.46,-11.03 20.64,-11.03 26.34,0 43.07,29.9 43.07,38.44 0,2.84 -2.85,3.2 -4.27,3.2 -2.85,0 -3.56,-1.07 -4.27,-3.91 -4.99,-12.46 -19.58,-18.51 -31.68,-18.51 -5.7,0 -11.75,1.42 -18.15,2.85 -11.4,2.49 -13.53,2.49 -17.8,2.49 -0.36,0 -4.27,0 -5.7,-0.35"
             style="fill:#000000;fill-opacity:1;fill-rule:nonzero;stroke:none"
             id="path3087" /><path
             inkscape:connector-curvature="0"
             d="m 5688.38,4477.64 1.07,1.41 1.43,1.07 1.06,1.07 1.07,1.42 1.42,1.07 0.72,0.71 0.71,0.72 0.71,0.71 0.71,0.72 0.71,0.7 0.72,0.72 1.06,0.7 1.07,0.72 0.71,1.07 1.07,0.71 1.07,1.07 1.07,1.06 1.42,0.71 1.07,1.07 1.42,1.43 1.43,1.07 1.42,1.06 1.78,1.42 1.42,1.43 1.78,1.43 1.78,1.42 2.14,1.42 c 5.34,4.27 23.85,19.22 30.96,25.98 15.31,14.95 24.57,27.77 24.57,30.61 0,3.21 -3.21,3.21 -4.28,3.21 -2.13,0 -2.85,-0.71 -4.27,-2.49 -7.47,-11.39 -12.81,-15.31 -18.86,-15.31 -2.85,0 -6.77,0.36 -13.88,7.48 -8.55,8.54 -13.89,10.32 -19.58,10.32 -19.93,0 -33.46,-21.71 -33.46,-29.19 0,-2.13 2.49,-2.84 4.27,-2.84 2.85,0 3.56,0.71 4.27,3.2 3.92,8.9 17.8,9.26 21.72,9.26 5.69,0 12.1,-1.43 15.66,-2.14 13.88,-2.85 15.3,-2.85 21.71,-2.85 -6.41,-6.76 -11.04,-11.39 -34.53,-30.25 -19.57,-15.31 -25.98,-21.36 -30.96,-26.7 -14.6,-14.59 -22.07,-25.27 -22.07,-27.77 0,-2.84 3.2,-2.84 4.27,-2.84 2.49,0 3.2,0.36 4.27,2.49 6.76,9.61 14.24,14.96 22.78,14.96 3.2,0 6.76,0 13.53,-6.42 7.47,-7.47 12.46,-11.03 20.64,-11.03 26.34,0 43.07,29.9 43.07,38.44 0,2.84 -2.85,3.2 -4.27,3.2 -2.85,0 -3.56,-1.07 -4.27,-3.91 -4.99,-12.46 -19.58,-18.51 -31.68,-18.51 -5.7,0 -11.75,1.42 -18.15,2.85 -11.4,2.49 -13.53,2.49 -17.8,2.49 -0.36,0 -4.27,0 -5.7,-0.35 z"
             style="fill:none;stroke:none"
             id="path3089" /><path
             inkscape:connector-curvature="0"
             d="m 7113.92,3643.27 3.2,0 1.07,0.35 7.47,0 1.78,0.36 3.2,0 1.79,0.36 1.78,0 3.91,0.35 3.92,0.36 3.55,0.71 3.92,0.71 3.92,0.71 3.91,0.71 1.78,0.72 1.78,0.31 1.78,0.71 1.78,0.71 1.78,0.4 1.78,0.71 c 24.91,10.68 26.69,31.64 26.69,36.67 0,15.61 -13.52,30.25 -38.08,30.25 l 0,-7.87 c 16.73,0 26.34,-10.28 26.34,-22.38 0,-37.07 -56.95,-37.07 -71.19,-37.07 l -14.59,0 c 13.88,54.15 50.19,59.45 59.44,59.45 l 0,7.87 c -39.15,0 -92.9,-34.57 -92.9,-96.46 0,-36.3 21,-64.43 55.88,-64.43 50.55,0 80.44,37.74 80.44,42.01 0,2.13 -2.13,4.62 -4.27,4.62 -1.78,0 -2.49,-0.71 -4.62,-3.56 -28.12,-35.23 -66.92,-35.23 -70.84,-35.23 -27.76,0 -30.96,29.9 -30.96,41.24 0,4.32 0.35,15.35 5.69,36.71 l 18.87,0"
             style="fill:#000000;fill-opacity:1;fill-rule:nonzero;stroke:none"
             id="path3091" /><path
             inkscape:connector-curvature="0"
             d="m 7113.92,3643.27 3.2,0 1.07,0.36 7.47,0 1.78,0.35 3.2,0 1.79,0.36 1.78,0 3.91,0.35 3.92,0.36 3.55,0.71 3.92,0.71 3.92,0.71 3.91,0.71 1.78,0.72 1.78,0.31 1.78,0.71 1.78,0.71 1.78,0.4 1.78,0.71 c 24.91,10.69 26.69,31.64 26.69,36.67 0,15.61 -13.52,30.25 -38.08,30.25 l 0,-7.87 c 16.73,0 26.34,-10.28 26.34,-22.38 0,-37.06 -56.95,-37.06 -71.19,-37.06 l -14.59,0 c 13.88,54.14 50.19,59.44 59.44,59.44 l 0,7.87 c -39.15,0 -92.9,-34.57 -92.9,-96.46 0,-36.3 21,-64.43 55.88,-64.43 50.55,0 80.44,37.74 80.44,42.01 0,2.13 -2.13,4.63 -4.27,4.63 -1.78,0 -2.49,-0.72 -4.62,-3.57 -28.12,-35.23 -66.92,-35.23 -70.84,-35.23 -27.76,0 -30.96,29.9 -30.96,41.25 0,4.31 0.35,15.34 5.69,36.7 l 18.87,0 z"
             style="fill:none;stroke:none"
             id="path3093" /><path
             inkscape:connector-curvature="0"
             d="m 7339.23,3629.39 0,4.62 -0.36,2.49 0,2.5 -0.35,2.44 -0.36,2.54 -0.36,2.13 -0.35,2.5 -0.72,2.44 -0.35,2.18 -0.71,2.14 -0.72,2.45 -1.06,2.13 -0.71,2.18 -1.07,1.78 -0.72,2.09 -1.06,1.83 -1.43,1.78 -1.06,1.78 -1.43,1.42 -1.07,1.78 -1.77,1.42 -1.43,1.03 -1.42,1.46 -1.78,1.07 -1.78,0.72 -1.78,1.06 -1.78,0.36 -2.14,0.71 -2.13,0.36 -2.14,0.31 -2.14,0 -0.35,-7.08 c 16.02,0 16.02,-27.4 16.02,-32.03 0,-9.61 -2.14,-24.2 -7.12,-45.21 l -57.66,0 c 12.81,53.75 34.17,77.24 48.76,77.24 l 0.35,7.08 c -37.37,0 -76.88,-66.52 -76.88,-123.47 0,-29.54 11.39,-53.79 34.17,-53.79 l 0.36,7.16 c -13.88,0 -16.02,18.82 -16.02,32.04 0,16.33 4.63,35.95 7.12,44.85 l 57.31,0 c -6.77,-27.06 -12.46,-40.27 -19.93,-52.33 -7.84,-13.21 -17.8,-24.56 -28.48,-24.56 l -0.36,-7.16 c 37.73,0 76.89,67.67 76.89,123.56"
             style="fill:#000000;fill-opacity:1;fill-rule:nonzero;stroke:none"
             id="path3095" /><path
             inkscape:connector-curvature="0"
             d="m 7339.23,3629.39 0,4.62 -0.36,2.49 0,2.5 -0.35,2.44 -0.36,2.54 -0.36,2.13 -0.35,2.5 -0.72,2.45 -0.35,2.18 -0.71,2.13 -0.72,2.45 -1.06,2.13 -0.71,2.19 -1.07,1.77 -0.72,2.09 -1.06,1.83 -1.43,1.78 -1.06,1.78 -1.43,1.43 -1.07,1.77 -1.77,1.42 -1.43,1.03 -1.42,1.46 -1.78,1.07 -1.78,0.72 -1.78,1.06 -1.78,0.36 -2.14,0.71 -2.13,0.36 -2.14,0.31 -2.14,0 -0.35,-7.08 c 16.02,0 16.02,-27.4 16.02,-32.03 0,-9.6 -2.14,-24.2 -7.12,-45.21 l -57.66,0 c 12.81,53.75 34.17,77.24 48.76,77.24 l 0.35,7.08 c -37.37,0 -76.88,-66.52 -76.88,-123.47 0,-29.54 11.39,-53.79 34.17,-53.79 l 0.36,7.16 c -13.88,0 -16.02,18.83 -16.02,32.04 0,16.33 4.63,35.95 7.12,44.85 l 57.31,0 c -6.77,-27.06 -12.46,-40.27 -19.93,-52.33 -7.84,-13.21 -17.8,-24.56 -28.48,-24.56 l -0.36,-7.16 c 37.73,0 76.89,67.67 76.89,123.56 z"
             style="fill:none;stroke:none"
             id="path3097" /><path
             inkscape:connector-curvature="0"
             d="m 6732.57,2359.35 3.21,0 1.06,0.31 7.48,0 1.78,0.41 3.2,0 1.78,0.31 1.78,0 3.92,0.4 3.91,0.35 3.56,0.71 3.92,0.71 3.91,0.72 3.92,0.71 1.78,0.71 1.78,0.31 1.78,0.71 1.78,0.72 1.77,0.4 1.79,0.71 c 24.91,10.63 26.69,31.63 26.69,36.62 0,15.66 -13.52,30.3 -38.08,30.3 l 0,-7.88 c 16.73,0 26.33,-10.28 26.33,-22.42 0,-37.02 -56.94,-37.02 -71.18,-37.02 l -14.6,0 c 13.89,54.1 50.19,59.44 59.45,59.44 l 0,7.88 c -39.16,0 -92.9,-34.57 -92.9,-96.46 0,-36.31 21,-64.43 55.88,-64.43 50.54,0 80.44,37.73 80.44,42 0,2.14 -2.14,4.63 -4.27,4.63 -1.78,0 -2.49,-0.71 -4.63,-3.56 -28.12,-35.24 -66.92,-35.24 -70.83,-35.24 -27.76,0 -30.96,29.9 -30.96,41.25 0,4.31 0.35,15.35 5.69,36.7 l 18.86,0"
             style="fill:#000000;fill-opacity:1;fill-rule:nonzero;stroke:none"
             id="path3099" /><path
             inkscape:connector-curvature="0"
             d="m 6732.57,2359.36 3.21,0 1.06,0.3 7.48,0 1.78,0.41 3.2,0 1.78,0.31 1.78,0 3.92,0.4 3.91,0.36 3.56,0.7 3.92,0.71 3.91,0.72 3.92,0.71 1.78,0.71 1.78,0.31 1.78,0.71 1.78,0.72 1.77,0.4 1.79,0.71 c 24.91,10.63 26.69,31.63 26.69,36.62 0,15.66 -13.52,30.3 -38.08,30.3 l 0,-7.87 c 16.73,0 26.33,-10.29 26.33,-22.43 0,-37.02 -56.94,-37.02 -71.18,-37.02 l -14.6,0 c 13.89,54.1 50.19,59.45 59.45,59.45 l 0,7.87 c -39.16,0 -92.9,-34.57 -92.9,-96.46 0,-36.31 21,-64.43 55.88,-64.43 50.54,0 80.44,37.73 80.44,42 0,2.14 -2.14,4.63 -4.27,4.63 -1.78,0 -2.49,-0.71 -4.63,-3.56 -28.12,-35.24 -66.92,-35.24 -70.83,-35.24 -27.76,0 -30.96,29.9 -30.96,41.25 0,4.31 0.35,15.35 5.69,36.71 l 18.86,0 z"
             style="fill:none;stroke:none"
             id="path3101" /><path
             inkscape:connector-curvature="0"
             d="m 6889.54,2274.59 0,1.12 0.36,0.31 0,1.42 0.35,0.4 0,0.32 0.36,0.71 0,1.11 0.35,0.71 0.36,1.07 0,1.06 0.36,1.07 0.36,1.03 0.35,2.13 0.71,2.54 0.36,1.07 0.35,1.07 0,0.66 0.36,1.11 0.36,1.03 0,0.71 0.35,1.11 0,0.31 0.36,0.4 0,1.03 0.35,0 0,1.11 0.36,0 0,0.35 c 0.35,2.14 7.48,14.6 15.66,20.65 2.49,1.73 9.25,6.76 19.93,6.76 2.5,0 8.9,-0.35 13.53,-3.6 -7.83,-2.14 -10.68,-8.9 -10.68,-13.48 0,-5.34 4.27,-9.26 9.97,-9.26 5.69,0 13.88,4.63 13.88,15.26 0,12.82 -13.53,18.2 -26.34,18.2 -12.81,0 -24.2,-5.38 -34.88,-17.79 -4.63,15.26 -19.58,17.79 -25.63,17.79 -9.26,0 -15.66,-6.1 -19.58,-12.86 -5.69,-9.61 -8.9,-24.16 -8.9,-25.27 0,-3.16 3.21,-3.16 3.92,-3.16 3.56,0 3.92,0.71 5.69,7.48 3.56,14.9 8.19,26.69 18.16,26.69 6.41,0 8.18,-5.34 8.18,-12.1 0,-4.67 -2.49,-13.88 -4.27,-20.65 -1.42,-6.76 -3.91,-17.08 -5.34,-22.42 l -7.83,-31.68 c -1.06,-3.2 -2.49,-9.61 -2.49,-10.32 0,-5.34 4.27,-7.87 8.54,-7.87 3.57,0 8.55,2.13 10.68,7.16 0.36,1.42 3.21,12.46 4.63,18.82 l 6.76,26.69"
             style="fill:#000000;fill-opacity:1;fill-rule:nonzero;stroke:none"
             id="path3103" /><path
             inkscape:connector-curvature="0"
             d="m 6889.54,2274.59 0,1.12 0.36,0.31 0,1.42 0.35,0.4 0,0.32 0.36,0.71 0,1.11 0.35,0.71 0.36,1.07 0,1.06 0.36,1.07 0.36,1.03 0.35,2.13 0.71,2.54 0.36,1.07 0.35,1.07 0,0.66 0.36,1.11 0.36,1.03 0,0.71 0.35,1.11 0,0.31 0.36,0.4 0,1.03 0.35,0 0,1.11 0.36,0 0,0.35 c 0.35,2.14 7.48,14.6 15.66,20.65 2.49,1.73 9.25,6.76 19.93,6.76 2.5,0 8.9,-0.35 13.53,-3.6 -7.83,-2.14 -10.68,-8.9 -10.68,-13.48 0,-5.34 4.27,-9.26 9.97,-9.26 5.69,0 13.88,4.63 13.88,15.26 0,12.82 -13.53,18.2 -26.34,18.2 -12.81,0 -24.2,-5.38 -34.88,-17.79 -4.63,15.26 -19.58,17.79 -25.63,17.79 -9.26,0 -15.66,-6.1 -19.58,-12.86 -5.69,-9.61 -8.9,-24.16 -8.9,-25.27 0,-3.16 3.21,-3.16 3.92,-3.16 3.56,0 3.92,0.71 5.69,7.48 3.56,14.9 8.19,26.69 18.16,26.69 6.41,0 8.18,-5.34 8.18,-12.1 0,-4.67 -2.49,-13.88 -4.27,-20.65 -1.42,-6.76 -3.91,-17.08 -5.34,-22.42 l -7.83,-31.68 c -1.06,-3.2 -2.49,-9.61 -2.49,-10.32 0,-5.34 4.27,-7.87 8.54,-7.87 3.57,0 8.55,2.13 10.68,7.16 0.36,1.42 3.21,12.46 4.63,18.82 l 6.76,26.69 z"
             style="fill:none;stroke:none"
             id="path3105" /><path
             inkscape:connector-curvature="0"
             d="m 4744.88,3477 3.56,0.71 3.2,1.07 3.56,0.71 3.56,1.07 3.2,1.42 3.56,1.07 3.16,1.42 3.61,1.43 3.2,1.42 3.56,1.78 3.2,1.78 3.21,1.78 3.2,1.82 2.85,2.1 3.2,2.13 2.85,2.14 2.49,2.14 2.85,2.13 2.49,2.49 2.49,2.53 2.14,2.45 2.13,2.5 1.78,2.84 1.78,2.85 1.78,2.85 1.42,2.85 1.07,2.89 1.07,3.16 0.71,3.2 0.71,3.25 0.36,3.16 0,3.2 c 0,30.61 -31.68,53.39 -78.31,53.39 l -101.08,0 c -7.12,0 -10.33,0 -10.33,-7.07 0,-3.96 3.21,-3.96 9.97,-3.96 0.71,0 7.47,0 13.53,-0.72 6.4,-0.71 9.61,-1.06 9.61,-5.64 0,-1.47 -0.36,-2.54 -1.43,-6.77 l -47.38,-190.47 c -3.52,-13.88 -4.23,-16.73 -32.35,-16.73 -6.4,0 -9.61,0 -9.61,-7.07 0,-3.96 4.27,-3.96 4.99,-3.96 9.96,0 34.88,1.06 44.85,1.06 9.6,0 34.88,-1.06 44.84,-1.06 2.85,0 7.12,0 7.12,7.11 0,3.92 -3.2,3.92 -9.96,3.92 -13.17,0 -23.18,0 -23.18,6.41 0,2.18 0.75,3.91 1.11,6.05 l 23.49,94.01 42.36,0 -0.36,7.78 -39.91,0 23.18,92.55 c 2.14,8.59 3.2,12.1 9.97,13.17 3.2,0.36 14.59,0.36 21.35,0.36 25.27,0 64.78,0 64.78,-35.24 0,-12.1 -5.69,-36.31 -19.57,-50.19 -9.26,-9.21 -28.12,-20.65 -59.8,-20.65 l 0.36,-7.78 c 32.03,0 38.44,-19.97 38.44,-32.43 0,-5.34 -2.85,-16.38 -4.99,-24.21 -2.53,-9.97 -5.69,-23.13 -5.69,-30.21 0,-38.49 42.71,-38.49 47.34,-38.49 30.25,0 42.35,35.96 42.35,40.94 0,4.31 -3.56,4.31 -3.91,4.31 -3.56,0 -3.91,-2.53 -4.63,-5.02 -8.89,-26.34 -24.2,-32.39 -32.39,-32.39 -11.74,0 -14.23,7.83 -14.23,21.75 0,10.99 2.13,29.14 3.55,40.54 0.67,4.98 1.43,11.74 1.43,16.37 0,27.41 -23.85,38.44 -33.46,42"
             style="fill:#000000;fill-opacity:1;fill-rule:nonzero;stroke:none"
             id="path3107" /><path
             inkscape:connector-curvature="0"
             d="m 4744.88,3477 3.56,0.71 3.2,1.07 3.56,0.71 3.56,1.07 3.2,1.42 3.56,1.07 3.16,1.42 3.61,1.43 3.2,1.43 3.56,1.77 3.2,1.78 3.21,1.78 3.2,1.82 2.85,2.1 3.2,2.13 2.85,2.14 2.49,2.14 2.85,2.13 2.49,2.49 2.49,2.54 2.14,2.44 2.13,2.5 1.78,2.85 1.78,2.85 1.78,2.84 1.42,2.85 1.07,2.89 1.07,3.16 0.71,3.2 0.71,3.25 0.36,3.16 0,3.2 c 0,30.61 -31.68,53.39 -78.31,53.39 l -101.08,0 c -7.12,0 -10.33,0 -10.33,-7.07 0,-3.96 3.21,-3.96 9.97,-3.96 0.71,0 7.47,0 13.53,-0.71 6.4,-0.72 9.61,-1.07 9.61,-5.65 0,-1.47 -0.36,-2.54 -1.43,-6.77 l -47.38,-190.46 c -3.52,-13.89 -4.23,-16.73 -32.35,-16.73 -6.4,0 -9.61,0 -9.61,-7.08 0,-3.96 4.27,-3.96 4.99,-3.96 9.96,0 34.88,1.06 44.85,1.06 9.6,0 34.88,-1.06 44.84,-1.06 2.85,0 7.12,0 7.12,7.11 0,3.93 -3.2,3.93 -9.96,3.93 -13.17,0 -23.18,0 -23.18,6.4 0,2.18 0.75,3.91 1.11,6.05 l 23.49,94.01 42.36,0 -0.36,7.78 -39.91,0 23.18,92.55 c 2.14,8.59 3.2,12.1 9.97,13.17 3.2,0.36 14.59,0.36 21.35,0.36 25.27,0 64.78,0 64.78,-35.24 0,-12.1 -5.69,-36.3 -19.57,-50.18 -9.26,-9.22 -28.12,-20.66 -59.8,-20.66 l 0.36,-7.78 c 32.03,0 38.44,-19.97 38.44,-32.43 0,-5.34 -2.85,-16.38 -4.99,-24.21 -2.53,-9.96 -5.69,-23.13 -5.69,-30.21 0,-38.49 42.71,-38.49 47.34,-38.49 30.25,0 42.35,35.96 42.35,40.94 0,4.31 -3.56,4.31 -3.91,4.31 -3.56,0 -3.91,-2.53 -4.63,-5.02 -8.89,-26.34 -24.2,-32.39 -32.39,-32.39 -11.74,0 -14.23,7.83 -14.23,21.75 0,11 2.13,29.15 3.55,40.54 0.67,4.98 1.43,11.74 1.43,16.37 0,27.41 -23.85,38.45 -33.46,42 z"
             style="fill:none;stroke:none"
             id="path3109" /><path
             inkscape:connector-curvature="0"
             d="m 4913.59,3461.34 0,2.13 -0.35,0 0,2.18 -0.36,0.31 0,0.72 -0.35,0 0,0.4 -0.36,0 0,0.31 -0.35,0 0,0.4 -1.07,0 -0.36,0.31 -4.27,0 c -16.02,-15.66 -38.44,-16.02 -48.76,-16.02 l 0,-8.89 c 6.05,0 22.42,0 35.9,7.11 l 0,-126.71 c 0,-8.19 0,-11.39 -24.87,-11.39 l -9.25,0 0,-8.9 c 4.27,0.36 34.88,1.07 44.13,1.07 7.79,0 39.16,-0.71 44.5,-1.07 l 0,8.9 -9.62,0 c -24.56,0 -24.56,3.2 -24.56,11.39 l 0,137.75"
             style="fill:#000000;fill-opacity:1;fill-rule:nonzero;stroke:none"
             id="path3111" /><path
             inkscape:connector-curvature="0"
             d="m 4913.59,3461.34 0,2.13 -0.35,0 0,2.19 -0.36,0.3 0,0.72 -0.35,0 0,0.4 -0.36,0 0,0.31 -0.35,0 0,0.4 -1.07,0 -0.36,0.31 -4.27,0 c -16.02,-15.66 -38.44,-16.01 -48.76,-16.01 l 0,-8.9 c 6.05,0 22.42,0 35.9,7.11 l 0,-126.71 c 0,-8.18 0,-11.39 -24.87,-11.39 l -9.25,0 0,-8.9 c 4.27,0.36 34.88,1.08 44.13,1.08 7.79,0 39.16,-0.72 44.5,-1.08 l 0,8.9 -9.62,0 c -24.56,0 -24.56,3.21 -24.56,11.39 l 0,137.75 z"
             style="fill:none;stroke:none"
             id="path3113" /><path
             inkscape:connector-curvature="0"
             d="m 5505.57,2892.28 3.55,0.71 3.21,1.07 3.56,0.71 3.56,1.07 3.2,1.43 3.56,1.06 3.2,1.43 3.56,1.42 3.21,1.43 3.55,1.77 3.21,1.78 3.2,1.78 3.2,1.78 2.85,2.14 3.2,2.13 2.85,2.14 2.49,2.14 2.85,2.14 2.49,2.48 2.5,2.49 2.13,2.5 2.14,2.49 1.78,2.84 1.77,2.85 1.79,2.85 1.42,2.85 1.07,2.85 1.06,3.2 0.72,3.2 0.71,3.2 0.36,3.21 0,3.2 c 0,30.61 -31.68,53.39 -78.31,53.39 l -101.09,0 c -7.12,0 -10.32,0 -10.32,-7.12 0,-3.91 3.2,-3.91 9.97,-3.91 0.71,0 7.47,0 13.52,-0.71 6.41,-0.72 9.61,-1.07 9.61,-5.7 0,-1.42 -0.35,-2.49 -1.42,-6.76 l -47.34,-190.43 c -3.56,-13.88 -4.27,-16.73 -32.39,-16.73 -6.41,0 -9.61,0 -9.61,-7.11 0,-3.92 4.27,-3.92 4.98,-3.92 9.97,0 34.88,1.07 44.85,1.07 9.61,0 34.88,-1.07 44.85,-1.07 2.84,0 7.12,0 7.12,7.12 0,3.91 -3.21,3.91 -9.97,3.91 -13.17,0 -23.14,0 -23.14,6.41 0,2.14 0.72,3.92 1.07,6.05 l 23.49,93.97 42.36,0 -0.36,7.83 -39.86,0 23.13,92.54 c 2.14,8.55 3.21,12.1 9.97,13.17 3.21,0.36 14.6,0.36 21.36,0.36 25.27,0 64.78,0 64.78,-35.24 0,-12.1 -5.7,-36.31 -19.58,-50.19 -9.25,-9.25 -28.12,-20.64 -59.8,-20.64 l 0.36,-7.83 c 32.04,0 38.44,-19.94 38.44,-32.39 0,-5.34 -2.85,-16.37 -4.98,-24.21 -2.49,-9.96 -5.69,-23.13 -5.69,-30.25 0,-38.44 42.71,-38.44 47.33,-38.44 30.26,0 42.36,35.95 42.36,40.93 0,4.27 -3.56,4.27 -3.92,4.27 -3.56,0 -3.91,-2.49 -4.62,-4.98 -8.9,-26.34 -24.21,-32.39 -32.39,-32.39 -11.75,0 -14.24,7.83 -14.24,21.71 0,11.03 2.14,29.19 3.56,40.58 0.71,4.98 1.42,11.74 1.42,16.37 0,27.41 -23.84,38.44 -33.45,42"
             style="fill:#000000;fill-opacity:1;fill-rule:nonzero;stroke:none"
             id="path3115" /><path
             inkscape:connector-curvature="0"
             d="m 5505.57,2892.28 3.55,0.71 3.21,1.07 3.56,0.71 3.56,1.07 3.2,1.43 3.56,1.06 3.2,1.43 3.56,1.42 3.21,1.43 3.55,1.78 3.21,1.78 3.2,1.77 3.2,1.78 2.85,2.14 3.2,2.13 2.85,2.14 2.49,2.14 2.85,2.14 2.49,2.48 2.5,2.49 2.13,2.5 2.14,2.49 1.78,2.84 1.77,2.85 1.79,2.85 1.42,2.85 1.07,2.85 1.06,3.2 0.72,3.2 0.71,3.2 0.36,3.21 0,3.2 c 0,30.61 -31.68,53.39 -78.31,53.39 l -101.09,0 c -7.12,0 -10.32,0 -10.32,-7.12 0,-3.91 3.2,-3.91 9.97,-3.91 0.71,0 7.47,0 13.52,-0.71 6.41,-0.72 9.61,-1.07 9.61,-5.7 0,-1.42 -0.35,-2.49 -1.42,-6.76 l -47.34,-190.43 c -3.56,-13.88 -4.27,-16.73 -32.39,-16.73 -6.41,0 -9.61,0 -9.61,-7.11 0,-3.92 4.27,-3.92 4.98,-3.92 9.97,0 34.88,1.07 44.85,1.07 9.61,0 34.88,-1.07 44.85,-1.07 2.84,0 7.12,0 7.12,7.12 0,3.91 -3.21,3.91 -9.97,3.91 -13.17,0 -23.14,0 -23.14,6.41 0,2.14 0.72,3.92 1.07,6.05 l 23.49,93.97 42.36,0 -0.36,7.83 -39.86,0 23.13,92.54 c 2.14,8.55 3.21,12.1 9.97,13.17 3.21,0.36 14.6,0.36 21.36,0.36 25.27,0 64.78,0 64.78,-35.24 0,-12.1 -5.7,-36.31 -19.58,-50.19 -9.25,-9.25 -28.12,-20.64 -59.8,-20.64 l 0.36,-7.83 c 32.04,0 38.44,-19.93 38.44,-32.39 0,-5.34 -2.85,-16.37 -4.98,-24.21 -2.49,-9.96 -5.69,-23.13 -5.69,-30.25 0,-38.44 42.71,-38.44 47.33,-38.44 30.26,0 42.36,35.95 42.36,40.94 0,4.26 -3.56,4.26 -3.92,4.26 -3.56,0 -3.91,-2.49 -4.62,-4.98 -8.9,-26.34 -24.21,-32.39 -32.39,-32.39 -11.75,0 -14.24,7.83 -14.24,21.71 0,11.03 2.14,29.19 3.56,40.58 0.71,4.98 1.42,11.74 1.42,16.37 0,27.41 -23.84,38.44 -33.45,42 z"
             style="fill:none;stroke:none"
             id="path3117" /><path
             inkscape:connector-curvature="0"
             d="m 5716.28,2763.79 -8.19,0 c -1.06,-5.34 -3.55,-20.29 -6.76,-22.43 -1.78,-1.77 -21,-1.77 -24.56,-1.77 l -45.56,0 c 25.99,23.13 34.88,30.25 49.48,41.64 18.51,14.95 35.59,30.25 35.59,53.75 0,29.9 -26.34,48.4 -58.02,48.4 -30.96,0 -51.61,-21.71 -51.61,-44.49 0,-12.46 10.68,-13.88 13.17,-13.88 6.05,0 13.17,4.27 13.17,13.17 0,4.62 -1.78,13.17 -14.59,13.17 7.47,17.79 24.56,23.13 36.3,23.13 24.56,0 37.73,-19.21 37.73,-39.5 0,-21.72 -15.66,-38.8 -23.49,-47.7 l -59.8,-59.08 c -2.49,-2.14 -2.49,-2.5 -2.49,-9.62 l 102.15,0 7.48,45.21"
             style="fill:#000000;fill-opacity:1;fill-rule:nonzero;stroke:none"
             id="path3119" /><path
             inkscape:connector-curvature="0"
             d="m 5716.28,2763.79 -8.19,0 c -1.06,-5.34 -3.55,-20.29 -6.76,-22.43 -1.78,-1.77 -21,-1.77 -24.56,-1.77 l -45.56,0 c 25.99,23.13 34.88,30.25 49.48,41.64 18.51,14.95 35.59,30.25 35.59,53.75 0,29.9 -26.34,48.4 -58.02,48.4 -30.96,0 -51.61,-21.7 -51.61,-44.49 0,-12.45 10.68,-13.88 13.17,-13.88 6.05,0 13.17,4.27 13.17,13.17 0,4.62 -1.78,13.17 -14.59,13.17 7.47,17.8 24.56,23.13 36.3,23.13 24.56,0 37.73,-19.21 37.73,-39.5 0,-21.72 -15.66,-38.8 -23.49,-47.7 l -59.8,-59.08 c -2.49,-2.14 -2.49,-2.5 -2.49,-9.62 l 102.15,0 7.48,45.21 z"
             style="fill:none;stroke:none"
             id="path3121" /><path
             inkscape:connector-curvature="0"
             d="m 4131.06,5834.88 0,-2642.72"
             style="fill:none;stroke:#000000;stroke-width:35.31359863;stroke-linecap:butt;stroke-linejoin:miter;stroke-miterlimit:10;stroke-opacity:1;stroke-dasharray:282.509, 70.6271, 35.3136, 70.6271;stroke-dashoffset:0"
             id="path3123" /></g></g></g></g></svg>