<?xml version="1.0" encoding="UTF-8" standalone="no"?>
<!-- Created with Inkscape (http://www.inkscape.org/) -->

<svg
   xmlns:dc="http://purl.org/dc/elements/1.1/"
   xmlns:cc="http://creativecommons.org/ns#"
   xmlns:rdf="http://www.w3.org/1999/02/22-rdf-syntax-ns#"
   xmlns:svg="http://www.w3.org/2000/svg"
   xmlns="http://www.w3.org/2000/svg"
   xmlns:xlink="http://www.w3.org/1999/xlink"
   xmlns:sodipodi="http://sodipodi.sourceforge.net/DTD/sodipodi-0.dtd"
   xmlns:inkscape="http://www.inkscape.org/namespaces/inkscape"
   width="191.17448"
   height="283.30676"
   id="svg3066"
   version="1.1"
   inkscape:version="0.91 r13725"
   sodipodi:docname="background.svg">
  <defs
     id="defs3068">
    <linearGradient
       id="linearGradient4067">
      <stop
         style="stop-color:#000000;stop-opacity:1;"
         offset="0"
         id="stop4069" />
      <stop
         id="stop4085"
         offset="0.5"
         style="stop-color:#6a0000;stop-opacity:0.49803922;" />
      <stop
         style="stop-color:#d40000;stop-opacity:0;"
         offset="1"
         id="stop4071" />
    </linearGradient>
    <radialGradient
       gradientUnits="userSpaceOnUse"
       gradientTransform="matrix(-2.0036488,-7.9405659e-7,1.3031744e-7,-3.6200877,448.24449,1609.4874)"
       r="141.60001"
       fy="444.31006"
       fx="82.355347"
       cy="444.31006"
       cx="82.355347"
       id="radialGradient5512"
       xlink:href="#linearGradient4113"
       inkscape:collect="always" />
    <linearGradient
       y2="-50.820236"
       x2="226.86917"
       y1="-50.820236"
       x1="62.994095"
       gradientTransform="matrix(0.99906781,0,0,0.97537301,-2.3393686,-4.559036)"
       gradientUnits="userSpaceOnUse"
       id="linearGradient5510"
       xlink:href="#radialGradient3833"
       inkscape:collect="always" />
    <radialGradient
       fx="0"
       fy="0"
       cx="0"
       cy="0"
       r="1"
       gradientUnits="userSpaceOnUse"
       gradientTransform="matrix(310.776,0,0,-355.921,281.07,-6.98801)"
       spreadMethod="pad"
       id="radialGradient3833">
      <stop
         style="stop-color:#007c00;stop-opacity:1;"
         offset="0"
         id="stop3835" />
      <stop
         id="stop3865"
         offset="0.25"
         style="stop-color:#35ad00;stop-opacity:1;" />
      <stop
         id="stop3847"
         offset="0.5"
         style="stop-color:#67db00;stop-opacity:1;" />
      <stop
         style="stop-color:#81ff28;stop-opacity:1;"
         offset="1"
         id="stop3837" />
    </radialGradient>
    <linearGradient
       inkscape:collect="always"
       xlink:href="#radialGradient3833"
       id="linearGradient5773"
       gradientUnits="userSpaceOnUse"
       gradientTransform="translate(-2.3589969,-2.4899626)"
       x1="62.994095"
       y1="-50.820236"
       x2="226.86917"
       y2="-50.820236" />
    <clipPath
       id="clipPath4137"
       clipPathUnits="userSpaceOnUse">
      <path
         inkscape:connector-curvature="0"
         id="path4139"
         d="m 59.988,61.633 163.719,0 0,-8.219 -163.719,0 0,8.219 z" />
    </clipPath>
    <clipPath
       id="clipPath4133"
       clipPathUnits="userSpaceOnUse">
      <path
         inkscape:connector-curvature="0"
         id="path4135"
         d="M 0,0 284,0 284,232 0,232 0,0 Z" />
    </clipPath>
    <clipPath
       id="clipPath4125"
       clipPathUnits="userSpaceOnUse">
      <path
         inkscape:connector-curvature="0"
         id="path4127"
         d="m 60.551,60.945 162.359,0 0,-6.91 -162.359,0 0,6.91 z" />
    </clipPath>
    <linearGradient
       id="linearGradient4113"
       spreadMethod="pad"
       gradientTransform="translate(0,0.724616)"
       gradientUnits="userSpaceOnUse"
       y2="230.67006"
       x2="1.9333333"
       y1="107.90339"
       x1="281.53152">
      <stop
         id="stop4115"
         offset="0"
         style="stop-opacity:1;stop-color:#870e12" />
      <stop
         id="stop4117"
         offset="1"
         style="stop-opacity:1;stop-color:#ed1c24" />
    </linearGradient>
    <radialGradient
       inkscape:collect="always"
       xlink:href="#linearGradient4113"
       id="radialGradient4810"
       gradientUnits="userSpaceOnUse"
       gradientTransform="matrix(-2.0036488,-7.9405659e-7,1.3031744e-7,-3.6200877,448.24449,1609.4874)"
       cx="82.355347"
       cy="444.31006"
       fx="82.355347"
       fy="444.31006"
       r="141.60001" />
    <linearGradient
       inkscape:collect="always"
       xlink:href="#radialGradient3833"
       id="linearGradient4812"
       gradientUnits="userSpaceOnUse"
       gradientTransform="matrix(0.99906781,0,0,0.97537301,-2.3393686,-4.559036)"
       x1="62.994095"
       y1="-50.820236"
       x2="226.86917"
       y2="-50.820236" />
  </defs>
  <sodipodi:namedview
     inkscape:document-units="mm"
     pagecolor="#ffffff"
     bordercolor="#666666"
     borderopacity="1.0"
     inkscape:pageopacity="0.0"
     inkscape:pageshadow="2"
     inkscape:zoom="0.43415836"
     inkscape:cx="-241.80852"
     inkscape:cy="-354.81196"
     inkscape:current-layer="layer1"
     id="namedview3070"
     showgrid="false"
     units="mm"
     fit-margin-top="0"
     fit-margin-left="0"
     fit-margin-right="0"
     fit-margin-bottom="0"
     inkscape:window-width="1920"
     inkscape:window-height="1016"
     inkscape:window-x="0"
     inkscape:window-y="27"
     inkscape:window-maximized="1" />
  <metadata
     id="metadata3072">
    <rdf:RDF>
      <cc:Work
         rdf:about="">
        <dc:format>image/svg+xml</dc:format>
        <dc:type
           rdf:resource="http://purl.org/dc/dcmitype/StillImage" />
        <dc:title></dc:title>
      </cc:Work>
    </rdf:RDF>
  </metadata>
  <g
     inkscape:label="Layer 1"
     inkscape:groupmode="layer"
     id="layer1"
     transform="translate(10.462521,46.993858)">
    <rect
       style="fill:#fdffff;fill-opacity:0;stroke:none"
       id="rect3368"
       width="191.17448"
       height="283.30676"
       x="-10.462521"
       y="-46.993858" />
    <g
       id="g4797"
       transform="translate(-543.76803,-86.892126)">
      <g
         transform="matrix(0.1,0,0,0.1,622.98303,323.27329)"
         id="g3248">
        <path
           inkscape:connector-curvature="0"
           d="m -65.071126,-353.58845 c -10.191163,-10.5294 -38.993544,-29.9323 -44.444594,-29.94038 -3.5483,-0.005 -8.89193,-3.51206 -10.06848,-6.60753 -0.79898,-2.10214 -0.5517,-3.31463 1.27539,-6.25363 2.07922,-3.34455 2.25051,-4.70011 2.0725,-16.40118 -0.14053,-9.23799 -0.61334,-13.51495 -1.71458,-15.51014 -1.57681,-2.85677 -3.45208,-6.8989 -6.38465,-13.76203 -0.94066,-2.20144 -3.83655,-6.35817 -6.4353,-9.23717 -2.59876,-2.879 -5.95803,-7.09832 -7.46505,-9.37626 -1.77194,-2.67838 -6.28774,-6.53576 -12.78123,-10.91769 -9.77664,-6.59747 -15.18251,-11.42782 -17.3387,-15.4928 -1.86466,-3.51535 2.18232,-8.92205 10.61219,-14.17772 l 7.42839,-3.92548 9.22837,0.42863 c 46.250885,5.68558 97.833154,37.19866 123.146644,75.23377 9.7904503,14.71077 16.3703603,32.57336 16.4214703,44.57964 0.0204,4.79973 -4.28646,16.23386 -6.98648,18.54803 -1.03607,0.88801 -4.1068303,1.90955 -6.8239003,2.27009 -3.46861,0.46026 -7.73203,2.34014 -14.31289,6.31101 -11.11114,6.70441 -15.92492,8.31644 -24.83425,8.31644 -6.45714,0 -6.74967,-0.1128 -10.59485,-4.0856 z m -265.753824,-1.93558 c -5.60902,-2.39353 -7.26482,-2.65407 -14.08503,-2.21624 l -7.7288,0.49615 -1.12171,-3.21867 c -1.10429,-3.16873 -1.20897,-3.21381 -6.74636,-2.90539 -3.09357,0.1723 -6.17455,-0.0333 -6.84663,-0.45705 -0.67208,-0.42368 -2.15709,-2.88496 -3.30002,-5.46951 -2.29969,-5.20037 -5.63101,-9.22707 -7.63362,-9.22707 -2.71059,0 -4.35335,-4.63102 -4.81962,-13.58679 -0.3154,-6.05793 -2.01498,-15.12015 -5.28699,-28.19052 -2.65219,-10.59442 -4.58027,-19.26066 -4.28462,-19.25831 0.29565,0.002 2.56327,1.35162 5.03916,2.99835 2.47588,1.64674 7.42765,4.00885 11.00392,5.24916 5.74835,1.99359 8.35826,2.2453 22.50804,2.1708 14.34362,-0.0755 16.94063,-0.3643 25.00892,-2.78098 11.67702,-3.49762 25.38883,-10.13463 33.29828,-16.11758 7.17642,-5.42847 12.13258,-11.22146 21.68444,-25.3458 6.59433,-9.75103 6.86461,-10.00294 15.21566,-14.18089 7.87088,-3.93773 8.97709,-4.22325 14.90083,-3.84594 5.38866,0.34322 6.87478,0.86376 9.4143,3.29749 3.42129,3.27877 5.94958,9.42134 8.65728,21.03313 1.50975,6.47449 1.85356,11.83208 1.79799,28.01831 -0.0979,28.51783 -2.10769,35.19686 -15.95852,53.03466 -9.15757,11.79358 -15.22274,17.08866 -21.74714,18.98592 -3.0106,0.87547 -8.57256,3.46302 -12.3599,5.75012 -12.3514,7.45876 -14.82812,8.07008 -33.57163,8.28645 -16.12247,0.18612 -16.89517,0.1016 -23.03823,-2.5198 z m -23.80246,-169.55308 c -0.8253,-0.19828 -4.87674,-0.90116 -9.00321,-1.56196 -40.27421,-6.44937 -80.91081,-36.20314 -87.08529,-63.76309 -0.90662,-4.04672 -0.63247,-4.93002 5.43753,-17.51991 3.51575,-7.29209 7.45659,-14.2415 8.75743,-15.44316 4.42638,-4.08887 12.11498,-5.72673 13.23066,-2.81845 1.8311,4.77318 8.55051,-2.51544 9.41822,-10.21605 l 0.48379,-4.29343 4.2204,0 4.22039,0 0.60901,-9.99945 c 0.71997,-11.82126 2.13133,-17.14098 5.35014,-20.16579 2.30475,-2.16584 2.39347,-2.17317 3.75525,-0.31027 0.7671,1.04939 2.61365,5.07103 4.10344,8.937 1.48979,3.86597 4.94371,10.96833 7.67539,15.78304 13.05808,23.01549 27.93231,38.99527 39.90261,42.86844 1.88618,0.6103 4.94863,1.78838 6.80543,2.61796 5.64285,2.52107 13.77252,2.63211 29.42613,0.4019 23.2506,-3.31257 29.39905,-2.6678 35.81331,3.75566 2.8095,2.81351 4.03746,5.23683 5.39526,10.64715 3.00631,11.97909 3.0283,15.71322 0.12983,22.04616 -4.26953,9.32867 -19.73787,23.94192 -32.12555,30.34965 -8.39357,4.3417 -48.7721,10.54607 -56.52017,8.6846 z m 342.622274,-14.15931 c -3.85137,-0.7824 -9.21574,-1.30296 -11.9208,-1.15679 l -4.9183,0.26578 -1.27112,-4.91325 c -1.73524,-6.7072 -6.02203,-12.3097 -13.19561,-17.24565 -16.03146,-11.03084 -40.895735,-15.15076 -84.300884,-13.96838 -28.05837,0.76433 -26.37891,1.22902 -29.99869,-8.30027 -2.26994,-5.97579 -2.50718,-12.83513 -0.60162,-17.39498 0.74009,-1.77099 4.1277,-5.79598 7.52803,-8.94442 14.25163,-13.19592 37.86312,-23.18941 67.15347,-28.42248 14.776263,-2.63997 53.804264,-2.70395 65.467984,-0.10734 19.9533703,4.44207 33.78145,11.13969 44.93937,21.76636 10.71736,10.2071 16.89205,21.85054 19.64704,37.04797 1.03862,5.72934 0.95077,6.7969 -0.89774,10.90848 -1.12697,2.50668 -2.51132,6.39985 -3.07632,8.65148 -0.565,2.25162 -1.81695,4.78297 -2.78211,5.6252 -1.91037,1.66704 -9.54877,4.25348 -15.51709,5.25425 -3.34878,0.56152 -3.69372,0.88915 -3.163,3.00431 0.87142,3.47307 -2.52837,5.24877 -14.4905497,7.56832 -5.59349,1.08462 -10.49162,1.92972 -10.88476,1.878 -0.39314,-0.0517 -3.86592,-0.73418 -7.7173003,-1.51659 z m -223.689974,-95.01166 c -3.57789,-1.10224 -5.24087,-2.37655 -7.41776,-5.68406 -1.54327,-2.34483 -3.68874,-4.8915 -4.7677,-5.65928 -6.41068,-4.56184 -17.51755,-17.3142 -27.02225,-31.02557 l -10.82069,-15.60985 0.58876,-5.56402 c 0.41861,-3.95606 0.1269,-6.6697 -1.00939,-9.39004 -5.13226,-12.28687 1.56116,-34.32177 15.33955,-50.49825 15.06228,-17.6838 23.63542,-24.61155 34.67963,-28.02377 l 6.26227,-1.93479 8.27326,2.40599 8.27326,2.40599 8.62267,-1.88581 c 4.74247,-1.0372 16.66824,-4.18033 26.50169,-6.98473 19.56312,-5.57921 26.23406,-6.30712 29.07041,-3.17206 3.11929,3.4478 1.5906,5.31646 -8.43673,10.31297 -9.25238,4.61038 -9.63107,4.93667 -14.39593,12.40422 -6.25882,9.80891 -7.43847,13.91475 -8.57878,29.85902 l -0.93267,13.04108 4.34396,4.50294 c 2.38917,2.47662 5.09123,5.98973 6.00456,7.80691 1.57357,3.1308 1.55366,3.58986 -0.37985,8.75918 -1.12225,3.00037 -3.66676,13.43213 -5.65446,23.18168 -1.9877,9.74955 -4.52099,20.66763 -5.62954,24.2624 -4.58031,14.85291 -11.84651,24.36459 -19.48253,25.50324 -2.09606,0.31255 -5.73067,1.01343 -8.07689,1.55751 -6.08235,1.41049 -19.93579,1.09855 -25.35485,-0.5709 z"
           style="fill:#f05921"
           id="path1352" />
        <path
           inkscape:connector-curvature="0"
           d="m 173.15735,-474.50262 c -12.15582,-2.26585 -18.71587,-4.16813 -25.90001,-7.51051 -26.80616,-12.47144 -41.66703,-37.40324 -45.27724,-75.96082 -2.382464,-25.44494 1.72338,-51.64967 11.0517,-70.53534 11.80209,-23.89394 32.16085,-38.32574 60.12555,-42.62146 10.80433,-1.65968 33.47644,-0.61846 43.51553,1.99846 20.85865,5.43727 36.12768,17.39788 44.88901,35.16265 7.8816,15.98097 11.63116,35.41843 11.63116,60.29495 l 0,12.38567 -33.76204,0.66066 c -18.56913,0.36336 -43.49678,0.66138 -55.39477,0.66227 -26.26021,0.002 -27.88496,0.23968 -27.88496,4.08005 0,5.32614 2.2187,13.43393 5.25102,19.18885 3.87037,7.34541 10.12134,13.09154 18.57788,17.07752 5.99622,2.82631 7.82939,3.1878 17.86193,3.52239 17.83957,0.59496 35.0735,-3.89496 49.01345,-12.76935 l 6.17412,-3.93052 9.73979,17.10435 9.7398,17.10435 -2.90927,2.38947 c -4.77359,3.92068 -24.28483,13.02952 -33.65848,15.7135 -14.3437,4.10705 -25.32235,5.64367 -43.2772,6.05727 -9.35334,0.21546 -18.13148,0.18197 -19.50697,-0.0744 z m 45.71701,-126.73885 c -0.72745,-10.32877 -1.90745,-14.35512 -5.97975,-20.4039 -2.21787,-3.29428 -4.89913,-5.65946 -8.59033,-7.57765 -4.76006,-2.47362 -6.43014,-2.78856 -14.7874,-2.78856 -6.19607,0 -10.67606,0.52443 -13.08665,1.53194 -11.45455,4.78744 -18.00054,15.33391 -19.7003,31.73981 l -0.59612,5.75376 31.66099,0 31.66099,0 -0.58143,-8.2554 z m 82.32869,28.7688 0,-95.56245 45.88539,0 c 50.42023,0 56.19265,0.48183 71.13862,5.93805 34.20266,12.48614 53.03363,43.60303 53.02676,87.6231 -0.009,57.00399 -28.07519,89.81129 -82.51953,96.45885 -5.13047,0.62642 -25.89268,1.10049 -48.26722,1.10209 l -39.26402,0.003 0,-95.56246 z m 85.45564,57.06798 c 16.42485,-4.4269 25.6646,-14.45061 30.78628,-33.3984 2.871,-10.62136 3.11165,-37.49383 0.42254,-47.18494 -5.40368,-19.47396 -16.97568,-31.29758 -34.72828,-35.48341 -3.86042,-0.91024 -11.28251,-1.5171 -18.6636,-1.526 l -12.25437,-0.0148 0,60.18621 0,60.18622 14.25509,-0.58367 c 7.99571,-0.32739 16.85772,-1.28515 20.18234,-2.18122 z m 109.61397,-57.06798 0,-95.56245 60.5216,0 60.5216,0 0,18.27943 0,18.27943 -35.26258,-0.0175 -35.26259,-0.0175 0,19.01242 0,19.01243 31.26116,0.26442 31.26116,0.26442 0,17.35526 0,17.35525 -31.26116,-0.10823 -31.26116,-0.10823 0.12275,40.77665 0.12274,40.77665 -25.38176,0 -25.38176,0 0,-95.56246 z"
           style="fill:#003873"
           id="path1350" />
      </g>
      <g
         id="g4107"
         inkscape:label="CEA_logo_quadri-sur-fond-rouge"
         transform="matrix(0.38038079,0,0,-0.37198955,577.43177,206.95275)">
        <g
           id="g4109">
          <g
             id="g4111">
            <path
               d="M 0,232 0,0.727 l 283.2,0 0,231.273 z m 200.648,-81.625 c 5.047,0 29.153,-2.246 29.153,-33.926 0,-0.383 -0.207,-25.597 0.023,-32.875 l -6.972,1.074 c -0.133,2.172 -0.239,5.004 -0.329,7.903 -4.578,-5.504 -11.882,-9.528 -23.421,-9.528 -17.454,0 -23.18,5.36 -25.977,9.102 -4.563,-2.953 -18.25,-9.074 -30.574,-9.074 -15.563,0 -22.762,7.804 -24.574,10.972 -2.622,-1.683 -16.981,-10.972 -33.903,-10.972 -27.961,0 -30.554,23.914 -30.426,33.676 -0.128,9.738 2.204,33.625 30.676,33.625 7.114,0 15.336,-2.188 21.574,-4.625 l 0.579,-8.352 C 103.168,138.91 93.445,143 83.773,143 66.578,143 60.148,129.5 60.148,116.699 c 0,-13.203 6.879,-26.273 23.625,-26.273 14.098,0 26.372,7.418 30.875,10.347 -1.664,4.586 -2.64,9.809 -2.796,14.829 -0.356,11.468 2.386,20.304 8.171,26.273 3.602,3.711 11.211,8.477 22.278,8.477 10.812,0 22.89,-3.805 24.574,-11.926 1.863,-9.004 -13.359,-20.406 -42.75,-40.176 2.148,-2.871 7.047,-7.824 18.5,-7.824 10.746,0 22.848,5.34 29.699,9.972 2.414,9.399 18.371,20.735 45.153,34.829 -4.055,5.148 -10.043,7.75 -17.829,7.75 -9.882,0 -19.804,-4.25 -22.898,-5.704 l 0.574,8.352 c 7.957,3.137 15.496,4.75 23.324,4.75 z m -58.125,-6.852 c -7.808,0 -13.863,-2.39 -17.949,-7.074 -7.894,-9.051 -5.969,-23.851 -5.949,-24 0.469,-2.746 1.176,-5.304 2.074,-7.574 14.199,8.422 25.188,17.754 25.301,17.852 10.883,8.714 13.27,11.949 12.727,14.472 -0.731,3.375 -7.778,6.324 -16.204,6.324 z m 78.329,-14.574 c -37.223,-19.722 -43.219,-28.078 -41.375,-32.222 0,0 1.714,-6.754 19.523,-6.602 7.812,0.066 13.965,2.141 18.051,6.824 7.89,9.051 5.969,23.852 5.949,24 -0.469,2.77 -1.242,5.715 -2.148,8 z"
               style="fill:url(#radialGradient4810);fill-opacity:1;fill-rule:nonzero;stroke:none"
               id="path4119"
               inkscape:connector-curvature="0"
               sodipodi:nodetypes="cccccsscccscscscsccssscccsccsccsccsscccccscccccc" />
          </g>
        </g>
        <rect
           ry="0"
           y="-60.937489"
           x="60.400002"
           height="6.8800001"
           width="162.39999"
           id="rect3823"
           style="fill:url(#linearGradient4812);fill-opacity:1;stroke:none"
           transform="scale(1,-1)" />
        <text
           xml:space="preserve"
           style="font-style:normal;font-variant:normal;font-weight:normal;font-stretch:normal;font-size:29.08040428px;line-height:125%;font-family:'Bitstream Vera Sans';-inkscape-font-specification:'Bitstream Vera Sans';text-align:center;letter-spacing:0px;word-spacing:0px;writing-mode:lr-tb;text-anchor:middle;fill:#9cc226;fill-opacity:1;stroke:none"
           x="153.80785"
           y="-16.278641"
           id="text4050"
           sodipodi:linespacing="125%"
           transform="scale(0.92139481,-1.0853111)"><tspan
             sodipodi:role="line"
             id="tspan4052"
             x="153.80785"
             y="-16.278641">CADARACHE</tspan></text>
        <path
           style="fill:#ffffff;fill-opacity:1;fill-rule:nonzero;stroke:none"
           d="m 154.57524,181.0894 1.37501,0 0.85,-1.3 -0.925,0 z m -47.62513,-2.25 c 1.23501,0 1.97001,-0.555 2.27501,-1.7 l -1.125,-0.275 c -0.18,0.543 -0.57,0.925 -1.17501,0.925 -0.824,0 -1.325,-0.763 -1.325,-2.275 -0.02,-1.511 0.421,-2.275 1.35,-2.275 0.55901,0 0.90701,0.188 1.27501,0.95 l 1.15,-0.3 c -0.387,-1.117 -1.241,-1.7 -2.42501,-1.7 -1.644,0 -2.575,1.212 -2.575,3.325 0,2.113 0.931,3.325 2.575,3.325 z m 26.17507,0 c 1.234,0 1.945,-0.555 2.25001,-1.7 l -1.12501,-0.275 c -0.18,0.543 -0.545,0.925 -1.15,0.925 -0.825,0 -1.325,-0.763 -1.325,-2.275 -0.015,-1.511 0.42,-2.275 1.35,-2.275 0.555,0 0.883,0.188 1.25,0.95 l 1.15001,-0.3 c -0.38201,-1.117 -1.22001,-1.7 -2.40001,-1.7 -1.645,0 -2.60001,1.212 -2.60001,3.325 0,2.113 0.95501,3.325 2.60001,3.325 z m 64.95017,0 c 1.039,0 1.888,-0.538 2.27501,-1.475 l -1.12501,-0.35 c -0.192,0.5 -0.568,0.85 -1.15,0.85 -0.535,0 -0.925,-0.225 -0.925,-0.725 0,-1.109 3.32501,-0.856 3.32501,-2.95 0,-1.324 -0.84101,-2 -2.27501,-2 -1.054,0 -2.033,0.588 -2.40001,1.525 l 1.02501,0.45 c 0.293,-0.61 0.673,-1 1.4,-1 0.617,0 1.075,0.225 1.075,0.85 0,1.27 -3.32501,1.016 -3.32501,3 0,1.156 0.98301,1.825 2.10001,1.825 z m -137.650349,-0.1 2.150005,0 c 1.711005,0 2.888007,-0.944 2.900007,-3.225 -0.012,-2.281 -1.189002,-3.225 -2.900007,-3.225 l -2.150005,0 z m 6.725017,0 4.27501,0 0,-1.025 -3.050007,0 0,-1.55 2.225005,0 0,-1.025 -2.225005,0 0,-1.825 3.150007,0 0,-1.025 -4.37501,0 z m 9.550023,0 1.225003,0 0,-5.425 2.800007,0 0,-1.025 -4.02501,0 z m 6.950017,0 1.525004,0 1.850005,-6.45 -1.225003,0 -0.375001,1.4 -2.025005,0 -0.400001,-1.4 -1.225003,0 z m 8.300021,0 2.600006,0 c 1.465004,0 2.038005,-0.833 2.050005,-1.9 0.007,-0.793 -0.390001,-1.453 -1.175003,-1.675 l 1.425004,-2.875 -1.375003,0 -1.225003,2.625 -1.050003,0 0,-2.625 -1.250003,0 z m 6.725016,0 4.275015,0 0,-1.025 -3.025011,0 0,-1.55 2.200001,0 0,-1.025 -2.200001,0 0,-1.825 3.125011,0 0,-1.025 -4.375015,0 z m 12.350025,0 1.22501,0 0,-2.575 2.5,0 0,2.575 1.22501,0 0,-6.45 -1.22501,0 0,2.775 -2.5,0 0,-2.775 -1.22501,0 z m 7.15002,0 4.27501,0 0,-1.025 -3.025,0 0,-1.55 2.2,0 0,-1.025 -2.2,0 0,-1.825 3.125,0 0,-1.025 -4.37501,0 z m 6.12502,0 2.575,0 c 1.46901,0 2.03801,-0.833 2.05001,-1.9 0.008,-0.793 -0.386,-1.453 -1.175,-1.675 l 1.425,-2.875 -1.375,0 -1.20001,2.625 -1.075,0 0,-2.625 -1.225,0 z m 12.87503,0 1.25,0 0,-2.575 2.47501,0 0,2.575 1.25,0 0,-6.45 -1.25,0 0,2.775 -2.47501,0 0,-2.775 -1.25,0 z m 7.17502,0 4.27502,0 0,-1.025 -3.05002,0 0,-1.55 2.20002,0 0,-1.025 -2.20002,0 0,-1.825 3.15002,0 0,-1.025 -4.37502,0 z m 10.97503,0 1.52501,0 1.85,-6.45 -1.25,0 -0.35,1.4 -2.02501,0 -0.4,-1.4 -1.225,0 z m 8.47503,0 1.225,0 0,-5.425 2.82501,0 0,-1.025 -4.05001,0 z m 4.45001,0 1.225,0 0,-1.275 -0.575,-1.325 -0.575,0 0.45,1.325 -0.525,0 z m 3.425,0 1.22501,0 0,-6.45 -1.22501,0 z m 3.52501,0 1.30001,0 2.525,-4.4 0.025,0 0,4.4 1.17501,0 0,-6.45 -1.20001,0 -2.65,4.6 0,-4.6 -1.17501,0 z m 7.15002,0 2.12501,0 c 1.707,0 2.892,-0.944 2.9,-3.225 -0.008,-2.281 -1.193,-3.225 -2.9,-3.225 l -2.12501,0 z m 6.70002,0 1.25,0 0,-4.1 c 0,-1.047 0.418,-1.4 1.25,-1.4 0.83201,0 1.22501,0.353 1.22501,1.4 l 0,4.1 1.25,0 0,-4.05 c 0,-1.887 -1.163,-2.5 -2.47501,-2.5 -1.317,0 -2.5,0.613 -2.5,2.5 z m 12.77503,0 4.60001,0 0,-1.025 -1.675,0 0,-5.425 -1.25001,0 0,5.425 -1.675,0 z m 6.17501,0 2.575,0 c 1.469,0 2.06801,-0.833 2.07501,-1.9 0.012,-0.793 -0.39,-1.453 -1.17501,-1.675 l 1.42501,-2.875 -1.37501,0 -1.225,2.625 -1.04999,0 0,-2.625 -1.25001,0 z m 6.85001,0 1.225,0 0,-6.45 -1.225,0 z m 3.55001,0 4.30001,0 0,-1.025 -3.05001,0 0,-1.55 2.20001,0 0,-1.025 -2.20001,0 0,-1.825 3.12501,0 0,-1.025 -4.37501,0 z m -125.200308,-1 0,-1.825 0.900002,0 c 0.964003,0 1.275003,0.32 1.275003,0.925 0,0.61 -0.366001,0.9 -1.050002,0.9 z m 32.325078,0 0,-1.825 0.925,0 c 0.96901,0 1.25001,0.32 1.25001,0.925 0,0.61 -0.366,0.9 -1.05001,0.9 z m 83.72522,0 0,-1.825 0.89999,0 c 0.969,0 1.275,0.32 1.275,0.925 0,0.61 -0.37,0.9 -1.05,0.9 z m -147.575376,-0.025 0,-4.4 0.800002,0 c 1.414004,0 1.750004,1.044 1.750004,2.2 0,1.156 -0.336,2.2 -1.750004,2.2 z m 121.900306,0 0,-4.4 0.82501,0 c 1.418,0 1.75,1.044 1.75,2.2 0,1.156 -0.332,2.2 -1.75,2.2 z m -99.15025,-0.2 -0.750002,-2.825 1.500004,0 -0.725002,2.825 z m 71.67519,0 -0.77501,-2.825 1.50001,0 z"
           id="path4119-0"
           inkscape:connector-curvature="0"
           sodipodi:nodetypes="cccccsccscsccssssccscsccssssccssssccsssscscsccccccccccccccccccccccccccccccccscccccccccccccccccccccccccccccccccccccccccccccccccscccccccccccccccccccccccccccccccccccccccccccccccccccccccccccccccccccccccccccccscsccccsssccssscccccccccccscccccccccccccccccccccccccccccssscccssscccssscccssscccssscccccccccc" />
      </g>
    </g>
  </g>
</svg>
