<?xml version="1.0" encoding="UTF-8" standalone="no"?>
<!-- Created with Inkscape (http://www.inkscape.org/) -->
<svg
   xmlns:svg="http://www.w3.org/2000/svg"
   xmlns="http://www.w3.org/2000/svg"
   version="1.0"
   width="516"
   height="700"
   id="svg1339">
  <defs
     id="defs1342" />
  <g
     transform="matrix(1.000357,0,0,1.000654,-0.184278,-1.080537)"
     id="g1348">
    <path
       d="M 386.45295,443.91707 C 376.26542,433.39455 347.47332,414.00433 342.02421,413.99626 C 338.47718,413.99101 333.13546,410.48649 331.95933,407.39304 C 331.16063,405.29228 331.40782,404.08058 333.23426,401.1435 C 335.31274,397.80114 335.48397,396.44646 335.30602,384.75304 C 335.16554,375.52109 334.6929,371.24692 333.59205,369.25304 C 332.01581,366.39814 330.14121,362.35865 327.20968,355.5 C 326.26936,353.3 323.3745,349.14599 320.77668,346.26887 C 318.17885,343.39175 314.82077,339.17519 313.31429,336.89874 C 311.54298,334.22211 307.0288,330.36725 300.53762,325.98818 C 290.76447,319.39503 285.36053,314.56783 283.20511,310.50551 C 281.34112,306.99246 285.38665,301.58929 293.81351,296.33706 L 301.23925,292.41414 L 310.46433,292.84249 C 356.69871,298.52436 408.26257,330.01684 433.56703,368.02709 C 443.35398,382.72825 449.93154,400.57916 449.98264,412.57759 C 450.00306,417.37419 445.69771,428.80084 442.99865,431.1135 C 441.96295,432.00093 438.89329,433.0218 436.17718,433.38211 C 432.70981,433.84207 428.44791,435.72072 421.8694,439.68899 C 410.76223,446.38902 405.95017,448 397.04402,448 C 390.58918,448 390.29675,447.88727 386.45295,443.91707 z M 120.79397,441.98275 C 115.18695,439.59079 113.53174,439.33042 106.71396,439.76796 L 98.987919,440.26379 L 97.866616,437.04722 C 96.762712,433.88056 96.658075,433.83551 91.122657,434.14373 C 88.030196,434.31592 84.950313,434.11039 84.278472,433.68698 C 83.606632,433.26358 82.122151,430.8039 80.979626,428.22104 C 78.680761,423.02407 75.350633,419 73.348739,419 C 70.639113,419 68.996943,414.37201 68.530833,405.42209 C 68.215544,399.36812 66.516577,390.31183 63.24573,377.25 C 60.594486,366.6625 58.667097,358.00193 58.962643,358.00428 C 59.258189,358.00664 61.525,359.35501 64,361.00067 C 66.475,362.64633 71.425,365.0069 75,366.24639 C 80.746294,368.23868 83.355276,368.49023 97.5,368.41578 C 111.8385,368.34031 114.43459,368.05171 122.5,365.63661 C 134.17285,362.14128 147.87977,355.50861 155.78639,349.52957 C 162.96025,344.10465 167.91464,338.31544 177.4631,324.20033 C 184.05507,314.45568 184.32526,314.20393 192.67332,310.02871 C 200.54139,306.09355 201.64721,305.80822 207.56883,306.18528 C 212.95557,306.52828 214.44116,307.04848 216.97977,309.48062 C 220.39984,312.75725 222.92723,318.8958 225.63396,330.5 C 227.14318,336.97026 227.48686,342.32435 227.43131,358.5 C 227.33342,386.99919 225.32437,393.67386 211.47849,411.5 C 202.32419,423.28587 196.26118,428.57749 189.73911,430.47351 C 186.72958,431.34841 181.16961,433.93427 177.38362,436.21987 C 165.03663,443.67376 162.5608,444.28468 143.82397,444.50091 C 127.70726,444.6869 126.93483,444.60244 120.79397,441.98275 z M 97,272.54049 C 96.175,272.34234 92.125,271.63992 88,270.97955 C 47.740167,264.53439 7.1180736,234.80007 0.9457966,207.25813 C 0.039499757,203.21406 0.3135439,202.33134 6.3813777,189.74967 C 9.8958758,182.46235 13.835315,175.51748 15.135687,174.31661 C 19.56049,170.23041 27.246344,168.59362 28.361626,171.5 C 30.19207,176.27006 36.909086,168.9862 37.776488,161.29063 L 38.260105,157 L 42.478992,157 L 46.697878,157 L 47.306673,147.00709 C 48.026385,135.19355 49.43724,129.87731 52.654898,126.85448 C 54.958828,124.69005 55.047518,124.68273 56.408812,126.54441 C 57.175641,127.59311 59.02153,131.61213 60.510788,135.47557 C 62.000046,139.33901 65.452737,146.43673 68.183437,151.24829 C 81.236863,174.24874 96.105783,190.21808 108.07181,194.08872 C 109.95732,194.69862 113.01867,195.87593 114.87481,196.70496 C 120.51565,199.22439 128.64241,199.33535 144.29044,197.1066 C 167.53274,193.7962 173.679,194.44055 180.09097,200.85981 C 182.89946,203.67148 184.12699,206.09322 185.4843,211.5 C 188.48953,223.47126 188.51152,227.20295 185.61409,233.53175 C 181.34608,242.85432 165.88326,257.45802 153.5,263.86156 C 145.10943,268.20043 104.74531,274.40074 97,272.54049 z M 439.5,258.39043 C 435.65,257.60854 430.28755,257.08832 427.58345,257.2344 L 422.66691,257.5 L 421.39624,252.58997 C 419.66162,245.88715 415.37636,240.28831 408.20534,235.35559 C 392.1796,224.33196 367.3242,220.21473 323.93454,221.39634 C 295.88618,222.16017 297.56504,222.62455 293.94656,213.10149 C 291.67743,207.12961 291.44027,200.27475 293.34515,195.71788 C 294.08498,193.94805 297.47138,189.92569 300.87049,186.77931 C 315.11704,173.59201 338.7201,163.60505 368,158.3754 C 382.77099,155.73716 421.78506,155.67322 433.44462,158.26813 C 453.39087,162.7073 467.21401,169.40054 478.36795,180.02027 C 489.08149,190.2207 495.25397,201.85653 498.00798,217.04402 C 499.04623,222.76962 498.95841,223.83648 497.11056,227.94537 C 495.98399,230.45042 494.60014,234.34104 494.03534,236.5912 C 493.47054,238.84135 492.21904,241.37104 491.25422,242.21272 C 489.34453,243.87867 481.70886,246.46342 475.74267,247.46354 C 472.39508,248.02469 472.05027,248.35211 472.5808,250.46589 C 473.45191,253.93669 470.05333,255.71122 458.09542,258.02926 C 452.50393,259.11317 447.60754,259.95772 447.21454,259.90603 C 446.82154,259.85435 443.35,259.17233 439.5,258.39043 z M 215.88985,163.44087 C 212.31324,162.33935 210.65085,161.06587 208.47474,157.76052 C 206.93202,155.41723 204.78732,152.87222 203.70874,152.10494 C 197.30035,147.54608 186.19744,134.80206 176.69614,121.09965 L 165.87931,105.5 L 166.46786,99.939623 C 166.88632,95.986148 166.59472,93.274279 165.45883,90.555718 C 160.3284,78.276872 167.01943,56.256375 180.79291,40.090475 C 195.84981,22.418231 204.41989,15.495011 215.46016,12.085019 L 221.72019,10.151493 L 229.9905,12.555908 L 238.26081,14.960323 L 246.8804,13.075746 C 251.62118,12.039228 263.54269,8.8981554 273.37263,6.0955841 C 292.92877,0.52002377 299.59733,-0.20741017 302.43267,2.9255962 C 305.55084,6.3711433 304.0227,8.2385786 293.99895,13.231831 C 284.74987,17.83919 284.37132,18.165273 279.60816,25.627935 C 273.35157,35.430436 272.17234,39.533592 271.03244,55.46744 L 270.1001,68.5 L 274.44251,73 C 276.83083,75.475 279.53192,78.985811 280.44493,80.801801 C 282.01794,83.930558 281.99803,84.38932 280.06521,89.55526 C 278.94336,92.553672 276.39976,102.97861 274.41277,112.72179 C 272.42578,122.46497 269.89339,133.37591 268.78524,136.96833 C 264.20656,151.81154 256.94296,161.317 249.30966,162.4549 C 247.21435,162.76725 243.58104,163.46767 241.23565,164.0114 C 235.15547,165.42096 221.30698,165.10923 215.88985,163.44087 z "
       style="fill:#f05921"
       id="path1352" />
    <path
       d="M 72,700.40601 C 59.84851,698.14165 53.290804,696.24061 46.109228,692.90041 C 19.312632,680.43712 4.4570716,655.52162 0.84814277,616.98924 C -1.5334643,591.56093 2.5709125,565.37333 11.895907,546.5 C 23.693782,522.62168 44.045275,508.19931 72,503.9064 C 82.800467,502.2478 105.46449,503.28834 115.5,505.90355 C 136.3512,511.33727 151.61478,523.29006 160.37299,541.04322 C 168.25177,557.01374 172,576.4385 172,601.29876 L 172,613.67634 L 138.25,614.33656 C 119.6875,614.69969 94.76875,614.99751 82.875,614.9984 C 56.624166,615.00034 55,615.23792 55,619.07578 C 55,624.39844 57.217899,632.50093 60.249146,638.25209 C 64.118132,645.5927 70.366871,651.33508 78.820391,655.31845 C 84.814474,658.14291 86.646983,658.50417 96.675942,658.83854 C 114.50915,659.43311 131.73693,654.94613 145.67191,646.07754 L 151.84382,642.14958 L 161.58014,659.24276 L 171.31646,676.33593 L 168.40823,678.72383 C 163.63634,682.64195 144.13206,691.74484 134.76176,694.42706 C 120.42318,698.53143 109.44845,700.06705 91.5,700.48038 C 82.15,700.6957 73.375,700.66223 72,700.40601 z M 117.70069,573.75 C 116.9735,563.42798 115.79392,559.40426 111.72307,553.35943 C 109.506,550.06731 106.82569,547.70367 103.13581,545.78674 C 98.377445,543.31473 96.707963,543 88.35369,543 C 82.159831,543 77.681435,543.52409 75.271708,544.53094 C 63.821243,549.31525 57.277587,559.85482 55.578441,576.25 L 54.982529,582 L 86.632222,582 L 118.28191,582 L 117.70069,573.75 z M 200,602.5 L 200,507 L 245.86901,507 C 296.27125,507 302.04161,507.48152 316.98224,512.93417 C 351.1727,525.41215 369.99695,556.5087 369.99008,600.5 C 369.98119,657.46674 341.92491,690.25259 287.5,696.89581 C 282.37136,697.52182 261.61656,697.99558 239.25,697.99718 L 200,698 L 200,602.5 z M 285.42514,659.53068 C 301.84413,655.10667 311.08058,645.08951 316.20043,626.15411 C 319.07041,615.53969 319.31097,588.68478 316.62282,579 C 311.22107,559.53877 299.6532,547.72288 281.90693,543.53978 C 278.04789,542.63014 270.62845,542.02368 263.25,542.01478 L 251,542 L 251,602.14688 L 251,662.29376 L 265.25,661.71047 C 273.24286,661.3833 282.10171,660.42616 285.42514,659.53068 z M 395,602.5 L 395,507 L 455.5,507 L 516,507 L 516,525.26749 L 516,543.53497 L 480.75,543.51749 L 445.5,543.5 L 445.5,562.5 L 445.5,581.5 L 476.75,581.76425 L 508,582.02849 L 508,599.37241 L 508,616.71632 L 476.75,616.60816 L 445.5,616.5 L 445.6227,657.25 L 445.7454,698 L 420.3727,698 L 395,698 L 395,602.5 z "
       style="fill:#003873"
       id="path1350" />
  </g>
</svg>
