<?xml version="1.0" encoding="UTF-8" standalone="no"?>
<!-- Created with Inkscape (http://www.inkscape.org/) -->

<svg
   xmlns:dc="http://purl.org/dc/elements/1.1/"
   xmlns:cc="http://creativecommons.org/ns#"
   xmlns:rdf="http://www.w3.org/1999/02/22-rdf-syntax-ns#"
   xmlns:svg="http://www.w3.org/2000/svg"
   xmlns="http://www.w3.org/2000/svg"
   xmlns:xlink="http://www.w3.org/1999/xlink"
   xmlns:sodipodi="http://sodipodi.sourceforge.net/DTD/sodipodi-0.dtd"
   xmlns:inkscape="http://www.inkscape.org/namespaces/inkscape"
   id="svg2"
   version="1.1"
   inkscape:version="0.47 r22583"
   width="683.75"
   height="142.5"
   xml:space="preserve"
   sodipodi:docname="logoCad.eps"
   style="display:inline"><metadata
     id="metadata8"><rdf:RDF><cc:Work
         rdf:about=""><dc:format>image/svg+xml</dc:format><dc:type
           rdf:resource="http://purl.org/dc/dcmitype/StillImage" /><dc:title></dc:title></cc:Work></rdf:RDF></metadata><defs
     id="defs6"><linearGradient
       id="linearGradient4103"><stop
         style="stop-color:#cd2927;stop-opacity:1;"
         offset="0"
         id="stop4105" /><stop
         id="stop4119"
         offset="0.48476559"
         style="stop-color:#dc773d;stop-opacity:1;" /><stop
         style="stop-color:#ebc554;stop-opacity:1;"
         offset="1"
         id="stop4107" /></linearGradient><inkscape:perspective
       sodipodi:type="inkscape:persp3d"
       inkscape:vp_x="0 : 0.5 : 1"
       inkscape:vp_y="0 : 1000 : 0"
       inkscape:vp_z="1 : 0.5 : 1"
       inkscape:persp3d-origin="0.5 : 0.33333333 : 1"
       id="perspective10" /><clipPath
       clipPathUnits="userSpaceOnUse"
       id="clipPath42"><path
         d="m 1783.74,11.3594 c 127.01,313.0816 536.76,627.6996 778.27,772.3786 87.79,52.59 727.95,374.842 1548.91,314.532 -130.65,21.02 -264.43,31.92 -400.59,31.92 -866.64,0 -1633.88,-436.202 -2117.37,-1118.3892 l 190.78,-0.4414"
         clip-rule="evenodd"
         id="path44" /></clipPath><linearGradient
       inkscape:collect="always"
       xlink:href="#linearGradient4103"
       id="linearGradient4117"
       x1="260.16415"
       y1="115.18266"
       x2="260.16415"
       y2="227.87907"
       gradientUnits="userSpaceOnUse"
       gradientTransform="translate(23.420127,-114.95034)" /><inkscape:perspective
       id="perspective4493"
       inkscape:persp3d-origin="0.5 : 0.33333333 : 1"
       inkscape:vp_z="1 : 0.5 : 1"
       inkscape:vp_y="0 : 1000 : 0"
       inkscape:vp_x="0 : 0.5 : 1"
       sodipodi:type="inkscape:persp3d" /><clipPath
       clipPathUnits="userSpaceOnUse"
       id="clipPath4197"><path
         d="M 0,0 545,0 545,112 0,112 0,0 z"
         id="path4199" /></clipPath><clipPath
       clipPathUnits="userSpaceOnUse"
       id="clipPath4201"><path
         d="m 176.957,0.137 c 12.703,31.308 53.68,62.769 77.828,77.238 8.781,5.258 72.797,37.484 154.891,31.453 -13.063,2.102 -26.442,3.192 -40.059,3.192 -86.664,0 -163.387,-43.622 -211.734,-111.84 l 19.074,-0.043"
         id="path4203" /></clipPath><clipPath
       clipPathUnits="userSpaceOnUse"
       id="clipPath4205"><path
         d="M 0,0 545,0 545,112 0,112 0,0 z"
         id="path4207" /></clipPath><inkscape:perspective
       id="perspective4930"
       inkscape:persp3d-origin="0.5 : 0.33333333 : 1"
       inkscape:vp_z="1 : 0.5 : 1"
       inkscape:vp_y="0 : 1000 : 0"
       inkscape:vp_x="0 : 0.5 : 1"
       sodipodi:type="inkscape:persp3d" /><clipPath
       clipPathUnits="userSpaceOnUse"
       id="clipPath4197-4"><path
         d="M 0,0 545,0 545,112 0,112 0,0 z"
         id="path4199-6" /></clipPath><clipPath
       clipPathUnits="userSpaceOnUse"
       id="clipPath4201-6"><path
         d="m 176.957,0.137 c 12.703,31.308 53.68,62.769 77.828,77.238 8.781,5.258 72.797,37.484 154.891,31.453 -13.063,2.102 -26.442,3.192 -40.059,3.192 -86.664,0 -163.387,-43.622 -211.734,-111.84 l 19.074,-0.043"
         id="path4203-6" /></clipPath><clipPath
       clipPathUnits="userSpaceOnUse"
       id="clipPath4205-1"><path
         d="M 0,0 545,0 545,112 0,112 0,0 z"
         id="path4207-9" /></clipPath></defs><sodipodi:namedview
     pagecolor="#ffffff"
     bordercolor="#666666"
     borderopacity="1"
     objecttolerance="10"
     gridtolerance="10"
     guidetolerance="10"
     inkscape:pageopacity="0"
     inkscape:pageshadow="2"
     inkscape:window-width="1920"
     inkscape:window-height="1005"
     id="namedview4"
     showgrid="false"
     inkscape:zoom="1.6118958"
     inkscape:cx="354.04102"
     inkscape:cy="70.627578"
     inkscape:window-x="0"
     inkscape:window-y="25"
     inkscape:window-maximized="1"
     inkscape:current-layer="g12" /><g
     id="g12"
     inkscape:groupmode="layer"
     inkscape:label="logoCad"
     transform="matrix(1.25,0,0,-1.25,0,142.5)"
     style="display:inline"><g
       id="g4121"><path
         d="m 409.725,36.473 c -5.431,-1.623 -9.495,-2.4941 -14.975,-2.4941 -12.525,0 -19.961,10.077 -16.597,22.493 3.364,12.4152 16.261,22.4929 28.786,22.4929 5.241,0 10.057,-0.0449 14.149,-2.0796 l -3.149,-4.1961 c -2.203,2.2531 -6.198,2.9679 -9.931,2.9679 -9.431,0 -18.259,-7.9859 -21.088,-18.43 -2.83,-10.443 1.403,-19.411 10.834,-19.411 4.158,0 9.142,0.6649 13.362,4.386 l -1.391,-5.729"
         style="fill:#686e79;fill-opacity:1;fill-rule:evenodd;stroke:none"
         id="path16" /><path
         d="M 33.7961,36.641 C 28.366,35.0191 24.302,34.1469 18.8211,34.1469 6.29609,34.1469 -1.13984,44.2238 2.22383,56.6398 5.58789,69.0551 18.4852,79.1332 31.0102,79.1332 c 5.241,0 10.0558,-0.0453 14.1476,-2.0801 L 42.009,72.857 c -2.2012,2.2539 -6.1969,2.968 -9.9309,2.968 -9.4312,0 -18.2582,-7.9859 -21.0883,-18.4301 -2.82886,-10.4418 1.4043,-19.4097 10.8352,-19.4097 4.1578,0 9.1422,0.6648 13.3609,4.3847 l -1.391,-5.7289"
         style="fill:#686e79;fill-opacity:1;fill-rule:evenodd;stroke:none"
         id="path18" /><path
         d="m 56.4891,34.5852 4.2,-0.2641 21.5418,31.225 2.2441,-15.707 -8.0762,0.0949 -2.8019,-3.4399 11.5422,0.0231 1.516,-11.932 9.416,0.266 -7.5152,44.1898 -31.8,-44.4558"
         style="fill:#686e79;fill-opacity:1;fill-rule:evenodd;stroke:none"
         id="path20" /><path
         d="m 187.223,34.509 4.199,-0.2649 21.542,31.2239 2.245,-15.7059 -8.077,0.0938 -2.801,-3.4399 11.541,0.0231 1.517,-11.9301 9.415,0.264 -7.514,44.1918 -31.8,-44.4558"
         style="fill:#686e79;fill-opacity:1;fill-rule:evenodd;stroke:none"
         id="path22" /><path
         d="m 309.318,34.8449 4.2,-0.264 21.541,31.2242 2.245,-15.7063 -8.077,0.0942 -2.8,-3.441 11.541,0.023 1.517,-11.9301 9.415,0.2641 -7.514,44.1922 -31.8,-44.4563"
         style="fill:#686e79;fill-opacity:1;fill-rule:evenodd;stroke:none"
         id="path24" /><path
         d="m 140.214,38.1582 c 8.989,0 18.534,8.2988 21.304,18.5227 2.77,10.225 -2.277,18.5242 -11.266,18.5242 l -8.543,0 -10.002,-36.9153 8.507,-0.1316 z m -1.102,-3.573 c 13.631,0 27.36,9.841 30.645,21.9648 3.285,12.1219 -5.112,21.9629 -18.742,21.9629 L 134.828,78.3801 122.997,34.718 139.112,34.5852"
         style="fill:#686e79;fill-opacity:1;fill-rule:evenodd;stroke:none"
         id="path26" /><path
         d="m 272.856,58.4672 -4.987,0.0668"
         style="fill:#686e79;fill-opacity:1;fill-rule:evenodd;stroke:none"
         id="path28" /><path
         d="m 267.761,57.641 -6.247,-23.0558 -8.009,0 11.831,43.6617 13.784,0.1332 c 8.251,0 13.742,-4.786 12.159,-10.6281 -1.752,-5.975 -7.551,-10.7829 -15.512,-10.4532 4.584,0 7.103,-2.5668 7.775,-6.4386 l 6.207,-16.009 -9.476,0 -6.291,16.7617 c -0.833,2.5402 -2.922,4.6961 -6.158,6.1019 l -0.063,-0.0738 z m 0.232,0.8602 4.563,16.8359 4.671,0 c 4.126,0 6.617,-3.6609 5.35,-8.3359 -1.266,-4.6731 -5.643,-8.4672 -9.769,-8.4672"
         style="fill:#686e79;fill-opacity:1;fill-rule:evenodd;stroke:none"
         id="path30" /><path
         d="m 452.874,78.2469 8.142,0 -11.83,-43.6617 -8.143,0 11.831,43.6617"
         style="fill:#686e79;fill-opacity:1;fill-rule:evenodd;stroke:none"
         id="path32" /><path
         d="m 475.507,57.2391 -6.088,-22.6969 8.143,0 11.83,43.6617 -8.142,0 -4.866,-17.9559 -17.307,0.0059 -0.824,-3.043 17.254,0.0282"
         style="fill:#686e79;fill-opacity:1;fill-rule:evenodd;stroke:none"
         id="path34" /><path
         d="m 535.893,34.7332 1.766,3.3156 -18.336,0 5.323,19.3582 12.204,0 0.799,2.9481 -12.204,0 3.933,14.875 16.175,0.0621 0.815,3.009 -24.302,-0.0071 -11.797,-43.5402 25.624,-0.0207"
         style="fill:#686e79;fill-opacity:1;fill-rule:evenodd;stroke:none"
         id="path36" /></g><path
       style="fill:url(#linearGradient4117);fill-opacity:1;stroke:none"
       d="m 158.20896,0.23231795 c 0,0 16.35818,27.82988105 56.58405,58.90245105 34.5861,26.71611 50.20221,32.16759 69.10281,38.858578 18.74459,6.635763 35.08294,9.603283 46.51923,11.715983 38.15517,7.04868 77.84163,0.53889 77.84163,0.53889 0,0 -40.60196,1.91302 -73.448,-5.25002 C 314.86976,100.64994 289.31344,94.778509 264.30016,82.352479 248.50594,74.506269 222.93796,55.936589 208.438,41.769829 184.04499,17.937319 177.61616,0.23231795 177.61616,0.23231795 l -19.4072,0 z"
       id="path4093"
       sodipodi:nodetypes="cszscssscc"
       inkscape:transform-center-x="-27.20893"
       inkscape:transform-center-y="-27.647786" /></g></svg>