<?xml version="1.0" encoding="UTF-8" standalone="no"?>
<!-- Created with Inkscape (http://www.inkscape.org/) -->

<svg
   xmlns:dc="http://purl.org/dc/elements/1.1/"
   xmlns:cc="http://creativecommons.org/ns#"
   xmlns:rdf="http://www.w3.org/1999/02/22-rdf-syntax-ns#"
   xmlns:svg="http://www.w3.org/2000/svg"
   xmlns="http://www.w3.org/2000/svg"
   xmlns:xlink="http://www.w3.org/1999/xlink"
   xmlns:sodipodi="http://sodipodi.sourceforge.net/DTD/sodipodi-0.dtd"
   xmlns:inkscape="http://www.inkscape.org/namespaces/inkscape"
   width="507.86438"
   height="507.86438"
   id="svg2"
   version="1.1"
   inkscape:version="0.92.1 r15371"
   sodipodi:docname="mfront-fr-square.svg">
  <defs
     id="defs4">
    <linearGradient
       inkscape:collect="always"
       id="linearGradient3873">
      <stop
         style="stop-color:#000000;stop-opacity:1;"
         offset="0"
         id="stop3875" />
      <stop
         style="stop-color:#000000;stop-opacity:0;"
         offset="1"
         id="stop3877" />
    </linearGradient>
    <linearGradient
       id="linearGradient3863">
      <stop
         style="stop-color:#ffff00;stop-opacity:1;"
         offset="0"
         id="stop3865" />
      <stop
         style="stop-color:#ffff00;stop-opacity:0;"
         offset="1"
         id="stop3867" />
    </linearGradient>
    <linearGradient
       inkscape:collect="always"
       id="linearGradient3855">
      <stop
         style="stop-color:#000080;stop-opacity:1;"
         offset="0"
         id="stop3857" />
      <stop
         style="stop-color:#000080;stop-opacity:0;"
         offset="1"
         id="stop3859" />
    </linearGradient>
    <linearGradient
       inkscape:collect="always"
       id="linearGradient3847">
      <stop
         style="stop-color:#aa0000;stop-opacity:1;"
         offset="0"
         id="stop3849" />
      <stop
         style="stop-color:#aa0000;stop-opacity:0;"
         offset="1"
         id="stop3851" />
    </linearGradient>
    <linearGradient
       inkscape:collect="always"
       id="linearGradient3839">
      <stop
         style="stop-color:#00ff00;stop-opacity:1;"
         offset="0"
         id="stop3841" />
      <stop
         style="stop-color:#00ff00;stop-opacity:0;"
         offset="1"
         id="stop3843" />
    </linearGradient>
    <linearGradient
       inkscape:collect="always"
       id="linearGradient3811">
      <stop
         style="stop-color:#00ff00;stop-opacity:1;"
         offset="0"
         id="stop3813" />
      <stop
         style="stop-color:#00ff00;stop-opacity:0;"
         offset="1"
         id="stop3815" />
    </linearGradient>
    <linearGradient
       inkscape:collect="always"
       id="linearGradient3803">
      <stop
         style="stop-color:#ff0000;stop-opacity:1;"
         offset="0"
         id="stop3805" />
      <stop
         style="stop-color:#ff0000;stop-opacity:0;"
         offset="1"
         id="stop3807" />
    </linearGradient>
    <linearGradient
       inkscape:collect="always"
       id="linearGradient3795">
      <stop
         style="stop-color:#ffcc00;stop-opacity:1;"
         offset="0"
         id="stop3797" />
      <stop
         style="stop-color:#ffcc00;stop-opacity:0;"
         offset="1"
         id="stop3799" />
    </linearGradient>
    <linearGradient
       inkscape:collect="always"
       id="linearGradient3785">
      <stop
         style="stop-color:#000080;stop-opacity:1;"
         offset="0"
         id="stop3787" />
      <stop
         style="stop-color:#000080;stop-opacity:0;"
         offset="1"
         id="stop3789" />
    </linearGradient>
    <linearGradient
       inkscape:collect="always"
       xlink:href="#linearGradient3785"
       id="linearGradient3793"
       x1="297.43488"
       y1="378.49234"
       x2="647.51733"
       y2="378.49234"
       gradientUnits="userSpaceOnUse" />
    <linearGradient
       inkscape:collect="always"
       xlink:href="#linearGradient3795"
       id="linearGradient3801"
       x1="311.50043"
       y1="526.82043"
       x2="876.40289"
       y2="526.82043"
       gradientUnits="userSpaceOnUse" />
    <linearGradient
       inkscape:collect="always"
       xlink:href="#linearGradient3803"
       id="linearGradient3809"
       x1="13.565598"
       y1="528.09912"
       x2="428.86127"
       y2="528.09912"
       gradientUnits="userSpaceOnUse" />
    <linearGradient
       inkscape:collect="always"
       xlink:href="#linearGradient3811"
       id="linearGradient3817"
       x1="62.155823"
       y1="319.03326"
       x2="442.92688"
       y2="319.03326"
       gradientUnits="userSpaceOnUse" />
    <linearGradient
       inkscape:collect="always"
       xlink:href="#linearGradient3785"
       id="linearGradient3821"
       gradientUnits="userSpaceOnUse"
       x1="297.43488"
       y1="378.49234"
       x2="647.51733"
       y2="378.49234" />
    <linearGradient
       inkscape:collect="always"
       xlink:href="#linearGradient3785"
       id="linearGradient3825"
       gradientUnits="userSpaceOnUse"
       x1="297.43488"
       y1="378.49234"
       x2="647.51733"
       y2="378.49234" />
    <linearGradient
       inkscape:collect="always"
       xlink:href="#linearGradient3785"
       id="linearGradient3829"
       gradientUnits="userSpaceOnUse"
       x1="297.43488"
       y1="378.49234"
       x2="647.51733"
       y2="378.49234" />
    <linearGradient
       inkscape:collect="always"
       xlink:href="#linearGradient3839"
       id="linearGradient3845"
       x1="138.09854"
       y1="445.6236"
       x2="781.27985"
       y2="445.6236"
       gradientUnits="userSpaceOnUse"
       gradientTransform="matrix(1.1214387,0,0,1.1214387,-186.39485,-1185.6499)" />
    <linearGradient
       inkscape:collect="always"
       xlink:href="#linearGradient3847"
       id="linearGradient3853"
       x1="138.09854"
       y1="445.6236"
       x2="781.27985"
       y2="445.6236"
       gradientUnits="userSpaceOnUse"
       gradientTransform="matrix(1.1214387,0,0,1.1214387,375.05797,-628.8746)" />
    <linearGradient
       inkscape:collect="always"
       xlink:href="#linearGradient3855"
       id="linearGradient3861"
       x1="138.09854"
       y1="445.6236"
       x2="781.27985"
       y2="445.6236"
       gradientUnits="userSpaceOnUse"
       gradientTransform="matrix(1.1214387,0,0,1.1214387,-451.69928,197.88265)" />
    <linearGradient
       inkscape:collect="always"
       xlink:href="#linearGradient3863"
       id="linearGradient3869"
       x1="138.09854"
       y1="445.6236"
       x2="781.27985"
       y2="445.6236"
       gradientUnits="userSpaceOnUse"
       gradientTransform="matrix(1.1214387,0,0,1.1214387,-1009.6439,-362.40078)" />
    <radialGradient
       inkscape:collect="always"
       xlink:href="#linearGradient3873"
       id="radialGradient3879"
       cx="424.52521"
       cy="452.6564"
       fx="424.52521"
       fy="452.6564"
       r="478.23019"
       gradientTransform="matrix(1.0666667,0,0,0.75579327,0,140.71883)"
       gradientUnits="userSpaceOnUse" />
    <clipPath
       clipPathUnits="userSpaceOnUse"
       id="clipPath1172">
      <rect
         style="opacity:0.5;fill:#000000;fill-opacity:0.10240963;stroke:#ffb200;stroke-width:2.90020347;stroke-miterlimit:4;stroke-dasharray:2.90020339, 5.80040678;stroke-dashoffset:0;stroke-opacity:1"
         id="rect1174"
         width="507.86438"
         height="507.86438"
         x="198.8947"
         y="228.90132" />
    </clipPath>
  </defs>
  <sodipodi:namedview
     id="base"
     pagecolor="#ffffff"
     bordercolor="#666666"
     borderopacity="1.0"
     inkscape:pageopacity="0.0"
     inkscape:pageshadow="2"
     inkscape:zoom="0.78205015"
     inkscape:cx="316.24542"
     inkscape:cy="204.64486"
     inkscape:document-units="px"
     inkscape:current-layer="layer1"
     showgrid="false"
     fit-margin-top="0"
     fit-margin-left="0"
     fit-margin-right="0"
     fit-margin-bottom="0"
     inkscape:window-width="1920"
     inkscape:window-height="1016"
     inkscape:window-x="0"
     inkscape:window-y="27"
     inkscape:window-maximized="1"
     showguides="false" />
  <metadata
     id="metadata7">
    <rdf:RDF>
      <cc:Work
         rdf:about="">
        <dc:format>image/svg+xml</dc:format>
        <dc:type
           rdf:resource="http://purl.org/dc/dcmitype/StillImage" />
        <dc:title></dc:title>
      </cc:Work>
    </rdf:RDF>
  </metadata>
  <g
     inkscape:label="Calque 1"
     inkscape:groupmode="layer"
     id="layer1"
     transform="translate(-792.42,1822.9791)">
    <g
       id="g1501"
       transform="translate(595.86972,-2062.5276)">
      <g
         transform="translate(-2.344418,10.647158)"
         clip-path="url(#clipPath1172)"
         id="g1170">
        <rect
           style="fill:url(#radialGradient3879);fill-opacity:1;stroke-width:1.06666672"
           id="rect3871"
           width="1020.2244"
           height="722.88635"
           x="-57.285328"
           y="121.39034" />
        <g
           id="g1162">
          <ellipse
             ry="214.37895"
             rx="360.64417"
             cy="-129.13507"
             cx="890.57117"
             style="fill:url(#linearGradient3853);fill-opacity:1;stroke-width:1.12143862"
             id="path3837"
             transform="matrix(0.81234017,0.58318389,0.81234017,-0.58318389,0,0)" />
          <ellipse
             ry="214.37895"
             rx="360.64417"
             cy="-685.91034"
             cx="329.11838"
             transform="matrix(-0.81234017,0.58318389,-0.81234017,-0.58318389,0,0)"
             id="path3835"
             style="fill:url(#linearGradient3845);fill-opacity:1;stroke-width:1.12143862" />
          <ellipse
             ry="214.37895"
             rx="360.64417"
             cy="137.33876"
             cx="-494.13071"
             style="fill:url(#linearGradient3869);fill-opacity:1;stroke-width:1.12143862"
             id="path3833"
             transform="matrix(-0.81234017,-0.58318389,-0.81234017,0.58318389,0,0)" />
          <ellipse
             ry="214.37895"
             rx="360.64417"
             cy="697.62219"
             cx="63.813942"
             transform="matrix(0.81234017,-0.58318389,0.81234017,0.58318389,0,0)"
             id="path3831"
             style="fill:url(#linearGradient3861);fill-opacity:1;stroke-width:1.12143862" />
        </g>
      </g>
      <g
         transform="translate(0,20.872909)"
         id="g1411">
        <g
           style="font-style:normal;font-weight:normal;font-size:40px;line-height:125%;font-family:Sans;letter-spacing:0px;word-spacing:0px;fill:#ffffff;fill-opacity:1;stroke:none"
           id="text3765"
           transform="translate(143.12359,-29.325778)">
          <path
             d="m 65.538627,631.04336 h 5.666667 l 13.791666,26.02083 v -26.02083 h 4.083333 v 31.10417 H 83.413627 L 69.621961,636.12669 v 26.02084 h -4.083334 v -31.10417"
             id="path3056"
             inkscape:connector-curvature="0"
             style="fill:#ffffff;fill-opacity:1;stroke-width:1.06666672" />
          <path
             d="M 96.892794,652.93919 V 638.8142 h 3.833336 v 13.97915 c -1e-5,2.20835 0.43055,3.86807 1.29166,4.97917 0.8611,1.09723 2.15277,1.64584 3.875,1.64584 2.06943,0 3.70138,-0.65971 4.89584,-1.97917 1.20831,-1.31944 1.81248,-3.11805 1.8125,-5.39583 V 638.8142 h 3.83333 v 23.33333 h -3.83333 v -3.58334 c -0.93058,1.41667 -2.01391,2.47223 -3.25,3.16667 -1.22224,0.68055 -2.64585,1.02083 -4.27084,1.02083 -2.68056,0 -4.71528,-0.83333 -6.104163,-2.5 -1.388893,-1.66666 -2.083337,-4.10416 -2.083333,-7.3125"
             id="path3058"
             inkscape:connector-curvature="0"
             style="fill:#ffffff;fill-opacity:1;stroke-width:1.06666672" />
          <path
             d="m 142.53862,643.29335 c 0.95832,-1.72219 2.10415,-2.99302 3.43751,-3.81249 1.3333,-0.81942 2.90275,-1.22915 4.70833,-1.22917 2.43053,2e-5 4.30552,0.85419 5.625,2.56251 1.3194,1.69446 1.97913,4.11112 1.97917,7.24999 v 14.08334 h -3.85417 v -13.95834 c -4e-5,-2.23609 -0.39587,-3.89581 -1.18749,-4.97916 -0.79171,-1.08332 -2.00004,-1.62498 -3.62501,-1.62501 -1.98614,3e-5 -3.55558,0.65975 -4.70833,1.97917 -1.15281,1.31947 -1.72919,3.11807 -1.72917,5.39583 v 13.18751 h -3.85417 v -13.95834 c -2e-5,-2.24998 -0.39585,-3.9097 -1.1875,-4.97916 -0.79168,-1.08332 -2.0139,-1.62498 -3.66666,-1.62501 -1.95835,3e-5 -3.5139,0.66669 -4.66667,2 -1.15279,1.31947 -1.72917,3.11113 -1.72916,5.375 v 13.18751 h -3.85418 V 638.8142 h 3.85418 v 3.62499 c 0.87499,-1.43053 1.92359,-2.48609 3.14582,-3.16667 1.22222,-0.68053 2.6736,-1.02081 4.35418,-1.02083 1.69442,2e-5 3.13192,0.43058 4.31249,1.29167 1.19443,0.86113 2.07637,2.11114 2.64583,3.74999"
             id="path3060"
             inkscape:connector-curvature="0"
             style="fill:#ffffff;fill-opacity:1;stroke-width:1.06666672" />
          <path
             d="m 185.91363,649.52253 v 1.875 h -17.625 c 0.16666,2.6389 0.95832,4.65278 2.375,6.04166 1.43055,1.37501 3.41665,2.06251 5.95833,2.06251 1.47221,0 2.89582,-0.18056 4.27083,-0.54168 1.38887,-0.3611 2.76387,-0.90277 4.125,-1.62499 v 3.62499 c -1.37502,0.58334 -2.78473,1.02779 -4.22916,1.33333 -1.44447,0.30556 -2.90974,0.45834 -4.39584,0.45834 -3.72223,0 -6.67361,-1.08333 -8.85417,-3.24999 -2.16666,-2.16667 -3.24999,-5.09722 -3.24999,-8.79167 0,-3.81944 1.02778,-6.8472 3.08333,-9.08334 2.06944,-2.24998 4.85415,-3.37498 8.35416,-3.375 3.13888,2e-5 5.61804,1.01391 7.43751,3.04166 1.83331,2.01391 2.74997,4.75696 2.75,8.22918 m -3.83333,-1.125 c -0.0278,-2.09721 -0.61808,-3.77082 -1.77084,-5.02084 -1.13891,-1.24998 -2.65279,-1.87497 -4.54166,-1.87499 -2.1389,2e-5 -3.85418,0.60418 -5.14584,1.8125 -1.27779,1.20834 -2.0139,2.90974 -2.20833,5.10416 l 13.66667,-0.0208 m -3.68751,-20.375 h 4.14583 l -6.79165,7.83333 h -3.18751 l 5.83333,-7.83333"
             id="path3062"
             inkscape:connector-curvature="0"
             style="fill:#ffffff;fill-opacity:1;stroke-width:1.06666672" />
          <path
             d="m 205.72612,642.39753 c -0.43057,-0.24999 -0.90279,-0.43054 -1.41666,-0.54167 -0.50002,-0.12498 -1.05557,-0.18748 -1.66667,-0.1875 -2.16667,2e-5 -3.83334,0.70835 -5,2.12499 -1.15278,1.4028 -1.72917,3.42363 -1.72916,6.06251 v 12.29167 h -3.85417 V 638.8142 h 3.85417 v 3.62499 c 0.80555,-1.41664 1.85416,-2.46525 3.14583,-3.14584 1.29165,-0.69442 2.86109,-1.04164 4.70834,-1.04166 0.26387,2e-5 0.55553,0.0209 0.87499,0.0625 0.31943,0.0278 0.67359,0.0764 1.0625,0.14582 l 0.0208,3.93751"
             id="path3064"
             inkscape:connector-curvature="0"
             style="fill:#ffffff;fill-opacity:1;stroke-width:1.06666672" />
          <path
             d="m 209.78863,638.8142 h 3.83333 v 23.33333 h -3.83333 V 638.8142 m 0,-9.08334 h 3.83333 v 4.85416 h -3.83333 v -4.85416"
             id="path3066"
             inkscape:connector-curvature="0"
             style="fill:#ffffff;fill-opacity:1;stroke-width:1.06666672" />
          <path
             d="m 223.91363,650.5017 c -1e-5,2.81944 0.57638,5.03473 1.72916,6.64583 1.16666,1.59722 2.76388,2.39583 4.79167,2.39583 2.02776,0 3.62499,-0.79861 4.79166,-2.39583 1.16666,-1.6111 1.74999,-3.82639 1.75001,-6.64583 -2e-5,-2.81944 -0.58335,-5.02777 -1.75001,-6.62501 -1.16667,-1.61109 -2.7639,-2.41665 -4.79166,-2.41667 -2.02779,2e-5 -3.62501,0.80558 -4.79167,2.41667 -1.15278,1.59724 -1.72917,3.80557 -1.72916,6.62501 m 13.0625,8.14583 c -0.80558,1.38889 -1.82641,2.42361 -3.0625,3.10416 -1.22224,0.66667 -2.69446,1 -4.41667,1 -2.81946,0 -5.11806,-1.125 -6.89583,-3.375 -1.76389,-2.24999 -2.64583,-5.20833 -2.64583,-8.87499 0,-3.66666 0.88194,-6.62499 2.64583,-8.87501 1.77777,-2.24998 4.07637,-3.37498 6.89583,-3.375 1.72221,2e-5 3.19443,0.3403 4.41667,1.02083 1.23609,0.66669 2.25692,1.69447 3.0625,3.08334 v -3.54166 h 3.83333 v 32.20833 h -3.83333 v -12.375"
             id="path3068"
             inkscape:connector-curvature="0"
             style="fill:#ffffff;fill-opacity:1;stroke-width:1.06666672" />
          <path
             d="M 248.30946,652.93919 V 638.8142 h 3.83333 v 13.97915 c -1e-5,2.20835 0.43055,3.86807 1.29167,4.97917 0.8611,1.09723 2.15277,1.64584 3.875,1.64584 2.06943,0 3.70138,-0.65971 4.89583,-1.97917 1.20832,-1.31944 1.81248,-3.11805 1.8125,-5.39583 V 638.8142 h 3.83334 v 23.33333 h -3.83334 v -3.58334 c -0.93057,1.41667 -2.01391,2.47223 -3.24999,3.16667 -1.22224,0.68055 -2.64585,1.02083 -4.27084,1.02083 -2.68057,0 -4.71529,-0.83333 -6.10417,-2.5 -1.38889,-1.66666 -2.08333,-4.10416 -2.08333,-7.3125"
             id="path3070"
             inkscape:connector-curvature="0"
             style="fill:#ffffff;fill-opacity:1;stroke-width:1.06666672" />
          <path
             d="m 295.74697,649.52253 v 1.875 h -17.62501 c 0.16666,2.6389 0.95833,4.65278 2.375,6.04166 1.43055,1.37501 3.41665,2.06251 5.95834,2.06251 1.4722,0 2.89581,-0.18056 4.27082,-0.54168 1.38888,-0.3611 2.76387,-0.90277 4.12501,-1.62499 v 3.62499 c -1.37502,0.58334 -2.78474,1.02779 -4.22917,1.33333 -1.44447,0.30556 -2.90974,0.45834 -4.39584,0.45834 -3.72223,0 -6.67361,-1.08333 -8.85416,-3.24999 -2.16667,-2.16667 -3.25,-5.09722 -3.25,-8.79167 0,-3.81944 1.02778,-6.8472 3.08333,-9.08334 2.06944,-2.24998 4.85416,-3.37498 8.35417,-3.375 3.13888,2e-5 5.61803,1.01391 7.4375,3.04166 1.83331,2.01391 2.74997,4.75696 2.75001,8.22918 m -3.83334,-1.125 c -0.0278,-2.09721 -0.61808,-3.77082 -1.77084,-5.02084 -1.13891,-1.24998 -2.65278,-1.87497 -4.54166,-1.87499 -2.1389,2e-5 -3.85418,0.60418 -5.14583,1.8125 -1.2778,1.20834 -2.0139,2.90974 -2.20833,5.10416 l 13.66666,-0.0208"
             id="path3072"
             inkscape:connector-curvature="0"
             style="fill:#ffffff;fill-opacity:1;stroke-width:1.06666672" />
        </g>
        <g
           style="font-style:normal;font-weight:normal;font-size:40px;line-height:125%;font-family:Sans;letter-spacing:0px;word-spacing:0px;fill:#ffffff;fill-opacity:1;stroke:none"
           id="text3769"
           transform="translate(-154.93677,-29.325767)">
          <path
             d="m 710.01035,636.34544 v 4.4375 c -1.41669,-1.31942 -2.93057,-2.30552 -4.54167,-2.95833 -1.59723,-0.65275 -3.29862,-0.97914 -5.10416,-0.97917 -3.55557,3e-5 -6.27779,1.0903 -8.16666,3.27084 -1.8889,2.16669 -2.83335,5.30558 -2.83334,9.41666 -10e-6,4.09724 0.94444,7.23613 2.83334,9.41667 1.88887,2.16667 4.61109,3.25001 8.16666,3.25 1.80554,10e-6 3.50693,-0.32638 5.10416,-0.97916 1.6111,-0.65278 3.12498,-1.63889 4.54167,-2.95834 v 4.39583 c -1.47225,1 -3.03474,1.75001 -4.6875,2.25001 -1.6389,0.5 -3.37502,0.74999 -5.20833,0.74999 -4.70834,0 -8.41667,-1.43749 -11.12501,-4.3125 -2.70833,-2.88887 -4.06249,-6.82638 -4.06249,-11.8125 0,-4.99998 1.35416,-8.93747 4.06249,-11.81249 2.70834,-2.88887 6.41667,-4.33331 11.12501,-4.33334 1.86109,3e-5 3.61109,0.25003 5.25,0.75 1.65275,0.48614 3.20136,1.22225 4.64583,2.20833"
             id="path3107"
             inkscape:connector-curvature="0"
             style="fill:#ffffff;fill-opacity:1;stroke-width:1.06666672" />
          <path
             d="m 731.98951,638.30378 v 11.60417 h 11.60418 v 3.54166 h -11.60418 v 11.60417 h -3.5 v -11.60417 h -11.60416 v -3.54166 h 11.60416 v -11.60417 h 3.5"
             id="path3109"
             inkscape:connector-curvature="0"
             style="fill:#ffffff;fill-opacity:1;stroke-width:1.06666672" />
          <path
             d="m 767.73952,638.30378 v 11.60417 h 11.60416 v 3.54166 h -11.60416 v 11.60417 h -3.5 v -11.60417 h -11.60417 v -3.54166 h 11.60417 v -11.60417 h 3.5"
             id="path3111"
             inkscape:connector-curvature="0"
             style="fill:#ffffff;fill-opacity:1;stroke-width:1.06666672" />
        </g>
      </g>
      <g
         transform="translate(0,-22.872895)"
         id="g1395">
        <g
           style="font-style:normal;font-weight:normal;font-size:40px;line-height:125%;font-family:Sans;letter-spacing:0px;word-spacing:0px;fill:#ffffff;fill-opacity:1;stroke:none"
           id="text3773"
           transform="translate(-154.93679,63.592377)">
          <path
             d="m 619.32285,286.693 h 6.27084 l 7.9375,21.16667 7.97916,-21.16667 h 6.27083 v 31.10416 h -4.10417 v -27.31249 l -8.02083,21.33334 h -4.22916 l -8.02083,-21.33334 v 27.31249 h -4.08334 V 286.693"
             id="path3088"
             inkscape:connector-curvature="0"
             style="fill:#ffffff;fill-opacity:1;stroke-width:1.06666672" />
          <path
             d="m 675.94785,305.17217 v 1.875 h -17.625 c 0.16666,2.6389 0.95832,4.65278 2.37501,6.04166 1.43053,1.37501 3.41665,2.06251 5.95832,2.06251 1.47221,0 2.89582,-0.18056 4.27084,-0.54168 1.38886,-0.36109 2.76387,-0.90277 4.125,-1.62499 v 3.62499 c -1.37503,0.58334 -2.78475,1.02779 -4.22917,1.33334 -1.44446,0.30555 -2.90974,0.45833 -4.39583,0.45833 -3.72223,0 -6.67362,-1.08332 -8.85417,-3.24999 -2.16666,-2.16667 -3.25,-5.09722 -3.25,-8.79167 0,-3.81944 1.02777,-6.8472 3.08334,-9.08334 2.06944,-2.24997 4.85415,-3.37498 8.35416,-3.375 3.13887,2e-5 5.61804,1.01391 7.43751,3.04167 1.8333,2.01391 2.74997,4.75696 2.74999,8.22917 m -3.83333,-1.125 c -0.0278,-2.09721 -0.61807,-3.77082 -1.77084,-5.02083 -1.1389,-1.24999 -2.65279,-1.87498 -4.54166,-1.875 -2.13891,2e-5 -3.85418,0.60418 -5.14584,1.81249 -1.27778,1.20835 -2.01389,2.90974 -2.20833,5.10417 l 13.66667,-0.0208 m -3.6875,-20.375 h 4.14583 l -6.79167,7.83334 h -3.18749 l 5.83333,-7.83334"
             id="path3090"
             inkscape:connector-curvature="0"
             style="fill:#ffffff;fill-opacity:1;stroke-width:1.06666672" />
          <path
             d="m 699.03119,295.35967 v 3.58333 c -1.08336,-0.5972 -2.17363,-1.04165 -3.27084,-1.33334 -1.08335,-0.30553 -2.18057,-0.4583 -3.29167,-0.45832 -2.48612,2e-5 -4.41667,0.79168 -5.79167,2.375 -1.37499,1.56946 -2.0625,3.77779 -2.06249,6.625 -10e-6,2.84723 0.6875,5.06251 2.06249,6.64582 1.375,1.56945 3.30555,2.35418 5.79167,2.35418 1.1111,0 2.20832,-0.14584 3.29167,-0.43751 1.09721,-0.30555 2.18748,-0.75693 3.27084,-1.35416 v 3.54166 c -1.06947,0.5 -2.18058,0.875 -3.33333,1.12501 -1.13892,0.24999 -2.35419,0.37499 -3.64584,0.37499 -3.5139,0 -6.30557,-1.10416 -8.37501,-3.3125 -2.06944,-2.20833 -3.10416,-5.18749 -3.10416,-8.93749 0,-3.80555 1.04167,-6.79859 3.12501,-8.97917 2.0972,-2.18053 4.96525,-3.27082 8.60416,-3.27084 1.18054,2e-5 2.33332,0.12503 3.45833,0.375 1.12498,0.23614 2.21526,0.59725 3.27084,1.08334"
             id="path3092"
             inkscape:connector-curvature="0"
             style="fill:#ffffff;fill-opacity:1;stroke-width:1.06666672" />
          <path
             d="m 716.34368,306.068 c -3.09723,1e-5 -5.24306,0.35418 -6.43749,1.0625 -1.19446,0.70835 -1.79168,1.91668 -1.79167,3.625 -10e-6,1.36112 0.44443,2.44445 1.33333,3.25 0.90277,0.79167 2.12499,1.1875 3.66667,1.1875 2.12499,0 3.82638,-0.74999 5.10417,-2.25 1.29165,-1.51388 1.93748,-3.52082 1.93749,-6.02083 V 306.068 h -3.8125 m 7.64583,-1.58333 v 13.31249 h -3.83333 v -3.54166 c -0.87502,1.41667 -1.96529,2.46528 -3.27083,3.14583 -1.30556,0.66667 -2.90279,1 -4.79166,1 -2.3889,0 -4.29167,-0.66666 -5.70834,-2 -1.40278,-1.34722 -2.10417,-3.14582 -2.10417,-5.39583 0,-2.62499 0.875,-4.60416 2.62501,-5.9375 1.76388,-1.33332 4.38887,-1.99998 7.87499,-2 h 5.375 v -0.375 c -10e-6,-1.76387 -0.58335,-3.12498 -1.74999,-4.08334 -1.1528,-0.9722 -2.7778,-1.4583 -4.875,-1.45832 -1.33334,2e-5 -2.63196,0.15974 -3.89584,0.47916 -1.26389,0.31946 -2.47917,0.79863 -3.64584,1.4375 v -3.54166 c 1.40278,-0.54165 2.76389,-0.94443 4.08334,-1.20833 1.31944,-0.27776 2.60415,-0.41666 3.85417,-0.41668 3.37499,2e-5 5.89582,0.87503 7.56249,2.62501 1.66665,1.75001 2.49998,4.40279 2.5,7.95833"
             id="path3094"
             inkscape:connector-curvature="0"
             style="fill:#ffffff;fill-opacity:1;stroke-width:1.06666672" />
          <path
             d="m 751.30202,303.71383 v 14.08333 h -3.83334 v -13.95832 c -2e-5,-2.20832 -0.43057,-3.8611 -1.29167,-4.95834 -0.86112,-1.0972 -2.15279,-1.64581 -3.87499,-1.64583 -2.06945,2e-5 -3.7014,0.65974 -4.89583,1.97916 -1.19446,1.31947 -1.79168,3.11807 -1.79167,5.39583 v 13.1875 h -3.85417 v -23.33333 h 3.85417 v 3.625 c 0.91666,-1.40275 1.99304,-2.45136 3.22916,-3.14583 1.24999,-0.69442 2.68749,-1.04165 4.3125,-1.04167 2.68055,2e-5 4.70832,0.83336 6.08334,2.5 1.37498,1.6528 2.06247,4.0903 2.0625,7.3125"
             id="path3096"
             inkscape:connector-curvature="0"
             style="fill:#ffffff;fill-opacity:1;stroke-width:1.06666672" />
          <path
             d="m 758.98951,294.46383 h 3.83334 v 23.33333 h -3.83334 v -23.33333 m 0,-9.08333 h 3.83334 v 4.85417 h -3.83334 v -4.85417"
             id="path3098"
             inkscape:connector-curvature="0"
             style="fill:#ffffff;fill-opacity:1;stroke-width:1.06666672" />
          <path
             d="m 773.11452,306.15134 c -10e-6,2.81944 0.57638,5.03472 1.72916,6.64582 1.16667,1.59723 2.76388,2.39584 4.79167,2.39584 2.02776,0 3.62498,-0.79861 4.79167,-2.39584 1.16664,-1.6111 1.74998,-3.82638 1.74999,-6.64582 -10e-6,-2.81944 -0.58335,-5.02777 -1.74999,-6.625 -1.16669,-1.6111 -2.76391,-2.41665 -4.79167,-2.41668 -2.02779,3e-5 -3.625,0.80558 -4.79167,2.41668 -1.15278,1.59723 -1.72917,3.80556 -1.72916,6.625 m 13.06249,8.14582 c -0.80556,1.3889 -1.8264,2.42362 -3.06249,3.10417 -1.22224,0.66667 -2.69446,1 -4.41666,1 -2.81946,0 -5.11807,-1.125 -6.89584,-3.37499 -1.7639,-2.25 -2.64584,-5.20833 -2.64584,-8.875 0,-3.66666 0.88194,-6.62498 2.64584,-8.87501 1.77777,-2.24997 4.07638,-3.37498 6.89584,-3.375 1.7222,2e-5 3.19442,0.3403 4.41666,1.02084 1.23609,0.66668 2.25693,1.69446 3.06249,3.08333 v -3.54167 h 3.83334 v 32.20834 h -3.83334 v -12.37501"
             id="path3100"
             inkscape:connector-curvature="0"
             style="fill:#ffffff;fill-opacity:1;stroke-width:1.06666672" />
          <path
             d="m 797.51035,308.58883 v -14.125 h 3.83333 V 308.443 c 0,2.20834 0.43055,3.86806 1.29167,4.97917 0.8611,1.09722 2.15277,1.64583 3.875,1.64583 2.06943,0 3.70137,-0.65972 4.89584,-1.97917 1.20831,-1.31943 1.81248,-3.11805 1.8125,-5.39583 v -13.22917 h 3.83333 v 23.33333 h -3.83333 v -3.58333 c -0.93058,1.41668 -2.01391,2.47223 -3.25001,3.16667 -1.22224,0.68056 -2.64584,1.02083 -4.27082,1.02083 -2.68057,0 -4.71529,-0.83333 -6.10417,-2.5 -1.3889,-1.66666 -2.08334,-4.10416 -2.08334,-7.3125"
             id="path3102"
             inkscape:connector-curvature="0"
             style="fill:#ffffff;fill-opacity:1;stroke-width:1.06666672" />
          <path
             d="m 844.94785,305.17217 v 1.875 h -17.625 c 0.16666,2.6389 0.95832,4.65278 2.37501,6.04166 1.43053,1.37501 3.41665,2.06251 5.95832,2.06251 1.47221,0 2.89582,-0.18056 4.27084,-0.54168 1.38886,-0.36109 2.76387,-0.90277 4.125,-1.62499 v 3.62499 c -1.37503,0.58334 -2.78475,1.02779 -4.22917,1.33334 -1.44446,0.30555 -2.90974,0.45833 -4.39583,0.45833 -3.72223,0 -6.67362,-1.08332 -8.85417,-3.24999 -2.16666,-2.16667 -3.25,-5.09722 -3.25,-8.79167 0,-3.81944 1.02777,-6.8472 3.08334,-9.08334 2.06944,-2.24997 4.85415,-3.37498 8.35416,-3.375 3.13887,2e-5 5.61804,1.01391 7.43751,3.04167 1.8333,2.01391 2.74997,4.75696 2.74999,8.22917 m -3.83333,-1.125 c -0.0278,-2.09721 -0.61807,-3.77082 -1.77084,-5.02083 -1.1389,-1.24999 -2.65279,-1.87498 -4.54166,-1.875 -2.13891,2e-5 -3.85418,0.60418 -5.14584,1.81249 -1.27778,1.20835 -2.01389,2.90974 -2.20833,5.10417 l 13.66667,-0.0208"
             id="path3104"
             inkscape:connector-curvature="0"
             style="fill:#ffffff;fill-opacity:1;stroke-width:1.06666672" />
        </g>
        <g
           style="font-style:normal;font-weight:normal;font-size:40px;line-height:125%;font-family:Sans;letter-spacing:0px;word-spacing:0px;fill:#ffffff;fill-opacity:1;stroke:none"
           id="text3777"
           transform="translate(143.12358,59.59239)">
          <path
             d="m 76.476131,290.82842 h 6.270833 l 7.9375,21.16666 7.979167,-21.16666 h 6.270829 v 31.10417 h -4.10416 v -27.3125 l -8.020835,21.33333 h -4.229167 l -8.020833,-21.33333 v 27.3125 h -4.083334 v -31.10417"
             id="path3037"
             inkscape:connector-curvature="0"
             style="fill:#ffffff;fill-opacity:1;stroke-width:1.06666672" />
          <path
             d="m 123.74697,310.20341 c -3.09724,2e-5 -5.24307,0.35419 -6.43751,1.06251 -1.19445,0.70834 -1.79167,1.91667 -1.79166,3.625 -10e-6,1.36111 0.44444,2.44445 1.33334,3.25 0.90276,0.79167 2.12498,1.1875 3.66666,1.1875 2.12498,0 3.82637,-0.75 5.10416,-2.25 1.29165,-1.51389 1.93749,-3.52083 1.93751,-6.02083 v -0.85418 h -3.8125 m 7.64583,-1.58332 v 13.3125 h -3.83333 v -3.54167 c -0.87502,1.41666 -1.9653,2.46527 -3.27084,3.14583 -1.30557,0.66666 -2.90278,1 -4.79167,1 -2.3889,0 -4.29167,-0.66667 -5.70833,-2 -1.40278,-1.34721 -2.10417,-3.14583 -2.10416,-5.39583 -1e-5,-2.62499 0.87499,-4.60415 2.62499,-5.93751 1.76388,-1.33331 4.38889,-1.99998 7.87501,-2 h 5.375 v -0.37499 c -2e-5,-1.76388 -0.58335,-3.12499 -1.75001,-4.08333 -1.15279,-0.9722 -2.77779,-1.45832 -4.875,-1.45834 -1.33334,2e-5 -2.63195,0.15975 -3.89583,0.47917 -1.2639,0.31947 -2.47917,0.79862 -3.64583,1.43749 v -3.54166 c 1.40277,-0.54164 2.76388,-0.94442 4.08333,-1.20833 1.31943,-0.27776 2.60416,-0.41664 3.85416,-0.41667 3.37499,3e-5 5.89582,0.87503 7.56251,2.625 1.66665,1.75003 2.49998,4.40279 2.5,7.95834"
             id="path3039"
             inkscape:connector-curvature="0"
             style="fill:#ffffff;fill-opacity:1;stroke-width:1.06666672" />
          <path
             d="m 143.10113,291.97425 v 6.625 h 7.89583 v 2.97917 h -7.89583 v 12.66667 c -1e-5,1.90278 0.25694,3.125 0.77084,3.66666 0.52776,0.54167 1.59026,0.81251 3.1875,0.81251 h 3.93749 v 3.20833 h -3.93749 c -2.95835,0 -5.00001,-0.54861 -6.12501,-1.64584 -1.125,-1.1111 -1.68749,-3.12499 -1.68749,-6.04166 v -12.66667 h -2.81251 v -2.97917 h 2.81251 v -6.625 h 3.85416"
             id="path3041"
             inkscape:connector-curvature="0"
             style="fill:#ffffff;fill-opacity:1;stroke-width:1.06666672" />
          <path
             d="m 176.0178,309.30758 v 1.875 h -17.625 c 0.16666,2.6389 0.95833,4.65279 2.375,6.04168 1.43055,1.37499 3.41665,2.06249 5.95833,2.06249 1.47221,0 2.89582,-0.18055 4.27083,-0.54166 1.38887,-0.36111 2.76387,-0.90278 4.125,-1.625 v 3.625 c -1.37502,0.58333 -2.78473,1.02777 -4.22916,1.33333 -1.44447,0.30555 -2.90974,0.45833 -4.39584,0.45833 -3.72223,0 -6.67361,-1.08333 -8.85417,-3.25 -2.16666,-2.16666 -3.24999,-5.09721 -3.24999,-8.79167 0,-3.81942 1.02778,-6.8472 3.08333,-9.08333 2.06944,-2.24998 4.85415,-3.37497 8.35416,-3.375 3.13888,3e-5 5.61804,1.01392 7.43751,3.04167 1.83331,2.01391 2.74997,4.75696 2.75,8.22916 m -3.83333,-1.125 c -0.0278,-2.0972 -0.61808,-3.77081 -1.77084,-5.02083 -1.13891,-1.24997 -2.65279,-1.87498 -4.54166,-1.875 -2.1389,2e-5 -3.85418,0.60418 -5.14584,1.8125 -1.27779,1.20836 -2.0139,2.90974 -2.20833,5.10416 l 13.66667,-0.0208 m -3.68751,-20.37499 h 4.14583 l -6.79165,7.83333 h -3.18751 l 5.83333,-7.83333"
             id="path3043"
             inkscape:connector-curvature="0"
             style="fill:#ffffff;fill-opacity:1;stroke-width:1.06666672" />
          <path
             d="m 195.83029,302.18258 c -0.43057,-0.24997 -0.90279,-0.43053 -1.41666,-0.54166 -0.50002,-0.12498 -1.05557,-0.18748 -1.66666,-0.1875 -2.16668,2e-5 -3.83335,0.70835 -5,2.125 -1.15279,1.4028 -1.72918,3.42363 -1.72917,6.0625 v 12.29167 h -3.85417 v -23.33334 h 3.85417 v 3.62501 c 0.80555,-1.41665 1.85416,-2.46526 3.14583,-3.14584 1.29166,-0.69442 2.8611,-1.04164 4.70834,-1.04167 0.26387,3e-5 0.55553,0.0209 0.875,0.0625 0.31942,0.0278 0.67358,0.0764 1.06249,0.14584 l 0.0208,3.93749"
             id="path3045"
             inkscape:connector-curvature="0"
             style="fill:#ffffff;fill-opacity:1;stroke-width:1.06666672" />
          <path
             d="m 199.8928,298.59925 h 3.83333 v 23.33334 h -3.83333 v -23.33334 m 0,-9.08334 h 3.83333 v 4.85417 h -3.83333 v -4.85417"
             id="path3047"
             inkscape:connector-curvature="0"
             style="fill:#ffffff;fill-opacity:1;stroke-width:1.06666672" />
          <path
             d="m 222.33029,310.20341 c -3.09722,2e-5 -5.24306,0.35419 -6.43749,1.06251 -1.19445,0.70834 -1.79168,1.91667 -1.79167,3.625 -1e-5,1.36111 0.44444,2.44445 1.33333,3.25 0.90278,0.79167 2.125,1.1875 3.66667,1.1875 2.12499,0 3.82638,-0.75 5.10417,-2.25 1.29165,-1.51389 1.93748,-3.52083 1.93749,-6.02083 v -0.85418 h -3.8125 m 7.64584,-1.58332 v 13.3125 h -3.83334 v -3.54167 c -0.87501,1.41666 -1.96529,2.46527 -3.27082,3.14583 -1.30557,0.66666 -2.9028,1 -4.79167,1 -2.3889,0 -4.29167,-0.66667 -5.70833,-2 -1.40279,-1.34721 -2.10417,-3.14583 -2.10417,-5.39583 0,-2.62499 0.87499,-4.60415 2.625,-5.93751 1.76388,-1.33331 4.38887,-1.99998 7.875,-2 h 5.37499 v -0.37499 c -1e-5,-1.76388 -0.58334,-3.12499 -1.74999,-4.08333 -1.1528,-0.9722 -2.77779,-1.45832 -4.875,-1.45834 -1.33334,2e-5 -2.63195,0.15975 -3.89584,0.47917 -1.26389,0.31947 -2.47917,0.79862 -3.64583,1.43749 v -3.54166 c 1.40277,-0.54164 2.76388,-0.94442 4.08334,-1.20833 1.31943,-0.27776 2.60415,-0.41664 3.85416,-0.41667 3.37499,3e-5 5.89582,0.87503 7.5625,2.625 1.66664,1.75003 2.49998,4.40279 2.5,7.95834"
             id="path3049"
             inkscape:connector-curvature="0"
             style="fill:#ffffff;fill-opacity:1;stroke-width:1.06666672" />
          <path
             d="m 237.49696,312.72426 v -14.12501 h 3.83333 v 13.97917 c 0,2.20834 0.43055,3.86805 1.29167,4.97917 0.8611,1.09722 2.15277,1.64583 3.875,1.64582 2.06943,10e-6 3.70138,-0.65971 4.89584,-1.97915 1.20831,-1.31945 1.81248,-3.11805 1.8125,-5.39584 v -13.22917 h 3.83333 v 23.33334 h -3.83333 v -3.58334 c -0.93058,1.41667 -2.01391,2.47222 -3.25,3.16666 -1.22224,0.68056 -2.64585,1.02084 -4.27083,1.02084 -2.68057,0 -4.71529,-0.83334 -6.10417,-2.5 -1.3889,-1.66666 -2.08334,-4.10416 -2.08334,-7.31249"
             id="path3051"
             inkscape:connector-curvature="0"
             style="fill:#ffffff;fill-opacity:1;stroke-width:1.06666672" />
          <path
             d="m 284.37197,298.59925 -8.43751,11.35417 8.875,11.97917 h -4.52083 l -6.79167,-9.16667 -6.79166,9.16667 h -4.52083 l 9.0625,-12.20833 -8.29167,-11.12501 h 4.52083 l 6.1875,8.3125 6.18751,-8.3125 h 4.52083"
             id="path3053"
             inkscape:connector-curvature="0"
             style="fill:#ffffff;fill-opacity:1;stroke-width:1.06666672" />
        </g>
      </g>
      <g
         transform="matrix(2.6182028,0,0,2.6182028,-794.16231,-751.43777)"
         id="text3781"
         style="font-style:normal;font-weight:normal;font-size:40px;line-height:125%;font-family:Sans;letter-spacing:0px;word-spacing:0px;fill:#ff8c00;fill-opacity:1;stroke:none">
        <path
           style="fill:#ff8c00;fill-opacity:1;stroke-width:1.06666672"
           inkscape:connector-curvature="0"
           id="path3075"
           d="m 386.08969,459.91296 h 6.27082 l 7.93751,21.16667 7.97916,-21.16667 h 6.27083 v 31.10416 h -4.10416 v -27.3125 l -8.02083,21.33333 h -4.22917 l -8.02084,-21.33333 v 27.3125 h -4.08332 v -31.10416" />
        <path
           style="fill:#ff8c00;fill-opacity:1;stroke-width:1.06666672"
           inkscape:connector-curvature="0"
           id="path3077"
           d="m 422.92302,459.91296 h 17.875 v 3.54166 h -13.66667 v 9.16667 h 12.33333 v 3.54166 h -12.33333 v 14.85417 h -4.20833 v -31.10416" />
        <path
           style="fill:#ff8c00;fill-opacity:1;stroke-width:1.06666672"
           inkscape:connector-curvature="0"
           id="path3079"
           d="m 462.25635,476.43379 c 0.90275,0.30557 1.77775,0.95835 2.62499,1.95833 0.86109,1.00002 1.7222,2.37502 2.58334,4.125 l 4.27083,8.5 h -4.52083 l -3.97917,-7.97917 c -1.02779,-2.08332 -2.02779,-3.46526 -3,-4.14583 -0.95835,-0.68054 -2.27085,-1.02081 -3.93749,-1.02083 h -4.58334 v 13.14583 h -4.20833 v -31.10416 h 9.5 c 3.55554,3e-5 6.20831,0.74308 7.95833,2.22916 1.74998,1.48614 2.62497,3.7292 2.62501,6.72917 -4e-5,1.95835 -0.45836,3.58336 -1.37501,4.875 -0.9028,1.29168 -2.22224,2.18751 -3.95833,2.6875 m -10.54167,-13.0625 v 11.04167 h 5.29167 c 2.02776,10e-6 3.55554,-0.46527 4.58334,-1.39584 1.04164,-0.94443 1.56247,-2.32637 1.56249,-4.14583 -2e-5,-1.81942 -0.52085,-3.18747 -1.56249,-4.10416 -1.0278,-0.93053 -2.55558,-1.39581 -4.58334,-1.39584 h -5.29167" />
        <path
           style="fill:#ff8c00;fill-opacity:1;stroke-width:1.06666672"
           inkscape:connector-curvature="0"
           id="path3081"
           d="m 489.79802,462.76713 c -3.05558,2e-5 -5.48613,1.13891 -7.29167,3.41666 -1.79167,2.2778 -2.68751,5.38196 -2.6875,9.3125 -10e-6,3.91668 0.89583,7.0139 2.6875,9.29167 1.80554,2.27778 4.23609,3.41667 7.29167,3.41666 3.05553,1e-5 5.4722,-1.13888 7.24999,-3.41666 1.79165,-2.27777 2.68748,-5.37499 2.6875,-9.29167 -2e-5,-3.93054 -0.89585,-7.0347 -2.6875,-9.3125 -1.77779,-2.27775 -4.19446,-3.41664 -7.24999,-3.41666 m 0,-3.41668 c 4.36108,4e-5 7.8472,1.46532 10.45833,4.39584 2.61107,2.91669 3.91663,6.83336 3.91666,11.75 -3e-5,4.90279 -1.30559,8.81945 -3.91666,11.75 -2.61113,2.91666 -6.09725,4.375 -10.45833,4.375 -4.37502,0 -7.87501,-1.45834 -10.5,-4.375 -2.61112,-2.91666 -3.91668,-6.83332 -3.91668,-11.75 0,-4.91664 1.30556,-8.83331 3.91668,-11.75 2.62499,-2.93052 6.12498,-4.3958 10.5,-4.39584" />
        <path
           style="fill:#ff8c00;fill-opacity:1;stroke-width:1.06666672"
           inkscape:connector-curvature="0"
           id="path3083"
           d="m 510.75635,459.91296 h 5.66667 l 13.79166,26.02083 v -26.02083 h 4.08334 v 31.10416 h -5.66667 l -13.79167,-26.02083 v 26.02083 h -4.08333 v -31.10416" />
        <path
           style="fill:#ff8c00;fill-opacity:1;stroke-width:1.06666672"
           inkscape:connector-curvature="0"
           id="path3085"
           d="m 538.36051,459.91296 h 26.3125 v 3.54166 h -11.04166 v 27.5625 h -4.22917 v -27.5625 h -11.04167 v -3.54166" />
      </g>
    </g>
  </g>
</svg>
