<?xml version="1.0" encoding="UTF-8" standalone="no"?>
<svg
   xmlns:dc="http://purl.org/dc/elements/1.1/"
   xmlns:cc="http://creativecommons.org/ns#"
   xmlns:rdf="http://www.w3.org/1999/02/22-rdf-syntax-ns#"
   xmlns:svg="http://www.w3.org/2000/svg"
   xmlns="http://www.w3.org/2000/svg"
   viewBox="0 0 1066.6667 800"
   height="800"
   width="1066.6667"
   xml:space="preserve"
   id="svg2"
   version="1.1"><metadata
     id="metadata8"><rdf:RDF><cc:Work
         rdf:about=""><dc:format>image/svg+xml</dc:format><dc:type
           rdf:resource="http://purl.org/dc/dcmitype/StillImage" /><dc:title></dc:title></cc:Work></rdf:RDF></metadata><defs
     id="defs6"><clipPath
       id="clipPath28"
       clipPathUnits="userSpaceOnUse"><path
         style="clip-rule:evenodd"
         id="path26"
         d="M 0,0 H 13333 V 10000 H 0 Z" /></clipPath><clipPath
       id="clipPath50"
       clipPathUnits="userSpaceOnUse"><path
         style="clip-rule:evenodd"
         id="path48"
         d="M 0,0 H 13333 V 10000 H 0 Z" /></clipPath><clipPath
       id="clipPath56"
       clipPathUnits="userSpaceOnUse"><path
         style="clip-rule:evenodd"
         id="path54"
         d="m 6799.83,9241.4356 h 916.6437 v 483.3213 H 6799.83 Z" /></clipPath><clipPath
       id="clipPath88"
       clipPathUnits="userSpaceOnUse"><path
         style="clip-rule:evenodd"
         id="path86"
         d="M 0,0 H 13333 V 10000 H 0 Z" /></clipPath><clipPath
       id="clipPath106"
       clipPathUnits="userSpaceOnUse"><path
         style="clip-rule:evenodd"
         id="path104"
         d="M 0,0 H 13333 V 10000 H 0 Z" /></clipPath><clipPath
       id="clipPath112"
       clipPathUnits="userSpaceOnUse"><path
         style="clip-rule:evenodd"
         id="path110"
         d="M 274.99312,5083.2062 V 3849.9038 h 483.32126 v 1233.3024 z" /></clipPath><clipPath
       id="clipPath144"
       clipPathUnits="userSpaceOnUse"><path
         style="clip-rule:evenodd"
         id="path142"
         d="M 0,0 H 13333 V 10000 H 0 Z" /></clipPath><clipPath
       id="clipPath162"
       clipPathUnits="userSpaceOnUse"><path
         style="clip-rule:evenodd"
         id="path160"
         d="M 0,0 H 13333 V 10000 H 0 Z" /></clipPath><clipPath
       id="clipPath168"
       clipPathUnits="userSpaceOnUse"><path
         style="clip-rule:evenodd"
         id="path166"
         d="m 1458.2969,8674.7831 h 283.3262 v 483.3213 h -283.3262 z" /></clipPath><clipPath
       id="clipPath188"
       clipPathUnits="userSpaceOnUse"><path
         style="clip-rule:evenodd"
         id="path186"
         d="M 0,0 H 13333 V 10000 H 0 Z" /></clipPath><clipPath
       id="clipPath206"
       clipPathUnits="userSpaceOnUse"><path
         style="clip-rule:evenodd"
         id="path204"
         d="M 0,0 H 13333 V 10000 H 0 Z" /></clipPath><clipPath
       id="clipPath212"
       clipPathUnits="userSpaceOnUse"><path
         style="clip-rule:evenodd"
         id="path210"
         d="m 2858.8174,8674.7831 h 499.9875 v 483.3213 h -499.9875 z" /></clipPath><clipPath
       id="clipPath232"
       clipPathUnits="userSpaceOnUse"><path
         style="clip-rule:evenodd"
         id="path230"
         d="M 0,0 H 13333 V 10000 H 0 Z" /></clipPath><clipPath
       id="clipPath250"
       clipPathUnits="userSpaceOnUse"><path
         style="clip-rule:evenodd"
         id="path248"
         d="M 0,0 H 13333 V 10000 H 0 Z" /></clipPath><clipPath
       id="clipPath256"
       clipPathUnits="userSpaceOnUse"><path
         style="clip-rule:evenodd"
         id="path254"
         d="m 4367.6686,8674.7831 h 499.9875 v 483.3213 h -499.9875 z" /></clipPath><clipPath
       id="clipPath276"
       clipPathUnits="userSpaceOnUse"><path
         style="clip-rule:evenodd"
         id="path274"
         d="M 0,0 H 13333 V 10000 H 0 Z" /></clipPath><clipPath
       id="clipPath294"
       clipPathUnits="userSpaceOnUse"><path
         style="clip-rule:evenodd"
         id="path292"
         d="M 0,0 H 13333 V 10000 H 0 Z" /></clipPath><clipPath
       id="clipPath300"
       clipPathUnits="userSpaceOnUse"><path
         style="clip-rule:evenodd"
         id="path298"
         d="m 5876.5197,8674.7831 h 499.9875 v 483.3213 h -499.9875 z" /></clipPath><clipPath
       id="clipPath320"
       clipPathUnits="userSpaceOnUse"><path
         style="clip-rule:evenodd"
         id="path318"
         d="M 0,0 H 13333 V 10000 H 0 Z" /></clipPath><clipPath
       id="clipPath338"
       clipPathUnits="userSpaceOnUse"><path
         style="clip-rule:evenodd"
         id="path336"
         d="M 0,0 H 13333 V 10000 H 0 Z" /></clipPath><clipPath
       id="clipPath344"
       clipPathUnits="userSpaceOnUse"><path
         style="clip-rule:evenodd"
         id="path342"
         d="m 7385.3709,8674.7831 h 499.9875 v 483.3213 h -499.9875 z" /></clipPath><clipPath
       id="clipPath364"
       clipPathUnits="userSpaceOnUse"><path
         style="clip-rule:evenodd"
         id="path362"
         d="M 0,0 H 13333 V 10000 H 0 Z" /></clipPath><clipPath
       id="clipPath382"
       clipPathUnits="userSpaceOnUse"><path
         style="clip-rule:evenodd"
         id="path380"
         d="M 0,0 H 13333 V 10000 H 0 Z" /></clipPath><clipPath
       id="clipPath388"
       clipPathUnits="userSpaceOnUse"><path
         style="clip-rule:evenodd"
         id="path386"
         d="m 9002.5527,8674.7831 h 283.3262 v 483.3213 h -283.3262 z" /></clipPath><clipPath
       id="clipPath408"
       clipPathUnits="userSpaceOnUse"><path
         style="clip-rule:evenodd"
         id="path406"
         d="M 0,0 H 13333 V 10000 H 0 Z" /></clipPath><clipPath
       id="clipPath426"
       clipPathUnits="userSpaceOnUse"><path
         style="clip-rule:evenodd"
         id="path424"
         d="M 0,0 H 13333 V 10000 H 0 Z" /></clipPath><clipPath
       id="clipPath432"
       clipPathUnits="userSpaceOnUse"><path
         style="clip-rule:evenodd"
         id="path430"
         d="m 10403.073,8674.7831 h 499.988 v 483.3213 h -499.988 z" /></clipPath><clipPath
       id="clipPath452"
       clipPathUnits="userSpaceOnUse"><path
         style="clip-rule:evenodd"
         id="path450"
         d="M 0,0 H 13333 V 10000 H 0 Z" /></clipPath><clipPath
       id="clipPath470"
       clipPathUnits="userSpaceOnUse"><path
         style="clip-rule:evenodd"
         id="path468"
         d="M 0,0 H 13333 V 10000 H 0 Z" /></clipPath><clipPath
       id="clipPath476"
       clipPathUnits="userSpaceOnUse"><path
         style="clip-rule:evenodd"
         id="path474"
         d="m 11911.924,8674.7831 h 499.988 v 483.3213 h -499.988 z" /></clipPath><clipPath
       id="clipPath496"
       clipPathUnits="userSpaceOnUse"><path
         style="clip-rule:evenodd"
         id="path494"
         d="M 0,0 H 13333 V 10000 H 0 Z" /></clipPath><clipPath
       id="clipPath514"
       clipPathUnits="userSpaceOnUse"><path
         style="clip-rule:evenodd"
         id="path512"
         d="M 0,0 H 13333 V 10000 H 0 Z" /></clipPath><clipPath
       id="clipPath520"
       clipPathUnits="userSpaceOnUse"><path
         style="clip-rule:evenodd"
         id="path518"
         d="m 999.975,8274.7931 h 283.3263 v 483.3213 H 999.975 Z" /></clipPath><clipPath
       id="clipPath540"
       clipPathUnits="userSpaceOnUse"><path
         style="clip-rule:evenodd"
         id="path538"
         d="M 0,0 H 13333 V 10000 H 0 Z" /></clipPath><clipPath
       id="clipPath558"
       clipPathUnits="userSpaceOnUse"><path
         style="clip-rule:evenodd"
         id="path556"
         d="M 0,0 H 13333 V 10000 H 0 Z" /></clipPath><clipPath
       id="clipPath564"
       clipPathUnits="userSpaceOnUse"><path
         style="clip-rule:evenodd"
         id="path562"
         d="m 924.97688,7426.629 h 433.32252 v 483.3213 H 924.97688 Z" /></clipPath><clipPath
       id="clipPath584"
       clipPathUnits="userSpaceOnUse"><path
         style="clip-rule:evenodd"
         id="path582"
         d="M 0,0 H 13333 V 10000 H 0 Z" /></clipPath><clipPath
       id="clipPath602"
       clipPathUnits="userSpaceOnUse"><path
         style="clip-rule:evenodd"
         id="path600"
         d="M 0,0 H 13333 V 10000 H 0 Z" /></clipPath><clipPath
       id="clipPath608"
       clipPathUnits="userSpaceOnUse"><path
         style="clip-rule:evenodd"
         id="path606"
         d="m 924.97688,6578.4649 h 433.32252 v 483.3213 H 924.97688 Z" /></clipPath><clipPath
       id="clipPath628"
       clipPathUnits="userSpaceOnUse"><path
         style="clip-rule:evenodd"
         id="path626"
         d="M 0,0 H 13333 V 10000 H 0 Z" /></clipPath><clipPath
       id="clipPath646"
       clipPathUnits="userSpaceOnUse"><path
         style="clip-rule:evenodd"
         id="path644"
         d="M 0,0 H 13333 V 10000 H 0 Z" /></clipPath><clipPath
       id="clipPath652"
       clipPathUnits="userSpaceOnUse"><path
         style="clip-rule:evenodd"
         id="path650"
         d="m 924.97688,5730.3008 h 433.32252 v 483.3213 H 924.97688 Z" /></clipPath><clipPath
       id="clipPath672"
       clipPathUnits="userSpaceOnUse"><path
         style="clip-rule:evenodd"
         id="path670"
         d="M 0,0 H 13333 V 10000 H 0 Z" /></clipPath><clipPath
       id="clipPath690"
       clipPathUnits="userSpaceOnUse"><path
         style="clip-rule:evenodd"
         id="path688"
         d="M 0,0 H 13333 V 10000 H 0 Z" /></clipPath><clipPath
       id="clipPath696"
       clipPathUnits="userSpaceOnUse"><path
         style="clip-rule:evenodd"
         id="path694"
         d="M 924.97688,4882.1367 H 1358.2994 V 5365.458 H 924.97688 Z" /></clipPath><clipPath
       id="clipPath716"
       clipPathUnits="userSpaceOnUse"><path
         style="clip-rule:evenodd"
         id="path714"
         d="M 0,0 H 13333 V 10000 H 0 Z" /></clipPath><clipPath
       id="clipPath734"
       clipPathUnits="userSpaceOnUse"><path
         style="clip-rule:evenodd"
         id="path732"
         d="M 0,0 H 13333 V 10000 H 0 Z" /></clipPath><clipPath
       id="clipPath740"
       clipPathUnits="userSpaceOnUse"><path
         style="clip-rule:evenodd"
         id="path738"
         d="m 849.97875,4033.9726 h 583.31875 v 483.3213 H 849.97875 Z" /></clipPath><clipPath
       id="clipPath760"
       clipPathUnits="userSpaceOnUse"><path
         style="clip-rule:evenodd"
         id="path758"
         d="M 0,0 H 13333 V 10000 H 0 Z" /></clipPath><clipPath
       id="clipPath778"
       clipPathUnits="userSpaceOnUse"><path
         style="clip-rule:evenodd"
         id="path776"
         d="M 0,0 H 13333 V 10000 H 0 Z" /></clipPath><clipPath
       id="clipPath784"
       clipPathUnits="userSpaceOnUse"><path
         style="clip-rule:evenodd"
         id="path782"
         d="m 849.97875,3185.8085 h 583.31875 v 483.3213 H 849.97875 Z" /></clipPath><clipPath
       id="clipPath804"
       clipPathUnits="userSpaceOnUse"><path
         style="clip-rule:evenodd"
         id="path802"
         d="M 0,0 H 13333 V 10000 H 0 Z" /></clipPath><clipPath
       id="clipPath822"
       clipPathUnits="userSpaceOnUse"><path
         style="clip-rule:evenodd"
         id="path820"
         d="M 0,0 H 13333 V 10000 H 0 Z" /></clipPath><clipPath
       id="clipPath828"
       clipPathUnits="userSpaceOnUse"><path
         style="clip-rule:evenodd"
         id="path826"
         d="m 849.97875,2337.6444 h 583.31875 v 483.3213 H 849.97875 Z" /></clipPath><clipPath
       id="clipPath848"
       clipPathUnits="userSpaceOnUse"><path
         style="clip-rule:evenodd"
         id="path846"
         d="M 0,0 H 13333 V 10000 H 0 Z" /></clipPath><clipPath
       id="clipPath866"
       clipPathUnits="userSpaceOnUse"><path
         style="clip-rule:evenodd"
         id="path864"
         d="M 0,0 H 13333 V 10000 H 0 Z" /></clipPath><clipPath
       id="clipPath872"
       clipPathUnits="userSpaceOnUse"><path
         style="clip-rule:evenodd"
         id="path870"
         d="m 849.97875,1489.4803 h 583.31875 v 483.3213 H 849.97875 Z" /></clipPath><clipPath
       id="clipPath892"
       clipPathUnits="userSpaceOnUse"><path
         style="clip-rule:evenodd"
         id="path890"
         d="M 0,0 H 13333 V 10000 H 0 Z" /></clipPath><clipPath
       id="clipPath910"
       clipPathUnits="userSpaceOnUse"><path
         style="clip-rule:evenodd"
         id="path908"
         d="M 0,0 H 13333 V 10000 H 0 Z" /></clipPath><clipPath
       id="clipPath916"
       clipPathUnits="userSpaceOnUse"><path
         style="clip-rule:evenodd"
         id="path914"
         d="M 849.97875,641.31624 H 1433.2975 V 1124.6375 H 849.97875 Z" /></clipPath><clipPath
       id="clipPath936"
       clipPathUnits="userSpaceOnUse"><path
         style="clip-rule:evenodd"
         id="path934"
         d="M 0,0 H 13333 V 10000 H 0 Z" /></clipPath><clipPath
       id="clipPath956"
       clipPathUnits="userSpaceOnUse"><path
         style="clip-rule:evenodd"
         id="path954"
         d="M 0,0 H 13333 V 10000 H 0 Z" /></clipPath><clipPath
       id="clipPath962"
       clipPathUnits="userSpaceOnUse"><path
         style="clip-rule:evenodd"
         id="path960"
         d="M 1599.96,416.65625 H 12916.344 V 8516.4538 H 1599.96 Z" /></clipPath><clipPath
       id="clipPath984"
       clipPathUnits="userSpaceOnUse"><path
         style="clip-rule:evenodd"
         id="path982"
         d="M 0,0 H 13333 V 10000 H 0 Z" /></clipPath><clipPath
       id="clipPath1018"
       clipPathUnits="userSpaceOnUse"><path
         style="clip-rule:evenodd"
         id="path1016"
         d="M 0,0 H 13333 V 10000 H 0 Z" /></clipPath><clipPath
       id="clipPath1024"
       clipPathUnits="userSpaceOnUse"><path
         style="clip-rule:evenodd"
         id="path1022"
         d="m 10583.069,3966.5675 h 999.975 v 483.3212 h -999.975 z" /></clipPath><clipPath
       id="clipPath1044"
       clipPathUnits="userSpaceOnUse"><path
         style="clip-rule:evenodd"
         id="path1042"
         d="M 0,0 H 13333 V 10000 H 0 Z" /></clipPath><clipPath
       id="clipPath1066"
       clipPathUnits="userSpaceOnUse"><path
         style="clip-rule:evenodd"
         id="path1064"
         d="M 0,0 H 13333 V 10000 H 0 Z" /></clipPath><clipPath
       id="clipPath1072"
       clipPathUnits="userSpaceOnUse"><path
         style="clip-rule:evenodd"
         id="path1070"
         d="m 10599.735,4483.2213 h 983.309 v 483.3212 h -983.309 z" /></clipPath><clipPath
       id="clipPath1092"
       clipPathUnits="userSpaceOnUse"><path
         style="clip-rule:evenodd"
         id="path1090"
         d="M 0,0 H 13333 V 10000 H 0 Z" /></clipPath></defs><g
     transform="matrix(1.3333333,0,0,-1.3333333,0,800)"
     id="g10"><g
       transform="matrix(0.06,0,0,-0.06,0,600)"
       id="g12"><g
         id="g14"><g
           id="g16" /></g><g
         id="g18"><g
           id="g20" /></g><g
         id="g22"><g
           clip-path="url(#clipPath28)"
           id="g24"><g
             id="g30" /><g
             id="g32"><g
               transform="scale(16.66625)"
               id="g34"><path
                 id="path36"
                 style="fill:#ffffff;fill-opacity:1;fill-rule:nonzero;stroke:none"
                 d="M 0,0 H 800 V 600 H 0 Z" /></g></g><g
             transform="scale(16.66625)"
             id="g38" /><g
             transform="matrix(16.66625,0,0,16.66625,6799.83,9241.4356)"
             id="g40" /><g
             transform="matrix(16.66625,0,0,16.66625,6799.83,9241.4356)"
             id="g42" /></g></g><g
         id="g44"><g
           clip-path="url(#clipPath50)"
           id="g46"><g
             clip-path="url(#clipPath56)"
             id="g52"><g
               transform="matrix(16.66625,0,0,16.66625,6799.83,9241.4356)"
               id="g58"><g
                 id="g60"><text
                   id="text64"
                   style="font-variant:normal;font-weight:normal;font-size:16px;font-family:'DejaVu Sans';-inkscape-font-specification:DejaVuSans;writing-mode:lr-tb;fill:#000000;fill-opacity:1;fill-rule:nonzero;stroke:none"
                   transform="translate(4,20)"><tspan
                     id="tspan62"
                     y="0"
                     x="0">Ε</tspan></text>
</g><g
                 id="g66"><text
                   id="text70"
                   style="font-variant:normal;font-weight:normal;font-size:11px;font-family:Cantarell;-inkscape-font-specification:Cantarell-Regular;writing-mode:lr-tb;fill:#000000;fill-opacity:1;fill-rule:nonzero;stroke:none"
                   transform="translate(14,22.5)"><tspan
                     id="tspan68"
                     y="0"
                     x="0 5">xx</tspan></text>
</g><g
                 id="g72"><text
                   id="text76"
                   style="font-variant:normal;font-weight:normal;font-size:16px;font-family:Cantarell;-inkscape-font-specification:Cantarell-Regular;writing-mode:lr-tb;fill:#000000;fill-opacity:1;fill-rule:nonzero;stroke:none"
                   transform="translate(24,20)"><tspan
                     id="tspan74"
                     y="0"
                     x="0 4 10 21">	(%)</tspan></text>
</g></g></g></g></g><g
         id="g78"><g
           transform="matrix(16.66625,0,0,16.66625,6799.83,9241.4356)"
           id="g80" /></g><g
         id="g82"><g
           clip-path="url(#clipPath88)"
           id="g84"><g
             id="g90" /><g
             transform="matrix(16.66625,0,0,16.66625,6799.83,9241.4356)"
             id="g92" /><g
             transform="matrix(16.66625,0,0,16.66625,6799.83,9241.4356)"
             id="g94" /><g
             transform="matrix(0,-16.66625,16.66625,0,274.99312,5083.2062)"
             id="g96" /><g
             transform="matrix(0,-16.66625,16.66625,0,274.99312,5083.2062)"
             id="g98" /></g></g><g
         id="g100"><g
           clip-path="url(#clipPath106)"
           id="g102"><g
             clip-path="url(#clipPath112)"
             id="g108"><g
               transform="matrix(0,-16.66625,16.66625,0,274.99312,5083.2062)"
               id="g114"><g
                 id="g116"><text
                   id="text120"
                   style="font-variant:normal;font-weight:normal;font-size:16px;font-family:'DejaVu Sans';-inkscape-font-specification:DejaVuSans;writing-mode:lr-tb;fill:#000000;fill-opacity:1;fill-rule:nonzero;stroke:none"
                   transform="translate(4,20)"><tspan
                     id="tspan118"
                     y="0"
                     x="0">Σ</tspan></text>
</g><g
                 id="g122"><text
                   id="text126"
                   style="font-variant:normal;font-weight:normal;font-size:11px;font-family:Cantarell;-inkscape-font-specification:Cantarell-Regular;writing-mode:lr-tb;fill:#000000;fill-opacity:1;fill-rule:nonzero;stroke:none"
                   transform="translate(13,22.5)"><tspan
                     id="tspan124"
                     y="0"
                     x="0 5">xx</tspan></text>
</g><g
                 id="g128"><text
                   id="text132"
                   style="font-variant:normal;font-weight:normal;font-size:16px;font-family:Cantarell;-inkscape-font-specification:Cantarell-Regular;writing-mode:lr-tb;fill:#000000;fill-opacity:1;fill-rule:nonzero;stroke:none"
                   transform="translate(23,20)"><tspan
                     id="tspan130"
                     y="0"
                     x="0 4 10 24 33 41">	(MPa)</tspan></text>
</g></g></g></g></g><g
         id="g134"><g
           transform="matrix(0,-16.66625,16.66625,0,274.99312,5083.2062)"
           id="g136" /></g><g
         id="g138"><g
           clip-path="url(#clipPath144)"
           id="g140"><g
             id="g146" /><g
             transform="matrix(0,-16.66625,16.66625,0,274.99312,5083.2062)"
             id="g148" /><g
             transform="matrix(0,-16.66625,16.66625,0,274.99312,5083.2062)"
             id="g150" /><g
             transform="matrix(16.66625,0,0,16.66625,1458.2969,8674.7831)"
             id="g152" /><g
             transform="matrix(16.66625,0,0,16.66625,1458.2969,8674.7831)"
             id="g154" /></g></g><g
         id="g156"><g
           clip-path="url(#clipPath162)"
           id="g158"><g
             clip-path="url(#clipPath168)"
             id="g164"><g
               transform="matrix(16.66625,0,0,16.66625,1458.2969,8674.7831)"
               id="g170"><g
                 id="g172"><text
                   id="text176"
                   style="font-variant:normal;font-weight:normal;font-size:16px;font-family:Cantarell;-inkscape-font-specification:Cantarell-Regular;writing-mode:lr-tb;fill:#000000;fill-opacity:1;fill-rule:nonzero;stroke:none"
                   transform="translate(4,20)"><tspan
                     id="tspan174"
                     y="0"
                     x="0">0</tspan></text>
</g></g></g></g></g><g
         id="g178"><g
           transform="matrix(16.66625,0,0,16.66625,1458.2969,8674.7831)"
           id="g180" /></g><g
         id="g182"><g
           clip-path="url(#clipPath188)"
           id="g184"><g
             id="g190" /><g
             transform="matrix(16.66625,0,0,16.66625,1458.2969,8674.7831)"
             id="g192" /><g
             transform="matrix(16.66625,0,0,16.66625,1458.2969,8674.7831)"
             id="g194" /><g
             transform="matrix(16.66625,0,0,16.66625,2858.8174,8674.7831)"
             id="g196" /><g
             transform="matrix(16.66625,0,0,16.66625,2858.8174,8674.7831)"
             id="g198" /></g></g><g
         id="g200"><g
           clip-path="url(#clipPath206)"
           id="g202"><g
             clip-path="url(#clipPath212)"
             id="g208"><g
               transform="matrix(16.66625,0,0,16.66625,2858.8174,8674.7831)"
               id="g214"><g
                 id="g216"><text
                   id="text220"
                   style="font-variant:normal;font-weight:normal;font-size:16px;font-family:Cantarell;-inkscape-font-specification:Cantarell-Regular;writing-mode:lr-tb;fill:#000000;fill-opacity:1;fill-rule:nonzero;stroke:none"
                   transform="translate(4,20)"><tspan
                     id="tspan218"
                     y="0"
                     x="0 9 13">0.2</tspan></text>
</g></g></g></g></g><g
         id="g222"><g
           transform="matrix(16.66625,0,0,16.66625,2858.8174,8674.7831)"
           id="g224" /></g><g
         id="g226"><g
           clip-path="url(#clipPath232)"
           id="g228"><g
             id="g234" /><g
             transform="matrix(16.66625,0,0,16.66625,2858.8174,8674.7831)"
             id="g236" /><g
             transform="matrix(16.66625,0,0,16.66625,2858.8174,8674.7831)"
             id="g238" /><g
             transform="matrix(16.66625,0,0,16.66625,4367.6686,8674.7831)"
             id="g240" /><g
             transform="matrix(16.66625,0,0,16.66625,4367.6686,8674.7831)"
             id="g242" /></g></g><g
         id="g244"><g
           clip-path="url(#clipPath250)"
           id="g246"><g
             clip-path="url(#clipPath256)"
             id="g252"><g
               transform="matrix(16.66625,0,0,16.66625,4367.6686,8674.7831)"
               id="g258"><g
                 id="g260"><text
                   id="text264"
                   style="font-variant:normal;font-weight:normal;font-size:16px;font-family:Cantarell;-inkscape-font-specification:Cantarell-Regular;writing-mode:lr-tb;fill:#000000;fill-opacity:1;fill-rule:nonzero;stroke:none"
                   transform="translate(4,20)"><tspan
                     id="tspan262"
                     y="0"
                     x="0 9 13">0.4</tspan></text>
</g></g></g></g></g><g
         id="g266"><g
           transform="matrix(16.66625,0,0,16.66625,4367.6686,8674.7831)"
           id="g268" /></g><g
         id="g270"><g
           clip-path="url(#clipPath276)"
           id="g272"><g
             id="g278" /><g
             transform="matrix(16.66625,0,0,16.66625,4367.6686,8674.7831)"
             id="g280" /><g
             transform="matrix(16.66625,0,0,16.66625,4367.6686,8674.7831)"
             id="g282" /><g
             transform="matrix(16.66625,0,0,16.66625,5876.5197,8674.7831)"
             id="g284" /><g
             transform="matrix(16.66625,0,0,16.66625,5876.5197,8674.7831)"
             id="g286" /></g></g><g
         id="g288"><g
           clip-path="url(#clipPath294)"
           id="g290"><g
             clip-path="url(#clipPath300)"
             id="g296"><g
               transform="matrix(16.66625,0,0,16.66625,5876.5197,8674.7831)"
               id="g302"><g
                 id="g304"><text
                   id="text308"
                   style="font-variant:normal;font-weight:normal;font-size:16px;font-family:Cantarell;-inkscape-font-specification:Cantarell-Regular;writing-mode:lr-tb;fill:#000000;fill-opacity:1;fill-rule:nonzero;stroke:none"
                   transform="translate(4,20)"><tspan
                     id="tspan306"
                     y="0"
                     x="0 9 13">0.6</tspan></text>
</g></g></g></g></g><g
         id="g310"><g
           transform="matrix(16.66625,0,0,16.66625,5876.5197,8674.7831)"
           id="g312" /></g><g
         id="g314"><g
           clip-path="url(#clipPath320)"
           id="g316"><g
             id="g322" /><g
             transform="matrix(16.66625,0,0,16.66625,5876.5197,8674.7831)"
             id="g324" /><g
             transform="matrix(16.66625,0,0,16.66625,5876.5197,8674.7831)"
             id="g326" /><g
             transform="matrix(16.66625,0,0,16.66625,7385.3709,8674.7831)"
             id="g328" /><g
             transform="matrix(16.66625,0,0,16.66625,7385.3709,8674.7831)"
             id="g330" /></g></g><g
         id="g332"><g
           clip-path="url(#clipPath338)"
           id="g334"><g
             clip-path="url(#clipPath344)"
             id="g340"><g
               transform="matrix(16.66625,0,0,16.66625,7385.3709,8674.7831)"
               id="g346"><g
                 id="g348"><text
                   id="text352"
                   style="font-variant:normal;font-weight:normal;font-size:16px;font-family:Cantarell;-inkscape-font-specification:Cantarell-Regular;writing-mode:lr-tb;fill:#000000;fill-opacity:1;fill-rule:nonzero;stroke:none"
                   transform="translate(4,20)"><tspan
                     id="tspan350"
                     y="0"
                     x="0 9 13">0.8</tspan></text>
</g></g></g></g></g><g
         id="g354"><g
           transform="matrix(16.66625,0,0,16.66625,7385.3709,8674.7831)"
           id="g356" /></g><g
         id="g358"><g
           clip-path="url(#clipPath364)"
           id="g360"><g
             id="g366" /><g
             transform="matrix(16.66625,0,0,16.66625,7385.3709,8674.7831)"
             id="g368" /><g
             transform="matrix(16.66625,0,0,16.66625,7385.3709,8674.7831)"
             id="g370" /><g
             transform="matrix(16.66625,0,0,16.66625,9002.5527,8674.7831)"
             id="g372" /><g
             transform="matrix(16.66625,0,0,16.66625,9002.5527,8674.7831)"
             id="g374" /></g></g><g
         id="g376"><g
           clip-path="url(#clipPath382)"
           id="g378"><g
             clip-path="url(#clipPath388)"
             id="g384"><g
               transform="matrix(16.66625,0,0,16.66625,9002.5527,8674.7831)"
               id="g390"><g
                 id="g392"><text
                   id="text396"
                   style="font-variant:normal;font-weight:normal;font-size:16px;font-family:Cantarell;-inkscape-font-specification:Cantarell-Regular;writing-mode:lr-tb;fill:#000000;fill-opacity:1;fill-rule:nonzero;stroke:none"
                   transform="translate(4,20)"><tspan
                     id="tspan394"
                     y="0"
                     x="0">1</tspan></text>
</g></g></g></g></g><g
         id="g398"><g
           transform="matrix(16.66625,0,0,16.66625,9002.5527,8674.7831)"
           id="g400" /></g><g
         id="g402"><g
           clip-path="url(#clipPath408)"
           id="g404"><g
             id="g410" /><g
             transform="matrix(16.66625,0,0,16.66625,9002.5527,8674.7831)"
             id="g412" /><g
             transform="matrix(16.66625,0,0,16.66625,9002.5527,8674.7831)"
             id="g414" /><g
             transform="matrix(16.66625,0,0,16.66625,10403.073,8674.7831)"
             id="g416" /><g
             transform="matrix(16.66625,0,0,16.66625,10403.073,8674.7831)"
             id="g418" /></g></g><g
         id="g420"><g
           clip-path="url(#clipPath426)"
           id="g422"><g
             clip-path="url(#clipPath432)"
             id="g428"><g
               transform="matrix(16.66625,0,0,16.66625,10403.073,8674.7831)"
               id="g434"><g
                 id="g436"><text
                   id="text440"
                   style="font-variant:normal;font-weight:normal;font-size:16px;font-family:Cantarell;-inkscape-font-specification:Cantarell-Regular;writing-mode:lr-tb;fill:#000000;fill-opacity:1;fill-rule:nonzero;stroke:none"
                   transform="translate(4,20)"><tspan
                     id="tspan438"
                     y="0"
                     x="0 9 13">1.2</tspan></text>
</g></g></g></g></g><g
         id="g442"><g
           transform="matrix(16.66625,0,0,16.66625,10403.073,8674.7831)"
           id="g444" /></g><g
         id="g446"><g
           clip-path="url(#clipPath452)"
           id="g448"><g
             id="g454" /><g
             transform="matrix(16.66625,0,0,16.66625,10403.073,8674.7831)"
             id="g456" /><g
             transform="matrix(16.66625,0,0,16.66625,10403.073,8674.7831)"
             id="g458" /><g
             transform="matrix(16.66625,0,0,16.66625,11911.924,8674.7831)"
             id="g460" /><g
             transform="matrix(16.66625,0,0,16.66625,11911.924,8674.7831)"
             id="g462" /></g></g><g
         id="g464"><g
           clip-path="url(#clipPath470)"
           id="g466"><g
             clip-path="url(#clipPath476)"
             id="g472"><g
               transform="matrix(16.66625,0,0,16.66625,11911.924,8674.7831)"
               id="g478"><g
                 id="g480"><text
                   id="text484"
                   style="font-variant:normal;font-weight:normal;font-size:16px;font-family:Cantarell;-inkscape-font-specification:Cantarell-Regular;writing-mode:lr-tb;fill:#000000;fill-opacity:1;fill-rule:nonzero;stroke:none"
                   transform="translate(4,20)"><tspan
                     id="tspan482"
                     y="0"
                     x="0 9 13">1.4</tspan></text>
</g></g></g></g></g><g
         id="g486"><g
           transform="matrix(16.66625,0,0,16.66625,11911.924,8674.7831)"
           id="g488" /></g><g
         id="g490"><g
           clip-path="url(#clipPath496)"
           id="g492"><g
             id="g498" /><g
             transform="matrix(16.66625,0,0,16.66625,11911.924,8674.7831)"
             id="g500" /><g
             transform="matrix(16.66625,0,0,16.66625,11911.924,8674.7831)"
             id="g502" /><g
             transform="matrix(16.66625,0,0,16.66625,999.975,8274.7931)"
             id="g504" /><g
             transform="matrix(16.66625,0,0,16.66625,999.975,8274.7931)"
             id="g506" /></g></g><g
         id="g508"><g
           clip-path="url(#clipPath514)"
           id="g510"><g
             clip-path="url(#clipPath520)"
             id="g516"><g
               transform="matrix(16.66625,0,0,16.66625,999.975,8274.7931)"
               id="g522"><g
                 id="g524"><text
                   id="text528"
                   style="font-variant:normal;font-weight:normal;font-size:16px;font-family:Cantarell;-inkscape-font-specification:Cantarell-Regular;writing-mode:lr-tb;fill:#000000;fill-opacity:1;fill-rule:nonzero;stroke:none"
                   transform="translate(4,20)"><tspan
                     id="tspan526"
                     y="0"
                     x="0">0</tspan></text>
</g></g></g></g></g><g
         id="g530"><g
           transform="matrix(16.66625,0,0,16.66625,999.975,8274.7931)"
           id="g532" /></g><g
         id="g534"><g
           clip-path="url(#clipPath540)"
           id="g536"><g
             id="g542" /><g
             transform="matrix(16.66625,0,0,16.66625,999.975,8274.7931)"
             id="g544" /><g
             transform="matrix(16.66625,0,0,16.66625,999.975,8274.7931)"
             id="g546" /><g
             transform="matrix(16.66625,0,0,16.66625,924.97688,7426.629)"
             id="g548" /><g
             transform="matrix(16.66625,0,0,16.66625,924.97688,7426.629)"
             id="g550" /></g></g><g
         id="g552"><g
           clip-path="url(#clipPath558)"
           id="g554"><g
             clip-path="url(#clipPath564)"
             id="g560"><g
               transform="matrix(16.66625,0,0,16.66625,924.97688,7426.629)"
               id="g566"><g
                 id="g568"><text
                   id="text572"
                   style="font-variant:normal;font-weight:normal;font-size:16px;font-family:Cantarell;-inkscape-font-specification:Cantarell-Regular;writing-mode:lr-tb;fill:#000000;fill-opacity:1;fill-rule:nonzero;stroke:none"
                   transform="translate(4,20)"><tspan
                     id="tspan570"
                     y="0"
                     x="0 9">20</tspan></text>
</g></g></g></g></g><g
         id="g574"><g
           transform="matrix(16.66625,0,0,16.66625,924.97688,7426.629)"
           id="g576" /></g><g
         id="g578"><g
           clip-path="url(#clipPath584)"
           id="g580"><g
             id="g586" /><g
             transform="matrix(16.66625,0,0,16.66625,924.97688,7426.629)"
             id="g588" /><g
             transform="matrix(16.66625,0,0,16.66625,924.97688,7426.629)"
             id="g590" /><g
             transform="matrix(16.66625,0,0,16.66625,924.97688,6578.4649)"
             id="g592" /><g
             transform="matrix(16.66625,0,0,16.66625,924.97688,6578.4649)"
             id="g594" /></g></g><g
         id="g596"><g
           clip-path="url(#clipPath602)"
           id="g598"><g
             clip-path="url(#clipPath608)"
             id="g604"><g
               transform="matrix(16.66625,0,0,16.66625,924.97688,6578.4649)"
               id="g610"><g
                 id="g612"><text
                   id="text616"
                   style="font-variant:normal;font-weight:normal;font-size:16px;font-family:Cantarell;-inkscape-font-specification:Cantarell-Regular;writing-mode:lr-tb;fill:#000000;fill-opacity:1;fill-rule:nonzero;stroke:none"
                   transform="translate(4,20)"><tspan
                     id="tspan614"
                     y="0"
                     x="0 9">40</tspan></text>
</g></g></g></g></g><g
         id="g618"><g
           transform="matrix(16.66625,0,0,16.66625,924.97688,6578.4649)"
           id="g620" /></g><g
         id="g622"><g
           clip-path="url(#clipPath628)"
           id="g624"><g
             id="g630" /><g
             transform="matrix(16.66625,0,0,16.66625,924.97688,6578.4649)"
             id="g632" /><g
             transform="matrix(16.66625,0,0,16.66625,924.97688,6578.4649)"
             id="g634" /><g
             transform="matrix(16.66625,0,0,16.66625,924.97688,5730.3008)"
             id="g636" /><g
             transform="matrix(16.66625,0,0,16.66625,924.97688,5730.3008)"
             id="g638" /></g></g><g
         id="g640"><g
           clip-path="url(#clipPath646)"
           id="g642"><g
             clip-path="url(#clipPath652)"
             id="g648"><g
               transform="matrix(16.66625,0,0,16.66625,924.97688,5730.3008)"
               id="g654"><g
                 id="g656"><text
                   id="text660"
                   style="font-variant:normal;font-weight:normal;font-size:16px;font-family:Cantarell;-inkscape-font-specification:Cantarell-Regular;writing-mode:lr-tb;fill:#000000;fill-opacity:1;fill-rule:nonzero;stroke:none"
                   transform="translate(4,20)"><tspan
                     id="tspan658"
                     y="0"
                     x="0 9">60</tspan></text>
</g></g></g></g></g><g
         id="g662"><g
           transform="matrix(16.66625,0,0,16.66625,924.97688,5730.3008)"
           id="g664" /></g><g
         id="g666"><g
           clip-path="url(#clipPath672)"
           id="g668"><g
             id="g674" /><g
             transform="matrix(16.66625,0,0,16.66625,924.97688,5730.3008)"
             id="g676" /><g
             transform="matrix(16.66625,0,0,16.66625,924.97688,5730.3008)"
             id="g678" /><g
             transform="matrix(16.66625,0,0,16.66625,924.97688,4882.1367)"
             id="g680" /><g
             transform="matrix(16.66625,0,0,16.66625,924.97688,4882.1367)"
             id="g682" /></g></g><g
         id="g684"><g
           clip-path="url(#clipPath690)"
           id="g686"><g
             clip-path="url(#clipPath696)"
             id="g692"><g
               transform="matrix(16.66625,0,0,16.66625,924.97688,4882.1367)"
               id="g698"><g
                 id="g700"><text
                   id="text704"
                   style="font-variant:normal;font-weight:normal;font-size:16px;font-family:Cantarell;-inkscape-font-specification:Cantarell-Regular;writing-mode:lr-tb;fill:#000000;fill-opacity:1;fill-rule:nonzero;stroke:none"
                   transform="translate(4,20)"><tspan
                     id="tspan702"
                     y="0"
                     x="0 9">80</tspan></text>
</g></g></g></g></g><g
         id="g706"><g
           transform="matrix(16.66625,0,0,16.66625,924.97688,4882.1367)"
           id="g708" /></g><g
         id="g710"><g
           clip-path="url(#clipPath716)"
           id="g712"><g
             id="g718" /><g
             transform="matrix(16.66625,0,0,16.66625,924.97688,4882.1367)"
             id="g720" /><g
             transform="matrix(16.66625,0,0,16.66625,924.97688,4882.1367)"
             id="g722" /><g
             transform="matrix(16.66625,0,0,16.66625,849.97875,4033.9726)"
             id="g724" /><g
             transform="matrix(16.66625,0,0,16.66625,849.97875,4033.9726)"
             id="g726" /></g></g><g
         id="g728"><g
           clip-path="url(#clipPath734)"
           id="g730"><g
             clip-path="url(#clipPath740)"
             id="g736"><g
               transform="matrix(16.66625,0,0,16.66625,849.97875,4033.9726)"
               id="g742"><g
                 id="g744"><text
                   id="text748"
                   style="font-variant:normal;font-weight:normal;font-size:16px;font-family:Cantarell;-inkscape-font-specification:Cantarell-Regular;writing-mode:lr-tb;fill:#000000;fill-opacity:1;fill-rule:nonzero;stroke:none"
                   transform="translate(4,20)"><tspan
                     id="tspan746"
                     y="0"
                     x="0 9 18">100</tspan></text>
</g></g></g></g></g><g
         id="g750"><g
           transform="matrix(16.66625,0,0,16.66625,849.97875,4033.9726)"
           id="g752" /></g><g
         id="g754"><g
           clip-path="url(#clipPath760)"
           id="g756"><g
             id="g762" /><g
             transform="matrix(16.66625,0,0,16.66625,849.97875,4033.9726)"
             id="g764" /><g
             transform="matrix(16.66625,0,0,16.66625,849.97875,4033.9726)"
             id="g766" /><g
             transform="matrix(16.66625,0,0,16.66625,849.97875,3185.8085)"
             id="g768" /><g
             transform="matrix(16.66625,0,0,16.66625,849.97875,3185.8085)"
             id="g770" /></g></g><g
         id="g772"><g
           clip-path="url(#clipPath778)"
           id="g774"><g
             clip-path="url(#clipPath784)"
             id="g780"><g
               transform="matrix(16.66625,0,0,16.66625,849.97875,3185.8085)"
               id="g786"><g
                 id="g788"><text
                   id="text792"
                   style="font-variant:normal;font-weight:normal;font-size:16px;font-family:Cantarell;-inkscape-font-specification:Cantarell-Regular;writing-mode:lr-tb;fill:#000000;fill-opacity:1;fill-rule:nonzero;stroke:none"
                   transform="translate(4,20)"><tspan
                     id="tspan790"
                     y="0"
                     x="0 9 18">120</tspan></text>
</g></g></g></g></g><g
         id="g794"><g
           transform="matrix(16.66625,0,0,16.66625,849.97875,3185.8085)"
           id="g796" /></g><g
         id="g798"><g
           clip-path="url(#clipPath804)"
           id="g800"><g
             id="g806" /><g
             transform="matrix(16.66625,0,0,16.66625,849.97875,3185.8085)"
             id="g808" /><g
             transform="matrix(16.66625,0,0,16.66625,849.97875,3185.8085)"
             id="g810" /><g
             transform="matrix(16.66625,0,0,16.66625,849.97875,2337.6444)"
             id="g812" /><g
             transform="matrix(16.66625,0,0,16.66625,849.97875,2337.6444)"
             id="g814" /></g></g><g
         id="g816"><g
           clip-path="url(#clipPath822)"
           id="g818"><g
             clip-path="url(#clipPath828)"
             id="g824"><g
               transform="matrix(16.66625,0,0,16.66625,849.97875,2337.6444)"
               id="g830"><g
                 id="g832"><text
                   id="text836"
                   style="font-variant:normal;font-weight:normal;font-size:16px;font-family:Cantarell;-inkscape-font-specification:Cantarell-Regular;writing-mode:lr-tb;fill:#000000;fill-opacity:1;fill-rule:nonzero;stroke:none"
                   transform="translate(4,20)"><tspan
                     id="tspan834"
                     y="0"
                     x="0 9 18">140</tspan></text>
</g></g></g></g></g><g
         id="g838"><g
           transform="matrix(16.66625,0,0,16.66625,849.97875,2337.6444)"
           id="g840" /></g><g
         id="g842"><g
           clip-path="url(#clipPath848)"
           id="g844"><g
             id="g850" /><g
             transform="matrix(16.66625,0,0,16.66625,849.97875,2337.6444)"
             id="g852" /><g
             transform="matrix(16.66625,0,0,16.66625,849.97875,2337.6444)"
             id="g854" /><g
             transform="matrix(16.66625,0,0,16.66625,849.97875,1489.4803)"
             id="g856" /><g
             transform="matrix(16.66625,0,0,16.66625,849.97875,1489.4803)"
             id="g858" /></g></g><g
         id="g860"><g
           clip-path="url(#clipPath866)"
           id="g862"><g
             clip-path="url(#clipPath872)"
             id="g868"><g
               transform="matrix(16.66625,0,0,16.66625,849.97875,1489.4803)"
               id="g874"><g
                 id="g876"><text
                   id="text880"
                   style="font-variant:normal;font-weight:normal;font-size:16px;font-family:Cantarell;-inkscape-font-specification:Cantarell-Regular;writing-mode:lr-tb;fill:#000000;fill-opacity:1;fill-rule:nonzero;stroke:none"
                   transform="translate(4,20)"><tspan
                     id="tspan878"
                     y="0"
                     x="0 9 18">160</tspan></text>
</g></g></g></g></g><g
         id="g882"><g
           transform="matrix(16.66625,0,0,16.66625,849.97875,1489.4803)"
           id="g884" /></g><g
         id="g886"><g
           clip-path="url(#clipPath892)"
           id="g888"><g
             id="g894" /><g
             transform="matrix(16.66625,0,0,16.66625,849.97875,1489.4803)"
             id="g896" /><g
             transform="matrix(16.66625,0,0,16.66625,849.97875,1489.4803)"
             id="g898" /><g
             transform="matrix(16.66625,0,0,16.66625,849.97875,641.31624)"
             id="g900" /><g
             transform="matrix(16.66625,0,0,16.66625,849.97875,641.31624)"
             id="g902" /></g></g><g
         id="g904"><g
           clip-path="url(#clipPath910)"
           id="g906"><g
             clip-path="url(#clipPath916)"
             id="g912"><g
               transform="matrix(16.66625,0,0,16.66625,849.97875,641.31624)"
               id="g918"><g
                 id="g920"><text
                   id="text924"
                   style="font-variant:normal;font-weight:normal;font-size:16px;font-family:Cantarell;-inkscape-font-specification:Cantarell-Regular;writing-mode:lr-tb;fill:#000000;fill-opacity:1;fill-rule:nonzero;stroke:none"
                   transform="translate(4,20)"><tspan
                     id="tspan922"
                     y="0"
                     x="0 9 18">180</tspan></text>
</g></g></g></g></g><g
         id="g926"><g
           transform="matrix(16.66625,0,0,16.66625,849.97875,641.31624)"
           id="g928" /></g><g
         id="g930"><g
           clip-path="url(#clipPath936)"
           id="g932"><g
             id="g938" /><g
             transform="matrix(16.66625,0,0,16.66625,849.97875,641.31624)"
             id="g940" /><g
             transform="matrix(16.66625,0,0,16.66625,849.97875,641.31624)"
             id="g942" /><g
             transform="scale(16.66625)"
             id="g944" /><g
             id="g946" /><g
             transform="scale(16.66625)"
             id="g948" /></g></g><g
         id="g950"><g
           clip-path="url(#clipPath956)"
           id="g952"><g
             clip-path="url(#clipPath962)"
             id="g958"><g
               transform="scale(16.66625)"
               id="g964" /><g
               transform="scale(16.66625)"
               id="g966"><path
                 id="path968"
                 style="fill:#ffb310;fill-opacity:1;fill-rule:evenodd;stroke:#ffb310;stroke-width:1;stroke-linecap:square;stroke-linejoin:bevel;stroke-miterlimit:10;stroke-dasharray:none;stroke-opacity:1"
                 d="m 98.5,511 c 0,1.38071 -1.119288,2.5 -2.5,2.5 -1.380712,0 -2.5,-1.11929 -2.5,-2.5 0,-1.38071 1.119288,-2.5 2.5,-2.5 1.380712,0 2.5,1.11929 2.5,2.5 z m 6.79,-30.53467 c 0,1.38071 -1.11929,2.5 -2.5,2.5 -1.38071,0 -2.5,-1.11929 -2.5,-2.5 0,-1.38071 1.11929,-2.5 2.5,-2.5 1.38071,0 2.5,1.11929 2.5,2.5 z m 6.79,-30.53467 c 0,1.38071 -1.11929,2.5 -2.5,2.5 -1.38071,0 -2.5,-1.11929 -2.5,-2.5 0,-1.38071 1.11929,-2.5 2.5,-2.5 1.38071,0 2.5,1.11929 2.5,2.5 z m 6.79,-30.53467 c 0,1.38071 -1.11929,2.5 -2.5,2.5 -1.38071,0 -2.5,-1.11929 -2.5,-2.5 0,-1.38072 1.11929,-2.5 2.5,-2.5 1.38071,0 2.5,1.11928 2.5,2.5 z m 6.79,-30.53467 c 0,1.38071 -1.11929,2.5 -2.5,2.5 -1.38071,0 -2.5,-1.11929 -2.5,-2.5 0,-1.38072 1.11929,-2.5 2.5,-2.5 1.38071,0 2.5,1.11928 2.5,2.5 z m 6.79,-30.53468 c 0,1.38072 -1.11929,2.5 -2.5,2.5 -1.38071,0 -2.5,-1.11928 -2.5,-2.5 0,-1.38071 1.11929,-2.5 2.5,-2.5 1.38071,0 2.5,1.11929 2.5,2.5 z m 6.79,-30.53467 c 0,1.38072 -1.11929,2.5 -2.5,2.5 -1.38071,0 -2.5,-1.11928 -2.5,-2.5 0,-1.38071 1.11929,-2.5 2.5,-2.5 1.38071,0 2.5,1.11929 2.5,2.5 z m 6.79,-30.53467 c 0,1.38071 -1.11929,2.5 -2.5,2.5 -1.38071,0 -2.5,-1.11929 -2.5,-2.5 0,-1.38071 1.11929,-2.5 2.5,-2.5 1.38071,0 2.5,1.11929 2.5,2.5 z m 6.79,-28.35042 c 0,1.38071 -1.11929,2.5 -2.5,2.5 -1.38071,0 -2.5,-1.11929 -2.5,-2.5 0,-1.38071 1.11929,-2.5 2.5,-2.5 1.38071,0 2.5,1.11929 2.5,2.5 z m 6.79,-22.05468 c 0,1.38071 -1.11929,2.5 -2.5,2.5 -1.38071,0 -2.5,-1.11929 -2.5,-2.5 0,-1.38072 1.11929,-2.5 2.5,-2.5 1.38071,0 2.5,1.11928 2.5,2.5 z m 6.79,-19.82718 c 0,1.38071 -1.11929,2.5 -2.5,2.5 -1.38071,0 -2.5,-1.11929 -2.5,-2.5 0,-1.38072 1.11929,-2.5 2.5,-2.5 1.38071,0 2.5,1.11928 2.5,2.5 z m 6.79,-17.71011 c 0,1.38071 -1.11929,2.5 -2.5,2.5 -1.38071,0 -2.5,-1.11929 -2.5,-2.5 0,-1.38072 1.11929,-2.5 2.5,-2.5 1.38071,0 2.5,1.11928 2.5,2.5 z m 6.79,-16.48618 c 0,1.38071 -1.11929,2.5 -2.5,2.5 -1.38071,0 -2.5,-1.11929 -2.5,-2.5 0,-1.38071 1.11929,-2.5 2.5,-2.5 1.38071,0 2.5,1.11929 2.5,2.5 z m 6.79,-15.60831 c 0,1.38071 -1.11929,2.5 -2.5,2.5 -1.38071,0 -2.5,-1.11929 -2.5,-2.5 0,-1.38071 1.11929,-2.5 2.5,-2.5 1.38071,0 2.5,1.11929 2.5,2.5 z m 6.79,-14.76097 c 0,1.38072 -1.11929,2.5 -2.5,2.5 -1.38071,0 -2.5,-1.11928 -2.5,-2.5 0,-1.38071 1.11929,-2.5 2.5,-2.5 1.38071,0 2.5,1.11929 2.5,2.5 z m 6.79,-12.62863 c 0,1.38071 -1.11929,2.5 -2.5,2.5 -1.38071,0 -2.5,-1.11929 -2.5,-2.5 0,-1.38071 1.11929,-2.5 2.5,-2.5 1.38071,0 2.5,1.11929 2.5,2.5 z m 6.79,-10.19094 c 0,1.38071 -1.11929,2.5 -2.5,2.5 -1.38071,0 -2.5,-1.11929 -2.5,-2.5 0,-1.38072 1.11929,-2.5 2.5,-2.5 1.38071,0 2.5,1.11928 2.5,2.5 z m 6.79,-8.17821 c 0,1.38072 -1.11929,2.5 -2.5,2.5 -1.38071,0 -2.5,-1.11928 -2.5,-2.5 0,-1.38071 1.11929,-2.5 2.5,-2.5 1.38071,0 2.5,1.11929 2.5,2.5 z m 6.79,-6.81177 c 0,1.38071 -1.11929,2.5 -2.5,2.5 -1.38071,0 -2.5,-1.11929 -2.5,-2.5 0,-1.38071 1.11929,-2.5 2.5,-2.5 1.38071,0 2.5,1.11929 2.5,2.5 z m 6.79,-5.52932 c 0,1.38071 -1.11929,2.5 -2.5,2.5 -1.38071,0 -2.5,-1.11929 -2.5,-2.5 0,-1.38071 1.11929,-2.5 2.5,-2.5 1.38071,0 2.5,1.11929 2.5,2.5 z m 6.79,-5.08402 c 0,1.38071 -1.11929,2.5 -2.5,2.5 -1.38071,0 -2.5,-1.11929 -2.5,-2.5 0,-1.38072 1.11929,-2.5 2.5,-2.5 1.38071,0 2.5,1.11928 2.5,2.5 z m 6.79,-4.78377 c 0,1.38071 -1.11929,2.5 -2.5,2.5 -1.38071,0 -2.5,-1.11929 -2.5,-2.5 0,-1.38071 1.11929,-2.5 2.5,-2.5 1.38071,0 2.5,1.11929 2.5,2.5 z m 6.79,-4.36391 c 0,1.38071 -1.11929,2.5 -2.5,2.5 -1.38071,0 -2.5,-1.11929 -2.5,-2.5 0,-1.38071 1.11929,-2.5 2.5,-2.5 1.38071,0 2.5,1.11929 2.5,2.5 z m 6.79,-4.01786 c 0,1.38071 -1.11929,2.5 -2.5,2.5 -1.38071,0 -2.5,-1.11929 -2.5,-2.5 0,-1.380708 1.11929,-2.499997 2.5,-2.499997 1.38071,0 2.5,1.119289 2.5,2.499997 z m 6.79,-3.801563 c 0,1.380712 -1.11929,2.5 -2.5,2.5 -1.38071,0 -2.5,-1.119288 -2.5,-2.5 0,-1.380712 1.11929,-2.5 2.5,-2.5 1.38071,0 2.5,1.119288 2.5,2.5 z m 6.79,-3.610725 c 0,1.380712 -1.11929,2.5 -2.5,2.5 -1.38071,0 -2.5,-1.119288 -2.5,-2.5 0,-1.380712 1.11929,-2.5 2.5,-2.5 1.38071,0 2.5,1.119288 2.5,2.5 z m 6.79,-3.353725 c 0,1.380712 -1.11929,2.5 -2.5,2.5 -1.38071,0 -2.5,-1.119288 -2.5,-2.5 0,-1.380711 1.11929,-2.5 2.5,-2.5 1.38071,0 2.5,1.119289 2.5,2.5 z m 6.79,-3.063645 c 0,1.380712 -1.11929,2.5 -2.5,2.5 -1.38071,0 -2.5,-1.119288 -2.5,-2.5 0,-1.380712 1.11929,-2.5 2.5,-2.5 1.38071,0 2.5,1.119288 2.5,2.5 z m 6.79,-2.905883 c 0,1.380712 -1.11929,2.5 -2.5,2.5 -1.38071,0 -2.5,-1.119288 -2.5,-2.5 0,-1.380712 1.11929,-2.5 2.5,-2.5 1.38071,0 2.5,1.119288 2.5,2.5 z m 6.79,-2.788833 c 0,1.380712 -1.11929,2.5 -2.5,2.5 -1.38071,0 -2.5,-1.119288 -2.5,-2.5 0,-1.380712 1.11929,-2.5 2.5,-2.5 1.38071,0 2.5,1.119288 2.5,2.5 z m 6.79,-2.674328 c 0,1.380712 -1.11929,2.5 -2.5,2.5 -1.38071,0 -2.5,-1.119288 -2.5,-2.5 0,-1.380712 1.11929,-2.5 2.5,-2.5 1.38071,0 2.5,1.119288 2.5,2.5 z m 6.79,-2.536923 c 0,1.380712 -1.11929,2.5 -2.5,2.5 -1.38071,0 -2.5,-1.119288 -2.5,-2.5 0,-1.380711 1.11929,-2.5 2.5,-2.5 1.38071,0 2.5,1.119289 2.5,2.5 z m 6.79,-2.409694 c 0,1.380712 -1.11929,2.5 -2.5,2.5 -1.38071,0 -2.5,-1.119288 -2.5,-2.5 0,-1.380712 1.11929,-2.5 2.5,-2.5 1.38071,0 2.5,1.119288 2.5,2.5 z m 6.79,-2.323179 c 0,1.380711 -1.11929,2.5 -2.5,2.5 -1.38071,0 -2.5,-1.119289 -2.5,-2.5 0,-1.380712 1.11929,-2.5 2.5,-2.5 1.38071,0 2.5,1.119288 2.5,2.5 z m 6.79,-2.244299 c 0,1.380712 -1.11929,2.5 -2.5,2.5 -1.38071,0 -2.5,-1.119288 -2.5,-2.5 0,-1.380712 1.11929,-2.5 2.5,-2.5 1.38071,0 2.5,1.119288 2.5,2.5 z m 6.79,-2.160328 c 0,1.380712 -1.11929,2.5 -2.5,2.5 -1.38071,0 -2.5,-1.119288 -2.5,-2.5 0,-1.380712 1.11929,-2.5 2.5,-2.5 1.38071,0 2.5,1.119288 2.5,2.5 z m 6.79,-2.063635 c 0,1.380712 -1.11929,2.5 -2.5,2.5 -1.38071,0 -2.5,-1.119288 -2.5,-2.5 0,-1.380712 1.11929,-2.5 2.5,-2.5 1.38071,0 2.5,1.119288 2.5,2.5 z m 6.79,-1.969486 c 0,1.380712 -1.11929,2.5 -2.5,2.5 -1.38071,0 -2.5,-1.119288 -2.5,-2.5 0,-1.380712 1.11929,-2.5 2.5,-2.5 1.38071,0 2.5,1.119288 2.5,2.5 z m 6.79,-1.895694 c 0,1.380712 -1.11929,2.5 -2.5,2.5 -1.38071,0 -2.5,-1.119288 -2.5,-2.5 0,-1.380712 1.11929,-2.5 2.5,-2.5 1.38071,0 2.5,1.119288 2.5,2.5 z m 6.79,-1.821902 c 0,1.380712 -1.11929,2.5 -2.5,2.5 -1.38071,0 -2.5,-1.119288 -2.5,-2.5 0,-1.380712 1.11929,-2.5 2.5,-2.5 1.38071,0 2.5,1.119288 2.5,2.5 z m 6.79,-1.745566 c 0,1.380712 -1.11929,2.5 -2.5,2.5 -1.38071,0 -2.5,-1.119288 -2.5,-2.5 0,-1.380711 1.11929,-2.5 2.5,-2.5 1.38071,0 2.5,1.119289 2.5,2.5 z m 6.79,-1.679406 c 0,1.380712 -1.11929,2.5 -2.5,2.5 -1.38071,0 -2.5,-1.119288 -2.5,-2.5 0,-1.380712 1.11929,-2.5 2.5,-2.5 1.38071,0 2.5,1.119288 2.5,2.5 z m 6.79,-1.60816 c 0,1.380712 -1.11929,2.5 -2.5,2.5 -1.38071,0 -2.5,-1.119288 -2.5,-2.5 0,-1.380712 1.11929,-2.5 2.5,-2.5 1.38071,0 2.5,1.119288 2.5,2.5 z m 6.79,-1.419862 c 0,1.380712 -1.11929,2.5 -2.5,2.5 -1.38071,0 -2.5,-1.119288 -2.5,-2.5 0,-1.380712 1.11929,-2.5 2.5,-2.5 1.38071,0 2.5,1.119288 2.5,2.5 z m 6.79,-1.297723 c 0,1.380711 -1.11929,2.5 -2.5,2.5 -1.38071,0 -2.5,-1.119289 -2.5,-2.5 0,-1.380712 1.11929,-2.5 2.5,-2.5 1.38071,0 2.5,1.119288 2.5,2.5 z m 6.79,-1.183219 c 0,1.380712 -1.11929,2.5 -2.5,2.5 -1.38071,0 -2.5,-1.119288 -2.5,-2.5 0,-1.380712 1.11929,-2.5 2.5,-2.5 1.38071,0 2.5,1.119288 2.5,2.5 z m 6.79,-1.101793 c 0,1.380712 -1.11929,2.5 -2.5,2.5 -1.38071,0 -2.5,-1.119288 -2.5,-2.5 0,-1.380712 1.11929,-2.5 2.5,-2.5 1.38071,0 2.5,1.119288 2.5,2.5 z m 6.79,-1.015277 c 0,1.380711 -1.11929,2.5 -2.5,2.5 -1.38071,0 -2.5,-1.119289 -2.5,-2.5 0,-1.380712 1.11929,-2.5 2.5,-2.5 1.38071,0 2.5,1.119288 2.5,2.5 z m 6.79,-0.941486 c 0,1.380712 -1.11929,2.5 -2.5,2.5 -1.38071,0 -2.5,-1.119288 -2.5,-2.5 0,-1.380712 1.11929,-2.5 2.5,-2.5 1.38071,0 2.5,1.119288 2.5,2.5 z m 6.79,-0.903317 c 0,1.380711 -1.11929,2.5 -2.5,2.5 -1.38071,0 -2.5,-1.119289 -2.5,-2.5 0,-1.380712 1.11929,-2.5 2.5,-2.5 1.38071,0 2.5,1.119288 2.5,2.5 z M 438,45.476041 c 0,1.380712 -1.11929,2.5 -2.5,2.5 -1.38071,0 -2.5,-1.119288 -2.5,-2.5 0,-1.380711 1.11929,-2.5 2.5,-2.5 1.38071,0 2.5,1.119289 2.5,2.5 z m 6.79,-0.852426 c 0,1.380712 -1.11929,2.5 -2.5,2.5 -1.38071,0 -2.5,-1.119288 -2.5,-2.5 0,-1.380712 1.11929,-2.5 2.5,-2.5 1.38071,0 2.5,1.119288 2.5,2.5 z m 6.79,-0.829525 c 0,1.380712 -1.11929,2.5 -2.5,2.5 -1.38071,0 -2.5,-1.119288 -2.5,-2.5 0,-1.380712 1.11929,-2.5 2.5,-2.5 1.38071,0 2.5,1.119288 2.5,2.5 z m 6.79,-0.793902 c 0,1.380712 -1.11929,2.5 -2.5,2.5 -1.38071,0 -2.5,-1.119288 -2.5,-2.5 0,-1.380711 1.11929,-2.5 2.5,-2.5 1.38071,0 2.5,1.119289 2.5,2.5 z m 6.79,-0.730287 c 0,1.380712 -1.11929,2.5 -2.5,2.5 -1.38071,0 -2.5,-1.119288 -2.5,-2.5 0,-1.380712 1.11929,-2.5 2.5,-2.5 1.38071,0 2.5,1.119288 2.5,2.5 z m 6.79,-0.684486 c 0,1.380712 -1.11929,2.5 -2.5,2.5 -1.38071,0 -2.5,-1.119288 -2.5,-2.5 0,-1.380712 1.11929,-2.5 2.5,-2.5 1.38071,0 2.5,1.119288 2.5,2.5 z m 6.79,-0.65904 c 0,1.380712 -1.11929,2.5 -2.5,2.5 -1.38071,0 -2.5,-1.119288 -2.5,-2.5 0,-1.380712 1.11929,-2.5 2.5,-2.5 1.38071,0 2.5,1.119288 2.5,2.5 z m 6.79,-0.628505 c 0,1.380712 -1.11929,2.5 -2.5,2.5 -1.38071,0 -2.5,-1.119288 -2.5,-2.5 0,-1.380712 1.11929,-2.5 2.5,-2.5 1.38071,0 2.5,1.119288 2.5,2.5 z m 6.79,-0.597971 c 0,1.380712 -1.11929,2.5 -2.5,2.5 -1.38071,0 -2.5,-1.119288 -2.5,-2.5 0,-1.380712 1.11929,-2.5 2.5,-2.5 1.38071,0 2.5,1.119288 2.5,2.5 z m 6.79,-0.572525 c 0,1.380712 -1.11929,2.5 -2.5,2.5 -1.38071,0 -2.5,-1.119288 -2.5,-2.5 0,-1.380712 1.11929,-2.5 2.5,-2.5 1.38071,0 2.5,1.119288 2.5,2.5 z m 6.79,-0.547079 c 0,1.380712 -1.11929,2.5 -2.5,2.5 -1.38071,0 -2.5,-1.119288 -2.5,-2.5 0,-1.380712 1.11929,-2.5 2.5,-2.5 1.38071,0 2.5,1.119288 2.5,2.5 z m 6.79,-0.526723 c 0,1.380712 -1.11929,2.5 -2.5,2.5 -1.38071,0 -2.5,-1.119288 -2.5,-2.5 0,-1.380712 1.11929,-2.5 2.5,-2.5 1.38071,0 2.5,1.119288 2.5,2.5 z m 6.79,-0.506367 c 0,1.380712 -1.11929,2.5 -2.5,2.5 -1.38071,0 -2.5,-1.119288 -2.5,-2.5 0,-1.380712 1.11929,-2.5 2.5,-2.5 1.38071,0 2.5,1.119288 2.5,2.5 z m 6.79,-0.493644 c 0,1.380712 -1.11929,2.5 -2.5,2.5 -1.38071,0 -2.5,-1.119288 -2.5,-2.5 0,-1.380712 1.11929,-2.5 2.5,-2.5 1.38071,0 2.5,1.119288 2.5,2.5 z m 6.79,-0.478376 c 0,1.380712 -1.11929,2.5 -2.5,2.5 -1.38071,0 -2.5,-1.119288 -2.5,-2.5 0,-1.380712 1.11929,-2.5 2.5,-2.5 1.38071,0 2.5,1.119288 2.5,2.5 z m 6.79,-0.468199 c 0,1.380712 -1.11929,2.5 -2.5,2.5 -1.38071,0 -2.5,-1.119288 -2.5,-2.5 0,-1.380711 1.11929,-2.5 2.5,-2.5 1.38071,0 2.5,1.119289 2.5,2.5 z m 6.79,-0.455475 c 0,1.380712 -1.11929,2.5 -2.5,2.5 -1.38071,0 -2.5,-1.119288 -2.5,-2.5 0,-1.380712 1.11929,-2.5 2.5,-2.5 1.38071,0 2.5,1.119288 2.5,2.5 z m 6.79,-0.442753 c 0,1.380712 -1.11929,2.5 -2.5,2.5 -1.38071,0 -2.5,-1.119288 -2.5,-2.5 0,-1.380712 1.11929,-2.5 2.5,-2.5 1.38071,0 2.5,1.119288 2.5,2.5 z m 6.79,-0.435119 c 0,1.380712 -1.11929,2.5 -2.5,2.5 -1.38071,0 -2.5,-1.119288 -2.5,-2.5 0,-1.380712 1.11929,-2.5 2.5,-2.5 1.38071,0 2.5,1.119288 2.5,2.5 z m 6.79,-0.424941 c 0,1.380712 -1.11929,2.5 -2.5,2.5 -1.38071,0 -2.5,-1.119288 -2.5,-2.5 0,-1.380712 1.11929,-2.5 2.5,-2.5 1.38071,0 2.5,1.119288 2.5,2.5 z m 6.79,-0.414762 c 0,1.380712 -1.11929,2.5 -2.5,2.5 -1.38071,0 -2.5,-1.119288 -2.5,-2.5 0,-1.380712 1.11929,-2.5 2.5,-2.5 1.38071,0 2.5,1.119288 2.5,2.5 z m 6.79,-0.404585 c 0,1.380712 -1.11929,2.5 -2.5,2.5 -1.38071,0 -2.5,-1.119288 -2.5,-2.5 0,-1.380711 1.11929,-2.5 2.5,-2.5 1.38071,0 2.5,1.119289 2.5,2.5 z m 6.79,-0.399495 c 0,1.380712 -1.11929,2.5 -2.5,2.5 -1.38071,0 -2.5,-1.119288 -2.5,-2.5 0,-1.380712 1.11929,-2.5 2.5,-2.5 1.38071,0 2.5,1.119288 2.5,2.5 z m 6.79,-0.389317 c 0,1.380712 -1.11929,2.5 -2.5,2.5 -1.38071,0 -2.5,-1.119288 -2.5,-2.5 0,-1.380712 1.11929,-2.5 2.5,-2.5 1.38071,0 2.5,1.119288 2.5,2.5 z m 6.79,-0.379139 c 0,1.380712 -1.11929,2.5 -2.5,2.5 -1.38071,0 -2.5,-1.119288 -2.5,-2.5 0,-1.380712 1.11929,-2.5 2.5,-2.5 1.38071,0 2.5,1.119288 2.5,2.5 z m 6.79,-0.37405 c 0,1.380712 -1.11929,2.5 -2.5,2.5 -1.38071,0 -2.5,-1.119288 -2.5,-2.5 0,-1.380711 1.11929,-2.5 2.5,-2.5 1.38071,0 2.5,1.119289 2.5,2.5 z m 6.79,-0.366416 c 0,1.380712 -1.11929,2.5 -2.5,2.5 -1.38071,0 -2.5,-1.119288 -2.5,-2.5 0,-1.380712 1.11929,-2.5 2.5,-2.5 1.38071,0 2.5,1.119288 2.5,2.5 z m 6.79,-0.356237 c 0,1.380712 -1.11929,2.5 -2.5,2.5 -1.38071,0 -2.5,-1.119288 -2.5,-2.5 0,-1.380712 1.11929,-2.5 2.5,-2.5 1.38071,0 2.5,1.119288 2.5,2.5 z m 6.79,-0.348605 c 0,1.380712 -1.11929,2.5 -2.5,2.5 -1.38071,0 -2.5,-1.119288 -2.5,-2.5 0,-1.380711 1.11929,-2.5 2.5,-2.5 1.38071,0 2.5,1.119289 2.5,2.5 z m 6.79,-0.338426 c 0,1.380712 -1.11929,2.5 -2.5,2.5 -1.38071,0 -2.5,-1.119288 -2.5,-2.5 0,-1.380711 1.11929,-2.5 2.5,-2.5 1.38071,0 2.5,1.119289 2.5,2.5 z m 6.79,-0.323158 c 0,1.380712 -1.11929,2.5 -2.5,2.5 -1.38071,0 -2.5,-1.119288 -2.5,-2.5 0,-1.380712 1.11929,-2.5 2.5,-2.5 1.38071,0 2.5,1.119288 2.5,2.5 z m 6.79,-0.315525 c 0,1.380712 -1.11929,2.5 -2.5,2.5 -1.38071,0 -2.5,-1.119288 -2.5,-2.5 0,-1.380712 1.11929,-2.5 2.5,-2.5 1.38071,0 2.5,1.119288 2.5,2.5 z m 6.79,-0.307891 c 0,1.380712 -1.11929,2.5 -2.5,2.5 -1.38071,0 -2.5,-1.119288 -2.5,-2.5 0,-1.380712 1.11929,-2.5 2.5,-2.5 1.38071,0 2.5,1.119288 2.5,2.5 z m 6.79,-0.300258 c 0,1.380712 -1.11929,2.5 -2.5,2.5 -1.38071,0 -2.5,-1.119288 -2.5,-2.5 0,-1.380712 1.11929,-2.5 2.5,-2.5 1.38071,0 2.5,1.119288 2.5,2.5 z m 6.79,-0.295168 c 0,1.380711 -1.11929,2.5 -2.5,2.5 -1.38071,0 -2.5,-1.119289 -2.5,-2.5 0,-1.380712 1.11929,-2.5 2.5,-2.5 1.38071,0 2.5,1.119288 2.5,2.5 z m 6.79,-0.287535 c 0,1.380712 -1.11929,2.5 -2.5,2.5 -1.38071,0 -2.5,-1.119288 -2.5,-2.5 0,-1.380712 1.11929,-2.5 2.5,-2.5 1.38071,0 2.5,1.119288 2.5,2.5 z m 6.79,-0.284991 c 0,1.380712 -1.11929,2.5 -2.5,2.5 -1.38071,0 -2.5,-1.119288 -2.5,-2.5 0,-1.380711 1.11929,-2.5 2.5,-2.5 1.38071,0 2.5,1.119289 2.5,2.5 z m 6.79,-0.277356 c 0,1.380712 -1.11929,2.5 -2.5,2.5 -1.38071,0 -2.5,-1.119288 -2.5,-2.5 0,-1.380712 1.11929,-2.5 2.5,-2.5 1.38071,0 2.5,1.119288 2.5,2.5 z m 6.79,-0.272268 c 0,1.380712 -1.11929,2.5 -2.5,2.5 -1.38071,0 -2.5,-1.119288 -2.5,-2.5 0,-1.380711 1.11929,-2.5 2.5,-2.5 1.38071,0 2.5,1.119289 2.5,2.5 z m 6.79,-0.267178 c 0,1.380712 -1.11929,2.5 -2.5,2.5 -1.38071,0 -2.5,-1.119288 -2.5,-2.5 0,-1.380712 1.11929,-2.5 2.5,-2.5 1.38071,0 2.5,1.119288 2.5,2.5 z m 6.79,-0.262089 c 0,1.380712 -1.11929,2.5 -2.5,2.5 -1.38071,0 -2.5,-1.119288 -2.5,-2.5 0,-1.380712 1.11929,-2.5 2.5,-2.5 1.38071,0 2.5,1.119288 2.5,2.5 z m 6.79,-0.257 c 0,1.380712 -1.11929,2.5 -2.5,2.5 -1.38071,0 -2.5,-1.119288 -2.5,-2.5 0,-1.380712 1.11929,-2.5 2.5,-2.5 1.38071,0 2.5,1.119288 2.5,2.5 z m 6.79,-0.251911 c 0,1.380711 -1.11929,2.5 -2.5,2.5 -1.38071,0 -2.5,-1.119289 -2.5,-2.5 0,-1.380712 1.11929,-2.5 2.5,-2.5 1.38071,0 2.5,1.119288 2.5,2.5 z m 6.79,-0.249367 c 0,1.380712 -1.11929,2.5 -2.5,2.5 -1.38071,0 -2.5,-1.119288 -2.5,-2.5 0,-1.380712 1.11929,-2.5 2.5,-2.5 1.38071,0 2.5,1.119288 2.5,2.5 z m 6.79,-0.241733 c 0,1.380712 -1.11929,2.5 -2.5,2.5 -1.38071,0 -2.5,-1.119288 -2.5,-2.5 0,-1.380712 1.11929,-2.5 2.5,-2.5 1.38071,0 2.5,1.119288 2.5,2.5 z m 6.79,-0.239188 c 0,1.380712 -1.11929,2.5 -2.5,2.5 -1.38071,0 -2.5,-1.119288 -2.5,-2.5 0,-1.380712 1.11929,-2.5 2.5,-2.5 1.38071,0 2.5,1.119288 2.5,2.5 z m 6.79,-0.234099 c 0,1.380712 -1.11929,2.5 -2.5,2.5 -1.38071,0 -2.5,-1.119288 -2.5,-2.5 0,-1.380712 1.11929,-2.5 2.5,-2.5 1.38071,0 2.5,1.119288 2.5,2.5 z m 6.79,-0.231555 c 0,1.380712 -1.11929,2.5 -2.5,2.5 -1.38071,0 -2.5,-1.119288 -2.5,-2.5 0,-1.380712 1.11929,-2.5 2.5,-2.5 1.38071,0 2.5,1.119288 2.5,2.5 z m 6.79,-0.226465 c 0,1.380712 -1.11929,2.5 -2.5,2.5 -1.38071,0 -2.5,-1.119288 -2.5,-2.5 0,-1.380712 1.11929,-2.5 2.5,-2.5 1.38071,0 2.5,1.119288 2.5,2.5 z m 6.79,-0.223921 c 0,1.380712 -1.11929,2.5 -2.5,2.5 -1.38071,0 -2.5,-1.119288 -2.5,-2.5 0,-1.380712 1.11929,-2.5 2.5,-2.5 1.38071,0 2.5,1.119288 2.5,2.5 z m 6.79,-0.218832 c 0,1.380712 -1.11929,2.5 -2.5,2.5 -1.38071,0 -2.5,-1.119288 -2.5,-2.5 0,-1.380712 1.11929,-2.5 2.5,-2.5 1.38071,0 2.5,1.119288 2.5,2.5 z" /></g><g
               transform="scale(16.66625)"
               id="g970"><path
                 id="path972"
                 style="fill:none;stroke:#70bc10;stroke-width:2;stroke-linecap:square;stroke-linejoin:bevel;stroke-miterlimit:10;stroke-dasharray:none;stroke-opacity:1"
                 d="m 96,511 6.79,-30.53467 6.79,-30.53467 6.79,-30.53467 6.79,-30.53467 6.79,-30.53468 6.79,-30.53467 6.79,-30.53467 6.79,-28.60589 6.79,-21.91118 6.79,-19.79664 6.79,-17.6694 6.79,-16.50144 6.79,-15.60067 6.79,-14.77369 6.79,-12.70243 6.79,-10.20621 6.79,-8.15276 6.79,-6.81686 6.79,-5.46571 6.79,-5.06621 6.79,-4.80412 6.79,-4.36137 6.79,-3.9975 6.79,-3.79902 6.79,-3.610725 6.79,-3.379171 6.79,-3.043288 6.79,-2.89825 6.79,-2.788833 6.79,-2.674328 6.79,-2.542012 6.79,-2.404605 6.79,-2.31809 6.79,-2.241754 6.79,-2.160328 6.79,-2.06109 6.79,-1.969487 6.79,-1.890605 6.79,-1.819357 6.79,-1.74811 6.79,-1.674318 6.79,-1.618337 6.79,-1.419863 6.79,-1.290089 6.79,-1.183219 6.79,-1.101793 6.79,-1.020366 6.79,-0.931308 6.79,-0.900773 6.79,-0.875327 6.79,-0.852426 6.79,-0.826981 6.79,-0.801535 6.79,-0.730288 6.79,-0.681941 6.79,-0.656495 6.79,-0.63105 6.79,-0.597971 6.79,-0.572524 6.79,-0.54708 6.79,-0.524179 6.79,-0.506366 6.79,-0.4911 6.79,-0.478376 6.79,-0.465654 6.79,-0.455475 6.79,-0.445297 6.79,-0.432575 6.79,-0.424941 6.79,-0.414763 6.79,-0.407128 6.79,-0.396951 6.79,-0.389317 6.79,-0.381684 6.79,-0.371505 6.79,-0.366416 6.79,-0.358782 6.79,-0.348604 6.79,-0.338426 6.79,-0.323159 6.79,-0.315525 6.79,-0.305347 6.79,-0.300257 6.79,-0.295169 6.79,-0.287534 6.79,-0.284991 6.79,-0.277356 6.79,-0.272268 6.79,-0.267178 6.79,-0.262089 6.79,-0.257 6.79,-0.251912 6.79,-0.249366 6.79,-0.241733 6.79,-0.239188 6.79,-0.234099 6.79,-0.231555 6.79,-0.226465 6.79,-0.223921 L 775,25 m 0,0 z" /></g></g></g></g><g
         id="g974"><g
           transform="scale(16.66625)"
           id="g976" /></g><g
         id="g978"><g
           clip-path="url(#clipPath984)"
           id="g980"><g
             id="g986" /><g
             transform="scale(16.66625)"
             id="g988" /><g
             transform="scale(16.66625)"
             id="g990"><path
               id="path992"
               style="fill:none;stroke:#4b5755;stroke-width:1;stroke-linecap:square;stroke-linejoin:bevel;stroke-miterlimit:10;stroke-dasharray:4, 8;stroke-dashoffset:0;stroke-opacity:1"
               d="M 96,25 V 511 M 186.53333,25 V 511 M 277.06667,25 V 511 M 367.6,25 V 511 M 458.13333,25 V 511 M 548.66667,25 V 511 M 639.2,25 V 511 M 729.73333,25 v 486" /></g><g
             transform="scale(16.66625)"
             id="g994"><path
               id="path996"
               style="fill:none;stroke:#4b5755;stroke-width:1;stroke-linecap:square;stroke-linejoin:bevel;stroke-miterlimit:10;stroke-dasharray:4, 8;stroke-dashoffset:0;stroke-opacity:1"
               d="M 96,511 H 775 M 96,460.10888 H 775 M 96,409.21776 H 775 M 96,358.32664 H 775 M 96,307.43553 H 775 M 96,256.54441 H 775 M 96,205.65329 H 775 M 96,154.76217 H 775 M 96,103.87105 H 775 M 96,52.979937 h 679" /></g><g
             transform="scale(16.66625)"
             id="g998"><path
               id="path1000"
               style="fill:none;stroke:#000000;stroke-width:2;stroke-linecap:square;stroke-linejoin:bevel;stroke-miterlimit:10;stroke-dasharray:none;stroke-opacity:1"
               d="m 96,25 v 10 m 0,476 V 501 M 186.53333,25 v 10 m 0,476 V 501 M 277.06667,25 v 10 m 0,476 V 501 M 367.6,25 v 10 m 0,476 V 501 M 458.13333,25 v 10 m 0,476 V 501 M 548.66667,25 v 10 m 0,476 V 501 M 639.2,25 v 10 m 0,476 V 501 M 729.73333,25 v 10 m 0,476 v -10" /></g><g
             transform="scale(16.66625)"
             id="g1002"><path
               id="path1004"
               style="fill:none;stroke:#000000;stroke-width:2;stroke-linecap:square;stroke-linejoin:bevel;stroke-miterlimit:10;stroke-dasharray:none;stroke-opacity:1"
               d="m 96,511 h 10 m 669,0 H 765 M 96,460.10888 h 10 m 669,0 H 765 M 96,409.21776 h 10 m 669,0 H 765 M 96,358.32664 h 10 m 669,0 H 765 M 96,307.43553 h 10 m 669,0 H 765 M 96,256.54441 h 10 m 669,0 H 765 M 96,205.65329 h 10 m 669,0 H 765 M 96,154.76217 h 10 m 669,0 H 765 M 96,103.87105 h 10 m 669,0 H 765 M 96,52.979937 h 10 m 669,0 h -10" /></g><g
             transform="matrix(16.66625,0,0,16.66625,12583.019,4208.2281)"
             id="g1006" /><g
             transform="matrix(16.66625,0,0,16.66625,10583.069,3966.5675)"
             id="g1008" /><g
             transform="matrix(16.66625,0,0,16.66625,10583.069,3966.5675)"
             id="g1010" /></g></g><g
         id="g1012"><g
           clip-path="url(#clipPath1018)"
           id="g1014"><g
             clip-path="url(#clipPath1024)"
             id="g1020"><g
               transform="matrix(16.66625,0,0,16.66625,10583.069,3966.5675)"
               id="g1026"><g
                 id="g1028"><text
                   id="text1032"
                   style="font-variant:normal;font-weight:normal;font-size:16px;font-family:Cantarell;-inkscape-font-specification:Cantarell-Regular;writing-mode:lr-tb;fill:#000000;fill-opacity:1;fill-rule:nonzero;stroke:none"
                   transform="translate(4,20)"><tspan
                     id="tspan1030"
                     y="0"
                     x="0 4 17 26 30 34 42 46">Implicit</tspan></text>
</g></g></g></g></g><g
         id="g1034"><g
           transform="matrix(16.66625,0,0,16.66625,10583.069,3966.5675)"
           id="g1036" /></g><g
         id="g1038"><g
           clip-path="url(#clipPath1044)"
           id="g1040"><g
             id="g1046" /><g
             transform="matrix(16.66625,0,0,16.66625,10583.069,3966.5675)"
             id="g1048" /><g
             transform="matrix(16.66625,0,0,16.66625,10583.069,3966.5675)"
             id="g1050" /><g
             transform="matrix(16.66625,0,0,16.66625,12583.019,4208.2281)"
             id="g1052"><path
               id="path1054"
               style="fill:#ffb310;fill-opacity:1;fill-rule:evenodd;stroke:#ffb310;stroke-width:1;stroke-linecap:square;stroke-linejoin:bevel;stroke-miterlimit:10;stroke-dasharray:none;stroke-opacity:1"
               d="m -18,0 c 0,1.1045695 -0.89543,2 -2,2 -1.104569,0 -2,-0.8954305 -2,-2 0,-1.1045695 0.895431,-2 2,-2 1.10457,0 2,0.8954305 2,2 z" /></g><g
             transform="matrix(16.66625,0,0,16.66625,10599.735,4483.2213)"
             id="g1056" /><g
             transform="matrix(16.66625,0,0,16.66625,10599.735,4483.2213)"
             id="g1058" /></g></g><g
         id="g1060"><g
           clip-path="url(#clipPath1066)"
           id="g1062"><g
             clip-path="url(#clipPath1072)"
             id="g1068"><g
               transform="matrix(16.66625,0,0,16.66625,10599.735,4483.2213)"
               id="g1074"><g
                 id="g1076"><text
                   id="text1080"
                   style="font-variant:normal;font-weight:normal;font-size:16px;font-family:Cantarell;-inkscape-font-specification:Cantarell-Regular;writing-mode:lr-tb;fill:#000000;fill-opacity:1;fill-rule:nonzero;stroke:none"
                   transform="translate(4,20)"><tspan
                     id="tspan1078"
                     y="0"
                     x="0 9 16 25 29 33 41 45">Explicit</tspan></text>
</g></g></g></g></g><g
         id="g1082"><g
           transform="matrix(16.66625,0,0,16.66625,10599.735,4483.2213)"
           id="g1084" /></g><g
         id="g1086"><g
           clip-path="url(#clipPath1092)"
           id="g1088"><g
             id="g1094" /><g
             transform="matrix(16.66625,0,0,16.66625,10599.735,4483.2213)"
             id="g1096" /><g
             transform="matrix(16.66625,0,0,16.66625,10599.735,4483.2213)"
             id="g1098" /><g
             transform="matrix(16.66625,0,0,16.66625,12583.019,4208.2281)"
             id="g1100"><path
               id="path1102"
               style="fill:none;stroke:#70bc10;stroke-width:2;stroke-linecap:square;stroke-linejoin:bevel;stroke-miterlimit:10;stroke-dasharray:none;stroke-opacity:1"
               d="M 0,31 H -40" /></g><g
             transform="scale(16.66625)"
             id="g1104"><path
               id="path1106"
               style="fill:none;stroke:#000000;stroke-width:2;stroke-linecap:square;stroke-linejoin:bevel;stroke-miterlimit:10;stroke-dasharray:none;stroke-opacity:1"
               d="M 96,511 H 775" /></g><g
             transform="scale(16.66625)"
             id="g1108"><path
               id="path1110"
               style="fill:none;stroke:#000000;stroke-width:2;stroke-linecap:square;stroke-linejoin:bevel;stroke-miterlimit:10;stroke-dasharray:none;stroke-opacity:1"
               d="M 775,25 H 96" /></g><g
             transform="scale(16.66625)"
             id="g1112"><path
               id="path1114"
               style="fill:none;stroke:#000000;stroke-width:2;stroke-linecap:square;stroke-linejoin:bevel;stroke-miterlimit:10;stroke-dasharray:none;stroke-opacity:1"
               d="M 96,25 V 511" /></g><g
             transform="scale(16.66625)"
             id="g1116"><path
               id="path1118"
               style="fill:none;stroke:#000000;stroke-width:2;stroke-linecap:square;stroke-linejoin:bevel;stroke-miterlimit:10;stroke-dasharray:none;stroke-opacity:1"
               d="M 775,511 V 25" /></g></g></g><g
         id="g1120"><g
           id="g1122" /></g></g></g></svg>