<?xml version="1.0" encoding="UTF-8" standalone="no"?>
<svg
   xmlns:dc="http://purl.org/dc/elements/1.1/"
   xmlns:cc="http://creativecommons.org/ns#"
   xmlns:rdf="http://www.w3.org/1999/02/22-rdf-syntax-ns#"
   xmlns:svg="http://www.w3.org/2000/svg"
   xmlns="http://www.w3.org/2000/svg"
   viewBox="0 0 1066.6667 800"
   height="800"
   width="1066.6667"
   xml:space="preserve"
   id="svg2"
   version="1.1"><metadata
     id="metadata8"><rdf:RDF><cc:Work
         rdf:about=""><dc:format>image/svg+xml</dc:format><dc:type
           rdf:resource="http://purl.org/dc/dcmitype/StillImage" /><dc:title></dc:title></cc:Work></rdf:RDF></metadata><defs
     id="defs6"><clipPath
       id="clipPath28"
       clipPathUnits="userSpaceOnUse"><path
         style="clip-rule:evenodd"
         id="path26"
         d="M 0,0 H 13333 V 10000 H 0 Z" /></clipPath><clipPath
       id="clipPath50"
       clipPathUnits="userSpaceOnUse"><path
         style="clip-rule:evenodd"
         id="path48"
         d="M 0,0 H 13333 V 10000 H 0 Z" /></clipPath><clipPath
       id="clipPath56"
       clipPathUnits="userSpaceOnUse"><path
         style="clip-rule:evenodd"
         id="path54"
         d="m 6233.1775,9241.4356 h 2133.28 v 483.3213 h -2133.28 z" /></clipPath><clipPath
       id="clipPath76"
       clipPathUnits="userSpaceOnUse"><path
         style="clip-rule:evenodd"
         id="path74"
         d="M 0,0 H 13333 V 10000 H 0 Z" /></clipPath><clipPath
       id="clipPath94"
       clipPathUnits="userSpaceOnUse"><path
         style="clip-rule:evenodd"
         id="path92"
         d="M 0,0 H 13333 V 10000 H 0 Z" /></clipPath><clipPath
       id="clipPath100"
       clipPathUnits="userSpaceOnUse"><path
         style="clip-rule:evenodd"
         id="path98"
         d="M 274.99312,5016.5412 V 3916.5688 h 483.32126 v 1099.9724 z" /></clipPath><clipPath
       id="clipPath120"
       clipPathUnits="userSpaceOnUse"><path
         style="clip-rule:evenodd"
         id="path118"
         d="M 0,0 H 13333 V 10000 H 0 Z" /></clipPath><clipPath
       id="clipPath138"
       clipPathUnits="userSpaceOnUse"><path
         style="clip-rule:evenodd"
         id="path136"
         d="M 0,0 H 13333 V 10000 H 0 Z" /></clipPath><clipPath
       id="clipPath144"
       clipPathUnits="userSpaceOnUse"><path
         style="clip-rule:evenodd"
         id="path142"
         d="m 3495.2025,8674.7831 h 283.3262 v 483.3213 h -283.3262 z" /></clipPath><clipPath
       id="clipPath164"
       clipPathUnits="userSpaceOnUse"><path
         style="clip-rule:evenodd"
         id="path162"
         d="M 0,0 H 13333 V 10000 H 0 Z" /></clipPath><clipPath
       id="clipPath182"
       clipPathUnits="userSpaceOnUse"><path
         style="clip-rule:evenodd"
         id="path180"
         d="M 0,0 H 13333 V 10000 H 0 Z" /></clipPath><clipPath
       id="clipPath188"
       clipPathUnits="userSpaceOnUse"><path
         style="clip-rule:evenodd"
         id="path186"
         d="m 5862.1723,8674.7831 h 433.3225 v 483.3213 h -433.3225 z" /></clipPath><clipPath
       id="clipPath208"
       clipPathUnits="userSpaceOnUse"><path
         style="clip-rule:evenodd"
         id="path206"
         d="M 0,0 H 13333 V 10000 H 0 Z" /></clipPath><clipPath
       id="clipPath226"
       clipPathUnits="userSpaceOnUse"><path
         style="clip-rule:evenodd"
         id="path224"
         d="M 0,0 H 13333 V 10000 H 0 Z" /></clipPath><clipPath
       id="clipPath232"
       clipPathUnits="userSpaceOnUse"><path
         style="clip-rule:evenodd"
         id="path230"
         d="m 8304.1402,8674.7831 h 433.3225 v 483.3213 h -433.3225 z" /></clipPath><clipPath
       id="clipPath252"
       clipPathUnits="userSpaceOnUse"><path
         style="clip-rule:evenodd"
         id="path250"
         d="M 0,0 H 13333 V 10000 H 0 Z" /></clipPath><clipPath
       id="clipPath270"
       clipPathUnits="userSpaceOnUse"><path
         style="clip-rule:evenodd"
         id="path268"
         d="M 0,0 H 13333 V 10000 H 0 Z" /></clipPath><clipPath
       id="clipPath276"
       clipPathUnits="userSpaceOnUse"><path
         style="clip-rule:evenodd"
         id="path274"
         d="m 10746.108,8674.7831 h 433.323 v 483.3213 h -433.323 z" /></clipPath><clipPath
       id="clipPath296"
       clipPathUnits="userSpaceOnUse"><path
         style="clip-rule:evenodd"
         id="path294"
         d="M 0,0 H 13333 V 10000 H 0 Z" /></clipPath><clipPath
       id="clipPath314"
       clipPathUnits="userSpaceOnUse"><path
         style="clip-rule:evenodd"
         id="path312"
         d="M 0,0 H 13333 V 10000 H 0 Z" /></clipPath><clipPath
       id="clipPath320"
       clipPathUnits="userSpaceOnUse"><path
         style="clip-rule:evenodd"
         id="path318"
         d="m 833.3125,8274.7931 h 699.9825 v 483.3213 H 833.3125 Z" /></clipPath><clipPath
       id="clipPath346"
       clipPathUnits="userSpaceOnUse"><path
         style="clip-rule:evenodd"
         id="path344"
         d="M 0,0 H 13333 V 10000 H 0 Z" /></clipPath><clipPath
       id="clipPath364"
       clipPathUnits="userSpaceOnUse"><path
         style="clip-rule:evenodd"
         id="path362"
         d="M 0,0 H 13333 V 10000 H 0 Z" /></clipPath><clipPath
       id="clipPath370"
       clipPathUnits="userSpaceOnUse"><path
         style="clip-rule:evenodd"
         id="path368"
         d="M 833.3125,5782.5477 H 1533.295 V 6265.869 H 833.3125 Z" /></clipPath><clipPath
       id="clipPath396"
       clipPathUnits="userSpaceOnUse"><path
         style="clip-rule:evenodd"
         id="path394"
         d="M 0,0 H 13333 V 10000 H 0 Z" /></clipPath><clipPath
       id="clipPath414"
       clipPathUnits="userSpaceOnUse"><path
         style="clip-rule:evenodd"
         id="path412"
         d="M 0,0 H 13333 V 10000 H 0 Z" /></clipPath><clipPath
       id="clipPath420"
       clipPathUnits="userSpaceOnUse"><path
         style="clip-rule:evenodd"
         id="path418"
         d="m 883.31125,3290.3024 h 599.98505 v 483.3212 H 883.31125 Z" /></clipPath><clipPath
       id="clipPath446"
       clipPathUnits="userSpaceOnUse"><path
         style="clip-rule:evenodd"
         id="path444"
         d="M 0,0 H 13333 V 10000 H 0 Z" /></clipPath><clipPath
       id="clipPath464"
       clipPathUnits="userSpaceOnUse"><path
         style="clip-rule:evenodd"
         id="path462"
         d="M 0,0 H 13333 V 10000 H 0 Z" /></clipPath><clipPath
       id="clipPath470"
       clipPathUnits="userSpaceOnUse"><path
         style="clip-rule:evenodd"
         id="path468"
         d="M 883.31125,798.05697 H 1483.2963 V 1281.3782 H 883.31125 Z" /></clipPath><clipPath
       id="clipPath496"
       clipPathUnits="userSpaceOnUse"><path
         style="clip-rule:evenodd"
         id="path494"
         d="M 0,0 H 13333 V 10000 H 0 Z" /></clipPath><clipPath
       id="clipPath516"
       clipPathUnits="userSpaceOnUse"><path
         style="clip-rule:evenodd"
         id="path514"
         d="M 0,0 H 13333 V 10000 H 0 Z" /></clipPath><clipPath
       id="clipPath522"
       clipPathUnits="userSpaceOnUse"><path
         style="clip-rule:evenodd"
         id="path520"
         d="M 1683.2913,416.65625 H 12916.344 V 8516.4538 H 1683.2913 Z" /></clipPath><clipPath
       id="clipPath540"
       clipPathUnits="userSpaceOnUse"><path
         style="clip-rule:evenodd"
         id="path538"
         d="M 0,0 H 13333 V 10000 H 0 Z" /></clipPath><clipPath
       id="clipPath574"
       clipPathUnits="userSpaceOnUse"><path
         style="clip-rule:evenodd"
         id="path572"
         d="M 0,0 H 13333 V 10000 H 0 Z" /></clipPath><clipPath
       id="clipPath580"
       clipPathUnits="userSpaceOnUse"><path
         style="clip-rule:evenodd"
         id="path578"
         d="m 7866.47,508.32062 h 3716.574 V 991.64188 H 7866.47 Z" /></clipPath><clipPath
       id="clipPath600"
       clipPathUnits="userSpaceOnUse"><path
         style="clip-rule:evenodd"
         id="path598"
         d="M 0,0 H 13333 V 10000 H 0 Z" /></clipPath></defs><g
     transform="matrix(1.3333333,0,0,-1.3333333,0,800)"
     id="g10"><g
       transform="matrix(0.06,0,0,-0.06,0,600)"
       id="g12"><g
         id="g14"><g
           id="g16" /></g><g
         id="g18"><g
           id="g20" /></g><g
         id="g22"><g
           clip-path="url(#clipPath28)"
           id="g24"><g
             id="g30" /><g
             id="g32"><g
               transform="scale(16.66625)"
               id="g34"><path
                 id="path36"
                 style="fill:#ffffff;fill-opacity:1;fill-rule:nonzero;stroke:none"
                 d="M 0,0 H 800 V 600 H 0 Z" /></g></g><g
             transform="scale(16.66625)"
             id="g38" /><g
             transform="matrix(16.66625,0,0,16.66625,6233.1775,9241.4356)"
             id="g40" /><g
             transform="matrix(16.66625,0,0,16.66625,6233.1775,9241.4356)"
             id="g42" /></g></g><g
         id="g44"><g
           clip-path="url(#clipPath50)"
           id="g46"><g
             clip-path="url(#clipPath56)"
             id="g52"><g
               transform="matrix(16.66625,0,0,16.66625,6233.1775,9241.4356)"
               id="g58"><g
                 id="g60"><text
                   id="text64"
                   style="font-variant:normal;font-weight:normal;font-size:16px;font-family:Cantarell;-inkscape-font-specification:Cantarell-Regular;writing-mode:lr-tb;fill:#000000;fill-opacity:1;fill-rule:nonzero;stroke:none"
                   transform="translate(4,20)"><tspan
                     id="tspan62"
                     y="0"
                     x="0 4 10 18 24 32 38 42 51 60 64 76 84 97 106 114">Iteration	Number</tspan></text>
</g></g></g></g></g><g
         id="g66"><g
           transform="matrix(16.66625,0,0,16.66625,6233.1775,9241.4356)"
           id="g68" /></g><g
         id="g70"><g
           clip-path="url(#clipPath76)"
           id="g72"><g
             id="g78" /><g
             transform="matrix(16.66625,0,0,16.66625,6233.1775,9241.4356)"
             id="g80" /><g
             transform="matrix(16.66625,0,0,16.66625,6233.1775,9241.4356)"
             id="g82" /><g
             transform="matrix(0,-16.66625,16.66625,0,274.99312,5016.5412)"
             id="g84" /><g
             transform="matrix(0,-16.66625,16.66625,0,274.99312,5016.5412)"
             id="g86" /></g></g><g
         id="g88"><g
           clip-path="url(#clipPath94)"
           id="g90"><g
             clip-path="url(#clipPath100)"
             id="g96"><g
               transform="matrix(0,-16.66625,16.66625,0,274.99312,5016.5412)"
               id="g102"><g
                 id="g104"><text
                   id="text108"
                   style="font-variant:normal;font-weight:normal;font-size:16px;font-family:Cantarell;-inkscape-font-specification:Cantarell-Regular;writing-mode:lr-tb;fill:#000000;fill-opacity:1;fill-rule:nonzero;stroke:none"
                   transform="translate(4,20)"><tspan
                     id="tspan106"
                     y="0"
                     x="0 9 17 24 28 37 45 53">Residual</tspan></text>
</g></g></g></g></g><g
         id="g110"><g
           transform="matrix(0,-16.66625,16.66625,0,274.99312,5016.5412)"
           id="g112" /></g><g
         id="g114"><g
           clip-path="url(#clipPath120)"
           id="g116"><g
             id="g122" /><g
             transform="matrix(0,-16.66625,16.66625,0,274.99312,5016.5412)"
             id="g124" /><g
             transform="matrix(0,-16.66625,16.66625,0,274.99312,5016.5412)"
             id="g126" /><g
             transform="matrix(16.66625,0,0,16.66625,3495.2025,8674.7831)"
             id="g128" /><g
             transform="matrix(16.66625,0,0,16.66625,3495.2025,8674.7831)"
             id="g130" /></g></g><g
         id="g132"><g
           clip-path="url(#clipPath138)"
           id="g134"><g
             clip-path="url(#clipPath144)"
             id="g140"><g
               transform="matrix(16.66625,0,0,16.66625,3495.2025,8674.7831)"
               id="g146"><g
                 id="g148"><text
                   id="text152"
                   style="font-variant:normal;font-weight:normal;font-size:16px;font-family:Cantarell;-inkscape-font-specification:Cantarell-Regular;writing-mode:lr-tb;fill:#000000;fill-opacity:1;fill-rule:nonzero;stroke:none"
                   transform="translate(4,20)"><tspan
                     id="tspan150"
                     y="0"
                     x="0">5</tspan></text>
</g></g></g></g></g><g
         id="g154"><g
           transform="matrix(16.66625,0,0,16.66625,3495.2025,8674.7831)"
           id="g156" /></g><g
         id="g158"><g
           clip-path="url(#clipPath164)"
           id="g160"><g
             id="g166" /><g
             transform="matrix(16.66625,0,0,16.66625,3495.2025,8674.7831)"
             id="g168" /><g
             transform="matrix(16.66625,0,0,16.66625,3495.2025,8674.7831)"
             id="g170" /><g
             transform="matrix(16.66625,0,0,16.66625,5862.1723,8674.7831)"
             id="g172" /><g
             transform="matrix(16.66625,0,0,16.66625,5862.1723,8674.7831)"
             id="g174" /></g></g><g
         id="g176"><g
           clip-path="url(#clipPath182)"
           id="g178"><g
             clip-path="url(#clipPath188)"
             id="g184"><g
               transform="matrix(16.66625,0,0,16.66625,5862.1723,8674.7831)"
               id="g190"><g
                 id="g192"><text
                   id="text196"
                   style="font-variant:normal;font-weight:normal;font-size:16px;font-family:Cantarell;-inkscape-font-specification:Cantarell-Regular;writing-mode:lr-tb;fill:#000000;fill-opacity:1;fill-rule:nonzero;stroke:none"
                   transform="translate(4,20)"><tspan
                     id="tspan194"
                     y="0"
                     x="0 9">10</tspan></text>
</g></g></g></g></g><g
         id="g198"><g
           transform="matrix(16.66625,0,0,16.66625,5862.1723,8674.7831)"
           id="g200" /></g><g
         id="g202"><g
           clip-path="url(#clipPath208)"
           id="g204"><g
             id="g210" /><g
             transform="matrix(16.66625,0,0,16.66625,5862.1723,8674.7831)"
             id="g212" /><g
             transform="matrix(16.66625,0,0,16.66625,5862.1723,8674.7831)"
             id="g214" /><g
             transform="matrix(16.66625,0,0,16.66625,8304.1402,8674.7831)"
             id="g216" /><g
             transform="matrix(16.66625,0,0,16.66625,8304.1402,8674.7831)"
             id="g218" /></g></g><g
         id="g220"><g
           clip-path="url(#clipPath226)"
           id="g222"><g
             clip-path="url(#clipPath232)"
             id="g228"><g
               transform="matrix(16.66625,0,0,16.66625,8304.1402,8674.7831)"
               id="g234"><g
                 id="g236"><text
                   id="text240"
                   style="font-variant:normal;font-weight:normal;font-size:16px;font-family:Cantarell;-inkscape-font-specification:Cantarell-Regular;writing-mode:lr-tb;fill:#000000;fill-opacity:1;fill-rule:nonzero;stroke:none"
                   transform="translate(4,20)"><tspan
                     id="tspan238"
                     y="0"
                     x="0 9">15</tspan></text>
</g></g></g></g></g><g
         id="g242"><g
           transform="matrix(16.66625,0,0,16.66625,8304.1402,8674.7831)"
           id="g244" /></g><g
         id="g246"><g
           clip-path="url(#clipPath252)"
           id="g248"><g
             id="g254" /><g
             transform="matrix(16.66625,0,0,16.66625,8304.1402,8674.7831)"
             id="g256" /><g
             transform="matrix(16.66625,0,0,16.66625,8304.1402,8674.7831)"
             id="g258" /><g
             transform="matrix(16.66625,0,0,16.66625,10746.108,8674.7831)"
             id="g260" /><g
             transform="matrix(16.66625,0,0,16.66625,10746.108,8674.7831)"
             id="g262" /></g></g><g
         id="g264"><g
           clip-path="url(#clipPath270)"
           id="g266"><g
             clip-path="url(#clipPath276)"
             id="g272"><g
               transform="matrix(16.66625,0,0,16.66625,10746.108,8674.7831)"
               id="g278"><g
                 id="g280"><text
                   id="text284"
                   style="font-variant:normal;font-weight:normal;font-size:16px;font-family:Cantarell;-inkscape-font-specification:Cantarell-Regular;writing-mode:lr-tb;fill:#000000;fill-opacity:1;fill-rule:nonzero;stroke:none"
                   transform="translate(4,20)"><tspan
                     id="tspan282"
                     y="0"
                     x="0 9">20</tspan></text>
</g></g></g></g></g><g
         id="g286"><g
           transform="matrix(16.66625,0,0,16.66625,10746.108,8674.7831)"
           id="g288" /></g><g
         id="g290"><g
           clip-path="url(#clipPath296)"
           id="g292"><g
             id="g298" /><g
             transform="matrix(16.66625,0,0,16.66625,10746.108,8674.7831)"
             id="g300" /><g
             transform="matrix(16.66625,0,0,16.66625,10746.108,8674.7831)"
             id="g302" /><g
             transform="matrix(16.66625,0,0,16.66625,833.3125,8274.7931)"
             id="g304" /><g
             transform="matrix(16.66625,0,0,16.66625,833.3125,8274.7931)"
             id="g306" /></g></g><g
         id="g308"><g
           clip-path="url(#clipPath314)"
           id="g310"><g
             clip-path="url(#clipPath320)"
             id="g316"><g
               transform="matrix(16.66625,0,0,16.66625,833.3125,8274.7931)"
               id="g322"><g
                 id="g324"><text
                   id="text328"
                   style="font-variant:normal;font-weight:normal;font-size:16px;font-family:Cantarell;-inkscape-font-specification:Cantarell-Regular;writing-mode:lr-tb;fill:#000000;fill-opacity:1;fill-rule:nonzero;stroke:none"
                   transform="translate(4,20)"><tspan
                     id="tspan326"
                     y="0"
                     x="0 9">10</tspan></text>
</g><g
                 id="g330"><text
                   id="text334"
                   style="font-variant:normal;font-weight:normal;font-size:11px;font-family:Cantarell;-inkscape-font-specification:Cantarell-Regular;writing-mode:lr-tb;fill:#000000;fill-opacity:1;fill-rule:nonzero;stroke:none"
                   transform="translate(22,12.5)"><tspan
                     id="tspan332"
                     y="0"
                     x="0 4 10">-16</tspan></text>
</g></g></g></g></g><g
         id="g336"><g
           transform="matrix(16.66625,0,0,16.66625,833.3125,8274.7931)"
           id="g338" /></g><g
         id="g340"><g
           clip-path="url(#clipPath346)"
           id="g342"><g
             id="g348" /><g
             transform="matrix(16.66625,0,0,16.66625,833.3125,8274.7931)"
             id="g350" /><g
             transform="matrix(16.66625,0,0,16.66625,833.3125,8274.7931)"
             id="g352" /><g
             transform="matrix(16.66625,0,0,16.66625,833.3125,5782.5477)"
             id="g354" /><g
             transform="matrix(16.66625,0,0,16.66625,833.3125,5782.5477)"
             id="g356" /></g></g><g
         id="g358"><g
           clip-path="url(#clipPath364)"
           id="g360"><g
             clip-path="url(#clipPath370)"
             id="g366"><g
               transform="matrix(16.66625,0,0,16.66625,833.3125,5782.5477)"
               id="g372"><g
                 id="g374"><text
                   id="text378"
                   style="font-variant:normal;font-weight:normal;font-size:16px;font-family:Cantarell;-inkscape-font-specification:Cantarell-Regular;writing-mode:lr-tb;fill:#000000;fill-opacity:1;fill-rule:nonzero;stroke:none"
                   transform="translate(4,20)"><tspan
                     id="tspan376"
                     y="0"
                     x="0 9">10</tspan></text>
</g><g
                 id="g380"><text
                   id="text384"
                   style="font-variant:normal;font-weight:normal;font-size:11px;font-family:Cantarell;-inkscape-font-specification:Cantarell-Regular;writing-mode:lr-tb;fill:#000000;fill-opacity:1;fill-rule:nonzero;stroke:none"
                   transform="translate(22,12.5)"><tspan
                     id="tspan382"
                     y="0"
                     x="0 4 10">-12</tspan></text>
</g></g></g></g></g><g
         id="g386"><g
           transform="matrix(16.66625,0,0,16.66625,833.3125,5782.5477)"
           id="g388" /></g><g
         id="g390"><g
           clip-path="url(#clipPath396)"
           id="g392"><g
             id="g398" /><g
             transform="matrix(16.66625,0,0,16.66625,833.3125,5782.5477)"
             id="g400" /><g
             transform="matrix(16.66625,0,0,16.66625,833.3125,5782.5477)"
             id="g402" /><g
             transform="matrix(16.66625,0,0,16.66625,883.31125,3290.3024)"
             id="g404" /><g
             transform="matrix(16.66625,0,0,16.66625,883.31125,3290.3024)"
             id="g406" /></g></g><g
         id="g408"><g
           clip-path="url(#clipPath414)"
           id="g410"><g
             clip-path="url(#clipPath420)"
             id="g416"><g
               transform="matrix(16.66625,0,0,16.66625,883.31125,3290.3024)"
               id="g422"><g
                 id="g424"><text
                   id="text428"
                   style="font-variant:normal;font-weight:normal;font-size:16px;font-family:Cantarell;-inkscape-font-specification:Cantarell-Regular;writing-mode:lr-tb;fill:#000000;fill-opacity:1;fill-rule:nonzero;stroke:none"
                   transform="translate(4,20)"><tspan
                     id="tspan426"
                     y="0"
                     x="0 9">10</tspan></text>
</g><g
                 id="g430"><text
                   id="text434"
                   style="font-variant:normal;font-weight:normal;font-size:11px;font-family:Cantarell;-inkscape-font-specification:Cantarell-Regular;writing-mode:lr-tb;fill:#000000;fill-opacity:1;fill-rule:nonzero;stroke:none"
                   transform="translate(22,12.5)"><tspan
                     id="tspan432"
                     y="0"
                     x="0 4">-8</tspan></text>
</g></g></g></g></g><g
         id="g436"><g
           transform="matrix(16.66625,0,0,16.66625,883.31125,3290.3024)"
           id="g438" /></g><g
         id="g440"><g
           clip-path="url(#clipPath446)"
           id="g442"><g
             id="g448" /><g
             transform="matrix(16.66625,0,0,16.66625,883.31125,3290.3024)"
             id="g450" /><g
             transform="matrix(16.66625,0,0,16.66625,883.31125,3290.3024)"
             id="g452" /><g
             transform="matrix(16.66625,0,0,16.66625,883.31125,798.05697)"
             id="g454" /><g
             transform="matrix(16.66625,0,0,16.66625,883.31125,798.05697)"
             id="g456" /></g></g><g
         id="g458"><g
           clip-path="url(#clipPath464)"
           id="g460"><g
             clip-path="url(#clipPath470)"
             id="g466"><g
               transform="matrix(16.66625,0,0,16.66625,883.31125,798.05697)"
               id="g472"><g
                 id="g474"><text
                   id="text478"
                   style="font-variant:normal;font-weight:normal;font-size:16px;font-family:Cantarell;-inkscape-font-specification:Cantarell-Regular;writing-mode:lr-tb;fill:#000000;fill-opacity:1;fill-rule:nonzero;stroke:none"
                   transform="translate(4,20)"><tspan
                     id="tspan476"
                     y="0"
                     x="0 9">10</tspan></text>
</g><g
                 id="g480"><text
                   id="text484"
                   style="font-variant:normal;font-weight:normal;font-size:11px;font-family:Cantarell;-inkscape-font-specification:Cantarell-Regular;writing-mode:lr-tb;fill:#000000;fill-opacity:1;fill-rule:nonzero;stroke:none"
                   transform="translate(22,12.5)"><tspan
                     id="tspan482"
                     y="0"
                     x="0 4">-4</tspan></text>
</g></g></g></g></g><g
         id="g486"><g
           transform="matrix(16.66625,0,0,16.66625,883.31125,798.05697)"
           id="g488" /></g><g
         id="g490"><g
           clip-path="url(#clipPath496)"
           id="g492"><g
             id="g498" /><g
             transform="matrix(16.66625,0,0,16.66625,883.31125,798.05697)"
             id="g500" /><g
             transform="matrix(16.66625,0,0,16.66625,883.31125,798.05697)"
             id="g502" /><g
             transform="scale(16.66625)"
             id="g504" /><g
             id="g506" /><g
             transform="scale(16.66625)"
             id="g508" /></g></g><g
         id="g510"><g
           clip-path="url(#clipPath516)"
           id="g512"><g
             clip-path="url(#clipPath522)"
             id="g518"><g
               transform="scale(16.66625)"
               id="g524" /><g
               transform="scale(16.66625)"
               id="g526"><path
                 id="path528"
                 style="fill:none;stroke:#ffb310;stroke-width:2;stroke-linecap:square;stroke-linejoin:bevel;stroke-miterlimit:10;stroke-dasharray:none;stroke-opacity:1"
                 d="m 101,55.471934 29.30435,33.281127 29.30434,16.654109 29.30435,2.21654 29.30435,2.40845 29.30435,2.62589 29.30435,3.10011 29.30434,2.89861 29.30435,3.2303 29.30435,3.66219 29.30435,4.07992 29.30435,4.59511 29.30434,2.39378 29.30435,1.5339 29.30435,6.14872 29.30435,2.77133 29.30434,2.7685 29.30435,3.4793 29.30435,5.0392 29.30435,11.75828 29.30435,23.96186 29.30434,43.83545 29.30435,81.36143 L 775,477.50123 m 0,0 z" /></g></g></g></g><g
         id="g530"><g
           transform="scale(16.66625)"
           id="g532" /></g><g
         id="g534"><g
           clip-path="url(#clipPath540)"
           id="g536"><g
             id="g542" /><g
             transform="scale(16.66625)"
             id="g544" /><g
             transform="scale(16.66625)"
             id="g546"><path
               id="path548"
               style="fill:none;stroke:#4b5755;stroke-width:1;stroke-linecap:square;stroke-linejoin:bevel;stroke-miterlimit:10;stroke-dasharray:4, 8;stroke-dashoffset:0;stroke-opacity:1"
               d="M 218.21739,25 V 511 M 364.73913,25 V 511 M 511.26087,25 V 511 M 657.78261,25 v 486" /></g><g
             transform="scale(16.66625)"
             id="g550"><path
               id="path552"
               style="fill:none;stroke:#4b5755;stroke-width:1;stroke-linecap:square;stroke-linejoin:bevel;stroke-miterlimit:10;stroke-dasharray:4, 8;stroke-dashoffset:0;stroke-opacity:1"
               d="M 101,511 H 775 M 101,361.46154 H 775 M 101,211.92308 H 775 M 101,62.384615 h 674" /></g><g
             transform="scale(16.66625)"
             id="g554"><path
               id="path556"
               style="fill:none;stroke:#000000;stroke-width:2;stroke-linecap:square;stroke-linejoin:bevel;stroke-miterlimit:10;stroke-dasharray:none;stroke-opacity:1"
               d="m 218.21739,25 v 10 m 0,476 V 501 M 364.73913,25 v 10 m 0,476 V 501 M 511.26087,25 v 10 m 0,476 V 501 M 657.78261,25 v 10 m 0,476 v -10" /></g><g
             transform="scale(16.66625)"
             id="g558"><path
               id="path560"
               style="fill:none;stroke:#000000;stroke-width:2;stroke-linecap:square;stroke-linejoin:bevel;stroke-miterlimit:10;stroke-dasharray:none;stroke-opacity:1"
               d="m 101,511 h 10 m 664,0 H 765 M 101,361.46154 h 10 m 664,0 H 765 M 101,211.92308 h 10 m 664,0 H 765 M 101,62.384615 h 10 m 664,0 h -10" /></g><g
             transform="matrix(16.66625,0,0,16.66625,12583.019,749.98125)"
             id="g562" /><g
             transform="matrix(16.66625,0,0,16.66625,7866.47,508.32062)"
             id="g564" /><g
             transform="matrix(16.66625,0,0,16.66625,7866.47,508.32062)"
             id="g566" /></g></g><g
         id="g568"><g
           clip-path="url(#clipPath574)"
           id="g570"><g
             clip-path="url(#clipPath580)"
             id="g576"><g
               transform="matrix(16.66625,0,0,16.66625,7866.47,508.32062)"
               id="g582"><g
                 id="g584"><text
                   id="text588"
                   style="font-variant:normal;font-weight:normal;font-size:16px;font-family:Cantarell;-inkscape-font-specification:Cantarell-Regular;writing-mode:lr-tb;fill:#000000;fill-opacity:1;fill-rule:nonzero;stroke:none"
                   transform="translate(4,20)"><tspan
                     id="tspan586"
                     y="0"
                     x="0 9 17 24 28 37 45 53 57 61 70 75 79 85 94 102 106 110 123 132 136 140 148 152 158 162 169 177 186 194 207">Residual	of	the	implicit	scheme</tspan></text>
</g></g></g></g></g><g
         id="g590"><g
           transform="matrix(16.66625,0,0,16.66625,7866.47,508.32062)"
           id="g592" /></g><g
         id="g594"><g
           clip-path="url(#clipPath600)"
           id="g596"><g
             id="g602" /><g
             transform="matrix(16.66625,0,0,16.66625,7866.47,508.32062)"
             id="g604" /><g
             transform="matrix(16.66625,0,0,16.66625,7866.47,508.32062)"
             id="g606" /><g
             transform="matrix(16.66625,0,0,16.66625,12583.019,749.98125)"
             id="g608"><path
               id="path610"
               style="fill:none;stroke:#ffb310;stroke-width:2;stroke-linecap:square;stroke-linejoin:bevel;stroke-miterlimit:10;stroke-dasharray:none;stroke-opacity:1"
               d="M 0,0 H -40" /></g><g
             transform="scale(16.66625)"
             id="g612"><path
               id="path614"
               style="fill:none;stroke:#000000;stroke-width:2;stroke-linecap:square;stroke-linejoin:bevel;stroke-miterlimit:10;stroke-dasharray:none;stroke-opacity:1"
               d="M 101,511 H 775" /></g><g
             transform="scale(16.66625)"
             id="g616"><path
               id="path618"
               style="fill:none;stroke:#000000;stroke-width:2;stroke-linecap:square;stroke-linejoin:bevel;stroke-miterlimit:10;stroke-dasharray:none;stroke-opacity:1"
               d="M 775,25 H 101" /></g><g
             transform="scale(16.66625)"
             id="g620"><path
               id="path622"
               style="fill:none;stroke:#000000;stroke-width:2;stroke-linecap:square;stroke-linejoin:bevel;stroke-miterlimit:10;stroke-dasharray:none;stroke-opacity:1"
               d="M 101,25 V 511" /></g><g
             transform="scale(16.66625)"
             id="g624"><path
               id="path626"
               style="fill:none;stroke:#000000;stroke-width:2;stroke-linecap:square;stroke-linejoin:bevel;stroke-miterlimit:10;stroke-dasharray:none;stroke-opacity:1"
               d="M 775,511 V 25" /></g></g></g><g
         id="g628"><g
           id="g630" /></g></g></g></svg>