<?xml version="1.0" encoding="UTF-8" standalone="no"?>
<!-- Created with Inkscape (http://www.inkscape.org/) --><svg height="562.50000" id="svg2" version="1.0" width="250.00000" x="0.00000000" xmlns="http://www.w3.org/2000/svg" xmlns:svg="http://www.w3.org/2000/svg" y="0.00000000">
  <metadata>
    <rdf:RDF xmlns:cc="http://web.resource.org/cc/" xmlns:dc="http://purl.org/dc/elements/1.1/" xmlns:rdf="http://www.w3.org/1999/02/22-rdf-syntax-ns#">
      <cc:Work rdf:about="">
        <dc:title>stripper</dc:title>
        <dc:description>s</dc:description>
        <dc:subject>
          <rdf:Bag>
            <rdf:li>people</rdf:li>
            <rdf:li>shape</rdf:li>
            <rdf:li>stripper</rdf:li>
          </rdf:Bag>
        </dc:subject>
        <dc:publisher>
          <cc:Agent rdf:about="http://www.openclipart.org/">
            <dc:title>Open Clip Art Library</dc:title>
          </cc:Agent>
        </dc:publisher>
        <dc:creator>
          <cc:Agent>
            <dc:title>Jarno Vasamaa</dc:title>
          </cc:Agent>
        </dc:creator>
        <dc:rights>
          <cc:Agent>
            <dc:title>Jarno Vasamaa</dc:title>
          </cc:Agent>
        </dc:rights>
        <dc:date></dc:date>
        <dc:format>image/svg+xml</dc:format>
        <dc:type rdf:resource="http://purl.org/dc/dcmitype/StillImage"/>
        <cc:license rdf:resource="http://web.resource.org/cc/PublicDomain"/>
        <dc:language>en</dc:language>
      </cc:Work>
      <cc:License rdf:about="http://web.resource.org/cc/PublicDomain">
        <cc:permits rdf:resource="http://web.resource.org/cc/Reproduction"/>
        <cc:permits rdf:resource="http://web.resource.org/cc/Distribution"/>
        <cc:permits rdf:resource="http://web.resource.org/cc/DerivativeWorks"/>
      </cc:License>
    </rdf:RDF>
  </metadata>
  <defs id="defs3"/>
  <g id="layer1">
    <path d="M 53.503330,59.002100 C 53.503330,59.002100 47.904020,56.202440 46.970810,60.868530 C 46.037590,65.534620 41.371500,77.666450 43.237940,78.599660 C 45.104370,79.532880 54.436550,78.599660 58.169420,78.599660 C 61.902290,78.599660 68.434810,67.401050 64.701940,63.668180 C 60.969070,59.935310 58.169420,57.135660 58.169420,57.135660 C 58.169420,57.135660 67.501590,59.935310 68.434810,67.401050 C 69.368030,74.866790 68.434810,79.532880 73.100900,85.132190 C 77.766980,90.731490 87.099160,103.79654 90.832030,108.46263 C 94.564900,113.12871 96.431330,116.86158 96.431330,116.86158 C 96.431330,116.86158 85.232720,105.66297 80.566640,101.93010 C 75.900550,98.197230 75.900550,107.52941 76.833770,112.19550 C 77.766980,116.86158 87.099160,137.39237 90.832030,141.12524 C 94.564900,144.85811 106.69673,155.12350 112.29603,161.65602 C 117.89534,168.18855 126.29430,176.58750 126.29430,176.58750 C 126.29430,176.58750 107.62995,160.72281 104.83029,157.92315 C 102.03064,155.12350 111.36282,185.91968 107.62995,204.58403 C 103.89708,223.24838 89.898810,231.64734 99.230990,233.51377 C 108.56316,235.38021 155.22404,226.98125 150.55795,219.51551 C 145.89186,212.04977 130.96038,186.85290 130.96038,186.85290 C 130.96038,186.85290 159.89013,226.98125 162.68978,231.64734 C 165.48943,236.31343 170.15552,242.84595 166.42265,249.37847 C 162.68978,255.91099 144.95865,265.24317 143.09221,273.64213 C 141.22578,282.04109 126.29430,316.57013 122.56143,337.10092 C 118.82856,357.63171 117.89534,364.16423 115.09569,375.36284 C 112.29603,386.56145 98.297770,408.02545 95.498120,417.35763 C 92.698460,426.68980 90.832030,451.88668 85.232720,457.48598 C 79.633420,463.08529 76.833770,462.15207 76.833770,462.15207 C 76.833770,462.15207 85.232720,459.35242 88.032380,447.22059 C 90.832030,435.08876 91.765250,414.55797 94.564900,408.95867 C 97.364550,403.35936 109.49638,386.56145 111.36282,379.09571 C 113.22925,371.62997 123.49464,310.03761 137.49291,282.04109 C 151.49117,254.04456 163.62300,254.97778 164.55621,248.44525 C 165.48943,241.91273 152.42439,221.38195 152.42439,221.38195 C 152.42439,221.38195 162.68978,223.24838 134.69325,229.78090 C 106.69673,236.31343 103.89708,240.97951 97.364550,237.24664 C 90.832030,233.51377 90.832030,230.71412 97.364550,218.58229 C 103.89708,206.45047 107.62995,194.31864 103.89708,173.78785 C 100.16421,153.25707 88.032380,141.12524 88.032380,141.12524 L 70.301240,112.19550 C 70.301240,112.19550 65.635160,97.264010 60.969070,89.798270 C 56.302980,82.332530 44.171150,86.065400 41.371500,80.466100 C 38.571850,74.866790 46.037590,57.135660 46.037590,57.135660 L 53.503330,59.002100 z " id="path1358" style="fill:#000000;fill-opacity:1.0000000;fill-rule:evenodd;stroke:none;stroke-width:1.0000000px;stroke-linecap:butt;stroke-linejoin:miter;stroke-opacity:1.0000000"/>
    <path d="M 78.700200,514.41225 C 78.700200,514.41225 90.832030,520.94477 94.564900,519.07834 C 98.297770,517.21190 98.297770,503.21364 100.16421,493.88146 C 102.03064,484.54929 104.83029,470.55103 104.83029,470.55103 C 104.83029,470.55103 137.49291,434.15554 140.29256,428.55624 C 143.09221,422.95693 145.89186,408.95867 149.62473,405.22580 C 153.35760,401.49293 188.81987,349.23275 195.35239,339.90057 C 201.88492,330.56840 210.28387,309.10439 210.28387,303.50509 C 210.28387,297.90578 211.21709,289.50683 209.35066,284.84074 C 207.48422,280.17465 208.41744,254.04456 211.21709,249.37847 C 214.01674,244.71238 214.94996,240.04630 217.74961,233.51377 C 220.54927,226.98125 215.88318,219.51551 215.88318,219.51551 C 215.88318,219.51551 224.28214,223.24838 218.68283,238.17986 C 213.08353,253.11134 212.15031,249.37847 210.28387,261.51030 C 208.41744,273.64213 214.94996,287.64039 212.15031,304.43831 C 209.35066,321.23622 194.41918,351.09918 179.48770,368.83032 C 164.55621,386.56145 148.69152,409.89189 148.69152,409.89189 C 148.69152,409.89189 147.75830,419.22406 143.09221,427.62302 C 138.42612,436.02198 108.56316,468.68459 106.69673,472.41746 C 104.83029,476.15033 101.09742,510.67938 98.297770,516.27869 C 95.498120,521.87799 95.498120,525.61086 90.832030,523.74443 C 86.165940,521.87799 78.700200,514.41225 78.700200,514.41225 z " id="path2121" style="fill:#000000;fill-opacity:1.0000000;fill-rule:evenodd;stroke:none;stroke-width:1.0000000px;stroke-linecap:butt;stroke-linejoin:miter;stroke-opacity:1.0000000"/>
    <path d="M 142.15899,159.78959 C 142.15899,159.78959 156.15726,150.45741 157.09047,146.72454 C 158.02369,142.99167 158.02369,147.65776 159.89013,153.25707 C 161.75656,158.85637 172.02195,170.98820 172.02195,170.98820 L 177.62126,178.45394 C 177.62126,178.45394 161.75656,160.72281 158.02369,159.78959 C 154.29082,158.85637 146.82508,162.58924 142.15899,159.78959 z " id="path2125" style="fill:#000000;fill-opacity:1.0000000;fill-rule:evenodd;stroke:none;stroke-width:1.0000000px;stroke-linecap:butt;stroke-linejoin:miter;stroke-opacity:1.0000000"/>
    <path d="M 166.42265,155.12350 C 166.42265,155.12350 182.28735,146.72454 187.88665,147.65776 C 193.48596,148.59098 200.01848,152.32385 200.95170,159.78959 C 201.88492,167.25533 200.95170,179.38716 200.95170,179.38716 L 208.41744,189.65255 C 208.41744,189.65255 203.75135,181.25359 202.81813,176.58750 C 201.88492,171.92142 203.75135,159.78959 200.95170,154.19028 C 198.15205,148.59098 192.55274,144.85811 188.81987,144.85811 C 185.08700,144.85811 182.28735,144.85811 176.68804,147.65776 C 171.08874,150.45741 166.42265,155.12350 166.42265,155.12350 z " id="path2127" style="fill:#000000;fill-opacity:1.0000000;fill-rule:evenodd;stroke:none;stroke-width:1.0000000px;stroke-linecap:butt;stroke-linejoin:miter;stroke-opacity:1.0000000"/>
    <path d="M 174.00892,173.58812 L 178.08270,178.82585 C 178.08270,178.82585 181.57452,175.91600 182.15649,173.58812 C 182.73846,171.26024 183.32043,168.35040 180.99255,168.93237 C 178.66467,169.51434 174.00892,173.58812 174.00892,173.58812 z " id="path2131" style="fill:#000000;fill-opacity:1.0000000;fill-rule:evenodd;stroke:none;stroke-width:1.0000000px;stroke-linecap:butt;stroke-linejoin:miter;stroke-opacity:1.0000000"/>
    <path d="M 206.01724,210.25221 C 206.01724,210.25221 211.83694,209.67024 213.00088,205.59645 C 214.16482,201.52266 216.49270,199.19479 215.32876,195.70297 C 214.16482,192.21115 217.65664,199.77676 217.07467,203.26857 C 216.49270,206.76039 213.58285,210.25221 214.16482,213.16206 C 214.74679,216.07190 215.32876,219.56372 215.32876,219.56372 C 215.32876,219.56372 214.74679,213.74403 211.83694,213.16206 C 208.92709,212.58009 206.01724,210.25221 206.01724,210.25221 z " id="path2133" style="fill:#000000;fill-opacity:1.0000000;fill-rule:evenodd;stroke:none;stroke-width:1.0000000px;stroke-linecap:butt;stroke-linejoin:miter;stroke-opacity:1.0000000"/>
    <path d="M 174.00892,211.41615 C 174.00892,211.41615 178.08270,215.48993 180.99255,215.48993 C 183.90240,215.48993 189.14013,210.83418 189.72210,207.34236 C 190.30406,203.85054 193.21391,203.85054 193.21391,203.85054 L 192.63194,200.35872 C 192.63194,200.35872 198.45164,208.50630 200.19755,213.74403 C 201.94346,218.98175 202.52543,230.03917 204.27134,232.94902 C 206.01724,235.85887 207.76315,237.02281 207.76315,237.02281 C 207.76315,237.02281 212.41891,237.60478 212.41891,232.94902 C 212.41891,228.29327 215.91073,234.69493 213.00088,238.76872 C 210.09103,242.84251 200.19755,242.26054 193.21391,246.33432 C 186.23028,250.40811 182.73846,248.66220 182.73846,248.66220 C 182.73846,248.66220 191.46800,246.33432 195.54179,241.09660 C 199.61558,235.85887 200.19755,225.96539 199.03361,223.05554 C 197.86967,220.14569 194.95982,216.65387 194.95982,216.65387 C 194.95982,216.65387 193.79588,217.81781 189.72210,217.81781 C 185.64831,217.81781 182.15649,220.14569 178.08270,216.07190 C 174.00892,211.99812 174.00892,211.41615 174.00892,211.41615 z " id="path2135" style="fill:#000000;fill-opacity:1.0000000;fill-rule:evenodd;stroke:none;stroke-width:1.0000000px;stroke-linecap:butt;stroke-linejoin:miter;stroke-opacity:1.0000000"/>
    <path d="M 189.14013,270.77705 C 189.14013,270.77705 185.64831,272.52296 186.23028,274.85083 C 186.81225,277.17871 190.30406,277.17871 190.88603,276.59674 C 191.46800,276.01477 190.88603,271.35902 192.04997,268.44917 C 193.21391,265.53932 200.19755,259.13765 200.77952,255.06387 C 201.36149,250.99008 200.77952,247.49826 200.77952,247.49826 C 200.77952,247.49826 200.19755,250.40811 196.70573,256.80978 C 193.21391,263.21144 189.14013,270.77705 189.14013,270.77705 z " id="path2137" style="fill:#000000;fill-opacity:1.0000000;fill-rule:evenodd;stroke:none;stroke-width:1.0000000px;stroke-linecap:butt;stroke-linejoin:miter;stroke-opacity:1.0000000"/>
    <path d="M 109.41029,460.49914 C 109.41029,460.49914 117.55786,437.80232 117.55786,428.49081 C 117.55786,419.17930 120.46771,406.95793 122.79559,405.21203 C 125.12347,403.46612 130.36120,395.31854 131.52514,391.82672 C 132.68907,388.33491 136.18089,376.69551 138.50877,373.78567 C 140.83665,370.87582 151.89407,349.92491 153.05801,347.01506 C 154.22195,344.10522 161.78755,327.81007 162.95149,324.31825 C 164.11543,320.82643 164.11543,315.58871 162.95149,308.02310 C 161.78755,300.45750 162.36952,296.38371 162.36952,296.38371 C 162.36952,296.38371 164.11543,310.35098 165.27937,314.42477 C 166.44331,318.49855 169.93513,320.82643 169.93513,320.82643 C 169.93513,320.82643 179.24664,316.17068 182.15649,313.84280 C 185.06634,311.51492 194.37785,305.11325 194.37785,305.11325 C 194.37785,305.11325 193.79588,303.94931 196.70573,307.44113 C 199.61558,310.93295 208.92709,313.26083 201.94346,312.67886 C 194.95982,312.09689 195.54179,309.76901 189.72210,312.09689 C 183.90240,314.42477 171.09907,320.24446 171.09907,320.24446 C 171.09907,320.24446 166.44331,324.31825 162.95149,330.13795 C 159.45968,335.95764 142.58256,367.38400 140.25468,370.29385 C 137.92680,373.20370 132.68907,383.09718 132.68907,386.58900 C 132.68907,390.08082 129.77923,398.22839 126.28741,401.72021 C 122.79559,405.21203 121.04968,409.28581 119.88574,413.35960 C 118.72180,417.43339 111.73817,454.09747 109.41029,460.49914 z " id="path2139" style="fill:#000000;fill-opacity:1.0000000;fill-rule:evenodd;stroke:none;stroke-width:1.0000000px;stroke-linecap:butt;stroke-linejoin:miter;stroke-opacity:1.0000000"/>
    <path d="M 51.270100,80.494070 L 50.447070,509.29233 C 50.447070,509.29233 51.270100,517.52263 55.385250,515.05354 C 59.500390,512.58445 56.208270,504.35416 56.208270,504.35416 L 57.031300,81.317100 L 51.270100,80.494070 z " id="path2141" style="fill:#000000;fill-opacity:1.0000000;fill-rule:evenodd;stroke:none;stroke-width:1.0000000px;stroke-linecap:butt;stroke-linejoin:miter;stroke-opacity:1.0000000"/>
    <path d="M 52.377270,56.030260 L 52.377270,28.095720 C 52.377270,28.095720 57.033030,22.276030 57.033030,28.095720 C 57.033030,33.915420 52.377270,56.030260 52.377270,56.030260 z " id="path2143" style="fill:#000000;fill-opacity:1.0000000;fill-rule:evenodd;stroke:none;stroke-width:1.0000000px;stroke-linecap:butt;stroke-linejoin:miter;stroke-opacity:1.0000000"/>
    <path d="M 61.688780,508.80261 L 62.852720,87.456620" id="path2145" style="fill:none;fill-opacity:0.75000000;fill-rule:evenodd;stroke:#000000;stroke-width:1.0000000px;stroke-linecap:butt;stroke-linejoin:miter;stroke-opacity:1.0000000"/>
    <path d="M 62.852720,57.194200 L 62.852720,25.767840" id="path2147" style="fill:none;fill-opacity:0.75000000;fill-rule:evenodd;stroke:#000000;stroke-width:1.0000000px;stroke-linecap:butt;stroke-linejoin:miter;stroke-opacity:1.0000000"/>
    <path d="M 104.75453,122.37479 C 104.75453,122.37479 119.88574,111.89934 123.37756,111.89934 C 126.86938,111.89934 130.36119,107.24358 133.85301,111.89934 C 137.34483,116.55510 143.16453,111.89934 136.18089,108.40752 C 129.19725,104.91571 117.55786,109.57146 112.90211,113.06328 C 108.24635,116.55510 104.75453,122.37479 104.75453,122.37479 z " id="path2149" style="fill:#000000;fill-opacity:1.0000000;fill-rule:evenodd;stroke:none;stroke-width:1.0000000px;stroke-linecap:butt;stroke-linejoin:miter;stroke-opacity:1.0000000"/>
    <path d="M 130.36120,151.47328 L 105.91847,125.86662 C 105.91847,125.86662 121.04968,136.34207 124.54150,142.16176 C 128.03332,147.98146 130.36120,151.47328 130.36120,151.47328 z " id="path2177" style="fill:#000000;fill-opacity:1.0000000;fill-rule:evenodd;stroke:none;stroke-width:1.0000000px;stroke-linecap:butt;stroke-linejoin:miter;stroke-opacity:1.0000000"/>
  </g>
</svg>
