<?xml version="1.0" encoding="UTF-8" standalone="no"?>
<!DOCTYPE svg PUBLIC "-//W3C//DTD SVG 1.1//EN"
 "http://www.w3.org/Graphics/SVG/1.1/DTD/svg11.dtd">
<!-- Generated by graphviz version 2.38.0 (20140413.2041)
 -->
<!-- Title: tangent_operator_converter Pages: 1 -->
<svg width="702pt" height="500pt"
 viewBox="0.00 0.00 702.39 499.65" xmlns="http://www.w3.org/2000/svg" xmlns:xlink="http://www.w3.org/1999/xlink">
<g id="graph0" class="graph" transform="scale(1 1) rotate(0) translate(4 495.647)">
<title>tangent_operator_converter</title>
<polygon fill="white" stroke="none" points="-4,4 -4,-495.647 698.388,-495.647 698.388,4 -4,4"/>
<!-- DSIG_DF -->
<g id="node1" class="node"><title>DSIG_DF</title>
<ellipse fill="none" stroke="red" cx="53.2953" cy="-281.823" rx="50.8235" ry="26.7407"/>
<text text-anchor="middle" x="53.2953" y="-285.623" font-family="Times,serif" font-size="14.00">DSIG_DF</text>
<text text-anchor="middle" x="53.2953" y="-270.623" font-family="Times,serif" font-size="14.00">MTest</text>
</g>
<!-- DSIG_DDF -->
<g id="node10" class="node"><title>DSIG_DDF</title>
<ellipse fill="none" stroke="black" cx="53.2953" cy="-181.477" rx="53.0913" ry="18"/>
<text text-anchor="middle" x="53.2953" y="-177.777" font-family="Times,serif" font-size="14.00">DSIG_DDF</text>
</g>
<!-- DSIG_DF&#45;&gt;DSIG_DDF -->
<g id="edge13" class="edge"><title>DSIG_DF&#45;&gt;DSIG_DDF</title>
<path fill="none" stroke="black" d="M47.272,-254.984C46.3319,-241.016 46.3039,-223.778 47.1878,-209.614"/>
<polygon fill="black" stroke="black" points="50.689,-209.747 48.0416,-199.488 43.7138,-209.159 50.689,-209.747"/>
</g>
<!-- C_TRUESDELL -->
<g id="node2" class="node"><title>C_TRUESDELL</title>
<ellipse fill="none" stroke="green" cx="424.295" cy="-181.477" rx="77.5641" ry="37.4533"/>
<text text-anchor="middle" x="424.295" y="-192.777" font-family="Times,serif" font-size="14.00">C_TRUESDELL</text>
<text text-anchor="middle" x="424.295" y="-177.777" font-family="Times,serif" font-size="14.00">Cast3M</text>
<text text-anchor="middle" x="424.295" y="-162.777" font-family="Times,serif" font-size="14.00">ZeBuLoN</text>
</g>
<!-- SPATIAL_MODULI -->
<g id="node9" class="node"><title>SPATIAL_MODULI</title>
<ellipse fill="none" stroke="black" cx="427.295" cy="-281.823" rx="87.1846" ry="18"/>
<text text-anchor="middle" x="427.295" y="-278.123" font-family="Times,serif" font-size="14.00">SPATIAL_MODULI</text>
</g>
<!-- C_TRUESDELL&#45;&gt;SPATIAL_MODULI -->
<g id="edge21" class="edge"><title>C_TRUESDELL&#45;&gt;SPATIAL_MODULI</title>
<path fill="none" stroke="black" d="M431.954,-218.958C432.682,-230.449 432.917,-242.932 432.576,-253.657"/>
<polygon fill="black" stroke="black" points="429.078,-253.52 432.04,-263.693 436.068,-253.894 429.078,-253.52"/>
</g>
<!-- DTAU_DDF -->
<g id="node3" class="node"><title>DTAU_DDF</title>
<ellipse fill="none" stroke="blue" cx="260.295" cy="-281.823" rx="62.4516" ry="26.7407"/>
<text text-anchor="middle" x="260.295" y="-285.623" font-family="Times,serif" font-size="14.00">DTAU_DDF</text>
<text text-anchor="middle" x="260.295" y="-270.623" font-family="Times,serif" font-size="14.00">Code_Aster</text>
</g>
<!-- DTAU_DF -->
<g id="node7" class="node"><title>DTAU_DF</title>
<ellipse fill="none" stroke="black" cx="339.295" cy="-362.693" rx="50.8918" ry="18"/>
<text text-anchor="middle" x="339.295" y="-358.993" font-family="Times,serif" font-size="14.00">DTAU_DF</text>
</g>
<!-- DTAU_DDF&#45;&gt;DTAU_DF -->
<g id="edge7" class="edge"><title>DTAU_DDF&#45;&gt;DTAU_DF</title>
<path fill="none" stroke="black" d="M289.516,-305.808C300.123,-315.696 311.744,-327.266 321.16,-337.305"/>
<polygon fill="black" stroke="black" points="318.842,-339.957 328.177,-344.967 324.004,-335.229 318.842,-339.957"/>
</g>
<!-- ABAQUS -->
<g id="node4" class="node"><title>ABAQUS</title>
<ellipse fill="none" stroke="yellow" cx="383.295" cy="-454.17" rx="77.5641" ry="37.4533"/>
<text text-anchor="middle" x="383.295" y="-465.47" font-family="Times,serif" font-size="14.00">ABAQUS</text>
<text text-anchor="middle" x="383.295" y="-450.47" font-family="Times,serif" font-size="14.00">Abaqus/Standard</text>
<text text-anchor="middle" x="383.295" y="-435.47" font-family="Times,serif" font-size="14.00">Calculix</text>
</g>
<!-- ABAQUS&#45;&gt;DSIG_DF -->
<g id="edge24" class="edge"><title>ABAQUS&#45;&gt;DSIG_DF</title>
<path fill="none" stroke="black" d="M306.885,-446.708C250.32,-438.701 173.771,-420.782 118.295,-380.693 96.1172,-364.667 79.3339,-338.562 68.3815,-317.342"/>
<polygon fill="black" stroke="black" points="71.4751,-315.702 63.9036,-308.291 65.2009,-318.806 71.4751,-315.702"/>
</g>
<!-- ABAQUS&#45;&gt;DTAU_DF -->
<g id="edge25" class="edge"><title>ABAQUS&#45;&gt;DTAU_DF</title>
<path fill="none" stroke="black" d="M359.556,-418.32C354.715,-409.05 349.985,-399.185 346.202,-390.425"/>
<polygon fill="black" stroke="black" points="349.409,-389.02 342.378,-381.095 342.932,-391.675 349.409,-389.02"/>
</g>
<!-- C_TAU_JAUMANN -->
<g id="node8" class="node"><title>C_TAU_JAUMANN</title>
<ellipse fill="none" stroke="black" cx="607.295" cy="-181.477" rx="87.1846" ry="18"/>
<text text-anchor="middle" x="607.295" y="-177.777" font-family="Times,serif" font-size="14.00">C_TAU_JAUMANN</text>
</g>
<!-- ABAQUS&#45;&gt;C_TAU_JAUMANN -->
<g id="edge23" class="edge"><title>ABAQUS&#45;&gt;C_TAU_JAUMANN</title>
<path fill="none" stroke="black" d="M430.339,-423.986C470.678,-398.744 527.289,-358.5 561.295,-308.693 581.983,-278.393 591.277,-236.409 597.556,-209.343"/>
<polygon fill="black" stroke="black" points="601.008,-209.953 599.916,-199.415 594.198,-208.334 601.008,-209.953"/>
</g>
<!-- ABAQUS&#45;&gt;SPATIAL_MODULI -->
<g id="edge22" class="edge"><title>ABAQUS&#45;&gt;SPATIAL_MODULI</title>
<path fill="none" stroke="black" d="M387.077,-416.626C393.728,-384.585 405.758,-338.736 415.211,-309.887"/>
<polygon fill="black" stroke="black" points="418.639,-310.679 418.562,-300.085 412.015,-308.415 418.639,-310.679"/>
</g>
<!-- DS_DEGL -->
<g id="node5" class="node"><title>DS_DEGL</title>
<ellipse fill="none" stroke="pink" cx="274.295" cy="-181.477" rx="54.3945" ry="26.7407"/>
<text text-anchor="middle" x="274.295" y="-185.277" font-family="Times,serif" font-size="14.00">DS_DEGL</text>
<text text-anchor="middle" x="274.295" y="-170.277" font-family="Times,serif" font-size="14.00">Calculix</text>
</g>
<!-- DS_DEGL&#45;&gt;ABAQUS -->
<g id="edge17" class="edge"><title>DS_DEGL&#45;&gt;ABAQUS</title>
<path fill="none" stroke="black" d="M239.159,-202.105C220.616,-214.579 199.616,-232.591 189.295,-254.953 179.287,-276.64 178.949,-287.166 189.295,-308.693 214.962,-362.097 271.267,-400.521 316.641,-424.255"/>
<polygon fill="black" stroke="black" points="315.059,-427.377 325.557,-428.806 318.241,-421.142 315.059,-427.377"/>
</g>
<!-- DS_DF -->
<g id="node6" class="node"><title>DS_DF</title>
<ellipse fill="none" stroke="black" cx="208.295" cy="-18" rx="37.8943" ry="18"/>
<text text-anchor="middle" x="208.295" y="-14.3" font-family="Times,serif" font-size="14.00">DS_DF</text>
</g>
<!-- DS_DEGL&#45;&gt;DS_DF -->
<g id="edge18" class="edge"><title>DS_DEGL&#45;&gt;DS_DF</title>
<path fill="none" stroke="black" d="M255.372,-156.243C245.663,-142.721 234.414,-125.18 227.295,-108 219.093,-88.2045 214.249,-64.4047 211.507,-46.3991"/>
<polygon fill="black" stroke="black" points="214.944,-45.7025 210.093,-36.2833 208.011,-46.6716 214.944,-45.7025"/>
</g>
<!-- DS_DEGL&#45;&gt;SPATIAL_MODULI -->
<g id="edge16" class="edge"><title>DS_DEGL&#45;&gt;SPATIAL_MODULI</title>
<path fill="none" stroke="black" d="M310.097,-201.949C336.942,-218.2 373.079,-241.372 398.175,-258.396"/>
<polygon fill="black" stroke="black" points="396.33,-261.375 406.558,-264.14 400.287,-255.601 396.33,-261.375"/>
</g>
<!-- DS_DC -->
<g id="node11" class="node"><title>DS_DC</title>
<ellipse fill="none" stroke="black" cx="274.295" cy="-90" rx="38.1938" ry="18"/>
<text text-anchor="middle" x="274.295" y="-86.3" font-family="Times,serif" font-size="14.00">DS_DC</text>
</g>
<!-- DS_DEGL&#45;&gt;DS_DC -->
<g id="edge15" class="edge"><title>DS_DEGL&#45;&gt;DS_DC</title>
<path fill="none" stroke="black" d="M268.109,-154.596C267.382,-143.137 267.358,-129.656 268.037,-118.063"/>
<polygon fill="black" stroke="black" points="271.528,-118.311 268.858,-108.059 264.552,-117.739 271.528,-118.311"/>
</g>
<!-- DS_DF&#45;&gt;DTAU_DF -->
<g id="edge1" class="edge"><title>DS_DF&#45;&gt;DTAU_DF</title>
<path fill="none" stroke="black" d="M200.607,-35.6686C179.87,-83.3638 128.323,-222.484 189.295,-308.693 209.746,-337.61 247.346,-350.855 279.784,-356.874"/>
<polygon fill="black" stroke="black" points="279.221,-360.329 289.66,-358.519 280.371,-353.424 279.221,-360.329"/>
</g>
<!-- DTAU_DF&#45;&gt;DSIG_DF -->
<g id="edge5" class="edge"><title>DTAU_DF&#45;&gt;DSIG_DF</title>
<path fill="none" stroke="black" d="M300.426,-350.975C250.575,-337.227 163.848,-313.31 107.522,-297.777"/>
<polygon fill="black" stroke="black" points="108.29,-294.359 97.7192,-295.074 106.429,-301.107 108.29,-294.359"/>
</g>
<!-- DTAU_DF&#45;&gt;DTAU_DDF -->
<g id="edge6" class="edge"><title>DTAU_DF&#45;&gt;DTAU_DDF</title>
<path fill="none" stroke="black" d="M318.184,-346.111C308.199,-337.211 296.302,-325.715 285.846,-314.967"/>
<polygon fill="black" stroke="black" points="288.32,-312.491 278.877,-307.687 283.264,-317.331 288.32,-312.491"/>
</g>
<!-- DTAU_DF&#45;&gt;ABAQUS -->
<g id="edge4" class="edge"><title>DTAU_DF&#45;&gt;ABAQUS</title>
<path fill="none" stroke="black" d="M352.728,-380.102C357.532,-388.023 362.88,-397.958 367.797,-407.927"/>
<polygon fill="black" stroke="black" points="364.684,-409.531 372.163,-417.034 370.996,-406.504 364.684,-409.531"/>
</g>
<!-- DTAU_DF&#45;&gt;C_TAU_JAUMANN -->
<g id="edge2" class="edge"><title>DTAU_DF&#45;&gt;C_TAU_JAUMANN</title>
<path fill="none" stroke="black" d="M386.537,-356.048C424.13,-349.744 476.342,-336.483 514.295,-308.693 549.594,-282.847 574.466,-237.357 590.034,-208.627"/>
<polygon fill="black" stroke="black" points="593.252,-210.035 594.958,-199.579 587.104,-206.689 593.252,-210.035"/>
</g>
<!-- DTAU_DF&#45;&gt;SPATIAL_MODULI -->
<g id="edge3" class="edge"><title>DTAU_DF&#45;&gt;SPATIAL_MODULI</title>
<path fill="none" stroke="black" d="M352.322,-344.967C363.745,-333.598 380.504,-318.408 395.352,-305.892"/>
<polygon fill="black" stroke="black" points="397.893,-308.332 403.358,-299.255 393.426,-302.942 397.893,-308.332"/>
</g>
<!-- C_TAU_JAUMANN&#45;&gt;ABAQUS -->
<g id="edge26" class="edge"><title>C_TAU_JAUMANN&#45;&gt;ABAQUS</title>
<path fill="none" stroke="black" d="M611.449,-199.84C611.447,-225.598 602.601,-274.56 579.295,-308.693 545.966,-357.508 490.922,-397.139 447.558,-422.461"/>
<polygon fill="black" stroke="black" points="445.713,-419.484 438.773,-427.489 449.19,-425.56 445.713,-419.484"/>
</g>
<!-- C_TAU_JAUMANN&#45;&gt;DTAU_DF -->
<g id="edge27" class="edge"><title>C_TAU_JAUMANN&#45;&gt;DTAU_DF</title>
<path fill="none" stroke="black" d="M606.165,-199.579C597.956,-226.822 571.584,-279.925 532.295,-308.693 493.351,-337.209 439.394,-350.427 398.338,-356.528"/>
<polygon fill="black" stroke="black" points="397.622,-353.093 388.196,-357.93 398.581,-360.027 397.622,-353.093"/>
</g>
<!-- C_TAU_JAUMANN&#45;&gt;SPATIAL_MODULI -->
<g id="edge28" class="edge"><title>C_TAU_JAUMANN&#45;&gt;SPATIAL_MODULI</title>
<path fill="none" stroke="black" d="M582.433,-198.894C553.47,-215.776 505.419,-242.106 470.387,-260.34"/>
<polygon fill="black" stroke="black" points="468.606,-257.321 461.33,-265.022 471.821,-263.539 468.606,-257.321"/>
</g>
<!-- SPATIAL_MODULI&#45;&gt;C_TRUESDELL -->
<g id="edge8" class="edge"><title>SPATIAL_MODULI&#45;&gt;C_TRUESDELL</title>
<path fill="none" stroke="black" d="M421.506,-263.693C420.153,-254.062 419.279,-241.527 418.978,-229.197"/>
<polygon fill="black" stroke="black" points="422.475,-228.917 418.862,-218.958 415.476,-228.997 422.475,-228.917"/>
</g>
<!-- SPATIAL_MODULI&#45;&gt;ABAQUS -->
<g id="edge9" class="edge"><title>SPATIAL_MODULI&#45;&gt;ABAQUS</title>
<path fill="none" stroke="black" d="M427.097,-300.174C423.161,-325.142 411.629,-372.083 401.175,-407.414"/>
<polygon fill="black" stroke="black" points="397.808,-406.459 398.263,-417.044 404.508,-408.486 397.808,-406.459"/>
</g>
<!-- SPATIAL_MODULI&#45;&gt;DS_DEGL -->
<g id="edge10" class="edge"><title>SPATIAL_MODULI&#45;&gt;DS_DEGL</title>
<path fill="none" stroke="black" d="M397.232,-264.803C372.606,-250.084 337.829,-227.947 311.481,-210.333"/>
<polygon fill="black" stroke="black" points="313.145,-207.234 302.896,-204.551 309.235,-213.04 313.145,-207.234"/>
</g>
<!-- SPATIAL_MODULI&#45;&gt;DTAU_DF -->
<g id="edge11" class="edge"><title>SPATIAL_MODULI&#45;&gt;DTAU_DF</title>
<path fill="none" stroke="black" d="M414.196,-299.622C402.417,-311.339 385.005,-327.087 369.854,-339.788"/>
<polygon fill="black" stroke="black" points="367.215,-337.428 361.721,-346.486 371.665,-342.831 367.215,-337.428"/>
</g>
<!-- SPATIAL_MODULI&#45;&gt;C_TAU_JAUMANN -->
<g id="edge12" class="edge"><title>SPATIAL_MODULI&#45;&gt;C_TAU_JAUMANN</title>
<path fill="none" stroke="black" d="M452.231,-264.362C481.258,-247.446 529.385,-221.078 564.404,-202.855"/>
<polygon fill="black" stroke="black" points="566.179,-205.878 573.455,-198.178 562.965,-199.659 566.179,-205.878"/>
</g>
<!-- DSIG_DDF&#45;&gt;DSIG_DF -->
<g id="edge14" class="edge"><title>DSIG_DDF&#45;&gt;DSIG_DF</title>
<path fill="none" stroke="black" d="M58.549,-199.488C59.9243,-211.91 60.3515,-229.211 59.8306,-244.664"/>
<polygon fill="black" stroke="black" points="56.3185,-244.823 59.3185,-254.984 63.3099,-245.17 56.3185,-244.823"/>
</g>
<!-- DS_DC&#45;&gt;DS_DEGL -->
<g id="edge20" class="edge"><title>DS_DC&#45;&gt;DS_DEGL</title>
<path fill="none" stroke="black" d="M279.732,-108.059C280.864,-118.336 281.264,-131.824 280.932,-144.37"/>
<polygon fill="black" stroke="black" points="277.425,-144.452 280.481,-154.596 284.419,-144.76 277.425,-144.452"/>
</g>
<!-- DS_DC&#45;&gt;DS_DF -->
<g id="edge19" class="edge"><title>DS_DC&#45;&gt;DS_DF</title>
<path fill="none" stroke="black" d="M259.319,-73.1159C250.712,-63.987 239.744,-52.3552 230.185,-42.2168"/>
<polygon fill="black" stroke="black" points="232.619,-39.6961 223.212,-34.8212 227.526,-44.4982 232.619,-39.6961"/>
</g>
</g>
</svg>
