<?xml version="1.0" encoding="UTF-8" standalone="no"?>
<!DOCTYPE svg PUBLIC "-//W3C//DTD SVG 1.1//EN"
 "http://www.w3.org/Graphics/SVG/1.1/DTD/svg11.dtd">
<!-- Generated by graphviz version 2.38.0 (20140413.2041)
 -->
<!-- Title: G Pages: 1 -->
<svg width="423pt" height="264pt"
 viewBox="0.00 0.00 422.50 264.00" xmlns="http://www.w3.org/2000/svg" xmlns:xlink="http://www.w3.org/1999/xlink">
<g id="graph0" class="graph" transform="scale(1 1) rotate(0) translate(4 260)">
<title>G</title>
<polygon fill="white" stroke="none" points="-4,4 -4,-260 418.5,-260 418.5,4 -4,4"/>
<!-- IsotropicDamage\n(IsotropicDamageStressPotential) -->
<g id="node1" class="node"><title>IsotropicDamage\n(IsotropicDamageStressPotential)</title>
<polygon fill="none" stroke="red" points="388,-38 188,-38 188,-0 388,-0 388,-38"/>
<text text-anchor="middle" x="288" y="-22.8" font-family="Times,serif" font-size="14.00">IsotropicDamage</text>
<text text-anchor="middle" x="288" y="-7.8" font-family="Times,serif" font-size="14.00">(IsotropicDamageStressPotential)</text>
</g>
<!-- Hooke\n(HookeStressPotential) -->
<g id="node2" class="node"><title>Hooke\n(HookeStressPotential)</title>
<polygon fill="none" stroke="red" points="143,-112 1,-112 1,-74 143,-74 143,-112"/>
<text text-anchor="middle" x="72" y="-96.8" font-family="Times,serif" font-size="14.00">Hooke</text>
<text text-anchor="middle" x="72" y="-81.8" font-family="Times,serif" font-size="14.00">(HookeStressPotential)</text>
</g>
<!-- DDIF2\n(DDIF2StressPotential) -->
<g id="node3" class="node"><title>DDIF2\n(DDIF2StressPotential)</title>
<polygon fill="none" stroke="red" points="144,-38 0,-38 0,-0 144,-0 144,-38"/>
<text text-anchor="middle" x="72" y="-22.8" font-family="Times,serif" font-size="14.00">DDIF2</text>
<text text-anchor="middle" x="72" y="-7.8" font-family="Times,serif" font-size="14.00">(DDIF2StressPotential)</text>
</g>
<!-- Hooke\n(HookeStressPotential)&#45;&gt;DDIF2\n(DDIF2StressPotential) -->
<g id="edge3" class="edge"><title>Hooke\n(HookeStressPotential)&#45;&gt;DDIF2\n(DDIF2StressPotential)</title>
<path fill="none" stroke="black" d="M72,-73.8314C72,-66.131 72,-56.9743 72,-48.4166"/>
<polygon fill="black" stroke="black" points="75.5001,-48.4132 72,-38.4133 68.5001,-48.4133 75.5001,-48.4132"/>
</g>
<!-- StressPotential -->
<g id="node4" class="node"><title>StressPotential</title>
<polygon fill="none" stroke="blue" points="228.5,-256 131.5,-256 131.5,-220 228.5,-220 228.5,-256"/>
<text text-anchor="middle" x="180" y="-234.3" font-family="Times,serif" font-size="14.00">StressPotential</text>
</g>
<!-- HookeStressPotentialBase -->
<g id="node5" class="node"><title>HookeStressPotentialBase</title>
<polygon fill="none" stroke="blue" points="259.5,-184 100.5,-184 100.5,-148 259.5,-148 259.5,-184"/>
<text text-anchor="middle" x="180" y="-162.3" font-family="Times,serif" font-size="14.00">HookeStressPotentialBase</text>
</g>
<!-- StressPotential&#45;&gt;HookeStressPotentialBase -->
<g id="edge1" class="edge"><title>StressPotential&#45;&gt;HookeStressPotentialBase</title>
<path fill="none" stroke="black" d="M180,-219.697C180,-211.983 180,-202.712 180,-194.112"/>
<polygon fill="black" stroke="black" points="183.5,-194.104 180,-184.104 176.5,-194.104 183.5,-194.104"/>
</g>
<!-- HookeStressPotentialBase&#45;&gt;Hooke\n(HookeStressPotential) -->
<g id="edge2" class="edge"><title>HookeStressPotentialBase&#45;&gt;Hooke\n(HookeStressPotential)</title>
<path fill="none" stroke="black" d="M154.131,-147.994C140.36,-138.94 123.201,-127.66 108.134,-117.755"/>
<polygon fill="black" stroke="black" points="109.824,-114.677 99.5455,-112.109 105.979,-120.527 109.824,-114.677"/>
</g>
<!-- IsotropicDamageHookeStressPotentialBase -->
<g id="node6" class="node"><title>IsotropicDamageHookeStressPotentialBase</title>
<polygon fill="none" stroke="blue" points="414.5,-111 161.5,-111 161.5,-75 414.5,-75 414.5,-111"/>
<text text-anchor="middle" x="288" y="-89.3" font-family="Times,serif" font-size="14.00">IsotropicDamageHookeStressPotentialBase</text>
</g>
<!-- HookeStressPotentialBase&#45;&gt;IsotropicDamageHookeStressPotentialBase -->
<g id="edge4" class="edge"><title>HookeStressPotentialBase&#45;&gt;IsotropicDamageHookeStressPotentialBase</title>
<path fill="none" stroke="black" d="M205.869,-147.994C220.058,-138.666 237.842,-126.974 253.23,-116.858"/>
<polygon fill="black" stroke="black" points="255.535,-119.532 261.968,-111.114 251.689,-113.682 255.535,-119.532"/>
</g>
<!-- IsotropicDamageHookeStressPotentialBase&#45;&gt;IsotropicDamage\n(IsotropicDamageStressPotential) -->
<g id="edge5" class="edge"><title>IsotropicDamageHookeStressPotentialBase&#45;&gt;IsotropicDamage\n(IsotropicDamageStressPotential)</title>
<path fill="none" stroke="black" d="M288,-74.937C288,-66.9865 288,-57.3134 288,-48.3127"/>
<polygon fill="black" stroke="black" points="291.5,-48.1991 288,-38.1992 284.5,-48.1992 291.5,-48.1991"/>
</g>
</g>
</svg>
