<?xml version="1.0" encoding="UTF-8" standalone="no"?>
<!-- Created with Inkscape (http://www.inkscape.org/) -->

<svg
   xmlns:dc="http://purl.org/dc/elements/1.1/"
   xmlns:cc="http://creativecommons.org/ns#"
   xmlns:rdf="http://www.w3.org/1999/02/22-rdf-syntax-ns#"
   xmlns:svg="http://www.w3.org/2000/svg"
   xmlns="http://www.w3.org/2000/svg"
   xmlns:xlink="http://www.w3.org/1999/xlink"
   xmlns:sodipodi="http://sodipodi.sourceforge.net/DTD/sodipodi-0.dtd"
   xmlns:inkscape="http://www.inkscape.org/namespaces/inkscape"
   id="svg4099"
   version="1.1"
   inkscape:version="0.48.2 r9819"
   width="354"
   height="289.09125"
   xml:space="preserve"
   sodipodi:docname="CEA_logo_quadri-sur-fond-rouge_CAD.svg"
   inkscape:export-filename="/tmp/CEA_logo_quadri-sur-fond-rouge_DEC.png"
   inkscape:export-xdpi="150"
   inkscape:export-ydpi="150"><metadata
     id="metadata4105"><rdf:RDF><cc:Work
         rdf:about=""><dc:format>image/svg+xml</dc:format><dc:type
           rdf:resource="http://purl.org/dc/dcmitype/StillImage" /><dc:title /></cc:Work></rdf:RDF></metadata><defs
     id="defs4103"><linearGradient
       x1="281.53152"
       y1="107.90339"
       x2="1.9333333"
       y2="230.67006"
       gradientUnits="userSpaceOnUse"
       gradientTransform="translate(0,0.724616)"
       spreadMethod="pad"
       id="linearGradient4113"><stop
         style="stop-opacity:1;stop-color:#870e12"
         offset="0"
         id="stop4115" /><stop
         style="stop-opacity:1;stop-color:#ed1c24"
         offset="1"
         id="stop4117" /></linearGradient><clipPath
       clipPathUnits="userSpaceOnUse"
       id="clipPath4125"><path
         d="m 60.551,60.945 162.359,0 0,-6.91 -162.359,0 0,6.91 z"
         id="path4127"
         inkscape:connector-curvature="0" /></clipPath><clipPath
       clipPathUnits="userSpaceOnUse"
       id="clipPath4133"><path
         d="M 0,0 284,0 284,232 0,232 0,0 z"
         id="path4135"
         inkscape:connector-curvature="0" /></clipPath><clipPath
       clipPathUnits="userSpaceOnUse"
       id="clipPath4137"><path
         d="m 59.988,61.633 163.719,0 0,-8.219 -163.719,0 0,8.219 z"
         id="path4139"
         inkscape:connector-curvature="0" /></clipPath><linearGradient
       y2="-50.820236"
       x2="226.86917"
       y1="-50.820236"
       x1="62.994095"
       gradientTransform="translate(-2.3589969,-2.4899626)"
       gradientUnits="userSpaceOnUse"
       id="linearGradient5773"
       xlink:href="#radialGradient3833"
       inkscape:collect="always" /><radialGradient
       id="radialGradient3833"
       spreadMethod="pad"
       gradientTransform="matrix(310.776,0,0,-355.921,281.07,-6.98801)"
       gradientUnits="userSpaceOnUse"
       r="1"
       cy="0"
       cx="0"
       fy="0"
       fx="0"><stop
         id="stop3835"
         offset="0"
         style="stop-color:#007c00;stop-opacity:1;" /><stop
         style="stop-color:#35ad00;stop-opacity:1;"
         offset="0.25"
         id="stop3865" /><stop
         style="stop-color:#67db00;stop-opacity:1;"
         offset="0.5"
         id="stop3847" /><stop
         id="stop3837"
         offset="1"
         style="stop-color:#81ff28;stop-opacity:1;" /></radialGradient><linearGradient
       inkscape:collect="always"
       xlink:href="#radialGradient3833"
       id="linearGradient5510"
       gradientUnits="userSpaceOnUse"
       gradientTransform="matrix(0.99906781,0,0,0.97537301,-2.3393686,-4.559036)"
       x1="62.994095"
       y1="-50.820236"
       x2="226.86917"
       y2="-50.820236" /><radialGradient
       inkscape:collect="always"
       xlink:href="#linearGradient4113"
       id="radialGradient5512"
       cx="82.355347"
       cy="444.31006"
       fx="82.355347"
       fy="444.31006"
       r="141.60001"
       gradientTransform="matrix(-2.0036488,-7.9405659e-7,1.3031744e-7,-3.6200877,448.24449,1609.4874)"
       gradientUnits="userSpaceOnUse" /></defs><sodipodi:namedview
     pagecolor="#ffffff"
     bordercolor="#666666"
     borderopacity="1"
     objecttolerance="10"
     gridtolerance="10"
     guidetolerance="10"
     inkscape:pageopacity="0"
     inkscape:pageshadow="2"
     inkscape:window-width="1289"
     inkscape:window-height="820"
     id="namedview4101"
     showgrid="false"
     showguides="true"
     inkscape:guide-bbox="true"
     inkscape:showpageshadow="false"
     showborder="true"
     inkscape:zoom="1.9401896"
     inkscape:cx="59.430847"
     inkscape:cy="91.579653"
     inkscape:window-x="513"
     inkscape:window-y="116"
     inkscape:window-maximized="0"
     inkscape:current-layer="g4107"
     fit-margin-top="0"
     fit-margin-left="0"
     fit-margin-right="0"
     fit-margin-bottom="0"><sodipodi:guide
       orientation="1,0"
       position="-0.60416667,310.23708"
       id="guide4398" /><sodipodi:guide
       orientation="1,0"
       position="354.04167,326.54958"
       id="guide4400" /><sodipodi:guide
       orientation="0,1"
       position="-15.104167,289.09125"
       id="guide4402" /><sodipodi:guide
       orientation="0,1"
       position="385.34373,-52.40875"
       id="guide4404" /><sodipodi:guide
       orientation="-0.70710678,0.70710678"
       position="-32.467987,254.64459"
       id="guide5514" /></sodipodi:namedview><g
     id="g4107"
     inkscape:groupmode="layer"
     inkscape:label="CEA_logo_quadri-sur-fond-rouge"
     transform="matrix(1.25,0,0,-1.25,0,290)"><g
   id="g4109"><g
     id="g4111"><path
       d="M 0,232 0,0.727 l 283.2,0 0,231.273 z m 200.648,-81.625 c 5.047,0 29.153,-2.246 29.153,-33.926 0,-0.383 -0.207,-25.597 0.023,-32.875 l -6.972,1.074 c -0.133,2.172 -0.239,5.004 -0.329,7.903 -4.578,-5.504 -11.882,-9.528 -23.421,-9.528 -17.454,0 -23.18,5.36 -25.977,9.102 -4.563,-2.953 -18.25,-9.074 -30.574,-9.074 -15.563,0 -22.762,7.804 -24.574,10.972 -2.622,-1.683 -16.981,-10.972 -33.903,-10.972 -27.961,0 -30.554,23.914 -30.426,33.676 -0.128,9.738 2.204,33.625 30.676,33.625 7.114,0 15.336,-2.188 21.574,-4.625 l 0.579,-8.352 C 103.168,138.91 93.445,143 83.773,143 66.578,143 60.148,129.5 60.148,116.699 c 0,-13.203 6.879,-26.273 23.625,-26.273 14.098,0 26.372,7.418 30.875,10.347 -1.664,4.586 -2.64,9.809 -2.796,14.829 -0.356,11.468 2.386,20.304 8.171,26.273 3.602,3.711 11.211,8.477 22.278,8.477 10.812,0 22.89,-3.805 24.574,-11.926 1.863,-9.004 -13.359,-20.406 -42.75,-40.176 2.148,-2.871 7.047,-7.824 18.5,-7.824 10.746,0 22.848,5.34 29.699,9.972 2.414,9.399 18.371,20.735 45.153,34.829 -4.055,5.148 -10.043,7.75 -17.829,7.75 -9.882,0 -19.804,-4.25 -22.898,-5.704 l 0.574,8.352 c 7.957,3.137 15.496,4.75 23.324,4.75 z m -58.125,-6.852 c -7.808,0 -13.863,-2.39 -17.949,-7.074 -7.894,-9.051 -5.969,-23.851 -5.949,-24 0.469,-2.746 1.176,-5.304 2.074,-7.574 14.199,8.422 25.188,17.754 25.301,17.852 10.883,8.714 13.27,11.949 12.727,14.472 -0.731,3.375 -7.778,6.324 -16.204,6.324 z m 78.329,-14.574 c -37.223,-19.722 -43.219,-28.078 -41.375,-32.222 0,0 1.714,-6.754 19.523,-6.602 7.812,0.066 13.965,2.141 18.051,6.824 7.89,9.051 5.969,23.852 5.949,24 -0.469,2.77 -1.242,5.715 -2.148,8 z"
       style="fill:url(#radialGradient5512);fill-opacity:1;fill-rule:nonzero;stroke:none"
       id="path4119"
       inkscape:connector-curvature="0"
       sodipodi:nodetypes="cccccsscccscscscsccssscccsccsccsccsscccccscccccc" /></g></g><rect
   ry="0"
   y="-60.937489"
   x="60.400002"
   height="6.8800001"
   width="162.39999"
   id="rect3823"
   style="fill:url(#linearGradient5510);fill-opacity:1;stroke:none"
   transform="scale(1,-1)" /><text
   xml:space="preserve"
   style="font-size:29.08040428px;font-style:normal;font-variant:normal;font-weight:normal;font-stretch:normal;text-align:center;line-height:125%;letter-spacing:0px;word-spacing:0px;writing-mode:lr-tb;text-anchor:middle;fill:#9cc226;fill-opacity:1;stroke:none;font-family:Bitstream Vera Sans;-inkscape-font-specification:Bitstream Vera Sans"
   x="153.80785"
   y="-16.278641"
   id="text4050"
   sodipodi:linespacing="125%"
   transform="scale(0.92139481,-1.0853111)"><tspan
     sodipodi:role="line"
     id="tspan4052"
     x="153.80785"
     y="-16.278641">CADARACHE</tspan></text>




<path
   style="fill:#ffffff;fill-opacity:1;fill-rule:nonzero;stroke:none"
   d="m 154.57524,181.0894 1.37501,0 0.85,-1.3 -0.925,0 z m -47.62513,-2.25 c 1.23501,0 1.97001,-0.555 2.27501,-1.7 l -1.125,-0.275 c -0.18,0.543 -0.57,0.925 -1.17501,0.925 -0.824,0 -1.325,-0.763 -1.325,-2.275 -0.02,-1.511 0.421,-2.275 1.35,-2.275 0.55901,0 0.90701,0.188 1.27501,0.95 l 1.15,-0.3 c -0.387,-1.117 -1.241,-1.7 -2.42501,-1.7 -1.644,0 -2.575,1.212 -2.575,3.325 0,2.113 0.931,3.325 2.575,3.325 z m 26.17507,0 c 1.234,0 1.945,-0.555 2.25001,-1.7 l -1.12501,-0.275 c -0.18,0.543 -0.545,0.925 -1.15,0.925 -0.825,0 -1.325,-0.763 -1.325,-2.275 -0.015,-1.511 0.42,-2.275 1.35,-2.275 0.555,0 0.883,0.188 1.25,0.95 l 1.15001,-0.3 c -0.38201,-1.117 -1.22001,-1.7 -2.40001,-1.7 -1.645,0 -2.60001,1.212 -2.60001,3.325 0,2.113 0.95501,3.325 2.60001,3.325 z m 64.95017,0 c 1.039,0 1.888,-0.538 2.27501,-1.475 l -1.12501,-0.35 c -0.192,0.5 -0.568,0.85 -1.15,0.85 -0.535,0 -0.925,-0.225 -0.925,-0.725 0,-1.109 3.32501,-0.856 3.32501,-2.95 0,-1.324 -0.84101,-2 -2.27501,-2 -1.054,0 -2.033,0.588 -2.40001,1.525 l 1.02501,0.45 c 0.293,-0.61 0.673,-1 1.4,-1 0.617,0 1.075,0.225 1.075,0.85 0,1.27 -3.32501,1.016 -3.32501,3 0,1.156 0.98301,1.825 2.10001,1.825 z m -137.650349,-0.1 2.150005,0 c 1.711005,0 2.888007,-0.944 2.900007,-3.225 -0.012,-2.281 -1.189002,-3.225 -2.900007,-3.225 l -2.150005,0 z m 6.725017,0 4.27501,0 0,-1.025 -3.050007,0 0,-1.55 2.225005,0 0,-1.025 -2.225005,0 0,-1.825 3.150007,0 0,-1.025 -4.37501,0 z m 9.550023,0 1.225003,0 0,-5.425 2.800007,0 0,-1.025 -4.02501,0 z m 6.950017,0 1.525004,0 1.850005,-6.45 -1.225003,0 -0.375001,1.4 -2.025005,0 -0.400001,-1.4 -1.225003,0 z m 8.300021,0 2.600006,0 c 1.465004,0 2.038005,-0.833 2.050005,-1.9 0.007,-0.793 -0.390001,-1.453 -1.175003,-1.675 l 1.425004,-2.875 -1.375003,0 -1.225003,2.625 -1.050003,0 0,-2.625 -1.250003,0 z m 6.725016,0 4.275015,0 0,-1.025 -3.025011,0 0,-1.55 2.200001,0 0,-1.025 -2.200001,0 0,-1.825 3.125011,0 0,-1.025 -4.375015,0 z m 12.350025,0 1.22501,0 0,-2.575 2.5,0 0,2.575 1.22501,0 0,-6.45 -1.22501,0 0,2.775 -2.5,0 0,-2.775 -1.22501,0 z m 7.15002,0 4.27501,0 0,-1.025 -3.025,0 0,-1.55 2.2,0 0,-1.025 -2.2,0 0,-1.825 3.125,0 0,-1.025 -4.37501,0 z m 6.12502,0 2.575,0 c 1.46901,0 2.03801,-0.833 2.05001,-1.9 0.008,-0.793 -0.386,-1.453 -1.175,-1.675 l 1.425,-2.875 -1.375,0 -1.20001,2.625 -1.075,0 0,-2.625 -1.225,0 z m 12.87503,0 1.25,0 0,-2.575 2.47501,0 0,2.575 1.25,0 0,-6.45 -1.25,0 0,2.775 -2.47501,0 0,-2.775 -1.25,0 z m 7.17502,0 4.27502,0 0,-1.025 -3.05002,0 0,-1.55 2.20002,0 0,-1.025 -2.20002,0 0,-1.825 3.15002,0 0,-1.025 -4.37502,0 z m 10.97503,0 1.52501,0 1.85,-6.45 -1.25,0 -0.35,1.4 -2.02501,0 -0.4,-1.4 -1.225,0 z m 8.47503,0 1.225,0 0,-5.425 2.82501,0 0,-1.025 -4.05001,0 z m 4.45001,0 1.225,0 0,-1.275 -0.575,-1.325 -0.575,0 0.45,1.325 -0.525,0 z m 3.425,0 1.22501,0 0,-6.45 -1.22501,0 z m 3.52501,0 1.30001,0 2.525,-4.4 0.025,0 0,4.4 1.17501,0 0,-6.45 -1.20001,0 -2.65,4.6 0,-4.6 -1.17501,0 z m 7.15002,0 2.12501,0 c 1.707,0 2.892,-0.944 2.9,-3.225 -0.008,-2.281 -1.193,-3.225 -2.9,-3.225 l -2.12501,0 z m 6.70002,0 1.25,0 0,-4.1 c 0,-1.047 0.418,-1.4 1.25,-1.4 0.83201,0 1.22501,0.353 1.22501,1.4 l 0,4.1 1.25,0 0,-4.05 c 0,-1.887 -1.163,-2.5 -2.47501,-2.5 -1.317,0 -2.5,0.613 -2.5,2.5 z m 12.77503,0 4.60001,0 0,-1.025 -1.675,0 0,-5.425 -1.25001,0 0,5.425 -1.675,0 z m 6.17501,0 2.575,0 c 1.469,0 2.06801,-0.833 2.07501,-1.9 0.012,-0.793 -0.39,-1.453 -1.17501,-1.675 l 1.42501,-2.875 -1.37501,0 -1.225,2.625 -1.04999,0 0,-2.625 -1.25001,0 z m 6.85001,0 1.225,0 0,-6.45 -1.225,0 z m 3.55001,0 4.30001,0 0,-1.025 -3.05001,0 0,-1.55 2.20001,0 0,-1.025 -2.20001,0 0,-1.825 3.12501,0 0,-1.025 -4.37501,0 z m -125.200308,-1 0,-1.825 0.900002,0 c 0.964003,0 1.275003,0.32 1.275003,0.925 0,0.61 -0.366001,0.9 -1.050002,0.9 z m 32.325078,0 0,-1.825 0.925,0 c 0.96901,0 1.25001,0.32 1.25001,0.925 0,0.61 -0.366,0.9 -1.05001,0.9 z m 83.72522,0 0,-1.825 0.89999,0 c 0.969,0 1.275,0.32 1.275,0.925 0,0.61 -0.37,0.9 -1.05,0.9 z m -147.575376,-0.025 0,-4.4 0.800002,0 c 1.414004,0 1.750004,1.044 1.750004,2.2 0,1.156 -0.336,2.2 -1.750004,2.2 z m 121.900306,0 0,-4.4 0.82501,0 c 1.418,0 1.75,1.044 1.75,2.2 0,1.156 -0.332,2.2 -1.75,2.2 z m -99.15025,-0.2 -0.750002,-2.825 1.500004,0 -0.725002,2.825 z m 71.67519,0 -0.77501,-2.825 1.50001,0 z"
   id="path4119-0"
   inkscape:connector-curvature="0"
   sodipodi:nodetypes="cccccsccscsccssssccscsccssssccssssccsssscscsccccccccccccccccccccccccccccccccscccccccccccccccccccccccccccccccccccccccccccccccccscccccccccccccccccccccccccccccccccccccccccccccccccccccccccccccccccccccccccccccscsccccsssccssscccccccccccscccccccccccccccccccccccccccccssscccssscccssscccssscccssscccccccccc" /></g></svg>