<?xml version="1.0" encoding="UTF-8" standalone="no"?>
<!-- Created with Inkscape (http://www.inkscape.org/) -->

<svg
   xmlns:dc="http://purl.org/dc/elements/1.1/"
   xmlns:cc="http://creativecommons.org/ns#"
   xmlns:rdf="http://www.w3.org/1999/02/22-rdf-syntax-ns#"
   xmlns:svg="http://www.w3.org/2000/svg"
   xmlns="http://www.w3.org/2000/svg"
   xmlns:xlink="http://www.w3.org/1999/xlink"
   xmlns:sodipodi="http://sodipodi.sourceforge.net/DTD/sodipodi-0.dtd"
   xmlns:inkscape="http://www.inkscape.org/namespaces/inkscape"
   id="svg5093"
   version="1.1"
   inkscape:version="0.47 r22583"
   width="22338.871"
   height="289.07983"
   xml:space="preserve"
   sodipodi:docname="CEA_logo_quadri-sur-fond-rouge.svg"><metadata
     id="metadata5099"><rdf:RDF><cc:Work
         rdf:about=""><dc:format>image/svg+xml</dc:format><dc:type
           rdf:resource="http://purl.org/dc/dcmitype/StillImage" /><dc:title></dc:title></cc:Work></rdf:RDF></metadata><defs
     id="defs5097"><inkscape:perspective
       sodipodi:type="inkscape:persp3d"
       inkscape:vp_x="0 : 0.5 : 1"
       inkscape:vp_y="0 : 1000 : 0"
       inkscape:vp_z="1 : 0.5 : 1"
       inkscape:persp3d-origin="0.5 : 0.33333333 : 1"
       id="perspective5101" /><clipPath
       clipPathUnits="userSpaceOnUse"
       id="clipPath5111"><path
         d="M 2834.64,0.03125 0,0.03125 0,2312.67 l 2834.64,0 0,-2312.63875 M 605.52,602.219 l 0,-69.117 1623.6,0 0,69.117 -1623.6,0"
         id="path5113" /></clipPath><radialGradient
       fx="0"
       fy="0"
       cx="0"
       cy="0"
       r="1"
       gradientUnits="userSpaceOnUse"
       gradientTransform="matrix(310.776,0,0,-355.921,281.07,-6.98801)"
       spreadMethod="pad"
       id="radialGradient5115"><stop
         style="stop-color:#810000;stop-opacity:1;"
         offset="0"
         id="stop5117" /><stop
         style="stop-color:#ff0000;stop-opacity:1;"
         offset="1"
         id="stop5119" /></radialGradient><clipPath
       clipPathUnits="userSpaceOnUse"
       id="clipPath5127"><path
         d="M 0,2312.67 0,0 l 2834.65,0 0,2312.67 -2834.65,0 z"
         id="path5129" /></clipPath><clipPath
       clipPathUnits="userSpaceOnUse"
       id="clipPath5187"><path
         d="m 2229.12,533.102 -1623.6,0 0,69.117 1623.6,0 0,-69.117"
         id="path5189" /></clipPath><radialGradient
       inkscape:collect="always"
       xlink:href="#radialGradient5115"
       id="radialGradient5750"
       cx="2834.6399"
       cy="-260.96936"
       fx="2834.6399"
       fy="-260.96936"
       r="1417.3199"
       gradientTransform="matrix(-2.1162846,-0.00300968,0.00301488,-2.1199468,8834.3316,-544.67861)"
       gradientUnits="userSpaceOnUse" /><inkscape:perspective
       id="perspective5762"
       inkscape:persp3d-origin="0.5 : 0.33333333 : 1"
       inkscape:vp_z="1 : 0.5 : 1"
       inkscape:vp_y="0 : 1000 : 0"
       inkscape:vp_x="0 : 0.5 : 1"
       sodipodi:type="inkscape:persp3d" /><linearGradient
       inkscape:collect="always"
       xlink:href="#radialGradient3833"
       id="linearGradient4059"
       gradientUnits="userSpaceOnUse"
       gradientTransform="translate(-2.8049586,-1.9454431)"
       x1="65.769257"
       y1="-50.878063"
       x2="229.42392"
       y2="-50.878063" /><radialGradient
       id="radialGradient3833"
       spreadMethod="pad"
       gradientTransform="matrix(310.776,0,0,-355.921,281.07,-6.98801)"
       gradientUnits="userSpaceOnUse"
       r="1"
       cy="0"
       cx="0"
       fy="0"
       fx="0"><stop
         id="stop3835"
         offset="0"
         style="stop-color:#008100;stop-opacity:1;" /><stop
         style="stop-color:#3fc900;stop-opacity:1;"
         offset="0.25"
         id="stop3865" /><stop
         style="stop-color:#6ff100;stop-opacity:1;"
         offset="0.5"
         id="stop3847" /><stop
         id="stop3837"
         offset="1"
         style="stop-color:#81ff28;stop-opacity:1;" /></radialGradient><linearGradient
       y2="-50.820236"
       x2="226.86917"
       y1="-50.820236"
       x1="62.994095"
       gradientTransform="translate(-2.3589969,-2.4899626)"
       gradientUnits="userSpaceOnUse"
       id="linearGradient5773"
       xlink:href="#radialGradient3833"
       inkscape:collect="always" /><radialGradient
       inkscape:collect="always"
       xlink:href="#radialGradient5115"
       id="radialGradient2869"
       gradientUnits="userSpaceOnUse"
       gradientTransform="matrix(-2.1162846,-0.00300968,0.00301488,-2.1199468,8834.3316,-544.67861)"
       cx="2834.6399"
       cy="-260.96936"
       fx="2834.6399"
       fy="-260.96936"
       r="1417.3199" /><radialGradient
       inkscape:collect="always"
       xlink:href="#radialGradient5115"
       id="radialGradient2871"
       gradientUnits="userSpaceOnUse"
       gradientTransform="matrix(-2.1162846,-0.00300968,0.00301488,-2.1199468,8834.3316,-544.67861)"
       cx="2834.6399"
       cy="-260.96936"
       fx="2834.6399"
       fy="-260.96936"
       r="1417.3199" /><radialGradient
       inkscape:collect="always"
       xlink:href="#radialGradient5115"
       id="radialGradient2875"
       gradientUnits="userSpaceOnUse"
       gradientTransform="matrix(-2.1162846,-0.00300968,0.00301488,-2.1199468,8834.3316,-544.67861)"
       cx="2834.6399"
       cy="-260.96936"
       fx="2834.6399"
       fy="-260.96936"
       r="1417.3199" /><radialGradient
       inkscape:collect="always"
       xlink:href="#radialGradient5115"
       id="radialGradient2877"
       gradientUnits="userSpaceOnUse"
       gradientTransform="matrix(-2.1162846,-0.00300968,0.00301488,-2.1199468,8834.3316,-544.67861)"
       cx="2834.6399"
       cy="-260.96936"
       fx="2834.6399"
       fy="-260.96936"
       r="1417.3199" /><radialGradient
       inkscape:collect="always"
       xlink:href="#radialGradient5115"
       id="radialGradient2880"
       gradientUnits="userSpaceOnUse"
       gradientTransform="matrix(-13.342198,-3.00968e-4,0.01900743,-0.21199468,55696.385,-54.467861)"
       cx="2834.6399"
       cy="-260.96936"
       fx="2834.6399"
       fy="-260.96936"
       r="1417.3199" /></defs><sodipodi:namedview
     pagecolor="#ffffff"
     bordercolor="#666666"
     borderopacity="1"
     objecttolerance="10"
     gridtolerance="10"
     guidetolerance="10"
     inkscape:pageopacity="0"
     inkscape:pageshadow="2"
     inkscape:window-width="1451"
     inkscape:window-height="842"
     id="namedview5095"
     showgrid="false"
     showguides="true"
     inkscape:guide-bbox="true"
     inkscape:zoom="2.4180172"
     inkscape:cx="22038.767"
     inkscape:cy="143.71281"
     inkscape:window-x="63"
     inkscape:window-y="27"
     inkscape:window-maximized="0"
     inkscape:current-layer="g5103"><sodipodi:guide
       orientation="-0.70710678,0.70710678"
       position="212.15116,232.21952"
       id="guide5232" /><sodipodi:guide
       orientation="0,1"
       position="71.532882,75.36099"
       id="guide5798" /><sodipodi:guide
       orientation="1,0"
       position="75.548632,76.486901"
       id="guide5800" /><sodipodi:guide
       orientation="1,0"
       position="278.73805,76.186658"
       id="guide5844" /></sodipodi:namedview><g
     id="g5103"
     inkscape:groupmode="layer"
     inkscape:label="ink_ext_XXXXXX"
     transform="matrix(1.25,0,0,-1.25,0,289.08375)"><path
       id="path5121"
       style="fill:url(#radialGradient2880);fill-opacity:1;fill-rule:nonzero;stroke:none"
       d="M 17871.097,0.003125 0,0.003125 0,231.267 l 17871.097,0 0,-231.263875"
       sodipodi:nodetypes="ccccc" /><g
       id="g5123"
       transform="scale(0.1,0.1)"><g
         clip-path="url(#clipPath5127)"
         id="g5125"><path
           id="path5131"
           style="fill:#ffffff;fill-opacity:1;fill-rule:nonzero;stroke:none"
           d="m 617.883,1725.31 8.23,0 c 14.141,0 17.449,10.37 17.449,21.92 0,11.54 -3.308,21.92 -17.449,21.92 l -8.23,0 0,-43.84 z m -12.356,54.22 21.387,0 c 17.102,0 28.906,-9.48 28.992,-32.3 -0.086,-22.83 -11.89,-32.31 -28.992,-32.31 l -21.387,0 0,64.61" /><path
           id="path5133"
           style="fill:#ffffff;fill-opacity:1;fill-rule:nonzero;stroke:none"
           d="m 672.742,1714.92 0,64.61 42.785,0 0,-10.38 -30.429,0 0,-15.38 22.097,0 0,-10.39 -22.097,0 0,-18.07 31.406,0 0,-10.39 -43.762,0" /><path
           id="path5135"
           style="fill:#ffffff;fill-opacity:1;fill-rule:nonzero;stroke:none"
           d="m 768.164,1714.92 0,64.61 12.356,0 0,-54.22 28.093,0 0,-10.39 -40.449,0" /><path
           id="path5137"
           style="fill:#ffffff;fill-opacity:1;fill-rule:nonzero;stroke:none"
           d="m 837.891,1739.08 15.031,0 -7.246,28.11 -0.188,0 -7.597,-28.11 z m -0.188,40.54 15.402,0 18.34,-64.7 -12.257,0 -3.583,13.97 -20.402,0 -3.848,-13.97 -12.261,0 18.609,64.7" /><path
           id="path5139"
           style="fill:#ffffff;fill-opacity:1;fill-rule:nonzero;stroke:none"
           d="m 933.215,1751.26 9.129,0 c 9.66,0 12.617,3.04 12.617,9.12 0,6.08 -3.672,9.13 -10.481,9.13 l -11.265,0 0,-18.25 z m -12.356,-36.34 0,64.61 25.782,0 c 14.668,0 20.578,-8.49 20.664,-19.15 0.09,-7.96 -3.938,-14.4 -11.809,-16.64 l 14.231,-28.82 -13.692,0 -12.18,26.31 -10.64,0 0,-26.31 -12.356,0" /><path
           id="path5141"
           style="fill:#ffffff;fill-opacity:1;fill-rule:nonzero;stroke:none"
           d="m 988.086,1714.92 0,64.61 42.774,0 0,-10.38 -30.43,0 0,-15.38 22.1,0 0,-10.39 -22.1,0 0,-18.07 31.41,0 0,-10.39 -43.754,0" /><path
           id="path5143"
           style="fill:#ffffff;fill-opacity:1;fill-rule:nonzero;stroke:none"
           d="m 1082.24,1760.74 c -1.79,5.46 -5.64,9.31 -11.72,9.31 -8.23,0 -13.24,-7.7 -13.24,-22.82 -0.19,-15.12 4.28,-22.83 13.59,-22.83 5.56,0 8.95,1.98 12.62,9.58 l 11.45,-3.04 c -3.85,-11.19 -12.25,-16.91 -24.07,-16.91 -16.47,0 -25.95,12.07 -25.95,33.2 0,21.12 9.48,33.2 25.95,33.2 12.35,0 19.51,-5.55 22.56,-17 l -11.19,-2.69" /><path
           id="path5145"
           style="fill:#ffffff;fill-opacity:1;fill-rule:nonzero;stroke:none"
           d="m 1111.43,1714.92 0,64.61 12.34,0 0,-25.76 24.88,0 0,25.76 12.35,0 0,-64.61 -12.35,0 0,27.74 -24.88,0 0,-27.74 -12.34,0" /><path
           id="path5147"
           style="fill:#ffffff;fill-opacity:1;fill-rule:nonzero;stroke:none"
           d="m 1183.03,1714.92 0,64.61 42.77,0 0,-10.38 -30.42,0 0,-15.38 22.1,0 0,-10.39 -22.1,0 0,-18.07 31.41,0 0,-10.39 -43.76,0" /><path
           id="path5149"
           style="fill:#ffffff;fill-opacity:1;fill-rule:nonzero;stroke:none"
           d="m 1256.51,1751.26 9.12,0 c 9.67,0 12.63,3.04 12.63,9.12 0,6.08 -3.67,9.13 -10.48,9.13 l -11.27,0 0,-18.25 z m -12.35,-36.34 0,64.61 25.77,0 c 14.68,0 20.59,-8.49 20.68,-19.15 0.08,-7.96 -3.94,-14.4 -11.82,-16.64 l 14.23,-28.82 -13.69,0 -12.17,26.31 -10.65,0 0,-26.31 -12.35,0" /><path
           id="path5151"
           style="fill:#ffffff;fill-opacity:1;fill-rule:nonzero;stroke:none"
           d="m 1343.87,1760.74 c -1.8,5.46 -5.65,9.31 -11.73,9.31 -8.23,0 -13.24,-7.7 -13.24,-22.82 -0.18,-15.12 4.29,-22.83 13.6,-22.83 5.55,0 8.95,1.98 12.62,9.58 l 11.45,-3.04 c -3.85,-11.19 -12.26,-16.91 -24.07,-16.91 -16.46,0 -25.95,12.07 -25.95,33.2 0,21.12 9.49,33.2 25.95,33.2 12.34,0 19.51,-5.55 22.55,-17 l -11.18,-2.69" /><path
           id="path5153"
           style="fill:#ffffff;fill-opacity:1;fill-rule:nonzero;stroke:none"
           d="m 1373.05,1714.92 0,64.61 12.35,0 0,-25.76 24.87,0 0,25.76 12.36,0 0,-64.61 -12.36,0 0,27.74 -24.87,0 0,-27.74 -12.35,0" /><path
           id="path5155"
           style="fill:#ffffff;fill-opacity:1;fill-rule:nonzero;stroke:none"
           d="m 1444.65,1714.92 0,64.61 42.77,0 0,-10.38 -30.42,0 0,-15.38 22.1,0 0,-10.39 -22.1,0 0,-18.07 31.42,0 0,-10.39 -43.77,0" /><path
           id="path5157"
           style="fill:#ffffff;fill-opacity:1;fill-rule:nonzero;stroke:none"
           d="m 1554.58,1739.08 15.02,0 -7.25,28.11 -0.17,0 -7.6,-28.11 z m 6.25,63.87 8.42,-13.07 -9.13,0 -13.06,13.07 13.77,0 z m -6.44,-23.33 15.4,0 18.34,-64.7 -12.26,0 -3.58,13.97 -20.41,0 -3.83,-13.97 -12.27,0 18.61,64.7" /><path
           id="path5159"
           style="fill:#ffffff;fill-opacity:1;fill-rule:nonzero;stroke:none"
           d="m 1639.17,1714.92 0,64.61 12.35,0 0,-54.22 28.11,0 0,-10.39 -40.46,0" /><path
           id="path5161"
           style="fill:#ffffff;fill-opacity:1;fill-rule:nonzero;stroke:none"
           d="m 1689.03,1766.82 -5.37,0 0,12.71 12.36,0 0,-12.71 -5.73,-13.42 -5.81,0 4.55,13.42" /><path
           id="path5163"
           style="fill:#ffffff;fill-opacity:1;fill-rule:nonzero;stroke:none"
           d="m 1717.95,1714.92 12.3516,0 0,64.6094 -12.3516,0 0,-64.6094 z" /><path
           id="path5165"
           style="fill:#ffffff;fill-opacity:1;fill-rule:nonzero;stroke:none"
           d="m 1753.3,1714.92 0,64.61 12.88,0 25.42,-44.02 0.18,0 0,44.02 11.64,0 0,-64.61 -11.91,0 -26.39,46 -0.19,0 0,-46 -11.63,0" /><path
           id="path5167"
           style="fill:#ffffff;fill-opacity:1;fill-rule:nonzero;stroke:none"
           d="m 1836.98,1725.31 8.23,0 c 14.15,0 17.47,10.37 17.47,21.92 0,11.54 -3.32,21.92 -17.47,21.92 l -8.23,0 0,-43.84 z m -12.34,54.22 21.39,0 c 17.1,0 28.9,-9.48 28.99,-32.3 -0.09,-22.83 -11.89,-32.31 -28.99,-32.31 l -21.39,0 0,64.61" /><path
           id="path5169"
           style="fill:#ffffff;fill-opacity:1;fill-rule:nonzero;stroke:none"
           d="m 1929.09,1779.53 12.35,0 0,-40.45 c 0,-18.88 -11.64,-25.05 -24.79,-25.05 -13.16,0 -24.78,6.17 -24.78,25.05 l 0,40.45 12.34,0 0,-40.99 c 0,-10.47 4.11,-14.14 12.44,-14.14 8.32,0 12.44,3.67 12.44,14.14 l 0,40.99" /><path
           id="path5171"
           style="fill:#ffffff;fill-opacity:1;fill-rule:nonzero;stroke:none"
           d="m 1993.44,1762.35 c -1.88,5.01 -5.73,8.41 -11.55,8.41 -5.37,0 -9.2,-2.15 -9.2,-7.16 0,-11.09 33.28,-8.77 33.28,-29.71 0,-13.24 -8.32,-19.86 -22.64,-19.86 -10.56,0 -20.49,5.91 -24.16,15.31 l 10.21,4.47 c 2.94,-6.09 6.79,-10.12 14.04,-10.12 6.17,0 10.92,2.33 10.92,8.6 0,12.71 -33.29,10.2 -33.29,30.06 0,11.54 9.66,18.08 20.84,18.08 10.39,0 18.98,-5.2 22.83,-14.59 l -11.28,-3.49" /><path
           id="path5173"
           style="fill:#ffffff;fill-opacity:1;fill-rule:nonzero;stroke:none"
           d="m 2065.58,1779.62 0,-10.38 -16.91,0 0,-54.32 -12.35,0 0,54.32 -16.92,0 0,10.38 46.18,0" /><path
           id="path5175"
           style="fill:#ffffff;fill-opacity:1;fill-rule:nonzero;stroke:none"
           d="m 2093.69,1751.26 9.13,0 c 9.67,0 12.62,3.04 12.62,9.12 0,6.08 -3.67,9.13 -10.47,9.13 l -11.28,0 0,-18.25 z m -12.34,-36.34 0,64.61 25.77,0 c 14.68,0 20.58,-8.49 20.67,-19.15 0.09,-7.96 -3.94,-14.4 -11.81,-16.64 l 14.23,-28.82 -13.71,0 -12.15,26.31 -10.66,0 0,-26.31 -12.34,0" /><path
           id="path5177"
           style="fill:#ffffff;fill-opacity:1;fill-rule:nonzero;stroke:none"
           d="m 2149.73,1714.92 12.3477,0 0,64.6094 -12.3477,0 0,-64.6094 z" /><path
           id="path5179"
           style="fill:#ffffff;fill-opacity:1;fill-rule:nonzero;stroke:none"
           d="m 2185.35,1714.92 0,64.61 42.78,0 0,-10.38 -30.43,0 0,-15.38 22.1,0 0,-10.39 -22.1,0 0,-18.07 31.41,0 0,-10.39 -43.76,0" /><path
           id="path5181"
           style="fill:#ffffff;fill-opacity:1;fill-rule:nonzero;stroke:none"
           d="m 2170.51,962.18 c -40.86,-46.852 -102.31,-67.41 -180.43,-68.09 -178.07,-1.539 -195.42,65.988 -195.42,65.988 -18.42,41.452 41.65,125.002 413.88,322.252 9.09,-22.86 16.73,-52.32 21.42,-80.02 0.21,-1.47 19.48,-149.62 -59.45,-240.13 z m -984.17,155.01 c -0.2,1.47 -19.47,149.62 59.47,240.14 40.86,46.85 101.21,70.59 179.33,70.59 84.24,0 154.84,-29.33 162.14,-63.08 5.44,-25.23 -18.43,-57.56 -127.25,-144.74 -1.13,-0.97 -111.15,-94.3 -253.13,-178.54 -8.98,22.7 -15.88,48.17 -20.56,75.63 z m 1111.58,40.17 c 0,316.8 -240.9,339.23 -291.34,339.23 -78.3,0 -153.88,-16.27 -233.45,-47.63 l -5.58,-83.47 c 30.93,14.51 130.09,57.1 228.94,57.1 77.84,0 137.79,-26.1 178.34,-77.6 -267.78,-140.9 -427.55,-254.16 -451.68,-348.15 -68.53,-46.352 -189.33,-99.82 -296.79,-99.82 -114.55,0 -163.75,49.468 -185.23,78.179 293.89,197.691 446.21,311.751 427.57,401.781 -16.82,81.24 -137.54,119.37 -245.67,119.37 -110.66,0 -186.68,-47.77 -222.67,-84.87 -57.86,-59.68 -85.41,-148.1 -81.89,-262.8 1.58,-50.16 11.44,-102.42 28.1,-148.26 -45.04,-29.318 -167.836,-103.541 -308.812,-103.541 -167.461,0 -236.348,130.831 -236.348,262.881 0,128.02 64.387,263 236.348,263 96.711,0 193.872,-40.83 226.952,-56.17 l -5.59,83.31 c -62.405,24.4 -144.632,46.47 -215.765,46.47 -284.746,0 -308.242,-239.04 -306.953,-336.45 -1.289,-97.6 24.715,-336.619 304.336,-336.619 169.202,0 312.872,92.898 339.082,109.758 18.14,-31.68 90.13,-109.77 245.76,-109.77 123.25,0 260.05,61.289 305.67,90.82 27.97,-37.418 85.17,-91.019 259.68,-91.019 115.4,0 188.5,40.019 234.29,95.051 0.89,-28.981 1.94,-57.211 3.25,-78.922 l 69.83,-10.758 c -2.32,72.769 -0.38,325.049 -0.38,328.899" /></g></g><g
       id="g5183"
       transform="matrix(0.1,0,0,0.1,0.5495312,-42.037795)"><g
         clip-path="url(#clipPath5187)"
         id="g5185"><g
           transform="matrix(1637.2,0,0,82.2,599.9,526.9)"
           id="g5191" /></g></g><rect
       ry="0"
       y="-60.291916"
       x="60.438904"
       height="7.0537119"
       width="162.55153"
       id="rect3823"
       style="fill:url(#linearGradient5773);fill-opacity:1;stroke:none"
       transform="scale(1,-1)" /></g></svg>