<?xml version="1.0" encoding="UTF-8" standalone="no"?>
<!-- Created with Inkscape (http://www.inkscape.org/) -->
<svg
   xmlns:dc="http://purl.org/dc/elements/1.1/"
   xmlns:cc="http://creativecommons.org/ns#"
   xmlns:rdf="http://www.w3.org/1999/02/22-rdf-syntax-ns#"
   xmlns:svg="http://www.w3.org/2000/svg"
   xmlns="http://www.w3.org/2000/svg"
   xmlns:sodipodi="http://sodipodi.sourceforge.net/DTD/sodipodi-0.dtd"
   xmlns:inkscape="http://www.inkscape.org/namespaces/inkscape"
   id="svg2541"
   sodipodi:version="0.32"
   inkscape:version="0.46"
   width="476.07376"
   height="444.58688"
   xml:space="preserve"
   sodipodi:docname="ceaeaDEC.svg"
   inkscape:output_extension="org.inkscape.output.svg.inkscape"
   version="1.0"><metadata
     id="metadata2546"><rdf:RDF><cc:Work
         rdf:about=""><dc:format>image/svg+xml</dc:format><dc:type
           rdf:resource="http://purl.org/dc/dcmitype/StillImage" /></cc:Work></rdf:RDF></metadata><defs
     id="defs2544"><inkscape:perspective
       sodipodi:type="inkscape:persp3d"
       inkscape:vp_x="0 : 526.18109 : 1"
       inkscape:vp_y="0 : 1000 : 0"
       inkscape:vp_z="744.09448 : 526.18109 : 1"
       inkscape:persp3d-origin="372.04724 : 350.78739 : 1"
       id="perspective2548" /></defs><sodipodi:namedview
     inkscape:window-height="778"
     inkscape:window-width="823"
     inkscape:pageshadow="2"
     inkscape:pageopacity="0.0"
     guidetolerance="10.0"
     gridtolerance="10.0"
     objecttolerance="10.0"
     borderopacity="1.0"
     bordercolor="#666666"
     pagecolor="#ffffff"
     id="base"
     showgrid="false"
     inkscape:zoom="0.62530638"
     inkscape:cx="238.03687"
     inkscape:cy="136.71298"
     inkscape:window-x="0"
     inkscape:window-y="25"
     inkscape:current-layer="g2550" /><g
     id="g2550"
     inkscape:groupmode="layer"
     inkscape:label="ceaea"
     transform="matrix(1.25,0,0,-1.25,8.3984375e-6,336.78749)"><g
       id="g2793"><g
         transform="translate(1.09375e-6,0.4932427)"
         id="g2750"><path
           id="path2554"
           style="fill:#70787d;fill-opacity:1;fill-rule:nonzero;stroke:none"
           d="M 379.14099,11.637 C 379.14799,12.102 379.01199,12.489 378.71499,12.789 C 378.42999,13.086 378.03499,13.235 377.57799,13.235 C 377.10199,13.235 376.72999,13.098 376.45299,12.817 C 376.17199,12.528 376.01999,12.133 376.01999,11.645 C 376.01999,11.262 376.17199,10.942 376.46499,10.692 C 376.73799,10.446 377.22699,10.211 377.93399,9.985 C 378.96099,9.668 379.70699,9.242 380.17199,8.727 C 380.63699,8.215 380.85899,7.547 380.85899,6.719 C 380.85899,5.879 380.55899,5.164 379.92199,4.598 C 379.30899,4.024 378.54299,3.739 377.61299,3.739 C 376.62499,3.739 375.82799,4.035 375.24599,4.61 C 374.66399,5.196 374.37499,5.992 374.37499,6.977 L 375.71899,6.977 C 375.69899,6.328 375.85899,5.817 376.19899,5.442 C 376.53099,5.075 377.00799,4.899 377.60199,4.899 C 378.18399,4.899 378.64799,5.043 378.98799,5.367 C 379.31999,5.676 379.49599,6.106 379.49599,6.637 C 379.49599,7.168 379.33199,7.602 378.99599,7.922 C 378.68399,8.25 378.10499,8.539 377.31599,8.789 C 376.37899,9.086 375.69899,9.446 375.29299,9.887 C 374.87499,10.317 374.66399,10.879 374.66399,11.567 C 374.66399,12.383 374.93399,13.055 375.49999,13.598 C 376.04699,14.125 376.73799,14.391 377.56999,14.391 C 378.44499,14.391 379.14799,14.137 379.68399,13.629 C 380.21899,13.125 380.48399,12.461 380.48399,11.637 L 379.14099,11.637" /><path
           id="path2556"
           style="fill:#70787d;fill-opacity:1;fill-rule:nonzero;stroke:none"
           d="M 371.74599,9.739 C 371.61299,10.617 371.23399,11.379 370.60199,12.028 C 369.81199,12.832 368.84799,13.235 367.69899,13.235 C 366.55899,13.235 365.58999,12.832 364.80099,12.024 C 364.17999,11.379 363.81599,10.617 363.65199,9.739 L 371.74599,9.739 z M 367.69499,3.739 C 366.18399,3.739 364.90599,4.242 363.85199,5.282 C 362.80099,6.309 362.27299,7.575 362.27299,9.067 C 362.27299,10.559 362.80099,11.817 363.85199,12.848 C 364.90599,13.879 366.18399,14.391 367.69499,14.391 C 369.21899,14.391 370.50399,13.879 371.55099,12.848 C 372.60499,11.817 373.12899,10.559 373.12899,9.067 C 373.12899,8.903 373.11699,8.742 373.09399,8.571 L 363.64499,8.571 C 363.74199,7.625 364.13299,6.789 364.80899,6.094 C 365.61699,5.293 366.59799,4.899 367.74599,4.899 C 368.56599,4.899 369.28899,5.094 369.91399,5.496 C 370.53499,5.903 371.03899,6.496 371.40999,7.274 L 372.80099,7.274 C 372.42999,6.215 371.77699,5.36 370.83599,4.715 C 369.90199,4.059 368.85499,3.739 367.69499,3.739" /><path
           id="path2558"
           style="fill:#70787d;fill-opacity:1;fill-rule:nonzero;stroke:none"
           d="M 351.13699,14.157 L 352.59399,14.157 L 356.30499,5.321 L 356.30099,5.321 L 359.98799,14.157 L 361.40599,14.157 L 357.01999,3.973 L 355.52299,3.973 L 351.13699,14.157 z" /><path
           id="path2560"
           style="fill:#70787d;fill-opacity:1;fill-rule:nonzero;stroke:none"
           d="M 348.44499,17.731 L 349.77699,17.731 L 349.77699,15.399 L 348.44499,15.399 L 348.44499,17.731 z M 348.43799,14.145 L 349.77699,14.145 L 349.77699,3.973 L 348.43799,3.973 L 348.43799,14.145 z" /><path
           id="path2562"
           style="fill:#70787d;fill-opacity:1;fill-rule:nonzero;stroke:none"
           d="M 343.21499,3.973 L 343.21499,12.981 L 341.00399,12.981 L 341.00399,14.157 L 343.21499,14.157 L 343.21499,17.719 L 344.56199,17.719 L 344.56199,14.157 L 347.03499,14.157 L 347.03499,12.981 L 344.56199,12.981 L 344.56199,3.973 L 343.21499,3.973 z" /><path
           id="path2564"
           style="fill:#70787d;fill-opacity:1;fill-rule:nonzero;stroke:none"
           d="M 334.08999,13.235 C 332.89499,13.235 331.90199,12.832 331.09799,12.024 C 330.28499,11.211 329.88299,10.215 329.88299,9.035 C 329.88299,7.867 330.28499,6.879 331.09799,6.063 C 331.90199,5.258 332.89499,4.852 334.08999,4.852 C 335.25799,4.852 336.25399,5.258 337.06999,6.071 C 337.87499,6.883 338.27699,7.879 338.27699,9.051 C 338.27699,10.219 337.87499,11.215 337.06999,12.024 C 336.25399,12.832 335.25799,13.235 334.08999,13.235 M 334.02699,3.739 C 332.49599,3.739 331.20699,4.242 330.12899,5.282 C 329.07399,6.309 328.54299,7.578 328.54299,9.067 C 328.54299,10.559 329.07399,11.817 330.12899,12.848 C 331.20699,13.879 332.49599,14.391 334.02699,14.391 C 335.56999,14.391 336.86299,13.871 337.87899,12.844 L 338.22999,12.453 L 338.22999,14.157 L 339.56199,14.157 L 339.56199,3.973 L 338.22999,3.973 L 338.22999,5.672 C 338.11699,5.532 338.00799,5.399 337.87899,5.282 C 336.86299,4.242 335.56999,3.739 334.02699,3.739" /><path
           id="path2566"
           style="fill:#70787d;fill-opacity:1;fill-rule:nonzero;stroke:none"
           d="M 317.38299,14.145 L 318.70299,14.145 L 318.70299,12.832 L 318.92199,13.086 C 319.65599,13.961 320.66399,14.41 321.96099,14.41 C 323.39499,14.41 324.51999,13.973 325.32399,13.11 C 326.13299,12.246 326.54299,11.039 326.54299,9.504 L 326.54299,3.973 L 325.19499,3.973 L 325.19499,9.539 C 325.19499,10.692 324.90599,11.602 324.33999,12.25 C 323.77299,12.91 322.97999,13.235 321.96099,13.235 C 320.91799,13.235 320.12099,12.903 319.56199,12.239 C 318.99999,11.582 318.71899,10.633 318.71899,9.399 L 318.71899,3.973 L 317.38299,3.973 L 317.38299,14.145" /><path
           id="path2568"
           style="fill:#70787d;fill-opacity:1;fill-rule:nonzero;stroke:none"
           d="M 308.23399,9.739 C 308.10199,10.617 307.72699,11.379 307.09799,12.028 C 306.30499,12.832 305.33599,13.235 304.19099,13.235 C 303.05499,13.235 302.09799,12.832 301.29699,12.024 C 300.68399,11.379 300.30099,10.617 300.14799,9.739 L 308.23399,9.739 z M 304.18799,3.739 C 302.67999,3.739 301.39799,4.242 300.34399,5.282 C 299.28899,6.309 298.77299,7.575 298.77299,9.067 C 298.77299,10.559 299.28899,11.817 300.34399,12.848 C 301.39799,13.879 302.67999,14.391 304.18799,14.391 C 305.71899,14.391 307.00799,13.879 308.05099,12.848 C 309.08999,11.817 309.61699,10.559 309.61699,9.067 C 309.62899,8.903 309.61299,8.742 309.58599,8.571 L 300.14099,8.571 C 300.22999,7.625 300.62099,6.789 301.30899,6.094 C 302.10499,5.293 303.09799,4.899 304.24199,4.899 C 305.06199,4.899 305.78899,5.094 306.40599,5.496 C 307.03499,5.903 307.52699,6.496 307.90199,7.274 L 309.29299,7.274 C 308.92599,6.215 308.26999,5.36 307.33599,4.715 C 306.39099,4.059 305.35199,3.739 304.18799,3.739" /><path
           id="path2570"
           style="fill:#70787d;fill-opacity:1;fill-rule:nonzero;stroke:none"
           d="M 311.64799,14.145 L 312.98799,14.145 L 312.98799,12.676 C 313.10499,12.934 313.23799,13.137 313.38299,13.321 C 313.92199,14 314.79299,14.367 315.95699,14.41 L 315.95699,13.043 C 315.07399,12.977 314.37099,12.684 313.84399,12.184 C 313.28099,11.625 312.98799,10.813 312.98799,9.766 L 312.98799,3.973 L 311.64799,3.973 L 311.64799,14.145" /><path
           id="path2572"
           style="fill:#70787d;fill-opacity:1;fill-rule:nonzero;stroke:none"
           d="M 294.07399,3.973 L 294.07399,12.981 L 291.86699,12.981 L 291.86699,14.157 L 294.07399,14.157 L 294.07399,17.719 L 295.41399,17.719 L 295.41399,14.157 L 297.88299,14.157 L 297.88299,12.981 L 295.41399,12.981 L 295.41399,3.973 L 294.07399,3.973 z" /><path
           id="path2574"
           style="fill:#70787d;fill-opacity:1;fill-rule:nonzero;stroke:none"
           d="M 289.02299,17.731 L 290.36699,17.731 L 290.36699,3.973 L 289.02299,3.973 L 289.02299,17.731 z" /><path
           id="path2576"
           style="fill:#70787d;fill-opacity:1;fill-rule:nonzero;stroke:none"
           d="M 280.94899,5.438 C 279.92599,5.438 279.08999,5.782 278.38699,6.485 C 277.69099,7.164 277.33999,8.02 277.33999,9.032 C 277.33999,10.055 277.68399,10.895 278.38299,11.586 C 279.08599,12.293 279.92599,12.637 280.94899,12.637 C 281.97299,12.637 282.81199,12.297 283.51199,11.594 C 284.21499,10.899 284.55899,10.059 284.55899,9.035 C 284.55899,8.035 284.20699,7.18 283.51199,6.485 C 282.81199,5.782 281.97699,5.438 280.94899,5.438 M 285.53899,14.348 C 284.96899,14.348 284.50799,13.891 284.50799,13.328 L 284.50799,13.215 C 283.49199,14.071 282.29299,14.52 280.89099,14.52 C 279.32399,14.52 277.98799,13.992 276.90999,12.946 C 275.82399,11.891 275.26999,10.582 275.26999,9.051 C 275.26999,7.535 275.82399,6.227 276.90999,5.16 C 277.99999,4.117 279.33599,3.586 280.89099,3.586 C 282.29699,3.586 283.50399,4.039 284.50799,4.883 L 284.50799,4.852 C 284.50799,4.278 284.96899,3.817 285.53899,3.817 C 286.10899,3.817 286.57399,4.278 286.57399,4.84 L 286.57399,13.328 C 286.57399,13.891 286.10899,14.348 285.53899,14.348" /><path
           id="path2578"
           style="fill:#70787d;fill-opacity:1;fill-rule:nonzero;stroke:none"
           d="M 265.05899,11.637 C 265.05899,12.102 264.92599,12.489 264.62499,12.789 C 264.33999,13.086 263.96499,13.235 263.49599,13.235 C 263.01999,13.235 262.64099,13.098 262.36699,12.817 C 262.07799,12.528 261.94099,12.133 261.94099,11.645 C 261.94099,11.262 262.08199,10.942 262.36699,10.692 C 262.65599,10.446 263.14799,10.211 263.84399,9.985 C 264.88299,9.668 265.63299,9.242 266.08199,8.727 C 266.54699,8.215 266.77299,7.547 266.77299,6.719 C 266.77299,5.879 266.45699,5.164 265.85499,4.598 C 265.22299,4.024 264.45299,3.739 263.52299,3.739 C 262.53099,3.739 261.74599,4.035 261.15599,4.61 C 260.58199,5.196 260.28899,5.992 260.28899,6.977 L 261.63699,6.977 C 261.61699,6.328 261.77699,5.817 262.11299,5.442 C 262.44899,5.075 262.91399,4.899 263.52299,4.899 C 264.09399,4.899 264.55099,5.043 264.89799,5.367 C 265.23399,5.676 265.41399,6.106 265.41399,6.637 C 265.41399,7.168 265.24199,7.602 264.92599,7.922 C 264.58999,8.25 264.02299,8.539 263.22699,8.789 C 262.28499,9.086 261.61699,9.446 261.20699,9.887 C 260.78899,10.317 260.58199,10.879 260.58199,11.567 C 260.58199,12.383 260.85199,13.055 261.41399,13.598 C 261.96499,14.125 262.65599,14.391 263.48399,14.391 C 264.36299,14.391 265.05899,14.137 265.60199,13.629 C 266.13299,13.125 266.39499,12.461 266.39499,11.637 L 265.05899,11.637" /><path
           id="path2580"
           style="fill:#70787d;fill-opacity:1;fill-rule:nonzero;stroke:none"
           d="M 257.65599,9.739 C 257.51999,10.617 257.15199,11.379 256.51999,12.028 C 255.72699,12.832 254.76999,13.235 253.61299,13.235 C 252.47699,13.235 251.50799,12.832 250.71499,12.024 C 250.09799,11.379 249.71899,10.617 249.56999,9.739 L 257.65599,9.739 z M 253.61299,3.739 C 252.10499,3.739 250.81599,4.242 249.76999,5.282 C 248.71899,6.309 248.17999,7.575 248.17999,9.067 C 248.17999,10.559 248.71899,11.817 249.76999,12.848 C 250.81599,13.879 252.10499,14.391 253.61299,14.391 C 255.14099,14.391 256.42199,13.879 257.47299,12.848 C 258.51599,11.817 259.03899,10.559 259.03899,9.067 C 259.03899,8.903 259.03499,8.742 259.00799,8.571 L 249.55899,8.571 C 249.65999,7.625 250.03499,6.789 250.72999,6.094 C 251.52299,5.293 252.50399,4.899 253.65999,4.899 C 254.48399,4.899 255.21499,5.094 255.83199,5.496 C 256.45699,5.903 256.95699,6.496 257.32399,7.274 L 258.71499,7.274 C 258.33199,6.215 257.67999,5.36 256.74999,4.715 C 255.81199,4.059 254.77299,3.739 253.61299,3.739" /><path
           id="path2582"
           style="fill:#70787d;fill-opacity:1;fill-rule:nonzero;stroke:none"
           d="M 244.89799,17.731 L 246.22999,17.731 L 246.22999,15.399 L 244.89799,15.399 L 244.89799,17.731 z M 244.88299,14.145 L 246.22999,14.145 L 246.22999,3.973 L 244.88299,3.973 L 244.88299,14.145 z" /><path
           id="path2584"
           style="fill:#70787d;fill-opacity:1;fill-rule:nonzero;stroke:none"
           d="M 236.99199,13.282 C 235.84399,13.282 234.87899,12.871 234.08999,12.059 C 233.28499,11.25 232.90199,10.254 232.90199,9.082 C 232.90199,7.903 233.28499,6.914 234.08999,6.106 C 234.87899,5.293 235.84399,4.895 236.99199,4.895 C 238.14099,4.895 239.11699,5.301 239.91399,6.114 C 240.69899,6.926 241.09799,7.922 241.09799,9.086 C 241.09799,10.258 240.69899,11.25 239.91399,12.059 C 239.11699,12.871 238.14099,13.282 236.99199,13.282 M 237.19499,1.16 C 238.44899,1.16 239.40999,1.5 240.06999,2.176 C 240.71899,2.844 241.04299,3.84 241.04299,5.117 L 241.04299,5.688 L 240.67999,5.289 C 239.66799,4.254 238.38299,3.739 236.82399,3.739 C 235.35199,3.739 234.09399,4.242 233.08599,5.282 C 232.06199,6.309 231.55499,7.575 231.55499,9.067 C 231.55499,10.559 232.06199,11.817 233.09399,12.848 C 234.11299,13.879 235.35199,14.391 236.83199,14.391 C 238.38299,14.391 239.66799,13.879 240.67999,12.848 L 241.04299,12.457 L 241.04299,14.157 L 242.38699,14.157 L 242.38699,5.274 C 242.38699,3.594 241.92999,2.293 241.02299,1.379 C 240.13299,0.461 238.85899,0 237.18399,0 C 235.86699,0 234.73399,0.325 233.81999,0.981 C 232.91399,1.633 232.29299,2.528 231.99199,3.672 L 233.41799,3.672 C 233.71899,2.887 234.20299,2.266 234.87899,1.813 C 235.54699,1.379 236.31599,1.16 237.19499,1.16" /><path
           id="path2586"
           style="fill:#70787d;fill-opacity:1;fill-rule:nonzero;stroke:none"
           d="M 226.35899,14.145 L 227.69499,14.145 L 227.69499,12.676 L 227.69899,12.676 C 227.81199,12.934 227.94099,13.137 228.08199,13.321 C 228.63699,14 229.49999,14.367 230.67599,14.41 L 230.67599,13.043 C 229.79299,12.977 229.08199,12.684 228.55099,12.184 C 227.97699,11.625 227.70699,10.813 227.70699,9.766 L 227.70699,3.973 L 226.35899,3.973 L 226.35899,14.145" /><path
           id="path2588"
           style="fill:#70787d;fill-opacity:1;fill-rule:nonzero;stroke:none"
           d="M 222.95299,9.739 C 222.81999,10.617 222.44499,11.379 221.80499,12.028 C 221.01599,12.832 220.05499,13.235 218.90599,13.235 C 217.76999,13.235 216.80499,12.832 215.99999,12.024 C 215.39499,11.379 215.01199,10.617 214.86699,9.739 L 222.95299,9.739 z M 218.90199,3.739 C 217.38699,3.739 216.10899,4.242 215.05499,5.282 C 214.01199,6.309 213.48399,7.575 213.48399,9.067 C 213.48399,10.559 214.01199,11.817 215.05499,12.848 C 216.10899,13.879 217.38699,14.391 218.90199,14.391 C 220.42199,14.391 221.71099,13.879 222.75799,12.848 C 223.81199,11.817 224.33599,10.559 224.33599,9.067 C 224.33999,8.903 224.33599,8.742 224.30099,8.571 L 214.84799,8.571 C 214.94499,7.625 215.33999,6.789 216.02299,6.094 C 216.81999,5.293 217.80899,4.899 218.94499,4.899 C 219.78099,4.899 220.49599,5.094 221.11699,5.496 C 221.73799,5.903 222.24599,6.496 222.61699,7.274 L 224.00799,7.274 C 223.63299,6.215 222.97999,5.36 222.04299,4.715 C 221.10499,4.059 220.06199,3.739 218.90199,3.739" /><path
           id="path2590"
           style="fill:#70787d;fill-opacity:1;fill-rule:nonzero;stroke:none"
           d="M 202.38299,14.145 L 203.72299,14.145 L 203.72299,12.832 L 203.92599,13.086 C 204.66799,13.961 205.68399,14.41 206.96899,14.41 C 208.40999,14.41 209.53899,13.973 210.34399,13.11 C 211.15199,12.246 211.54699,11.039 211.54699,9.504 L 211.54699,3.973 L 210.20699,3.973 L 210.20699,9.539 C 210.20699,10.692 209.92199,11.602 209.35199,12.25 C 208.78099,12.91 207.99199,13.235 206.96899,13.235 C 205.93399,13.235 205.13699,12.903 204.56599,12.239 C 204.01199,11.582 203.73399,10.633 203.73399,9.399 L 203.73399,3.973 L 202.38299,3.973 L 202.38299,14.145" /><path
           id="path2592"
           style="fill:#70787d;fill-opacity:1;fill-rule:nonzero;stroke:none"
           d="M 191.52699,10.11 C 191.65999,10.746 191.97699,11.297 192.48799,11.758 C 193.14499,12.34 193.95299,12.637 194.90599,12.637 C 195.85499,12.637 196.66799,12.34 197.31599,11.766 C 197.85199,11.305 198.17199,10.746 198.27699,10.11 L 191.52699,10.11 z M 198.83599,12.946 C 197.76199,13.996 196.42599,14.528 194.87099,14.528 C 193.32799,14.528 191.99599,13.996 190.91799,12.946 C 189.84399,11.895 189.29699,10.582 189.29699,9.051 C 189.29699,7.524 189.84399,6.211 190.92199,5.157 C 191.99599,4.11 193.32399,3.578 194.87099,3.578 C 196.05899,3.578 197.14499,3.914 198.09799,4.575 C 198.59799,4.926 199.02699,5.34 199.37499,5.801 L 199.39499,5.825 L 199.40999,5.852 C 199.42199,5.875 199.43399,5.899 199.44899,5.926 C 199.54299,6.086 199.58999,6.254 199.58999,6.426 C 199.58999,6.973 199.14099,7.418 198.58999,7.418 C 198.28099,7.418 197.98799,7.274 197.78899,7.016 L 197.70299,6.91 L 197.76199,6.981 C 197.47699,6.551 197.14799,6.219 196.78499,5.989 C 196.24599,5.633 195.63699,5.461 194.91399,5.461 C 193.92999,5.461 193.08199,5.809 192.39499,6.496 C 191.90599,6.985 191.59399,7.535 191.44899,8.172 L 200.36299,8.176 L 200.41799,8.504 C 200.44899,8.688 200.46099,8.871 200.45299,9.043 C 200.45299,10.578 199.90599,11.891 198.83599,12.946 M 199.46099,5.95 C 199.45699,5.938 199.45299,5.934 199.44899,5.926 C 199.44499,5.922 199.44499,5.918 199.44099,5.91 L 199.46099,5.95 z" /><path
           id="path2594"
           style="fill:#70787d;fill-opacity:1;fill-rule:nonzero;stroke:none"
           d="M 180.60499,9.071 C 180.60499,7.84 179.60499,6.844 178.38299,6.844 C 177.15599,6.844 176.16399,7.84 176.16399,9.071 C 176.16399,10.297 177.15599,11.297 178.38299,11.297 C 179.60499,11.297 180.60499,10.297 180.60499,9.071" /><path
           id="path2596"
           style="fill:#70787d;fill-opacity:1;fill-rule:nonzero;stroke:none"
           d="M 166.06999,9.739 C 165.94499,10.617 165.56199,11.379 164.92999,12.028 C 164.14099,12.832 163.17199,13.235 162.03099,13.235 C 160.89099,13.235 159.92199,12.832 159.12499,12.024 C 158.51199,11.379 158.13299,10.617 157.97699,9.739 L 166.06999,9.739 z M 162.02299,3.739 C 160.51199,3.739 159.22999,4.242 158.17599,5.282 C 157.13699,6.309 156.60499,7.575 156.60499,9.067 C 156.60499,10.559 157.13699,11.817 158.17599,12.848 C 159.22999,13.879 160.51599,14.391 162.02299,14.391 C 163.54299,14.391 164.82799,13.879 165.87899,12.848 C 166.92599,11.817 167.45299,10.559 167.45299,9.067 C 167.46099,8.903 167.44899,8.742 167.42199,8.571 L 157.97699,8.571 C 158.06599,7.625 158.46099,6.789 159.14499,6.094 C 159.94499,5.293 160.91799,4.899 162.07399,4.899 C 162.90599,4.899 163.62499,5.094 164.23799,5.496 C 164.86699,5.903 165.36299,6.496 165.74599,7.274 L 167.12499,7.274 C 166.75799,6.215 166.10199,5.36 165.16399,4.715 C 164.23399,4.059 163.18399,3.739 162.02299,3.739" /><path
           id="path2598"
           style="fill:#70787d;fill-opacity:1;fill-rule:nonzero;stroke:none"
           d="M 146.82399,8.117 C 146.82399,7.11 147.09799,6.317 147.65199,5.75 C 148.19499,5.176 148.96899,4.903 149.94899,4.903 C 151.00799,4.903 151.82799,5.239 152.39799,5.895 C 152.97699,6.571 153.26599,7.516 153.26599,8.758 L 153.26599,14.157 L 154.60499,14.157 L 154.60499,3.973 L 153.35199,3.973 L 153.35199,5.61 C 153.24199,5.422 153.11699,5.239 152.97699,5.059 C 152.25799,4.176 151.25799,3.739 149.97699,3.739 C 148.56999,3.739 147.47299,4.125 146.67999,4.899 C 145.88299,5.66 145.47699,6.719 145.47699,8.094 L 145.47699,14.157 L 146.82399,14.157 L 146.82399,8.117" /><path
           id="path2600"
           style="fill:#70787d;fill-opacity:1;fill-rule:nonzero;stroke:none"
           d="M 137.57399,13.235 C 136.39499,13.235 135.40199,12.832 134.59399,12.024 C 133.77299,11.211 133.37499,10.215 133.37499,9.035 C 133.37499,7.867 133.77299,6.879 134.59399,6.063 C 135.40199,5.258 136.39499,4.852 137.57399,4.852 C 138.74199,4.852 139.73799,5.258 140.55899,6.071 C 141.36299,6.883 141.76199,7.879 141.76199,9.051 C 141.76199,10.219 141.36299,11.215 140.55899,12.024 C 139.73799,12.832 138.74199,13.235 137.57399,13.235 M 137.40999,3.739 C 135.90599,3.739 134.64099,4.242 133.58999,5.282 C 132.55499,6.309 132.03499,7.578 132.03499,9.067 C 132.03499,10.559 132.55499,11.817 133.58999,12.848 C 134.64099,13.879 135.90599,14.391 137.40999,14.391 C 138.99599,14.391 140.30499,13.871 141.33999,12.844 L 141.71899,12.434 L 141.71899,14.157 L 143.05499,14.157 L 143.05499,0.395 L 141.71899,0.395 L 141.71899,5.688 L 141.33999,5.282 C 140.30499,4.242 138.99599,3.739 137.40999,3.739" /><path
           id="path2602"
           style="fill:#70787d;fill-opacity:1;fill-rule:nonzero;stroke:none"
           d="M 128.76199,17.731 L 130.09399,17.731 L 130.09399,15.399 L 128.76199,15.399 L 128.76199,17.731 z M 128.74999,14.145 L 130.09399,14.145 L 130.09399,3.973 L 128.74999,3.973 L 128.74999,14.145 z" /><path
           id="path2604"
           style="fill:#70787d;fill-opacity:1;fill-rule:nonzero;stroke:none"
           d="M 110.92199,14.145 L 112.25399,14.145 L 112.25399,13.102 L 112.37099,13.227 C 113.02699,14.016 113.94899,14.41 115.12499,14.41 C 116.42599,14.41 117.43799,14.016 118.16799,13.235 C 118.37899,13 118.56199,12.75 118.71899,12.469 C 118.85499,12.762 119.01599,13.02 119.21099,13.235 C 119.88699,14.016 120.82399,14.41 122.02699,14.41 C 123.35899,14.41 124.40199,14.008 125.14799,13.203 C 125.89499,12.399 126.26599,11.285 126.26599,9.86 L 126.26599,3.973 L 124.92199,3.973 L 124.92199,10.008 C 124.92199,11.012 124.67999,11.805 124.17999,12.383 C 123.67999,12.946 122.98399,13.235 122.10199,13.235 C 121.19899,13.235 120.49999,12.946 120.00799,12.383 C 119.51599,11.805 119.26599,10.989 119.26599,9.938 L 119.26599,3.973 L 117.92199,3.973 L 117.92199,9.992 C 117.92199,11.012 117.67599,11.805 117.17999,12.383 C 116.67599,12.946 115.98399,13.235 115.09799,13.235 C 114.19499,13.235 113.49599,12.946 112.99999,12.383 C 112.51199,11.805 112.26999,10.989 112.26999,9.938 L 112.26999,3.973 L 110.92199,3.973 L 110.92199,14.145" /><path
           id="path2606"
           style="fill:#70787d;fill-opacity:1;fill-rule:nonzero;stroke:none"
           d="M 106.35899,6.094 C 107.15599,6.91 107.55099,7.891 107.55099,9.067 C 107.55099,10.219 107.15599,11.215 106.35899,12.024 C 105.56999,12.832 104.59399,13.231 103.44099,13.231 C 102.29699,13.231 101.32799,12.832 100.53499,12.024 C 99.741992,11.215 99.343992,10.219 99.343992,9.067 C 99.343992,7.891 99.741992,6.91 100.53499,6.094 C 101.32799,5.293 102.29699,4.895 103.44099,4.895 C 104.59399,4.895 105.56999,5.293 106.35899,6.094 M 99.581992,5.282 C 98.522992,6.309 97.999992,7.575 97.999992,9.067 C 97.999992,10.559 98.522992,11.817 99.581992,12.848 C 100.63699,13.879 101.92199,14.391 103.44099,14.391 C 104.97299,14.391 106.26599,13.879 107.31599,12.848 C 108.36699,11.817 108.89099,10.559 108.89099,9.067 C 108.89099,7.575 108.36699,6.309 107.31599,5.282 C 106.26599,4.242 104.97299,3.739 103.44099,3.739 C 101.92199,3.739 100.63699,4.242 99.581992,5.282" /><path
           id="path2608"
           style="fill:#70787d;fill-opacity:1;fill-rule:nonzero;stroke:none"
           d="M 93.229992,3.973 L 93.229992,12.981 L 91.022992,12.981 L 91.022992,14.157 L 93.229992,14.157 L 93.229992,17.719 L 94.569992,17.719 L 94.569992,14.157 L 97.042992,14.157 L 97.042992,12.981 L 94.569992,12.981 L 94.569992,3.973 L 93.229992,3.973 z" /><path
           id="path2610"
           style="fill:#70787d;fill-opacity:1;fill-rule:nonzero;stroke:none"
           d="M 83.960992,5.438 C 82.940992,5.438 82.101992,5.782 81.397992,6.485 C 80.702992,7.164 80.354992,8.02 80.354992,9.032 C 80.354992,10.055 80.694992,10.895 81.394992,11.586 C 82.101992,12.293 82.937992,12.637 83.960992,12.637 C 84.983992,12.637 85.823992,12.297 86.522992,11.594 C 87.229992,10.899 87.569992,10.059 87.569992,9.035 C 87.569992,8.035 87.218992,7.18 86.522992,6.485 C 85.823992,5.782 84.987992,5.438 83.960992,5.438 M 88.550992,14.348 C 87.979992,14.348 87.519992,13.891 87.519992,13.328 L 87.519992,13.215 C 86.507992,14.071 85.304992,14.52 83.901992,14.52 C 82.335992,14.52 80.999992,13.992 79.925992,12.946 C 78.835992,11.891 78.280992,10.582 78.280992,9.051 C 78.280992,7.535 78.835992,6.227 79.921992,5.16 C 81.011992,4.117 82.351992,3.586 83.901992,3.586 C 85.308992,3.586 86.515992,4.039 87.519992,4.883 L 87.519992,4.852 C 87.519992,4.278 87.979992,3.817 88.550992,3.817 C 89.120992,3.817 89.585992,4.278 89.585992,4.84 L 89.585992,13.328 C 89.585992,13.891 89.120992,14.348 88.550992,14.348" /><path
           id="path2612"
           style="fill:#70787d;fill-opacity:1;fill-rule:nonzero;stroke:none"
           d="M 68.374992,9.739 C 68.245992,10.617 67.866992,11.379 67.229992,12.028 C 66.440992,12.832 65.476992,13.235 64.331992,13.235 C 63.190992,13.235 62.222992,12.832 61.429992,12.024 C 60.815992,11.379 60.437992,10.617 60.288992,9.739 L 68.374992,9.739 z M 64.323992,3.739 C 62.811992,3.739 61.526992,4.242 60.479992,5.282 C 59.433992,6.309 58.909992,7.575 58.909992,9.067 C 58.909992,10.559 59.433992,11.817 60.479992,12.848 C 61.526992,13.879 62.811992,14.391 64.323992,14.391 C 65.847992,14.391 67.132992,13.879 68.179992,12.848 C 69.229992,11.817 69.753992,10.559 69.753992,9.067 C 69.761992,8.903 69.753992,8.742 69.726992,8.571 L 60.276992,8.571 C 60.366992,7.625 60.757992,6.789 61.448992,6.094 C 62.245992,5.293 63.226992,4.899 64.370992,4.899 C 65.194992,4.899 65.921992,5.094 66.542992,5.496 C 67.163992,5.903 67.667992,6.496 68.046992,7.274 L 69.425992,7.274 C 69.054992,6.215 68.401992,5.36 67.464992,4.715 C 66.530992,4.059 65.483992,3.739 64.323992,3.739" /><path
           id="path2614"
           style="fill:#70787d;fill-opacity:1;fill-rule:nonzero;stroke:none"
           d="M 55.616992,17.731 L 56.944992,17.731 L 56.944992,15.399 L 55.616992,15.399 L 55.616992,17.731 z M 55.612992,14.145 L 56.944992,14.145 L 56.944992,3.973 L 55.612992,3.973 L 55.612992,14.145 z" /><path
           id="path2616"
           style="fill:#70787d;fill-opacity:1;fill-rule:nonzero;stroke:none"
           d="M 47.706992,13.282 C 46.561992,13.282 45.593992,12.871 44.800992,12.059 C 44.007992,11.25 43.608992,10.254 43.608992,9.082 C 43.608992,7.903 44.007992,6.914 44.800992,6.106 C 45.593992,5.293 46.561992,4.895 47.706992,4.895 C 48.858992,4.895 49.831992,5.301 50.628992,6.114 C 51.417992,6.926 51.811992,7.922 51.811992,9.086 C 51.811992,10.258 51.417992,11.25 50.628992,12.059 C 49.831992,12.871 48.858992,13.282 47.706992,13.282 M 47.913992,1.16 C 49.167992,1.16 50.124992,1.5 50.780992,2.176 C 51.429992,2.844 51.753992,3.84 51.753992,5.117 L 51.753992,5.688 L 51.401992,5.289 C 50.382992,4.254 49.097992,3.739 47.534992,3.739 C 46.061992,3.739 44.819992,4.242 43.800992,5.282 C 42.776992,6.309 42.272992,7.575 42.272992,9.067 C 42.272992,10.559 42.776992,11.817 43.800992,12.848 C 44.827992,13.879 46.073992,14.391 47.546992,14.391 C 49.097992,14.391 50.382992,13.879 51.401992,12.848 L 51.753992,12.457 L 51.753992,14.157 L 53.097992,14.157 L 53.097992,5.274 C 53.097992,3.594 52.647992,2.293 51.745992,1.379 C 50.843992,0.461 49.561992,0 47.901992,0 C 46.581992,0 45.460992,0.325 44.538992,0.981 C 43.624992,1.633 43.015992,2.528 42.710992,3.672 L 44.136992,3.672 C 44.433992,2.887 44.921992,2.266 45.593992,1.813 C 46.253992,1.379 47.030992,1.16 47.913992,1.16" /><path
           id="path2618"
           style="fill:#70787d;fill-opacity:1;fill-rule:nonzero;stroke:none"
           d="M 37.077992,14.145 L 38.413992,14.145 L 38.413992,12.676 L 38.417992,12.676 C 38.526992,12.934 38.659992,13.137 38.800992,13.321 C 39.351992,14 40.218992,14.367 41.382992,14.41 L 41.382992,13.043 C 40.499992,12.977 39.796992,12.684 39.272992,12.184 C 38.702992,11.625 38.421992,10.813 38.421992,9.766 L 38.421992,3.973 L 37.077992,3.973 L 37.077992,14.145" /><path
           id="path2620"
           style="fill:#70787d;fill-opacity:1;fill-rule:nonzero;stroke:none"
           d="M 33.659992,9.739 C 33.534992,10.617 33.155992,11.379 32.519992,12.028 C 31.733992,12.832 30.769992,13.235 29.616992,13.235 C 28.476992,13.235 27.515992,12.832 26.722992,12.024 C 26.108992,11.379 25.726992,10.617 25.581992,9.739 L 33.659992,9.739 z M 29.612992,3.739 C 28.101992,3.739 26.823992,4.242 25.776992,5.282 C 24.726992,6.309 24.194992,7.575 24.194992,9.067 C 24.194992,10.559 24.726992,11.817 25.776992,12.848 C 26.823992,13.879 28.101992,14.391 29.616992,14.391 C 31.144992,14.391 32.429992,13.879 33.472992,12.848 C 34.522992,11.817 35.042992,10.559 35.042992,9.067 C 35.050992,8.903 35.042992,8.742 35.019992,8.571 L 25.569992,8.571 C 25.659992,7.625 26.050992,6.789 26.737992,6.094 C 27.538992,5.293 28.515992,4.899 29.663992,4.899 C 30.491992,4.899 31.218992,5.094 31.835992,5.496 C 32.460992,5.903 32.960992,6.496 33.335992,7.274 L 34.722992,7.274 C 34.354992,6.215 33.694992,5.36 32.761992,4.715 C 31.819992,4.059 30.772992,3.739 29.612992,3.739" /><path
           id="path2622"
           style="fill:#70787d;fill-opacity:1;fill-rule:nonzero;stroke:none"
           d="M 13.101992,14.145 L 14.437992,14.145 L 14.437992,12.832 L 14.647992,13.086 C 15.378992,13.961 16.390992,14.41 17.687992,14.41 C 19.128992,14.41 20.245992,13.973 21.050992,13.11 C 21.862992,12.246 22.261992,11.039 22.261992,9.504 L 22.261992,3.973 L 20.921992,3.973 L 20.921992,9.539 C 20.921992,10.692 20.640992,11.602 20.069992,12.25 C 19.495992,12.91 18.706992,13.235 17.687992,13.235 C 16.651992,13.235 15.847992,12.903 15.288992,12.239 C 14.726992,11.582 14.444992,10.633 14.444992,9.399 L 14.444992,3.973 L 13.101992,3.973 L 13.101992,14.145" /><path
           id="path2624"
           style="fill:#70787d;fill-opacity:1;fill-rule:nonzero;stroke:none"
           d="M 2.2339922,10.11 C 2.3629922,10.746 2.6799922,11.297 3.1909922,11.758 C 3.8519922,12.34 4.6559922,12.637 5.6089922,12.637 C 6.5589922,12.637 7.3709922,12.34 8.0199922,11.766 C 8.5589922,11.305 8.8749922,10.746 8.9839922,10.11 L 2.2339922,10.11 z M 9.5389922,12.946 C 8.4649922,13.996 7.1329922,14.528 5.5779922,14.528 C 4.0309922,14.528 2.6989922,13.996 1.6209922,12.946 C 0.54699219,11.895 -7.8125e-06,10.582 -7.8125e-06,9.051 C -7.8125e-06,7.524 0.54699219,6.211 1.6249922,5.157 C 2.6989922,4.11 4.0309922,3.578 5.5779922,3.578 C 6.7659922,3.578 7.8479922,3.914 8.8049922,4.575 C 9.3009922,4.926 9.7299922,5.34 10.077992,5.801 L 10.097992,5.825 L 10.112992,5.852 C 10.124992,5.875 10.140992,5.899 10.151992,5.926 C 10.245992,6.086 10.292992,6.254 10.292992,6.426 C 10.292992,6.973 9.8479922,7.418 9.2969922,7.418 C 8.9879922,7.418 8.6909922,7.274 8.4919922,7.016 L 8.4059922,6.91 L 8.4649922,6.981 C 8.1799922,6.551 7.8519922,6.219 7.4879922,5.989 C 6.9489922,5.633 6.3399922,5.461 5.6209922,5.461 C 4.6329922,5.461 3.7849922,5.809 3.0979922,6.496 C 2.6089922,6.985 2.2969922,7.535 2.1519922,8.172 L 11.065992,8.176 L 11.120992,8.504 C 11.151992,8.688 11.163992,8.871 11.155992,9.043 C 11.155992,10.578 10.612992,11.891 9.5389922,12.946 M 10.163992,5.95 C 10.159992,5.938 10.155992,5.934 10.151992,5.926 C 10.147992,5.922 10.147992,5.918 10.144992,5.91 L 10.163992,5.95 z" /></g><g
         transform="translate(-0.2089988,-6.046875e-6)"
         id="g2788"><path
           id="path2626"
           style="fill:#85b926;fill-opacity:1;fill-rule:nonzero;stroke:none"
           d="M 290.36699,70.09 L 290.36299,70.09 L 90.940992,70.09 L 90.909992,70.09 C 88.769992,70.09 87.026992,68.328 87.026992,66.149 C 87.026992,63.969 88.769992,62.207 90.909992,62.207 L 90.940992,62.207 L 290.36299,62.207 L 290.36699,62.207 C 292.51599,62.207 294.24999,63.969 294.24999,66.149 C 294.24999,68.328 292.51599,70.09 290.36699,70.09" /><path
           id="path2628"
           style="fill:#70787d;fill-opacity:1;fill-rule:nonzero;stroke:none"
           d="M 190.26199,198.336 C 206.82799,198.336 220.47699,185.918 222.43799,169.875 L 158.08999,169.875 C 160.04299,185.918 173.69499,198.336 190.26199,198.336 M 223.39499,147.336 C 222.67199,148.387 221.41399,149.075 220.10899,149.075 C 218.72699,149.075 217.57799,148.414 216.85899,147.41 L 216.87099,147.418 C 211.01199,139.004 201.28899,133.496 190.26199,133.496 C 173.70299,133.496 160.05499,145.91 158.08999,161.938 L 230.41399,161.938 C 230.54699,163.246 230.61299,164.571 230.61299,165.918 C 230.61299,167.078 230.56999,168.399 230.41399,169.875 C 228.42999,190.309 211.21099,206.274 190.26199,206.274 C 167.97299,206.274 149.90999,188.207 149.90999,165.918 C 149.90999,158.403 151.96899,151.367 155.55099,145.344 C 149.60499,138.121 140.60199,133.496 130.51199,133.496 C 112.60899,133.496 98.089992,148.012 98.089992,165.918 C 98.089992,183.825 112.60899,198.336 130.51199,198.336 C 137.69899,198.336 144.33999,196 149.71899,192.047 L 149.72999,192.067 C 150.38699,191.582 151.18799,191.293 152.06199,191.293 C 154.25799,191.293 156.03099,193.067 156.03099,195.266 C 156.03099,196.719 155.19499,197.895 154.08599,198.672 C 147.44499,203.45 139.31199,206.27 130.51199,206.27 C 108.22999,206.27 90.159992,188.207 90.159992,165.918 C 90.159992,143.625 108.22999,125.567 130.51199,125.567 C 142.35499,125.567 152.99999,130.668 160.37899,138.797 C 167.76199,130.668 178.41799,125.567 190.26199,125.567 C 202.08199,125.567 212.69899,130.653 220.07399,138.754 C 227.47299,130.535 238.16799,125.371 250.08199,125.371 C 263.77699,125.371 275.88299,132.2 283.17999,142.637 L 283.17999,131.348 L 283.17999,131.34 C 283.17999,129.141 284.95299,127.371 287.14499,127.371 C 289.34799,127.371 291.11299,129.141 291.11299,131.336 L 291.11299,200.532 C 291.10499,202.719 289.33199,204.489 287.14499,204.489 C 284.95699,204.489 283.18799,202.719 283.17999,200.532 L 283.17999,200.516 L 283.17999,200.508 L 283.17999,188.797 C 275.88299,199.235 263.77699,206.075 250.08199,206.075 C 241.28899,206.075 233.15199,203.25 226.51199,198.469 C 225.35199,197.774 224.57399,196.52 224.57399,195.067 C 224.57399,192.871 226.34799,191.094 228.54299,191.094 C 229.40999,191.094 230.21099,191.383 230.87499,191.86 L 230.88299,191.848 C 236.25799,195.797 242.90199,198.141 250.08199,198.141 C 267.99599,198.141 282.50799,183.625 282.50799,165.719 C 282.50799,147.817 267.99599,133.297 250.08199,133.297 C 239.01599,133.297 229.25799,138.852 223.40999,147.313 L 223.39499,147.336" /><path
           id="path2630"
           style="fill:#fbbc05;fill-opacity:1;fill-rule:nonzero;stroke:none"
           d="M 290.36699,269.43 L 290.36299,269.43 L 90.940992,269.43 L 90.909992,269.43 C 88.769992,269.43 87.026992,267.668 87.026992,265.489 C 87.026992,263.313 88.769992,261.551 90.909992,261.551 L 90.940992,261.551 L 90.940992,261.543 L 290.36299,261.543 L 290.36299,261.551 L 290.36699,261.551 C 292.51599,261.551 294.24999,263.313 294.24999,265.489 C 294.24999,267.668 292.51599,269.43 290.36699,269.43" /></g><text
         sodipodi:linespacing="125%"
         transform="scale(1,-1)"
         id="text2668"
         y="81.48951"
         x="8.0794859"
         style="font-size:51.20000076px;font-style:normal;font-variant:normal;font-weight:normal;font-stretch:normal;text-align:start;line-height:125%;writing-mode:lr-tb;text-anchor:start;fill:#70787d;fill-opacity:1;stroke:none;stroke-width:1px;stroke-linecap:butt;stroke-linejoin:miter;stroke-opacity:1;font-family:Bitstream Vera Sans;-inkscape-font-specification:Bitstream Vera Sans"
         xml:space="preserve"><tspan
           y="81.48951"
           x="8.0794859"
           id="tspan2670"
           sodipodi:role="line">DEN/CAD/DEC</tspan></text>
</g></g></svg>