<?xml version="1.0" encoding="UTF-8" standalone="no"?>
<!-- Created with Inkscape (http://www.inkscape.org/) -->
<svg
   xmlns:dc="http://purl.org/dc/elements/1.1/"
   xmlns:cc="http://creativecommons.org/ns#"
   xmlns:rdf="http://www.w3.org/1999/02/22-rdf-syntax-ns#"
   xmlns:svg="http://www.w3.org/2000/svg"
   xmlns="http://www.w3.org/2000/svg"
   xmlns:sodipodi="http://sodipodi.sourceforge.net/DTD/sodipodi-0.dtd"
   xmlns:inkscape="http://www.inkscape.org/namespaces/inkscape"
   version="1.0"
   width="476.07373"
   height="336.78751"
   id="svg2"
   sodipodi:version="0.32"
   inkscape:version="0.46"
   sodipodi:docname="ceaea.svg"
   inkscape:output_extension="org.inkscape.output.svg.inkscape">
  <metadata
     id="metadata56">
    <rdf:RDF>
      <cc:Work
         rdf:about="">
        <dc:format>image/svg+xml</dc:format>
        <dc:type
           rdf:resource="http://purl.org/dc/dcmitype/StillImage" />
      </cc:Work>
    </rdf:RDF>
  </metadata>
  <sodipodi:namedview
     inkscape:window-height="1097"
     inkscape:window-width="1908"
     inkscape:pageshadow="2"
     inkscape:pageopacity="0.0"
     guidetolerance="10.0"
     gridtolerance="10.0"
     objecttolerance="10.0"
     borderopacity="1.0"
     bordercolor="#666666"
     pagecolor="#ffffff"
     id="base"
     showgrid="false"
     inkscape:zoom="0.97629706"
     inkscape:cx="293.80758"
     inkscape:cy="65.965912"
     inkscape:window-x="0"
     inkscape:window-y="34"
     inkscape:current-layer="svg2" />
  <defs
     id="defs4">
    <inkscape:perspective
       sodipodi:type="inkscape:persp3d"
       inkscape:vp_x="0 : 168.39375 : 1"
       inkscape:vp_y="0 : 1000 : 0"
       inkscape:vp_z="476.07373 : 168.39375 : 1"
       inkscape:persp3d-origin="238.03687 : 112.2625 : 1"
       id="perspective58" />
    <clipPath
       id="clipPath6213">
      <path
         d="M 272.125,558.597 L 440.59,558.597 L 440.59,702.991 L 272.125,702.991 L 272.125,558.597 z"
         id="path6215" />
    </clipPath>
    <clipPath
       id="clipPath6017">
      <path
         d="M 156.281,123.382 L 566.758,123.382 L 566.758,515.905 L 156.281,515.905 L 156.281,123.382 z"
         id="path6019" />
    </clipPath>
    <clipPath
       id="clipPath5851">
      <path
         d="M 156.281,123.382 L 566.758,123.382 L 566.758,515.905 L 156.281,515.905 L 156.281,123.382 z"
         id="path5853" />
    </clipPath>
  </defs>
  <g
     id="g2524">
    <g
       transform="translate(-733.86467,-655.83165)"
       id="g7373">
      <path
         style="fill:#70787d;fill-opacity:1;fill-rule:nonzero;stroke:none"
         id="path5855"
         d="M 1207.7909,978.0729 C 1207.7997,977.4929 1207.6297,977.00915 1207.2584,976.6329 C 1206.9022,976.26165 1206.4084,976.07665 1205.8372,976.07665 C 1205.2422,976.07665 1204.7772,976.2479 1204.4309,976.59915 C 1204.0797,976.9604 1203.8897,977.4529 1203.8897,978.06415 C 1203.8897,978.54165 1204.0797,978.9429 1204.4459,979.2554 C 1204.7872,979.5629 1205.3984,979.8554 1206.2822,980.13915 C 1207.5659,980.53415 1208.4984,981.06665 1209.0797,981.71165 C 1209.6609,982.3504 1209.9384,983.1854 1209.9384,984.2204 C 1209.9384,985.2704 1209.5634,986.16415 1208.7672,986.8729 C 1208.0009,987.5904 1207.0434,987.94665 1205.8809,987.94665 C 1204.6459,987.94665 1203.6497,987.5754 1202.9222,986.8579 C 1202.1947,986.1254 1201.8334,985.12915 1201.8334,983.89915 L 1203.5134,983.89915 C 1203.4884,984.70915 1203.6884,985.34915 1204.1134,985.8179 C 1204.5284,986.27665 1205.1247,986.49665 1205.8672,986.49665 C 1206.5947,986.49665 1207.1747,986.3154 1207.5997,985.9104 C 1208.0147,985.52415 1208.2347,984.9879 1208.2347,984.3229 C 1208.2347,983.65915 1208.0297,983.1179 1207.6097,982.71665 C 1207.2197,982.30665 1206.4959,981.9454 1205.5097,981.6329 C 1204.3384,981.26165 1203.4884,980.8129 1202.9809,980.2604 C 1202.4584,979.72415 1202.1947,979.0204 1202.1947,978.16165 C 1202.1947,977.1404 1202.5322,976.3004 1203.2397,975.6229 C 1203.9234,974.9629 1204.7872,974.63165 1205.8272,974.63165 C 1206.9209,974.63165 1207.7997,974.9479 1208.4697,975.5829 C 1209.1384,976.2129 1209.4697,977.0429 1209.4697,978.0729 L 1207.7909,978.0729" />
      <path
         style="fill:#70787d;fill-opacity:1;fill-rule:nonzero;stroke:none"
         id="path5857"
         d="M 1198.5472,980.44665 C 1198.3809,979.3479 1197.9072,978.3954 1197.1172,977.5854 C 1196.1297,976.57915 1194.9247,976.07665 1193.4884,976.07665 C 1192.0634,976.07665 1190.8522,976.57915 1189.8659,977.5904 C 1189.0897,978.3954 1188.6347,979.3479 1188.4297,980.44665 L 1198.5472,980.44665 z M 1193.4834,987.94665 C 1191.5947,987.94665 1189.9972,987.31665 1188.6797,986.0179 C 1187.3659,984.73415 1186.7059,983.15165 1186.7059,981.28665 C 1186.7059,979.42165 1187.3659,977.84915 1188.6797,976.5604 C 1189.9972,975.2704 1191.5947,974.63165 1193.4834,974.63165 C 1195.3884,974.63165 1196.9947,975.2704 1198.3034,976.5604 C 1199.6209,977.84915 1200.2759,979.42165 1200.2759,981.28665 C 1200.2759,981.49165 1200.2609,981.69165 1200.2322,981.90665 L 1188.4197,981.90665 C 1188.5422,983.0879 1189.0309,984.1329 1189.8759,985.00165 C 1190.8859,986.0029 1192.1122,986.49665 1193.5472,986.49665 C 1194.5722,986.49665 1195.4759,986.25165 1196.2572,985.74915 C 1197.0334,985.24165 1197.6634,984.49915 1198.1272,983.5279 L 1199.8659,983.5279 C 1199.4022,984.8504 1198.5859,985.9204 1197.4097,986.7254 C 1196.2422,987.54665 1194.9334,987.94665 1193.4834,987.94665" />
      <path
         style="fill:#70787d;fill-opacity:1;fill-rule:nonzero;stroke:none"
         id="path5859"
         d="M 1172.7859,974.92415 L 1174.6072,974.92415 L 1179.2459,985.96915 L 1179.2409,985.96915 L 1183.8497,974.92415 L 1185.6222,974.92415 L 1180.1397,987.65415 L 1178.2684,987.65415 L 1172.7859,974.92415 z" />
      <path
         style="fill:#70787d;fill-opacity:1;fill-rule:nonzero;stroke:none"
         id="path5861"
         d="M 1169.4209,970.45665 L 1171.0859,970.45665 L 1171.0859,973.37165 L 1169.4209,973.37165 L 1169.4209,970.45665 z M 1169.4109,974.93915 L 1171.0859,974.93915 L 1171.0859,987.65415 L 1169.4109,987.65415 L 1169.4109,974.93915 z" />
      <path
         style="fill:#70787d;fill-opacity:1;fill-rule:nonzero;stroke:none"
         id="path5863"
         d="M 1162.8834,987.65415 L 1162.8834,976.39415 L 1160.1197,976.39415 L 1160.1197,974.92415 L 1162.8834,974.92415 L 1162.8834,970.4704 L 1164.5672,970.4704 L 1164.5672,974.92415 L 1167.6584,974.92415 L 1167.6584,976.39415 L 1164.5672,976.39415 L 1164.5672,987.65415 L 1162.8834,987.65415 z" />
      <path
         style="fill:#70787d;fill-opacity:1;fill-rule:nonzero;stroke:none"
         id="path5865"
         d="M 1151.4772,976.07665 C 1149.9822,976.07665 1148.7422,976.57915 1147.7372,977.5904 C 1146.7209,978.6054 1146.2184,979.8504 1146.2184,981.3254 C 1146.2184,982.7854 1146.7209,984.0204 1147.7372,985.04165 C 1148.7422,986.04665 1149.9822,986.5554 1151.4772,986.5554 C 1152.9372,986.5554 1154.1822,986.04665 1155.2022,985.03165 C 1156.2084,984.0154 1156.7109,982.7704 1156.7109,981.3054 C 1156.7109,979.8454 1156.2084,978.6004 1155.2022,977.5904 C 1154.1822,976.57915 1152.9372,976.07665 1151.4772,976.07665 M 1151.3984,987.94665 C 1149.4847,987.94665 1147.8734,987.31665 1146.5259,986.0179 C 1145.2072,984.73415 1144.5434,983.14665 1144.5434,981.28665 C 1144.5434,979.42165 1145.2072,977.84915 1146.5259,976.5604 C 1147.8734,975.2704 1149.4847,974.63165 1151.3984,974.63165 C 1153.3272,974.63165 1154.9434,975.2804 1156.2134,976.56415 L 1156.6522,977.0529 L 1156.6522,974.92415 L 1158.3172,974.92415 L 1158.3172,987.65415 L 1156.6522,987.65415 L 1156.6522,985.52915 C 1156.5109,985.7054 1156.3747,985.87165 1156.2134,986.0179 C 1154.9434,987.31665 1153.3272,987.94665 1151.3984,987.94665" />
      <path
         style="fill:#70787d;fill-opacity:1;fill-rule:nonzero;stroke:none"
         id="path5867"
         d="M 1130.5934,974.93915 L 1132.2434,974.93915 L 1132.2434,976.57915 L 1132.5172,976.26165 C 1133.4347,975.1679 1134.6947,974.60665 1136.3159,974.60665 C 1138.1072,974.60665 1139.5147,975.15415 1140.5197,976.2329 C 1141.5309,977.31165 1142.0434,978.8204 1142.0434,980.73915 L 1142.0434,987.65415 L 1140.3584,987.65415 L 1140.3584,980.6954 C 1140.3584,979.2554 1139.9972,978.1179 1139.2897,977.30665 C 1138.5809,976.48165 1137.5897,976.07665 1136.3159,976.07665 C 1135.0122,976.07665 1134.0159,976.49165 1133.3172,977.32165 C 1132.6147,978.14165 1132.2634,979.3279 1132.2634,980.87165 L 1132.2634,987.65415 L 1130.5934,987.65415 L 1130.5934,974.93915" />
      <path
         style="fill:#70787d;fill-opacity:1;fill-rule:nonzero;stroke:none"
         id="path5869"
         d="M 1119.1572,980.44665 C 1118.9922,979.3479 1118.5234,978.3954 1117.7372,977.5854 C 1116.7459,976.57915 1115.5347,976.07665 1114.1034,976.07665 C 1112.6834,976.07665 1111.4872,976.57915 1110.4859,977.5904 C 1109.7197,978.3954 1109.2409,979.3479 1109.0497,980.44665 L 1119.1572,980.44665 z M 1114.0984,987.94665 C 1112.2147,987.94665 1110.6122,987.31665 1109.2947,986.0179 C 1107.9759,984.73415 1107.3309,983.15165 1107.3309,981.28665 C 1107.3309,979.42165 1107.9759,977.84915 1109.2947,976.5604 C 1110.6122,975.2704 1112.2147,974.63165 1114.0984,974.63165 C 1116.0134,974.63165 1117.6247,975.2704 1118.9284,976.5604 C 1120.2272,977.84915 1120.8859,979.42165 1120.8859,981.28665 C 1120.9009,981.49165 1120.8809,981.69165 1120.8472,981.90665 L 1109.0409,981.90665 C 1109.1522,983.0879 1109.6409,984.1329 1110.5009,985.00165 C 1111.4959,986.0029 1112.7372,986.49665 1114.1672,986.49665 C 1115.1922,986.49665 1116.1009,986.25165 1116.8722,985.74915 C 1117.6584,985.24165 1118.2734,984.49915 1118.7422,983.5279 L 1120.4809,983.5279 C 1120.0222,984.8504 1119.2022,985.9204 1118.0347,986.7254 C 1116.8534,987.54665 1115.5547,987.94665 1114.0984,987.94665" />
      <path
         style="fill:#70787d;fill-opacity:1;fill-rule:nonzero;stroke:none"
         id="path5871"
         d="M 1123.4247,974.93915 L 1125.0997,974.93915 L 1125.0997,976.77415 C 1125.2459,976.4529 1125.4122,976.1979 1125.5934,975.96915 C 1126.2672,975.11915 1127.3559,974.6604 1128.8109,974.60665 L 1128.8109,976.3154 C 1127.7072,976.39915 1126.8284,976.7654 1126.1697,977.3904 C 1125.4659,978.0879 1125.0997,979.10415 1125.0997,980.4129 L 1125.0997,987.65415 L 1123.4247,987.65415 L 1123.4247,974.93915" />
      <path
         style="fill:#70787d;fill-opacity:1;fill-rule:nonzero;stroke:none"
         id="path5873"
         d="M 1101.4572,987.65415 L 1101.4572,976.39415 L 1098.6984,976.39415 L 1098.6984,974.92415 L 1101.4572,974.92415 L 1101.4572,970.4704 L 1103.1322,970.4704 L 1103.1322,974.92415 L 1106.2184,974.92415 L 1106.2184,976.39415 L 1103.1322,976.39415 L 1103.1322,987.65415 L 1101.4572,987.65415 z" />
      <path
         style="fill:#70787d;fill-opacity:1;fill-rule:nonzero;stroke:none"
         id="path5875"
         d="M 1095.1434,970.45665 L 1096.8234,970.45665 L 1096.8234,987.65415 L 1095.1434,987.65415 L 1095.1434,970.45665 z" />
      <path
         style="fill:#70787d;fill-opacity:1;fill-rule:nonzero;stroke:none"
         id="path5877"
         d="M 1085.0509,985.8229 C 1083.7722,985.8229 1082.7272,985.3929 1081.8484,984.51415 C 1080.9784,983.66415 1080.5397,982.5954 1080.5397,981.3304 C 1080.5397,980.0504 1080.9697,979.00165 1081.8434,978.13665 C 1082.7222,977.2529 1083.7722,976.8229 1085.0509,976.8229 C 1086.3309,976.8229 1087.3797,977.2479 1088.2547,978.12665 C 1089.1334,978.99665 1089.5634,980.04665 1089.5634,981.3254 C 1089.5634,982.5754 1089.1234,983.64415 1088.2547,984.51415 C 1087.3797,985.3929 1086.3359,985.8229 1085.0509,985.8229 M 1090.7884,974.6854 C 1090.0759,974.6854 1089.4997,975.25665 1089.4997,975.95915 L 1089.4997,976.1004 C 1088.2297,975.03165 1086.7309,974.4704 1084.9784,974.4704 C 1083.0197,974.4704 1081.3497,975.12915 1080.0022,976.4379 C 1078.6447,977.75665 1077.9522,979.39165 1077.9522,981.3054 C 1077.9522,983.2004 1078.6447,984.83665 1080.0022,986.16915 C 1081.3647,987.4729 1083.0347,988.13665 1084.9784,988.13665 C 1086.7359,988.13665 1088.2447,987.5704 1089.4997,986.5154 L 1089.4997,986.5554 C 1089.4997,987.2729 1090.0759,987.84915 1090.7884,987.84915 C 1091.5009,987.84915 1092.0822,987.2729 1092.0822,986.56915 L 1092.0822,975.95915 C 1092.0822,975.25665 1091.5009,974.6854 1090.7884,974.6854" />
      <path
         style="fill:#70787d;fill-opacity:1;fill-rule:nonzero;stroke:none"
         id="path6021"
         d="M 1065.1884,978.0729 C 1065.1884,977.4929 1065.0222,977.00915 1064.6459,976.6329 C 1064.2897,976.26165 1063.8209,976.07665 1063.2347,976.07665 C 1062.6397,976.07665 1062.1659,976.2479 1061.8234,976.59915 C 1061.4622,976.9604 1061.2909,977.4529 1061.2909,978.06415 C 1061.2909,978.54165 1061.4672,978.9429 1061.8234,979.2554 C 1062.1847,979.5629 1062.7997,979.8554 1063.6697,980.13915 C 1064.9684,980.53415 1065.9059,981.06665 1066.4672,981.71165 C 1067.0484,982.3504 1067.3309,983.1854 1067.3309,984.2204 C 1067.3309,985.2704 1066.9359,986.16415 1066.1834,986.8729 C 1065.3934,987.5904 1064.4309,987.94665 1063.2684,987.94665 C 1062.0284,987.94665 1061.0472,987.5754 1060.3097,986.8579 C 1059.5922,986.1254 1059.2259,985.12915 1059.2259,983.89915 L 1060.9109,983.89915 C 1060.8859,984.70915 1061.0859,985.34915 1061.5059,985.8179 C 1061.9259,986.27665 1062.5072,986.49665 1063.2684,986.49665 C 1063.9822,986.49665 1064.5534,986.3154 1064.9872,985.9104 C 1065.4072,985.52415 1065.6322,984.9879 1065.6322,984.3229 C 1065.6322,983.65915 1065.4172,983.1179 1065.0222,982.71665 C 1064.6022,982.30665 1063.8934,981.9454 1062.8984,981.6329 C 1061.7209,981.26165 1060.8859,980.8129 1060.3734,980.2604 C 1059.8509,979.72415 1059.5922,979.0204 1059.5922,978.16165 C 1059.5922,977.1404 1059.9297,976.3004 1060.6322,975.6229 C 1061.3209,974.9629 1062.1847,974.63165 1063.2197,974.63165 C 1064.3184,974.63165 1065.1884,974.9479 1065.8672,975.5829 C 1066.5309,976.2129 1066.8572,977.0429 1066.8572,978.0729 L 1065.1884,978.0729" />
      <path
         style="fill:#70787d;fill-opacity:1;fill-rule:nonzero;stroke:none"
         id="path6023"
         d="M 1055.9347,980.44665 C 1055.7647,979.3479 1055.3047,978.3954 1054.5147,977.5854 C 1053.5234,976.57915 1052.3272,976.07665 1050.8809,976.07665 C 1049.4609,976.07665 1048.2497,976.57915 1047.2584,977.5904 C 1046.4872,978.3954 1046.0134,979.3479 1045.8272,980.44665 L 1055.9347,980.44665 z M 1050.8809,987.94665 C 1048.9959,987.94665 1047.3847,987.31665 1046.0772,986.0179 C 1044.7634,984.73415 1044.0897,983.15165 1044.0897,981.28665 C 1044.0897,979.42165 1044.7634,977.84915 1046.0772,976.5604 C 1047.3847,975.2704 1048.9959,974.63165 1050.8809,974.63165 C 1052.7909,974.63165 1054.3922,975.2704 1055.7059,976.5604 C 1057.0097,977.84915 1057.6634,979.42165 1057.6634,981.28665 C 1057.6634,981.49165 1057.6584,981.69165 1057.6247,981.90665 L 1045.8134,981.90665 C 1045.9397,983.0879 1046.4084,984.1329 1047.2772,985.00165 C 1048.2684,986.0029 1049.4947,986.49665 1050.9397,986.49665 C 1051.9697,986.49665 1052.8834,986.25165 1053.6547,985.74915 C 1054.4359,985.24165 1055.0609,984.49915 1055.5197,983.5279 L 1057.2584,983.5279 C 1056.7797,984.8504 1055.9647,985.9204 1054.8022,986.7254 C 1053.6297,987.54665 1052.3309,987.94665 1050.8809,987.94665" />
      <path
         style="fill:#70787d;fill-opacity:1;fill-rule:nonzero;stroke:none"
         id="path6025"
         d="M 1039.9872,970.45665 L 1041.6522,970.45665 L 1041.6522,973.37165 L 1039.9872,973.37165 L 1039.9872,970.45665 z M 1039.9684,974.93915 L 1041.6522,974.93915 L 1041.6522,987.65415 L 1039.9684,987.65415 L 1039.9684,974.93915 z" />
      <path
         style="fill:#70787d;fill-opacity:1;fill-rule:nonzero;stroke:none"
         id="path6027"
         d="M 1030.1047,976.0179 C 1028.6697,976.0179 1027.4634,976.5304 1026.4772,977.54665 C 1025.4709,978.55665 1024.9922,979.80165 1024.9922,981.26665 C 1024.9922,982.74165 1025.4709,983.97665 1026.4772,984.9879 C 1027.4634,986.0029 1028.6697,986.50165 1030.1047,986.50165 C 1031.5409,986.50165 1032.7609,985.9929 1033.7572,984.9779 C 1034.7384,983.96165 1035.2372,982.71665 1035.2372,981.26165 C 1035.2372,979.79665 1034.7384,978.55665 1033.7572,977.54665 C 1032.7609,976.5304 1031.5409,976.0179 1030.1047,976.0179 M 1030.3584,991.16915 C 1031.9259,991.16915 1033.1272,990.74415 1033.9522,989.89915 C 1034.7634,989.06415 1035.1684,987.81915 1035.1684,986.2229 L 1035.1684,985.5104 L 1034.7147,986.0079 C 1033.4497,987.30165 1031.8434,987.94665 1029.8947,987.94665 C 1028.0547,987.94665 1026.4822,987.31665 1025.2222,986.0179 C 1023.9422,984.73415 1023.3084,983.15165 1023.3084,981.28665 C 1023.3084,979.42165 1023.9422,977.84915 1025.2322,976.5604 C 1026.5059,975.2704 1028.0547,974.63165 1029.9047,974.63165 C 1031.8434,974.63165 1033.4497,975.2704 1034.7147,976.5604 L 1035.1684,977.0479 L 1035.1684,974.92415 L 1036.8484,974.92415 L 1036.8484,986.0279 C 1036.8484,988.12665 1036.2772,989.7529 1035.1434,990.8954 C 1034.0309,992.0429 1032.4384,992.61915 1030.3447,992.61915 C 1028.6984,992.61915 1027.2822,992.21415 1026.1397,991.39415 C 1025.0072,990.5779 1024.2309,989.4604 1023.8547,988.02915 L 1025.6372,988.02915 C 1026.0134,989.0104 1026.6184,989.7879 1027.4634,990.35415 C 1028.2984,990.8954 1029.2597,991.16915 1030.3584,991.16915" />
      <path
         style="fill:#70787d;fill-opacity:1;fill-rule:nonzero;stroke:none"
         id="path6029"
         d="M 1016.8134,974.93915 L 1018.4834,974.93915 L 1018.4834,976.77415 L 1018.4884,976.77415 C 1018.6297,976.4529 1018.7909,976.1979 1018.9672,975.96915 C 1019.6609,975.11915 1020.7397,974.6604 1022.2097,974.60665 L 1022.2097,976.3154 C 1021.1059,976.39915 1020.2172,976.7654 1019.5534,977.3904 C 1018.8359,978.0879 1018.4984,979.10415 1018.4984,980.4129 L 1018.4984,987.65415 L 1016.8134,987.65415 L 1016.8134,974.93915" />
      <path
         style="fill:#70787d;fill-opacity:1;fill-rule:nonzero;stroke:none"
         id="path6031"
         d="M 1012.5559,980.44665 C 1012.3897,979.3479 1011.9209,978.3954 1011.1209,977.5854 C 1010.1347,976.57915 1008.9334,976.07665 1007.4972,976.07665 C 1006.0772,976.07665 1004.8709,976.57915 1003.8647,977.5904 C 1003.1072,978.3954 1002.6297,979.3479 1002.4484,980.44665 L 1012.5559,980.44665 z M 1007.4922,987.94665 C 1005.5984,987.94665 1004.0009,987.31665 1002.6834,986.0179 C 1001.3797,984.73415 1000.7197,983.15165 1000.7197,981.28665 C 1000.7197,979.42165 1001.3797,977.84915 1002.6834,976.5604 C 1004.0009,975.2704 1005.5984,974.63165 1007.4922,974.63165 C 1009.3922,974.63165 1011.0034,975.2704 1012.3122,976.5604 C 1013.6297,977.84915 1014.2847,979.42165 1014.2847,981.28665 C 1014.2897,981.49165 1014.2847,981.69165 1014.2409,981.90665 L 1002.4247,981.90665 C 1002.5459,983.0879 1003.0397,984.1329 1003.8934,985.00165 C 1004.8897,986.0029 1006.1259,986.49665 1007.5459,986.49665 C 1008.5909,986.49665 1009.4847,986.25165 1010.2609,985.74915 C 1011.0372,985.24165 1011.6722,984.49915 1012.1359,983.5279 L 1013.8747,983.5279 C 1013.4059,984.8504 1012.5897,985.9204 1011.4184,986.7254 C 1010.2459,987.54665 1008.9422,987.94665 1007.4922,987.94665" />
      <path
         style="fill:#70787d;fill-opacity:1;fill-rule:nonzero;stroke:none"
         id="path6033"
         d="M 986.84342,974.93915 L 988.51842,974.93915 L 988.51842,976.57915 L 988.77217,976.26165 C 989.69967,975.1679 990.96967,974.60665 992.57592,974.60665 C 994.37717,974.60665 995.78842,975.15415 996.79467,976.2329 C 997.80467,977.31165 998.29842,978.8204 998.29842,980.73915 L 998.29842,987.65415 L 996.62342,987.65415 L 996.62342,980.6954 C 996.62342,979.2554 996.26717,978.1179 995.55467,977.30665 C 994.84092,976.48165 993.85467,976.07665 992.57592,976.07665 C 991.28217,976.07665 990.28592,976.49165 989.57217,977.32165 C 988.87967,978.14165 988.53217,979.3279 988.53217,980.87165 L 988.53217,987.65415 L 986.84342,987.65415 L 986.84342,974.93915" />
      <path
         style="fill:#70787d;fill-opacity:1;fill-rule:nonzero;stroke:none"
         id="path6035"
         d="M 973.27342,979.9829 C 973.43967,979.18665 973.83592,978.4979 974.47467,977.92165 C 975.29467,977.19415 976.30592,976.8229 977.49717,976.8229 C 978.68342,976.8229 979.69967,977.19415 980.50967,977.9129 C 981.17967,978.4879 981.57967,979.18665 981.71092,979.9829 L 973.27342,979.9829 z M 982.40967,976.4379 C 981.06717,975.12415 979.39717,974.4604 977.45342,974.4604 C 975.52467,974.4604 973.85967,975.12415 972.51217,976.4379 C 971.16967,977.75165 970.48592,979.39165 970.48592,981.3054 C 970.48592,983.2154 971.16967,984.8554 972.51717,986.17415 C 973.85967,987.4829 975.51967,988.14665 977.45342,988.14665 C 978.93842,988.14665 980.29467,987.72665 981.48717,986.90165 C 982.11217,986.46165 982.64842,985.94415 983.08342,985.3679 L 983.10717,985.33915 L 983.12717,985.3054 C 983.14217,985.2754 983.15717,985.24665 983.17592,985.21165 C 983.29342,985.01165 983.35217,984.80165 983.35217,984.58665 C 983.35217,983.90415 982.79092,983.34665 982.10217,983.34665 C 981.71592,983.34665 981.34967,983.5279 981.10092,983.8504 L 980.99342,983.98165 L 981.06717,983.89415 C 980.71092,984.4304 980.29967,984.8454 979.84592,985.13415 C 979.17217,985.5779 978.41092,985.7929 977.50717,985.7929 C 976.27717,985.7929 975.21717,985.35915 974.35717,984.49915 C 973.74717,983.88915 973.35717,983.2004 973.17592,982.40415 L 984.31842,982.39915 L 984.38717,981.98915 C 984.42592,981.7604 984.44092,981.5304 984.43092,981.3154 C 984.43092,979.39665 983.74717,977.75665 982.40967,976.4379 M 983.19092,985.1829 C 983.18592,985.1979 983.18092,985.2029 983.17592,985.21165 C 983.17092,985.21665 983.17092,985.22165 983.16592,985.23165 L 983.19092,985.1829 z" />
      <path
         style="fill:#70787d;fill-opacity:1;fill-rule:nonzero;stroke:none"
         id="path6037"
         d="M 959.62092,981.28165 C 959.62092,982.81915 958.37092,984.06415 956.84342,984.06415 C 955.30967,984.06415 954.06967,982.81915 954.06967,981.28165 C 954.06967,979.7479 955.30967,978.4979 956.84342,978.4979 C 958.37092,978.4979 959.62092,979.7479 959.62092,981.28165" />
      <path
         style="fill:#70787d;fill-opacity:1;fill-rule:nonzero;stroke:none"
         id="path6039"
         d="M 941.45217,980.44665 C 941.29592,979.3479 940.81717,978.3954 940.02717,977.5854 C 939.04092,976.57915 937.82967,976.07665 936.40342,976.07665 C 934.97842,976.07665 933.76717,976.57915 932.77092,977.5904 C 932.00467,978.3954 931.53092,979.3479 931.33592,980.44665 L 941.45217,980.44665 z M 936.39342,987.94665 C 934.50467,987.94665 932.90217,987.31665 931.58467,986.0179 C 930.28592,984.73415 929.62092,983.15165 929.62092,981.28665 C 929.62092,979.42165 930.28592,977.84915 931.58467,976.5604 C 932.90217,975.2704 934.50967,974.63165 936.39342,974.63165 C 938.29342,974.63165 939.89967,975.2704 941.21342,976.5604 C 942.52217,977.84915 943.18092,979.42165 943.18092,981.28665 C 943.19092,981.49165 943.17592,981.69165 943.14217,981.90665 L 931.33592,981.90665 C 931.44717,983.0879 931.94092,984.1329 932.79467,985.00165 C 933.79592,986.0029 935.01217,986.49665 936.45717,986.49665 C 937.49717,986.49665 938.39592,986.25165 939.16217,985.74915 C 939.94842,985.24165 940.56842,984.49915 941.04717,983.5279 L 942.77092,983.5279 C 942.31217,984.8504 941.49217,985.9204 940.31967,986.7254 C 939.15717,987.54665 937.84467,987.94665 936.39342,987.94665" />
      <path
         style="fill:#70787d;fill-opacity:1;fill-rule:nonzero;stroke:none"
         id="path6041"
         d="M 917.39467,982.4729 C 917.39467,983.7329 917.73717,984.72415 918.42967,985.43165 C 919.10842,986.14915 920.07592,986.49165 921.30092,986.49165 C 922.62467,986.49165 923.64967,986.07165 924.36217,985.25165 C 925.08592,984.40665 925.44717,983.2254 925.44717,981.67165 L 925.44717,974.92415 L 927.12092,974.92415 L 927.12092,987.65415 L 925.55467,987.65415 L 925.55467,985.6079 C 925.41717,985.84165 925.26092,986.07165 925.08592,986.29665 C 924.18717,987.39915 922.93717,987.94665 921.33592,987.94665 C 919.57717,987.94665 918.20592,987.4629 917.21467,986.49665 C 916.21842,985.54415 915.71092,984.2204 915.71092,982.50165 L 915.71092,974.92415 L 917.39467,974.92415 L 917.39467,982.4729" />
      <path
         style="fill:#70787d;fill-opacity:1;fill-rule:nonzero;stroke:none"
         id="path6043"
         d="M 905.83217,976.07665 C 904.35717,976.07665 903.11717,976.57915 902.10717,977.5904 C 901.08092,978.6054 900.58342,979.8504 900.58342,981.3254 C 900.58342,982.7854 901.08092,984.0204 902.10717,985.04165 C 903.11717,986.04665 904.35717,986.5554 905.83217,986.5554 C 907.29217,986.5554 908.53717,986.04665 909.56342,985.03165 C 910.56842,984.0154 911.06717,982.7704 911.06717,981.3054 C 911.06717,979.8454 910.56842,978.6004 909.56342,977.5904 C 908.53717,976.57915 907.29217,976.07665 905.83217,976.07665 M 905.62717,987.94665 C 903.74717,987.94665 902.16592,987.31665 900.85217,986.0179 C 899.55842,984.73415 898.90842,983.14665 898.90842,981.28665 C 898.90842,979.42165 899.55842,977.84915 900.85217,976.5604 C 902.16592,975.2704 903.74717,974.63165 905.62717,974.63165 C 907.60967,974.63165 909.24592,975.2804 910.53967,976.56415 L 911.01342,977.0779 L 911.01342,974.92415 L 912.68342,974.92415 L 912.68342,992.12665 L 911.01342,992.12665 L 911.01342,985.5104 L 910.53967,986.0179 C 909.24592,987.31665 907.60967,987.94665 905.62717,987.94665" />
      <path
         style="fill:#70787d;fill-opacity:1;fill-rule:nonzero;stroke:none"
         id="path6045"
         d="M 894.81717,970.45665 L 896.48217,970.45665 L 896.48217,973.37165 L 894.81717,973.37165 L 894.81717,970.45665 z M 894.80217,974.93915 L 896.48217,974.93915 L 896.48217,987.65415 L 894.80217,987.65415 L 894.80217,974.93915 z" />
      <path
         style="fill:#70787d;fill-opacity:1;fill-rule:nonzero;stroke:none"
         id="path6047"
         d="M 872.51717,974.93915 L 874.18217,974.93915 L 874.18217,976.2429 L 874.32842,976.08665 C 875.14842,975.1004 876.30092,974.60665 877.77092,974.60665 C 879.39717,974.60665 880.66092,975.1004 881.57467,976.07665 C 881.83842,976.36915 882.06717,976.68165 882.26342,977.0329 C 882.43342,976.66665 882.63467,976.3454 882.87842,976.07665 C 883.72342,975.1004 884.89467,974.60665 886.39842,974.60665 C 888.06342,974.60665 889.36717,975.10915 890.29967,976.1154 C 891.23217,977.12165 891.69717,978.5129 891.69717,980.2954 L 891.69717,987.65415 L 890.01717,987.65415 L 890.01717,980.10915 C 890.01717,978.85415 889.71467,977.8629 889.08967,977.1404 C 888.46467,976.4379 887.59467,976.07665 886.49217,976.07665 C 885.36342,976.07665 884.48967,976.4379 883.87467,977.1404 C 883.25967,977.8629 882.94717,978.88415 882.94717,980.1979 L 882.94717,987.65415 L 881.26717,987.65415 L 881.26717,980.12915 C 881.26717,978.85415 880.95967,977.8629 880.33967,977.1404 C 879.70967,976.4379 878.84467,976.07665 877.73717,976.07665 C 876.60842,976.07665 875.73467,976.4379 875.11467,977.1404 C 874.50467,977.8629 874.20217,978.88415 874.20217,980.1979 L 874.20217,987.65415 L 872.51717,987.65415 L 872.51717,974.93915" />
      <path
         style="fill:#70787d;fill-opacity:1;fill-rule:nonzero;stroke:none"
         id="path6049"
         d="M 866.81342,985.00165 C 867.80967,983.98165 868.30342,982.75665 868.30342,981.28665 C 868.30342,979.8454 867.80967,978.6004 866.81342,977.5904 C 865.82717,976.57915 864.60717,976.08165 863.16592,976.08165 C 861.73592,976.08165 860.52467,976.57915 859.53342,977.5904 C 858.54217,978.6004 858.04467,979.8454 858.04467,981.28665 C 858.04467,982.75665 858.54217,983.98165 859.53342,985.00165 C 860.52467,986.0029 861.73592,986.50165 863.16592,986.50165 C 864.60717,986.50165 865.82717,986.0029 866.81342,985.00165 M 858.34217,986.0179 C 857.01842,984.73415 856.36467,983.15165 856.36467,981.28665 C 856.36467,979.42165 857.01842,977.84915 858.34217,976.5604 C 859.66092,975.2704 861.26717,974.63165 863.16592,974.63165 C 865.08092,974.63165 866.69717,975.2704 868.00967,976.5604 C 869.32342,977.84915 869.97842,979.42165 869.97842,981.28665 C 869.97842,983.15165 869.32342,984.73415 868.00967,986.0179 C 866.69717,987.31665 865.08092,987.94665 863.16592,987.94665 C 861.26717,987.94665 859.66092,987.31665 858.34217,986.0179" />
      <path
         style="fill:#70787d;fill-opacity:1;fill-rule:nonzero;stroke:none"
         id="path6051"
         d="M 850.40217,987.65415 L 850.40217,976.39415 L 847.64342,976.39415 L 847.64342,974.92415 L 850.40217,974.92415 L 850.40217,970.4704 L 852.07717,970.4704 L 852.07717,974.92415 L 855.16842,974.92415 L 855.16842,976.39415 L 852.07717,976.39415 L 852.07717,987.65415 L 850.40217,987.65415 z" />
      <path
         style="fill:#70787d;fill-opacity:1;fill-rule:nonzero;stroke:none"
         id="path6053"
         d="M 838.81592,985.8229 C 837.54092,985.8229 836.49217,985.3929 835.61217,984.51415 C 834.74342,983.66415 834.30842,982.5954 834.30842,981.3304 C 834.30842,980.0504 834.73342,979.00165 835.60717,978.13665 C 836.49217,977.2529 837.53592,976.8229 838.81592,976.8229 C 840.09467,976.8229 841.14467,977.2479 842.01842,978.12665 C 842.90217,978.99665 843.32717,980.04665 843.32717,981.3254 C 843.32717,982.5754 842.88842,983.64415 842.01842,984.51415 C 841.14467,985.3929 840.09967,985.8229 838.81592,985.8229 M 844.55342,974.6854 C 843.83967,974.6854 843.26467,975.25665 843.26467,975.95915 L 843.26467,976.1004 C 841.99967,975.03165 840.49592,974.4704 838.74217,974.4704 C 836.78467,974.4704 835.11467,975.12915 833.77217,976.4379 C 832.40967,977.75665 831.71592,979.39165 831.71592,981.3054 C 831.71592,983.2004 832.40967,984.83665 833.76717,986.16915 C 835.12967,987.4729 836.80467,988.13665 838.74217,988.13665 C 840.50092,988.13665 842.00967,987.5704 843.26467,986.5154 L 843.26467,986.5554 C 843.26467,987.2729 843.83967,987.84915 844.55342,987.84915 C 845.26592,987.84915 845.84717,987.2729 845.84717,986.56915 L 845.84717,975.95915 C 845.84717,975.25665 845.26592,974.6854 844.55342,974.6854" />
      <path
         style="fill:#70787d;fill-opacity:1;fill-rule:nonzero;stroke:none"
         id="path6055"
         d="M 819.33342,980.44665 C 819.17217,979.3479 818.69842,978.3954 817.90217,977.5854 C 816.91592,976.57915 815.71092,976.07665 814.27967,976.07665 C 812.85342,976.07665 811.64342,976.57915 810.65217,977.5904 C 809.88467,978.3954 809.41092,979.3479 809.22592,980.44665 L 819.33342,980.44665 z M 814.26967,987.94665 C 812.37967,987.94665 810.77342,987.31665 809.46467,986.0179 C 808.15717,984.73415 807.50217,983.15165 807.50217,981.28665 C 807.50217,979.42165 808.15717,977.84915 809.46467,976.5604 C 810.77342,975.2704 812.37967,974.63165 814.26967,974.63165 C 816.17467,974.63165 817.78092,975.2704 819.08967,976.5604 C 820.40217,977.84915 821.05717,979.42165 821.05717,981.28665 C 821.06717,981.49165 821.05717,981.69165 821.02342,981.90665 L 809.21092,981.90665 C 809.32342,983.0879 809.81217,984.1329 810.67592,985.00165 C 811.67217,986.0029 812.89842,986.49665 814.32842,986.49665 C 815.35842,986.49665 816.26717,986.25165 817.04342,985.74915 C 817.81967,985.24165 818.44967,984.49915 818.92342,983.5279 L 820.64717,983.5279 C 820.18342,984.8504 819.36717,985.9204 818.19592,986.7254 C 817.02842,987.54665 815.71967,987.94665 814.26967,987.94665" />
      <path
         style="fill:#70787d;fill-opacity:1;fill-rule:nonzero;stroke:none"
         id="path6057"
         d="M 803.38592,970.45665 L 805.04592,970.45665 L 805.04592,973.37165 L 803.38592,973.37165 L 803.38592,970.45665 z M 803.38092,974.93915 L 805.04592,974.93915 L 805.04592,987.65415 L 803.38092,987.65415 L 803.38092,974.93915 z" />
      <path
         style="fill:#70787d;fill-opacity:1;fill-rule:nonzero;stroke:none"
         id="path6059"
         d="M 793.49842,976.0179 C 792.06717,976.0179 790.85717,976.5304 789.86592,977.54665 C 788.87467,978.55665 788.37592,979.80165 788.37592,981.26665 C 788.37592,982.74165 788.87467,983.97665 789.86592,984.9879 C 790.85717,986.0029 792.06717,986.50165 793.49842,986.50165 C 794.93842,986.50165 796.15467,985.9929 797.15092,984.9779 C 798.13717,983.96165 798.62967,982.71665 798.62967,981.26165 C 798.62967,979.79665 798.13717,978.55665 797.15092,977.54665 C 796.15467,976.5304 794.93842,976.0179 793.49842,976.0179 M 793.75717,991.16915 C 795.32467,991.16915 796.52092,990.74415 797.34092,989.89915 C 798.15217,989.06415 798.55717,987.81915 798.55717,986.2229 L 798.55717,985.5104 L 798.11717,986.0079 C 796.84342,987.30165 795.23717,987.94665 793.28342,987.94665 C 791.44217,987.94665 789.88967,987.31665 788.61592,986.0179 C 787.33592,984.73415 786.70592,983.15165 786.70592,981.28665 C 786.70592,979.42165 787.33592,977.84915 788.61592,976.5604 C 789.89967,975.2704 791.45717,974.63165 793.29842,974.63165 C 795.23717,974.63165 796.84342,975.2704 798.11717,976.5604 L 798.55717,977.0479 L 798.55717,974.92415 L 800.23717,974.92415 L 800.23717,986.0279 C 800.23717,988.12665 799.67467,989.7529 798.54717,990.8954 C 797.41967,992.0429 795.81717,992.61915 793.74217,992.61915 C 792.09217,992.61915 790.69092,992.21415 789.53842,991.39415 C 788.39592,990.5779 787.63467,989.4604 787.25342,988.02915 L 789.03592,988.02915 C 789.40717,989.0104 790.01717,989.7879 790.85717,990.35415 C 791.68217,990.8954 792.65342,991.16915 793.75717,991.16915" />
      <path
         style="fill:#70787d;fill-opacity:1;fill-rule:nonzero;stroke:none"
         id="path6061"
         d="M 780.21217,974.93915 L 781.88217,974.93915 L 781.88217,976.77415 L 781.88717,976.77415 C 782.02342,976.4529 782.18967,976.1979 782.36592,975.96915 C 783.05467,975.11915 784.13842,974.6604 785.59342,974.60665 L 785.59342,976.3154 C 784.48967,976.39915 783.61092,976.7654 782.95592,977.3904 C 782.24342,978.0879 781.89217,979.10415 781.89217,980.4129 L 781.89217,987.65415 L 780.21217,987.65415 L 780.21217,974.93915" />
      <path
         style="fill:#70787d;fill-opacity:1;fill-rule:nonzero;stroke:none"
         id="path6063"
         d="M 775.93967,980.44665 C 775.78342,979.3479 775.30967,978.3954 774.51467,977.5854 C 773.53217,976.57915 772.32717,976.07665 770.88592,976.07665 C 769.46092,976.07665 768.25967,976.57915 767.26842,977.5904 C 766.50092,978.3954 766.02342,979.3479 765.84217,980.44665 L 775.93967,980.44665 z M 770.88092,987.94665 C 768.99217,987.94665 767.39467,987.31665 766.08592,986.0179 C 764.77342,984.73415 764.10842,983.15165 764.10842,981.28665 C 764.10842,979.42165 764.77342,977.84915 766.08592,976.5604 C 767.39467,975.2704 768.99217,974.63165 770.88592,974.63165 C 772.79467,974.63165 774.40217,975.2704 775.70592,976.5604 C 777.01842,977.84915 777.66842,979.42165 777.66842,981.28665 C 777.67842,981.49165 777.66842,981.69165 777.63967,981.90665 L 765.82717,981.90665 C 765.93967,983.0879 766.42842,984.1329 767.28717,985.00165 C 768.28842,986.0029 769.50967,986.49665 770.94467,986.49665 C 771.97967,986.49665 772.88842,986.25165 773.65967,985.74915 C 774.44092,985.24165 775.06592,984.49915 775.53467,983.5279 L 777.26842,983.5279 C 776.80842,984.8504 775.98342,985.9204 774.81717,986.7254 C 773.63967,987.54665 772.33092,987.94665 770.88092,987.94665" />
      <path
         style="fill:#70787d;fill-opacity:1;fill-rule:nonzero;stroke:none"
         id="path6065"
         d="M 750.24217,974.93915 L 751.91092,974.93915 L 751.91092,976.57915 L 752.17467,976.26165 C 753.08842,975.1679 754.35342,974.60665 755.97342,974.60665 C 757.77592,974.60665 759.17217,975.15415 760.17842,976.2329 C 761.19342,977.31165 761.69217,978.8204 761.69217,980.73915 L 761.69217,987.65415 L 760.01717,987.65415 L 760.01717,980.6954 C 760.01717,979.2554 759.66592,978.1179 758.95217,977.30665 C 758.23467,976.48165 757.24842,976.07665 755.97342,976.07665 C 754.67967,976.07665 753.67467,976.49165 752.97592,977.32165 C 752.27342,978.14165 751.92092,979.3279 751.92092,980.87165 L 751.92092,987.65415 L 750.24217,987.65415 L 750.24217,974.93915" />
      <path
         style="fill:#70787d;fill-opacity:1;fill-rule:nonzero;stroke:none"
         id="path6067"
         d="M 736.65717,979.9829 C 736.81842,979.18665 737.21467,978.4979 737.85342,977.92165 C 738.67967,977.19415 739.68467,976.8229 740.87592,976.8229 C 742.06342,976.8229 743.07842,977.19415 743.88967,977.9129 C 744.56342,978.4879 744.95842,979.18665 745.09467,979.9829 L 736.65717,979.9829 z M 745.78842,976.4379 C 744.44592,975.12415 742.78092,974.4604 740.83717,974.4604 C 738.90342,974.4604 737.23842,975.12415 735.89092,976.4379 C 734.54842,977.75165 733.86467,979.39165 733.86467,981.3054 C 733.86467,983.2154 734.54842,984.8554 735.89592,986.17415 C 737.23842,987.4829 738.90342,988.14665 740.83717,988.14665 C 742.32217,988.14665 743.67467,987.72665 744.87092,986.90165 C 745.49092,986.46165 746.02717,985.94415 746.46217,985.3679 L 746.48717,985.33915 L 746.50592,985.3054 C 746.52092,985.2754 746.54092,985.24665 746.55467,985.21165 C 746.67217,985.01165 746.73092,984.80165 746.73092,984.58665 C 746.73092,983.90415 746.17467,983.34665 745.48592,983.34665 C 745.09967,983.34665 744.72842,983.5279 744.47967,983.8504 L 744.37217,983.98165 L 744.44592,983.89415 C 744.08967,984.4304 743.67967,984.8454 743.22467,985.13415 C 742.55092,985.5779 741.78967,985.7929 740.89092,985.7929 C 739.65592,985.7929 738.59592,985.35915 737.73717,984.49915 C 737.12592,983.88915 736.73592,983.2004 736.55467,982.40415 L 747.69717,982.39915 L 747.76592,981.98915 C 747.80467,981.7604 747.81967,981.5304 747.80967,981.3154 C 747.80967,979.39665 747.13092,977.75665 745.78842,976.4379 M 746.56967,985.1829 C 746.56467,985.1979 746.55967,985.2029 746.55467,985.21165 C 746.54967,985.21665 746.54967,985.22165 746.54467,985.23165 L 746.56967,985.1829 z" />
    </g>
    <g
       id="g2519">
      <path
         style="fill:#85b926;fill-opacity:1;fill-rule:nonzero;stroke:none"
         id="path6093"
         d="M 362.95873,249.175 L 362.95373,249.175 L 113.67625,249.175 L 113.6375,249.175 C 110.9625,249.175 108.78375,251.3775 108.78375,254.1025 C 108.78375,256.82625 110.9625,259.02875 113.6375,259.02875 L 113.67625,259.02875 L 362.95373,259.02875 L 362.95873,259.02875 C 365.64503,259.02875 367.81253,256.82625 367.81253,254.1025 C 367.81253,251.3775 365.64503,249.175 362.95873,249.175" />
      <path
         style="fill:#70787d;fill-opacity:1;fill-rule:nonzero;stroke:none"
         id="path6095"
         d="M 237.8275,88.8675 C 258.535,88.8675 275.59623,104.39 278.04623,124.44375 L 197.6125,124.44375 C 200.05375,104.39 217.11875,88.8675 237.8275,88.8675 M 279.24253,152.6175 C 278.34003,151.30375 276.76753,150.445 275.13623,150.445 C 273.40873,150.445 271.97253,151.27 271.07373,152.525 L 271.08873,152.515 C 263.765,163.0325 251.61125,169.9175 237.8275,169.9175 C 217.12875,169.9175 200.06875,154.4 197.6125,134.36625 L 288.01753,134.36625 C 288.18373,132.73 288.26623,131.075 288.26623,129.39 C 288.26623,127.94 288.21253,126.29 288.01753,124.44375 C 285.53753,98.9025 264.01375,78.94625 237.8275,78.94625 C 209.96625,78.94625 187.3875,101.52875 187.3875,129.39 C 187.3875,138.785 189.96125,147.57875 194.43875,155.1075 C 187.00625,164.13625 175.7525,169.9175 163.14,169.9175 C 140.76125,169.9175 122.6125,151.7725 122.6125,129.39 C 122.6125,107.0075 140.76125,88.8675 163.14,88.8675 C 172.12375,88.8675 180.425,91.7875 187.14875,96.72875 L 187.1625,96.705 C 187.98375,97.31 188.98375,97.67125 190.0775,97.67125 C 192.8225,97.67125 195.03875,95.455 195.03875,92.70625 C 195.03875,90.88875 193.99375,89.42 192.6075,88.4475 C 184.30625,82.47625 174.14,78.95125 163.14,78.95125 C 135.2875,78.95125 112.7,101.52875 112.7,129.39 C 112.7,157.25625 135.2875,179.83 163.14,179.83 C 177.94375,179.83 191.25,173.4525 200.47375,163.29125 C 209.7025,173.4525 223.0225,179.83 237.8275,179.83 C 252.6025,179.83 265.87375,173.4725 275.09253,163.345 C 284.34123,173.61875 297.71003,180.07375 312.60253,180.07375 C 329.72123,180.07375 344.85373,171.53875 353.97503,158.49125 L 353.97503,172.60375 L 353.97503,172.6125 C 353.97503,175.3625 356.19123,177.57375 358.93003,177.57375 C 361.68503,177.57375 363.89123,175.3625 363.89123,172.6175 L 363.89123,86.12375 C 363.88123,83.38875 361.66503,81.1775 358.93003,81.1775 C 356.19623,81.1775 353.98373,83.38875 353.97503,86.12375 L 353.97503,86.14375 L 353.97503,86.1525 L 353.97503,100.79125 C 344.85373,87.745 329.72123,79.195 312.60253,79.195 C 301.61123,79.195 291.44003,82.725 283.14003,88.70125 C 281.69003,89.57125 280.71753,91.13875 280.71753,92.955 C 280.71753,95.69875 282.93503,97.92 285.67873,97.92 C 286.76253,97.92 287.76373,97.55875 288.59373,96.96375 L 288.60373,96.97875 C 295.32253,92.04125 303.62753,89.1125 312.60253,89.1125 C 334.99503,89.1125 353.13503,107.25625 353.13503,129.63875 C 353.13503,152.0175 334.99503,170.16625 312.60253,170.16625 C 298.77003,170.16625 286.57253,163.22375 279.26253,152.6475 L 279.24253,152.6175" />
      <path
         style="fill:#fbbc05;fill-opacity:1;fill-rule:nonzero;stroke:none"
         id="path6097"
         d="M 362.95873,-1.1368684e-13 L 362.95373,-1.1368684e-13 L 113.67625,-1.1368684e-13 L 113.6375,-1.1368684e-13 C 110.9625,-1.1368684e-13 108.78375,2.2025 108.78375,4.9275 C 108.78375,7.6475 110.9625,9.84875 113.6375,9.84875 L 113.67625,9.84875 L 113.67625,9.85875 L 362.95373,9.85875 L 362.95373,9.84875 L 362.95873,9.84875 C 365.64503,9.84875 367.81253,7.6475 367.81253,4.9275 C 367.81253,2.2025 365.64503,-1.1368684e-13 362.95873,-1.1368684e-13" />
    </g>
  </g>
</svg>
