<?xml version="1.0" encoding="UTF-8" standalone="no"?>
<!-- Created with Inkscape (http://www.inkscape.org/) -->
<svg
   xmlns:dc="http://purl.org/dc/elements/1.1/"
   xmlns:cc="http://creativecommons.org/ns#"
   xmlns:rdf="http://www.w3.org/1999/02/22-rdf-syntax-ns#"
   xmlns:svg="http://www.w3.org/2000/svg"
   xmlns="http://www.w3.org/2000/svg"
   xmlns:sodipodi="http://sodipodi.sourceforge.net/DTD/sodipodi-0.dtd"
   xmlns:inkscape="http://www.inkscape.org/namespaces/inkscape"
   id="svg2"
   sodipodi:version="0.32"
   inkscape:version="0.46"
   width="70.532814"
   height="78.669273"
   xml:space="preserve"
   sodipodi:docname="logoCEADEC.svg"
   inkscape:output_extension="org.inkscape.output.svg.inkscape"
   version="1.0"><metadata
     id="metadata7"><rdf:RDF><cc:Work
         rdf:about=""><dc:format>image/svg+xml</dc:format><dc:type
           rdf:resource="http://purl.org/dc/dcmitype/StillImage" /></cc:Work></rdf:RDF></metadata><defs
     id="defs5"><inkscape:perspective
   sodipodi:type="inkscape:persp3d"
   inkscape:vp_x="0 : 526.18109 : 1"
   inkscape:vp_y="0 : 1000 : 0"
   inkscape:vp_z="744.09448 : 526.18109 : 1"
   inkscape:persp3d-origin="372.04724 : 350.78739 : 1"
   id="perspective9" /><clipPath
   clipPathUnits="userSpaceOnUse"
   id="clipPath17"><path
     d="M 0,0.1 L 595.3,0.1 L 595.3,842 L 0,842 L 0,0.1 z"
     clip-rule="evenodd"
     id="path19" /></clipPath><clipPath
   clipPathUnits="userSpaceOnUse"
   id="clipPath27"><path
     d="M 137.7,628.9 L 188.9,628.9 L 188.9,710.5 L 137.7,710.5 L 137.7,628.9 z"
     id="path29" /></clipPath><clipPath
   clipPathUnits="userSpaceOnUse"
   id="clipPath39"><path
     d="M 201.8,628.9 L 258.9,628.9 L 258.9,710.5 L 201.8,710.5 L 201.8,628.9 z"
     id="path41" /></clipPath><clipPath
   clipPathUnits="userSpaceOnUse"
   id="clipPath51"><path
     d="M 267.8,628.9 L 333.5,628.9 L 333.5,710.5 L 267.8,710.5 L 267.8,628.9 z"
     id="path53" /></clipPath><clipPath
   clipPathUnits="userSpaceOnUse"
   id="clipPath63"><path
     d="M 339.6,628.9 L 379.1,628.9 L 379.1,710.5 L 339.6,710.5 L 339.6,628.9 z"
     id="path65" /></clipPath><clipPath
   clipPathUnits="userSpaceOnUse"
   id="clipPath75"><path
     d="M 394,628.9 L 446.2,628.9 L 446.2,710.5 L 394,710.5 L 394,628.9 z"
     id="path77" /></clipPath><clipPath
   clipPathUnits="userSpaceOnUse"
   id="clipPath87"><path
     d="M 452.4,628.9 L 506.8,628.9 L 506.8,710.5 L 452.4,710.5 L 452.4,628.9 z"
     id="path89" /></clipPath><clipPath
   clipPathUnits="userSpaceOnUse"
   id="clipPath97"><path
     d="M 0,236.2 L 595.3,236.2 L 595.3,546.6 L 0,546.6 L 0,236.2 z"
     clip-rule="evenodd"
     id="path99" /></clipPath><clipPath
   clipPathUnits="userSpaceOnUse"
   id="clipPath109"><path
     d="M 0,723.7 L 595.4,723.7 L 595.4,813.6 L 0,813.6 L 0,723.7 z"
     clip-rule="evenodd"
     id="path111" /></clipPath><clipPath
   clipPathUnits="userSpaceOnUse"
   id="clipPath147"><path
     d="M 74.1,745.4 L 129.9,745.4 L 129.9,801.3 L 74.1,801.3 L 74.1,745.4 z"
     clip-rule="evenodd"
     id="path149" /></clipPath><clipPath
   clipPathUnits="userSpaceOnUse"
   id="clipPath159"><path
     d="M 0,0.1 L 595.3,0.1 L 595.3,842 L 0,842 L 0,0.1 z"
     clip-rule="evenodd"
     id="path161" /></clipPath><clipPath
   clipPathUnits="userSpaceOnUse"
   id="clipPath173"><path
     d="M 203.5,789 L 345.5,789 L 345.5,810.1 L 203.5,810.1 L 203.5,789 z"
     clip-rule="evenodd"
     id="path175" /></clipPath><clipPath
   clipPathUnits="userSpaceOnUse"
   id="clipPath185"><path
     d="M 0,0.1 L 595.3,0.1 L 595.3,842 L 0,842 L 0,0.1 z"
     clip-rule="evenodd"
     id="path187" /></clipPath><clipPath
   clipPathUnits="userSpaceOnUse"
   id="clipPath809"><path
     d="M 286.4,114.3 L 560.8,114.3 L 560.8,127.8 L 286.4,127.8 L 286.4,114.3 z"
     clip-rule="evenodd"
     id="path811" /></clipPath>





</defs><sodipodi:namedview
     inkscape:cy="39.334687"
     inkscape:cx="45.811588"
     inkscape:zoom="5.8726853"
     inkscape:window-height="724"
     inkscape:window-width="1000"
     inkscape:pageshadow="2"
     inkscape:pageopacity="0.0"
     guidetolerance="10.0"
     gridtolerance="10.0"
     objecttolerance="10.0"
     borderopacity="1.0"
     bordercolor="#666666"
     pagecolor="#ffffff"
     id="base"
     showgrid="false"
     inkscape:window-x="0"
     inkscape:window-y="26"
     inkscape:current-layer="g11" /><g
     id="g11"
     inkscape:groupmode="layer"
     inkscape:label="toto"
     transform="matrix(1.25,0,0,-1.25,-92.071594,1000.9466)"><g
       id="g723"><text
   transform="matrix(1,0,0,-1,286.5,164.1)"
   id="text725"><tspan
     style="font-size:6px;font-variant:normal;font-weight:normal;writing-mode:lr-tb;fill:#ffffff;fill-opacity:1;fill-rule:nonzero;stroke:none;font-family:OpenSymbol;-inkscape-font-specification:OpenSymbol"
     x="0"
     y="0"
     id="tspan727"></tspan></text>

</g><g
       id="g745" /><g
       id="g753"><text
   transform="matrix(1,0,0,-1,286.5,149.7)"
   id="text755"><tspan
     style="font-size:6px;font-variant:normal;font-weight:normal;writing-mode:lr-tb;fill:#ffffff;fill-opacity:1;fill-rule:nonzero;stroke:none;font-family:OpenSymbol;-inkscape-font-specification:OpenSymbol"
     x="0"
     y="0"
     id="tspan757"></tspan></text>

</g><g
       id="g775" /><g
       id="g789" /><g
       id="g803" /><line
       style="font-style:normal;font-variant:normal;font-weight:normal;font-stretch:normal;letter-spacing:normal;word-spacing:normal;text-anchor:start;fill-opacity:1;fill-rule:evenodd;stroke:#4f5557;stroke-width:1.80334771;stroke-linecap:round;stroke-linejoin:miter;stroke-miterlimit:10.43299961;stroke-dasharray:none;stroke-dashoffset:0;stroke-opacity:1"
       id="line3251"
       y2="782.20978"
       x2="128.12331"
       y1="764.26984"
       x1="128.12331" /><g
       id="g3212"><g
         transform="translate(-0.3500522,0)"
         id="g155"><g
           clip-path="url(#clipPath159)"
           id="g157"><g
             id="g163"><text
   id="text165"
   transform="matrix(1,0,0,-1,74.5,737.9)"><tspan
     id="tspan167"
     sodipodi:role="line"
     y="0"
     x="0 5.8000002 11.104 16.903999 19.104 24.903999 30.208 36.007999 38.208 44.007999 49.312"
     style="font-size:8px;font-variant:normal;font-weight:normal;writing-mode:lr-tb;fill:#999999;fill-opacity:1;fill-rule:nonzero;stroke:none;font-family:LiberationSans;-inkscape-font-specification:LiberationSans-Regular">DEN/CAD/DEC</tspan></text>

</g></g></g><g
         transform="translate(8.675895e-2,0)"
         id="g3208"><path
           style="font-style:normal;font-variant:normal;font-weight:normal;font-stretch:normal;letter-spacing:normal;word-spacing:normal;text-anchor:start;fill:none;fill-opacity:1;fill-rule:evenodd;stroke:#4f5557;stroke-width:1.80334771;stroke-linecap:round;stroke-linejoin:round;stroke-miterlimit:10.43299961;stroke-dasharray:none;stroke-dashoffset:0;stroke-opacity:1"
           id="path3247"
           d="M 91.697543,780.92473 L 91.371824,781.16648 L 91.036563,781.3955 L 90.693668,781.61179 L 90.342503,781.81537 L 89.98434,781.99986 L 89.618543,782.16526 L 89.24702,782.3243 L 88.869136,782.4579 L 88.486163,782.58513 L 88.0981,782.69328 L 87.705583,782.78234 L 87.30925,782.85868 L 86.909736,782.91594 L 86.506405,782.96047 L 86.101166,782.98592 L 85.694018,782.99228 C 80.306304,782.99228 75.940278,778.62816 75.940278,773.23981 C 75.940278,767.85146 80.306304,763.48734 85.694018,763.48734 C 88.576499,763.48734 91.312661,764.75968 93.166456,766.97355" /><path
           style="font-style:normal;font-variant:normal;font-weight:normal;font-stretch:normal;letter-spacing:normal;word-spacing:normal;text-anchor:start;fill:none;fill-opacity:1;fill-rule:evenodd;stroke:#4f5557;stroke-width:1.80320001;stroke-linecap:round;stroke-linejoin:round;stroke-miterlimit:10.43299961;stroke-dasharray:none;stroke-dashoffset:0;stroke-opacity:1"
           id="path3249"
           d="M 92.813383,773.23981 L 111.53838,773.23981 C 111.53838,778.62816 107.1679,782.99228 101.78209,782.99228 C 96.396922,782.99228 92.030895,778.62816 92.030895,773.23981 C 92.030895,767.85146 96.396922,763.48734 101.78209,763.48734 C 104.96675,763.48734 107.95038,765.0396 109.77619,767.64153 L 109.88434,767.64153 C 111.71014,765.0396 114.68741,763.48734 117.87462,763.48734 C 123.26297,763.48734 127.62708,767.85146 127.62708,773.23981 C 127.62708,778.62816 123.26297,782.99228 117.87462,782.99228 C 115.69892,782.99228 113.58048,782.26069 111.86918,780.92473" /></g><line
         x1="74.582901"
         y1="799.83167"
         x2="129.1579"
         y2="799.83167"
         id="line3253"
         style="font-style:normal;font-variant:normal;font-weight:normal;font-stretch:normal;letter-spacing:normal;word-spacing:normal;text-anchor:start;fill-opacity:1;fill-rule:evenodd;stroke:#ffb310;stroke-width:1.85125124;stroke-linecap:round;stroke-linejoin:miter;stroke-miterlimit:10.43299961;stroke-dasharray:none;stroke-dashoffset:0;stroke-opacity:1" /><line
         x1="74.584488"
         y1="746.42529"
         x2="129.15631"
         y2="746.42529"
         id="line3255"
         style="font-style:normal;font-variant:normal;font-weight:normal;font-stretch:normal;letter-spacing:normal;word-spacing:normal;text-anchor:start;fill-opacity:1;fill-rule:evenodd;stroke:#70bc1f;stroke-width:1.80334771;stroke-linecap:round;stroke-linejoin:miter;stroke-miterlimit:10.43299961;stroke-dasharray:none;stroke-dashoffset:0;stroke-opacity:1" /></g></g></svg>