<?xml version="1.0" encoding="UTF-8" standalone="no"?>
<!-- Created with Inkscape (http://www.inkscape.org/) -->

<svg
   xmlns:dc="http://purl.org/dc/elements/1.1/"
   xmlns:cc="http://creativecommons.org/ns#"
   xmlns:rdf="http://www.w3.org/1999/02/22-rdf-syntax-ns#"
   xmlns:svg="http://www.w3.org/2000/svg"
   xmlns="http://www.w3.org/2000/svg"
   xmlns:xlink="http://www.w3.org/1999/xlink"
   xmlns:sodipodi="http://sodipodi.sourceforge.net/DTD/sodipodi-0.dtd"
   xmlns:inkscape="http://www.inkscape.org/namespaces/inkscape"
   width="956.46039"
   height="677.70593"
   id="svg2"
   version="1.1"
   inkscape:version="0.48.3.1 r9886"
   sodipodi:docname="mfront.svg">
  <defs
     id="defs4">
    <linearGradient
       inkscape:collect="always"
       id="linearGradient3873">
      <stop
         style="stop-color:#000000;stop-opacity:1;"
         offset="0"
         id="stop3875" />
      <stop
         style="stop-color:#000000;stop-opacity:0;"
         offset="1"
         id="stop3877" />
    </linearGradient>
    <linearGradient
       id="linearGradient3863">
      <stop
         style="stop-color:#ffff00;stop-opacity:1;"
         offset="0"
         id="stop3865" />
      <stop
         style="stop-color:#ffff00;stop-opacity:0;"
         offset="1"
         id="stop3867" />
    </linearGradient>
    <linearGradient
       inkscape:collect="always"
       id="linearGradient3855">
      <stop
         style="stop-color:#000080;stop-opacity:1;"
         offset="0"
         id="stop3857" />
      <stop
         style="stop-color:#000080;stop-opacity:0;"
         offset="1"
         id="stop3859" />
    </linearGradient>
    <linearGradient
       inkscape:collect="always"
       id="linearGradient3847">
      <stop
         style="stop-color:#aa0000;stop-opacity:1;"
         offset="0"
         id="stop3849" />
      <stop
         style="stop-color:#aa0000;stop-opacity:0;"
         offset="1"
         id="stop3851" />
    </linearGradient>
    <linearGradient
       inkscape:collect="always"
       id="linearGradient3839">
      <stop
         style="stop-color:#00ff00;stop-opacity:1;"
         offset="0"
         id="stop3841" />
      <stop
         style="stop-color:#00ff00;stop-opacity:0;"
         offset="1"
         id="stop3843" />
    </linearGradient>
    <linearGradient
       inkscape:collect="always"
       id="linearGradient3811">
      <stop
         style="stop-color:#00ff00;stop-opacity:1;"
         offset="0"
         id="stop3813" />
      <stop
         style="stop-color:#00ff00;stop-opacity:0;"
         offset="1"
         id="stop3815" />
    </linearGradient>
    <linearGradient
       inkscape:collect="always"
       id="linearGradient3803">
      <stop
         style="stop-color:#ff0000;stop-opacity:1;"
         offset="0"
         id="stop3805" />
      <stop
         style="stop-color:#ff0000;stop-opacity:0;"
         offset="1"
         id="stop3807" />
    </linearGradient>
    <linearGradient
       inkscape:collect="always"
       id="linearGradient3795">
      <stop
         style="stop-color:#ffcc00;stop-opacity:1;"
         offset="0"
         id="stop3797" />
      <stop
         style="stop-color:#ffcc00;stop-opacity:0;"
         offset="1"
         id="stop3799" />
    </linearGradient>
    <linearGradient
       inkscape:collect="always"
       id="linearGradient3785">
      <stop
         style="stop-color:#000080;stop-opacity:1;"
         offset="0"
         id="stop3787" />
      <stop
         style="stop-color:#000080;stop-opacity:0;"
         offset="1"
         id="stop3789" />
    </linearGradient>
    <linearGradient
       inkscape:collect="always"
       xlink:href="#linearGradient3785"
       id="linearGradient3793"
       x1="297.43488"
       y1="378.49234"
       x2="647.51733"
       y2="378.49234"
       gradientUnits="userSpaceOnUse" />
    <linearGradient
       inkscape:collect="always"
       xlink:href="#linearGradient3795"
       id="linearGradient3801"
       x1="311.50043"
       y1="526.82043"
       x2="876.40289"
       y2="526.82043"
       gradientUnits="userSpaceOnUse" />
    <linearGradient
       inkscape:collect="always"
       xlink:href="#linearGradient3803"
       id="linearGradient3809"
       x1="13.565598"
       y1="528.09912"
       x2="428.86127"
       y2="528.09912"
       gradientUnits="userSpaceOnUse" />
    <linearGradient
       inkscape:collect="always"
       xlink:href="#linearGradient3811"
       id="linearGradient3817"
       x1="62.155823"
       y1="319.03326"
       x2="442.92688"
       y2="319.03326"
       gradientUnits="userSpaceOnUse" />
    <linearGradient
       inkscape:collect="always"
       xlink:href="#linearGradient3785"
       id="linearGradient3821"
       gradientUnits="userSpaceOnUse"
       x1="297.43488"
       y1="378.49234"
       x2="647.51733"
       y2="378.49234" />
    <linearGradient
       inkscape:collect="always"
       xlink:href="#linearGradient3785"
       id="linearGradient3825"
       gradientUnits="userSpaceOnUse"
       x1="297.43488"
       y1="378.49234"
       x2="647.51733"
       y2="378.49234" />
    <linearGradient
       inkscape:collect="always"
       xlink:href="#linearGradient3785"
       id="linearGradient3829"
       gradientUnits="userSpaceOnUse"
       x1="297.43488"
       y1="378.49234"
       x2="647.51733"
       y2="378.49234" />
    <linearGradient
       inkscape:collect="always"
       xlink:href="#linearGradient3839"
       id="linearGradient3845"
       x1="138.09854"
       y1="445.6236"
       x2="781.27985"
       y2="445.6236"
       gradientUnits="userSpaceOnUse" />
    <linearGradient
       inkscape:collect="always"
       xlink:href="#linearGradient3847"
       id="linearGradient3853"
       x1="138.09854"
       y1="445.6236"
       x2="781.27985"
       y2="445.6236"
       gradientUnits="userSpaceOnUse" />
    <linearGradient
       inkscape:collect="always"
       xlink:href="#linearGradient3855"
       id="linearGradient3861"
       x1="138.09854"
       y1="445.6236"
       x2="781.27985"
       y2="445.6236"
       gradientUnits="userSpaceOnUse" />
    <linearGradient
       inkscape:collect="always"
       xlink:href="#linearGradient3863"
       id="linearGradient3869"
       x1="138.09854"
       y1="445.6236"
       x2="781.27985"
       y2="445.6236"
       gradientUnits="userSpaceOnUse" />
    <radialGradient
       inkscape:collect="always"
       xlink:href="#linearGradient3873"
       id="radialGradient3879"
       cx="424.52521"
       cy="452.6564"
       fx="424.52521"
       fy="452.6564"
       r="478.23019"
       gradientTransform="matrix(1,0,0,0.70855619,0,131.9239)"
       gradientUnits="userSpaceOnUse" />
  </defs>
  <sodipodi:namedview
     id="base"
     pagecolor="#ffffff"
     bordercolor="#666666"
     borderopacity="1.0"
     inkscape:pageopacity="0.0"
     inkscape:pageshadow="2"
     inkscape:zoom="0.78205015"
     inkscape:cx="152.11249"
     inkscape:cy="265.32828"
     inkscape:document-units="px"
     inkscape:current-layer="layer1"
     showgrid="false"
     fit-margin-top="0"
     fit-margin-left="0"
     fit-margin-right="0"
     fit-margin-bottom="0"
     inkscape:window-width="1920"
     inkscape:window-height="1021"
     inkscape:window-x="0"
     inkscape:window-y="27"
     inkscape:window-maximized="1" />
  <metadata
     id="metadata7">
    <rdf:RDF>
      <cc:Work
         rdf:about="">
        <dc:format>image/svg+xml</dc:format>
        <dc:type
           rdf:resource="http://purl.org/dc/dcmitype/StillImage" />
        <dc:title />
      </cc:Work>
    </rdf:RDF>
  </metadata>
  <g
     inkscape:label="Calque 1"
     inkscape:groupmode="layer"
     id="layer1"
     transform="translate(53.704994,-113.80344)">
    <rect
       style="fill:url(#radialGradient3879);fill-opacity:1"
       id="rect3871"
       width="956.46039"
       height="677.70593"
       x="-53.704994"
       y="113.80344" />
    <path
       transform="matrix(0.85405283,0.61312966,0.85405283,-0.61312966,-193.29886,548.88497)"
       d="m 781.27982,445.6236 c 0,105.57708 -143.98104,191.16421 -321.59064,191.16421 -177.60961,0 -321.59064,-85.58713 -321.59064,-191.16421 0,-105.57708 143.98103,-191.16422 321.59064,-191.16422 177.6096,0 321.59064,85.58714 321.59064,191.16422 z"
       sodipodi:ry="191.16422"
       sodipodi:rx="321.59064"
       sodipodi:cy="445.6236"
       sodipodi:cx="459.68918"
       id="path3837"
       style="fill:url(#linearGradient3853);fill-opacity:1"
       sodipodi:type="arc" />
    <path
       sodipodi:type="arc"
       style="fill:url(#linearGradient3845);fill-opacity:1"
       id="path3835"
       sodipodi:cx="459.68918"
       sodipodi:cy="445.6236"
       sodipodi:rx="321.59064"
       sodipodi:ry="191.16422"
       d="m 781.27982,445.6236 c 0,105.57708 -143.98104,191.16421 -321.59064,191.16421 -177.60961,0 -321.59064,-85.58713 -321.59064,-191.16421 0,-105.57708 143.98103,-191.16422 321.59064,-191.16422 177.6096,0 321.59064,85.58714 321.59064,191.16422 z"
       transform="matrix(-0.85405283,0.61312966,-0.85405283,-0.61312966,1044.9066,546.32759)" />
    <path
       transform="matrix(-0.85405283,-0.61312966,-0.85405283,0.61312966,1044.9066,353.87042)"
       d="m 781.27982,445.6236 c 0,105.57708 -143.98104,191.16421 -321.59064,191.16421 -177.60961,0 -321.59064,-85.58713 -321.59064,-191.16421 0,-105.57708 143.98103,-191.16422 321.59064,-191.16422 177.6096,0 321.59064,85.58714 321.59064,191.16422 z"
       sodipodi:ry="191.16422"
       sodipodi:rx="321.59064"
       sodipodi:cy="445.6236"
       sodipodi:cx="459.68918"
       id="path3833"
       style="fill:url(#linearGradient3869);fill-opacity:1"
       sodipodi:type="arc" />
    <path
       sodipodi:type="arc"
       style="fill:url(#linearGradient3861);fill-opacity:1"
       id="path3831"
       sodipodi:cx="459.68918"
       sodipodi:cy="445.6236"
       sodipodi:rx="321.59064"
       sodipodi:ry="191.16422"
       d="m 781.27982,445.6236 c 0,105.57708 -143.98104,191.16421 -321.59064,191.16421 -177.60961,0 -321.59064,-85.58713 -321.59064,-191.16421 0,-105.57708 143.98103,-191.16422 321.59064,-191.16422 177.6096,0 321.59064,85.58714 321.59064,191.16422 z"
       transform="matrix(0.85405283,-0.61312966,0.85405283,0.61312966,-193.29886,355.14911)" />
    <g
       style="font-size:40px;font-style:normal;font-weight:normal;line-height:125%;letter-spacing:0px;word-spacing:0px;fill:#000000;fill-opacity:1;stroke:none;font-family:Sans"
       id="text3765">
      <path
         d="m 61.442463,591.60315 5.3125,0 12.929687,24.39453 0,-24.39453 3.828125,0 0,29.16016 -5.3125,0 -12.929687,-24.39454 0,24.39454 -3.828125,0 0,-29.16016"
         style=""
         id="path3056" />
      <path
         d="m 90.836994,612.13049 0,-13.24218 3.59375,0 0,13.10546 c -7e-6,2.07032 0.403639,3.62631 1.210938,4.66797 0.807282,1.02865 2.018219,1.54297 3.632812,1.54297 1.940086,0 3.470036,-0.61848 4.589846,-1.85547 1.13279,-1.23697 1.6992,-2.92317 1.69922,-5.05859 l 0,-12.40234 3.59375,0 0,21.875 -3.59375,0 0,-3.35938 c -0.87242,1.32813 -1.88804,2.31771 -3.04688,2.96875 -1.14585,0.63802 -2.48048,0.95703 -4.003905,0.95703 -2.513029,0 -4.420579,-0.78125 -5.722656,-2.34375 -1.302087,-1.56249 -1.953128,-3.84765 -1.953125,-6.85547"
         style=""
         id="path3058" />
      <path
         d="m 133.62996,603.08752 c 0.89842,-1.61456 1.97264,-2.80596 3.22266,-3.57421 1.24997,-0.76821 2.72133,-1.15233 4.41406,-1.15235 2.27862,2e-5 4.03643,0.8008 5.27344,2.40235 1.23694,1.58856 1.85543,3.85418 1.85547,6.79687 l 0,13.20313 -3.61328,0 0,-13.08594 c -4e-5,-2.09634 -0.37113,-3.65233 -1.11328,-4.66797 -0.74222,-1.01561 -1.87503,-1.52342 -3.39844,-1.52344 -1.86201,2e-5 -3.33336,0.61851 -4.41406,1.85547 -1.08076,1.237 -1.62112,2.92319 -1.6211,5.05859 l 0,12.36329 -3.61328,0 0,-13.08594 c -2e-5,-2.10936 -0.37111,-3.66535 -1.11328,-4.66797 -0.7422,-1.01561 -1.88804,-1.52342 -3.4375,-1.52344 -1.83595,2e-5 -3.29428,0.62502 -4.375,1.875 -1.08074,1.237 -1.6211,2.91668 -1.62109,5.03906 l 0,12.36329 -3.61329,0 0,-21.875 3.61329,0 0,3.39843 c 0.8203,-1.34112 1.80337,-2.33071 2.94921,-2.96875 1.14583,-0.638 2.5065,-0.95701 4.08204,-0.95703 1.58852,2e-5 2.93618,0.40367 4.04296,1.21094 1.11978,0.80731 1.9466,1.97919 2.48047,3.51562"
         style=""
         id="path3060" />
      <path
         d="m 174.29403,608.92737 0,1.75781 -16.52344,0 c 0.15624,2.47397 0.89843,4.36199 2.22656,5.66406 1.34114,1.28907 3.20311,1.9336 5.58594,1.9336 1.38019,0 2.71483,-0.16927 4.0039,-0.50782 1.30207,-0.33853 2.59113,-0.84635 3.86719,-1.52343 l 0,3.39843 c -1.28908,0.54688 -2.61069,0.96355 -3.96484,1.25 -1.35419,0.28646 -2.72788,0.42969 -4.1211,0.42969 -3.48959,0 -6.25651,-1.01562 -8.30078,-3.04687 -2.03125,-2.03125 -3.04687,-4.77864 -3.04687,-8.24219 0,-3.58072 0.96354,-6.41925 2.89062,-8.51563 1.9401,-2.10935 4.55077,-3.16404 7.83203,-3.16406 2.9427,2e-5 5.26691,0.95054 6.97266,2.85156 1.71873,1.88804 2.5781,4.45965 2.57813,7.71485 m -3.59375,-1.05469 c -0.0261,-1.96613 -0.57945,-3.53514 -1.66016,-4.70703 -1.06773,-1.17186 -2.48699,-1.75779 -4.25781,-1.75781 -2.00522,2e-5 -3.61329,0.56642 -4.82422,1.69922 -1.19793,1.13282 -1.88803,2.72788 -2.07031,4.78515 l 12.8125,-0.0195 m -3.45704,-19.10156 3.88672,0 -6.36718,7.34375 -2.98829,0 5.46875,-7.34375"
         style=""
         id="path3062" />
      <path
         d="m 192.86824,602.24768 c -0.40366,-0.23436 -0.84637,-0.40363 -1.32812,-0.50781 -0.46877,-0.11717 -0.9896,-0.17576 -1.5625,-0.17578 -2.03126,2e-5 -3.59376,0.66408 -4.6875,1.99218 -1.08074,1.31512 -1.6211,3.20965 -1.62109,5.6836 l 0,11.52344 -3.61329,0 0,-21.875 3.61329,0 0,3.39843 c 0.7552,-1.3281 1.73827,-2.31117 2.94921,-2.94922 1.21093,-0.65102 2.68228,-0.97654 4.41407,-0.97656 0.24738,2e-5 0.52081,0.0196 0.82031,0.0586 0.29946,0.0261 0.63149,0.0716 0.99609,0.13671 l 0.0195,3.69141"
         style=""
         id="path3064" />
      <path
         d="m 196.67684,598.88831 3.59375,0 0,21.875 -3.59375,0 0,-21.875 m 0,-8.51563 3.59375,0 0,4.55078 -3.59375,0 0,-4.55078"
         style=""
         id="path3066" />
      <path
         d="m 209.91903,609.84534 c -1e-5,2.64323 0.54035,4.72006 1.62109,6.23047 1.09374,1.49739 2.59113,2.24609 4.49219,2.24609 1.90102,0 3.39842,-0.7487 4.49218,-2.24609 1.09374,-1.51041 1.64061,-3.58724 1.64063,-6.23047 -2e-5,-2.64322 -0.54689,-4.71353 -1.64063,-6.21094 -1.09376,-1.5104 -2.59116,-2.26561 -4.49218,-2.26563 -1.90106,2e-5 -3.39845,0.75523 -4.49219,2.26563 -1.08074,1.49741 -1.6211,3.56772 -1.62109,6.21094 m 12.24609,7.63672 c -0.75523,1.30208 -1.71226,2.27213 -2.87109,2.91015 -1.14585,0.625 -2.52606,0.9375 -4.14063,0.9375 -2.64324,0 -4.79818,-1.05469 -6.46484,-3.16406 -1.65365,-2.10937 -2.48047,-4.88281 -2.48047,-8.32031 0,-3.43749 0.82682,-6.21092 2.48047,-8.32032 1.66666,-2.10935 3.8216,-3.16404 6.46484,-3.16406 1.61457,2e-5 2.99478,0.31903 4.14063,0.95703 1.15883,0.62502 2.11586,1.58856 2.87109,2.89063 l 0,-3.32031 3.59375,0 0,30.19531 -3.59375,0 0,-11.60156"
         style=""
         id="path3068" />
      <path
         d="m 232.79012,612.13049 0,-13.24218 3.59375,0 0,13.10546 c -1e-5,2.07032 0.40364,3.62631 1.21094,4.66797 0.80728,1.02865 2.01822,1.54297 3.63281,1.54297 1.94009,0 3.47004,-0.61848 4.58984,-1.85547 1.1328,-1.23697 1.6992,-2.92317 1.69922,-5.05859 l 0,-12.40234 3.59375,0 0,21.875 -3.59375,0 0,-3.35938 c -0.87241,1.32813 -1.88804,2.31771 -3.04687,2.96875 -1.14585,0.63802 -2.48048,0.95703 -4.00391,0.95703 -2.51303,0 -4.42058,-0.78125 -5.72266,-2.34375 -1.30208,-1.56249 -1.95312,-3.84765 -1.95312,-6.85547"
         style=""
         id="path3070" />
      <path
         d="m 277.26278,608.92737 0,1.75781 -16.52344,0 c 0.15624,2.47397 0.89843,4.36199 2.22656,5.66406 1.34114,1.28907 3.20311,1.9336 5.58594,1.9336 1.38019,0 2.71483,-0.16927 4.0039,-0.50782 1.30207,-0.33853 2.59113,-0.84635 3.86719,-1.52343 l 0,3.39843 c -1.28908,0.54688 -2.61069,0.96355 -3.96484,1.25 -1.35419,0.28646 -2.72788,0.42969 -4.1211,0.42969 -3.48959,0 -6.25651,-1.01562 -8.30078,-3.04687 -2.03125,-2.03125 -3.04687,-4.77864 -3.04687,-8.24219 0,-3.58072 0.96354,-6.41925 2.89062,-8.51563 1.9401,-2.10935 4.55077,-3.16404 7.83203,-3.16406 2.9427,2e-5 5.26691,0.95054 6.97266,2.85156 1.71873,1.88804 2.5781,4.45965 2.57813,7.71485 m -3.59375,-1.05469 c -0.0261,-1.96613 -0.57945,-3.53514 -1.66016,-4.70703 -1.06773,-1.17186 -2.48699,-1.75779 -4.25781,-1.75781 -2.00522,2e-5 -3.61329,0.56642 -4.82422,1.69922 -1.19793,1.13282 -1.88803,2.72788 -2.07031,4.78515 l 12.8125,-0.0195"
         style=""
         id="path3072" />
    </g>
    <g
       style="font-size:40px;font-style:normal;font-weight:normal;line-height:125%;letter-spacing:0px;word-spacing:0px;fill:#000000;fill-opacity:1;stroke:none;font-family:Sans"
       id="text3769">
      <path
         d="m 665.6347,596.57385 0,4.16016 c -1.32814,-1.23696 -2.74741,-2.16143 -4.25781,-2.77344 -1.49741,-0.61195 -3.09246,-0.91794 -4.78515,-0.91797 -3.33335,3e-5 -5.88543,1.02216 -7.65625,3.06641 -1.77084,2.03127 -2.65626,4.97398 -2.65625,8.82812 -10e-6,3.84116 0.88541,6.78387 2.65625,8.82813 1.77082,2.03125 4.3229,3.04688 7.65625,3.04687 1.69269,10e-6 3.28774,-0.30598 4.78515,-0.91796 1.5104,-0.61198 2.92967,-1.53646 4.25781,-2.77344 l 0,4.12109 c -1.38023,0.9375 -2.84507,1.64063 -4.39453,2.10938 -1.53647,0.46875 -3.16408,0.70312 -4.88281,0.70312 -4.41407,0 -7.89063,-1.34765 -10.42969,-4.04297 -2.53906,-2.70832 -3.80859,-6.39973 -3.80859,-11.07422 0,-4.68748 1.26953,-8.37888 3.80859,-11.07421 2.53906,-2.70831 6.01562,-4.06248 10.42969,-4.0625 1.74477,2e-5 3.3854,0.2344 4.92188,0.70312 1.54945,0.45576 3.00127,1.14586 4.35546,2.07031"
         style=""
         id="path3107" />
      <path
         d="m 686.24017,598.40979 0,10.87891 10.87891,0 0,3.32031 -10.87891,0 0,10.87891 -3.28125,0 0,-10.87891 -10.8789,0 0,-3.32031 10.8789,0 0,-10.87891 3.28125,0"
         style=""
         id="path3109" />
      <path
         d="m 719.7558,598.40979 0,10.87891 10.8789,0 0,3.32031 -10.8789,0 0,10.87891 -3.28125,0 0,-10.87891 -10.87891,0 0,-3.32031 10.87891,0 0,-10.87891 3.28125,0"
         style=""
         id="path3111" />
    </g>
    <g
       style="font-size:40px;font-style:normal;font-weight:normal;line-height:125%;letter-spacing:0px;word-spacing:0px;fill:#000000;fill-opacity:1;stroke:none;font-family:Sans"
       id="text3773">
      <path
         d="m 580.61517,268.77469 5.87891,0 7.44141,19.84375 7.48046,-19.84375 5.87891,0 0,29.16015 -3.84766,0 0,-25.60546 -7.51953,20 -3.96484,0 -7.51953,-20 0,25.60546 -3.82813,0 0,-29.16015"
         style=""
         id="path3088" />
      <path
         d="m 633.70111,286.09891 0,1.75781 -16.52344,0 c 0.15625,2.47397 0.89843,4.36198 2.22657,5.66406 1.34113,1.28907 3.20311,1.9336 5.58593,1.9336 1.3802,0 2.71483,-0.16927 4.00391,-0.50782 1.30206,-0.33853 2.59113,-0.84635 3.86719,-1.52343 l 0,3.39843 c -1.28909,0.54688 -2.6107,0.96355 -3.96485,1.25 -1.35418,0.28646 -2.72788,0.42969 -4.12109,0.42969 -3.48959,0 -6.25652,-1.01562 -8.30078,-3.04687 -2.03125,-2.03125 -3.04688,-4.77864 -3.04688,-8.24219 0,-3.58072 0.96354,-6.41925 2.89063,-8.51563 1.9401,-2.10935 4.55077,-3.16404 7.83203,-3.16406 2.94269,2e-5 5.26691,0.95054 6.97266,2.85156 1.71872,1.88804 2.5781,4.45965 2.57812,7.71485 m -3.59375,-1.05469 c -0.0261,-1.96613 -0.57944,-3.53514 -1.66016,-4.70703 -1.06772,-1.17186 -2.48699,-1.75779 -4.25781,-1.75781 -2.00522,2e-5 -3.61329,0.56642 -4.82422,1.69921 -1.19792,1.13283 -1.88802,2.72788 -2.07031,4.78516 l 12.8125,-0.0195 m -3.45703,-19.10156 3.88672,0 -6.36719,7.34375 -2.98828,0 5.46875,-7.34375"
         style=""
         id="path3090" />
      <path
         d="m 655.34174,276.89969 0,3.35937 c -1.01565,-0.55987 -2.03778,-0.97654 -3.06641,-1.25 -1.01564,-0.28644 -2.04429,-0.42966 -3.08594,-0.42968 -2.33074,2e-5 -4.14063,0.7422 -5.42969,2.22656 -1.28906,1.47137 -1.9336,3.54168 -1.93359,6.21094 -10e-6,2.66928 0.64453,4.7461 1.93359,6.23046 1.28906,1.47136 3.09895,2.20704 5.42969,2.20704 1.04165,0 2.0703,-0.13672 3.08594,-0.41016 1.02863,-0.28646 2.05076,-0.70963 3.06641,-1.26953 l 0,3.32031 c -1.00263,0.46875 -2.04429,0.82031 -3.125,1.05469 -1.06773,0.23437 -2.20705,0.35156 -3.41797,0.35156 -3.29428,0 -5.91147,-1.03515 -7.85157,-3.10547 -1.9401,-2.07031 -2.91015,-4.86327 -2.91015,-8.3789 0,-3.5677 0.97656,-6.37368 2.92969,-8.41797 1.96613,-2.04425 4.65493,-3.06639 8.0664,-3.06641 1.10676,2e-5 2.18749,0.11721 3.24219,0.35156 1.05467,0.22138 2.0768,0.55992 3.06641,1.01563"
         style=""
         id="path3092" />
      <path
         d="m 671.5722,286.93875 c -2.90365,10e-6 -4.91537,0.33204 -6.03515,0.99609 -1.1198,0.66408 -1.6797,1.79689 -1.67969,3.39844 -10e-6,1.27605 0.41666,2.29167 1.25,3.04688 0.84635,0.74219 1.99218,1.11328 3.4375,1.11328 1.99218,0 3.58723,-0.70312 4.78516,-2.10938 1.21092,-1.41926 1.81639,-3.30077 1.8164,-5.64453 l 0,-0.80078 -3.57422,0 m 7.16797,-1.48437 0,12.48046 -3.59375,0 0,-3.32031 c -0.82033,1.32813 -1.84246,2.3112 -3.0664,2.94922 -1.22397,0.625 -2.72137,0.9375 -4.49219,0.9375 -2.23959,0 -4.02344,-0.625 -5.35156,-1.875 -1.31511,-1.26302 -1.97266,-2.94921 -1.97266,-5.05859 0,-2.46093 0.82031,-4.3164 2.46094,-5.56641 1.65364,-1.24999 4.11457,-1.87498 7.38281,-1.875 l 5.03906,0 0,-0.35156 c -1e-5,-1.65363 -0.54689,-2.92967 -1.64062,-3.82813 -1.08075,-0.91144 -2.60418,-1.36716 -4.57031,-1.36718 -1.25001,2e-5 -2.46746,0.14976 -3.65235,0.44921 -1.1849,0.2995 -2.32422,0.74872 -3.41797,1.34766 l 0,-3.32031 c 1.3151,-0.50779 2.59114,-0.8854 3.82813,-1.13281 1.23697,-0.2604 2.44139,-0.39061 3.61328,-0.39063 3.16405,2e-5 5.52733,0.82034 7.08984,2.46094 1.56248,1.64064 2.34373,4.12762 2.34375,7.46094"
         style=""
         id="path3094" />
      <path
         d="m 704.34564,284.73172 0,13.20312 -3.59375,0 0,-13.08593 c -2e-5,-2.0703 -0.40366,-3.61978 -1.21094,-4.64844 -0.8073,-1.02863 -2.01824,-1.54295 -3.63281,-1.54297 -1.94011,2e-5 -3.47006,0.61851 -4.58984,1.85547 -1.1198,1.237 -1.6797,2.92319 -1.67969,5.05859 l 0,12.36328 -3.61328,0 0,-21.875 3.61328,0 0,3.39844 c 0.85937,-1.31508 1.86848,-2.29815 3.02734,-2.94922 1.17187,-0.65102 2.51952,-0.97654 4.04297,-0.97656 2.51301,2e-5 4.41405,0.78127 5.70313,2.34375 1.28904,1.5495 1.93357,3.83465 1.93359,6.85547"
         style=""
         id="path3096" />
      <path
         d="m 711.55267,276.05984 3.59375,0 0,21.875 -3.59375,0 0,-21.875 m 0,-8.51562 3.59375,0 0,4.55078 -3.59375,0 0,-4.55078"
         style=""
         id="path3098" />
      <path
         d="m 724.79486,287.01688 c -10e-6,2.64323 0.54036,4.72005 1.62109,6.23046 1.09375,1.4974 2.59114,2.2461 4.49219,2.2461 1.90103,0 3.39842,-0.7487 4.49219,-2.2461 1.09373,-1.51041 1.64061,-3.58723 1.64062,-6.23046 -10e-6,-2.64322 -0.54689,-4.71353 -1.64062,-6.21094 -1.09377,-1.5104 -2.59116,-2.26561 -4.49219,-2.26563 -1.90105,2e-5 -3.39844,0.75523 -4.49219,2.26563 -1.08073,1.49741 -1.6211,3.56772 -1.62109,6.21094 m 12.24609,7.63671 c -0.75522,1.30209 -1.71225,2.27214 -2.87109,2.91016 -1.14585,0.625 -2.52605,0.9375 -4.14062,0.9375 -2.64324,0 -4.79819,-1.05469 -6.46485,-3.16406 -1.65365,-2.10937 -2.48047,-4.88281 -2.48047,-8.32031 0,-3.43749 0.82682,-6.21092 2.48047,-8.32032 1.66666,-2.10935 3.82161,-3.16404 6.46485,-3.16406 1.61457,2e-5 2.99477,0.31903 4.14062,0.95703 1.15884,0.62502 2.11587,1.58856 2.87109,2.89063 l 0,-3.32032 3.59375,0 0,30.19532 -3.59375,0 0,-11.60157"
         style=""
         id="path3100" />
      <path
         d="m 747.66595,289.30203 0,-13.24219 3.59375,0 0,13.10547 c 0,2.07032 0.40364,3.62631 1.21094,4.66797 0.80728,1.02865 2.01822,1.54297 3.63281,1.54297 1.94009,0 3.47004,-0.61849 4.58985,-1.85547 1.13279,-1.23697 1.6992,-2.92317 1.69922,-5.05859 l 0,-12.40235 3.59375,0 0,21.875 -3.59375,0 0,-3.35937 c -0.87242,1.32813 -1.88804,2.31771 -3.04688,2.96875 -1.14585,0.63802 -2.48048,0.95703 -4.0039,0.95703 -2.51303,0 -4.42058,-0.78125 -5.72266,-2.34375 -1.30209,-1.5625 -1.95313,-3.84765 -1.95313,-6.85547"
         style=""
         id="path3102" />
      <path
         d="m 792.13861,286.09891 0,1.75781 -16.52344,0 c 0.15625,2.47397 0.89843,4.36198 2.22657,5.66406 1.34113,1.28907 3.20311,1.9336 5.58593,1.9336 1.3802,0 2.71483,-0.16927 4.00391,-0.50782 1.30206,-0.33853 2.59113,-0.84635 3.86719,-1.52343 l 0,3.39843 c -1.28909,0.54688 -2.6107,0.96355 -3.96485,1.25 -1.35418,0.28646 -2.72788,0.42969 -4.12109,0.42969 -3.48959,0 -6.25652,-1.01562 -8.30078,-3.04687 -2.03125,-2.03125 -3.04688,-4.77864 -3.04688,-8.24219 0,-3.58072 0.96354,-6.41925 2.89063,-8.51563 1.9401,-2.10935 4.55077,-3.16404 7.83203,-3.16406 2.94269,2e-5 5.26691,0.95054 6.97266,2.85156 1.71872,1.88804 2.5781,4.45965 2.57812,7.71485 m -3.59375,-1.05469 c -0.0261,-1.96613 -0.57944,-3.53514 -1.66016,-4.70703 -1.06772,-1.17186 -2.48699,-1.75779 -4.25781,-1.75781 -2.00522,2e-5 -3.61329,0.56642 -4.82422,1.69921 -1.19792,1.13283 -1.88802,2.72788 -2.07031,4.78516 l 12.8125,-0.0195"
         style=""
         id="path3104" />
    </g>
    <g
       style="font-size:40px;font-style:normal;font-weight:normal;line-height:125%;letter-spacing:0px;word-spacing:0px;fill:#000000;fill-opacity:1;stroke:none;font-family:Sans"
       id="text3777">
      <path
         d="m 71.696373,272.65164 5.878906,0 7.441406,19.84375 7.480469,-19.84375 5.878906,0 0,29.16016 -3.847656,0 0,-25.60547 -7.519531,20 -3.964844,0 -7.519531,-20 0,25.60547 -3.828125,0 0,-29.16016"
         style=""
         id="path3037" />
      <path
         d="m 116.01278,290.8157 c -2.90366,2e-5 -4.91537,0.33205 -6.03516,0.9961 -1.1198,0.66407 -1.67969,1.79688 -1.67968,3.39844 -1e-5,1.27604 0.41666,2.29167 1.25,3.04687 0.84634,0.74219 1.99217,1.11328 3.4375,1.11328 1.99217,0 3.58722,-0.70312 4.78515,-2.10937 1.21092,-1.41927 1.81639,-3.30078 1.81641,-5.64453 l 0,-0.80079 -3.57422,0 m 7.16797,-1.48437 0,12.48047 -3.59375,0 0,-3.32031 c -0.82033,1.32812 -1.84247,2.31119 -3.06641,2.94921 -1.22397,0.625 -2.72136,0.9375 -4.49219,0.9375 -2.23959,0 -4.02344,-0.625 -5.35156,-1.875 -1.31511,-1.26301 -1.97266,-2.94921 -1.97265,-5.05859 -1e-5,-2.46093 0.8203,-4.31639 2.46093,-5.56641 1.65364,-1.24998 4.11458,-1.87498 7.38282,-1.875 l 5.03906,0 0,-0.35156 c -2e-5,-1.65363 -0.54689,-2.92967 -1.64063,-3.82812 -1.08074,-0.91144 -2.60418,-1.36717 -4.57031,-1.36719 -1.25001,2e-5 -2.46746,0.14976 -3.65234,0.44922 -1.18491,0.2995 -2.32423,0.74871 -3.41797,1.34765 l 0,-3.32031 c 1.3151,-0.50779 2.59114,-0.88539 3.82812,-1.13281 1.23697,-0.2604 2.4414,-0.3906 3.61328,-0.39063 3.16405,3e-5 5.52733,0.82034 7.08985,2.46094 1.56248,1.64065 2.34373,4.12762 2.34375,7.46094"
         style=""
         id="path3039" />
      <path
         d="m 134.15731,273.72586 0,6.21094 7.40234,0 0,2.79297 -7.40234,0 0,11.875 c -1e-5,1.78386 0.24088,2.92969 0.72266,3.4375 0.49478,0.50781 1.49087,0.76172 2.98828,0.76172 l 3.6914,0 0,3.00781 -3.6914,0 c -2.77345,0 -4.68751,-0.51432 -5.74219,-1.54297 -1.05469,-1.04166 -1.58203,-2.92968 -1.58203,-5.66406 l 0,-11.875 -2.63672,0 0,-2.79297 2.63672,0 0,-6.21094 3.61328,0"
         style=""
         id="path3041" />
      <path
         d="m 165.01669,289.97586 0,1.75781 -16.52344,0 c 0.15624,2.47397 0.89843,4.36199 2.22656,5.66407 1.34114,1.28906 3.20311,1.93359 5.58594,1.93359 1.38019,0 2.71483,-0.16927 4.0039,-0.50781 1.30207,-0.33854 2.59113,-0.84635 3.86719,-1.52344 l 0,3.39844 c -1.28908,0.54687 -2.61069,0.96354 -3.96484,1.25 -1.35419,0.28645 -2.72788,0.42968 -4.1211,0.42968 -3.48959,0 -6.25651,-1.01562 -8.30078,-3.04687 -2.03125,-2.03125 -3.04687,-4.77864 -3.04687,-8.24219 0,-3.58071 0.96354,-6.41925 2.89062,-8.51562 1.9401,-2.10936 4.55077,-3.16404 7.83203,-3.16407 2.9427,3e-5 5.26691,0.95055 6.97266,2.85157 1.71873,1.88804 2.5781,4.45965 2.57813,7.71484 m -3.59375,-1.05469 c -0.0261,-1.96613 -0.57945,-3.53514 -1.66016,-4.70703 -1.06773,-1.17185 -2.48699,-1.75779 -4.25781,-1.75781 -2.00522,2e-5 -3.61329,0.56642 -4.82422,1.69922 -1.19793,1.13283 -1.88803,2.72788 -2.07031,4.78515 l 12.8125,-0.0195 m -3.45704,-19.10156 3.88672,0 -6.36718,7.34375 -2.98829,0 5.46875,-7.34375"
         style=""
         id="path3043" />
      <path
         d="m 183.5909,283.29617 c -0.40366,-0.23435 -0.84637,-0.40362 -1.32812,-0.50781 -0.46877,-0.11717 -0.9896,-0.17576 -1.5625,-0.17578 -2.03126,2e-5 -3.59376,0.66408 -4.6875,1.99219 -1.08074,1.31512 -1.6211,3.20965 -1.62109,5.68359 l 0,11.52344 -3.61329,0 0,-21.875 3.61329,0 0,3.39844 c 0.7552,-1.32811 1.73827,-2.31118 2.94921,-2.94922 1.21093,-0.65102 2.68228,-0.97654 4.41407,-0.97657 0.24738,3e-5 0.52081,0.0196 0.82031,0.0586 0.29946,0.0261 0.63149,0.0716 0.99609,0.13672 l 0.0195,3.6914"
         style=""
         id="path3045" />
      <path
         d="m 187.3995,279.9368 3.59375,0 0,21.875 -3.59375,0 0,-21.875 m 0,-8.51563 3.59375,0 0,4.55078 -3.59375,0 0,-4.55078"
         style=""
         id="path3047" />
      <path
         d="m 208.43465,290.8157 c -2.90365,2e-5 -4.91537,0.33205 -6.03515,0.9961 -1.1198,0.66407 -1.6797,1.79688 -1.67969,3.39844 -1e-5,1.27604 0.41666,2.29167 1.25,3.04687 0.84635,0.74219 1.99218,1.11328 3.4375,1.11328 1.99218,0 3.58723,-0.70312 4.78516,-2.10937 1.21092,-1.41927 1.81639,-3.30078 1.8164,-5.64453 l 0,-0.80079 -3.57422,0 m 7.16797,-1.48437 0,12.48047 -3.59375,0 0,-3.32031 c -0.82033,1.32812 -1.84246,2.31119 -3.0664,2.94921 -1.22397,0.625 -2.72137,0.9375 -4.49219,0.9375 -2.23959,0 -4.02344,-0.625 -5.35156,-1.875 -1.31511,-1.26301 -1.97266,-2.94921 -1.97266,-5.05859 0,-2.46093 0.82031,-4.31639 2.46094,-5.56641 1.65364,-1.24998 4.11457,-1.87498 7.38281,-1.875 l 5.03906,0 0,-0.35156 c -1e-5,-1.65363 -0.54689,-2.92967 -1.64062,-3.82812 -1.08075,-0.91144 -2.60418,-1.36717 -4.57031,-1.36719 -1.25001,2e-5 -2.46746,0.14976 -3.65235,0.44922 -1.1849,0.2995 -2.32422,0.74871 -3.41797,1.34765 l 0,-3.32031 c 1.3151,-0.50779 2.59114,-0.88539 3.82813,-1.13281 1.23697,-0.2604 2.44139,-0.3906 3.61328,-0.39063 3.16405,3e-5 5.52733,0.82034 7.08984,2.46094 1.56248,1.64065 2.34373,4.12762 2.34375,7.46094"
         style=""
         id="path3049" />
      <path
         d="m 222.6534,293.17899 0,-13.24219 3.59375,0 0,13.10547 c 0,2.07032 0.40364,3.6263 1.21094,4.66797 0.80728,1.02864 2.01822,1.54297 3.63281,1.54296 1.94009,1e-5 3.47004,-0.61848 4.58985,-1.85546 1.13279,-1.23698 1.6992,-2.92317 1.69922,-5.0586 l 0,-12.40234 3.59375,0 0,21.875 -3.59375,0 0,-3.35938 c -0.87242,1.32813 -1.88804,2.31771 -3.04688,2.96875 -1.14585,0.63802 -2.48048,0.95703 -4.0039,0.95703 -2.51303,0 -4.42058,-0.78125 -5.72266,-2.34375 -1.30209,-1.56249 -1.95313,-3.84765 -1.95313,-6.85546"
         style=""
         id="path3051" />
      <path
         d="m 266.59872,279.9368 -7.91016,10.64453 8.32031,11.23047 -4.23828,0 -6.36719,-8.59375 -6.36718,8.59375 -4.23828,0 8.49609,-11.44531 -7.77344,-10.42969 4.23828,0 5.80078,7.79297 5.80079,-7.79297 4.23828,0"
         style=""
         id="path3053" />
    </g>
    <g
       style="font-size:40px;font-style:normal;font-weight:normal;line-height:125%;letter-spacing:0px;word-spacing:0px;fill:#ffffff;fill-opacity:1;stroke:none;font-family:Sans"
       id="text3781">
      <path
         d="m 361.95908,431.1684 5.8789,0 7.44141,19.84375 7.48047,-19.84375 5.8789,0 0,29.16015 -3.84765,0 0,-25.60547 -7.51953,20 -3.96485,0 -7.51953,-20 0,25.60547 -3.82812,0 0,-29.16015"
         style=""
         id="path3075" />
      <path
         d="m 396.49033,431.1684 16.75781,0 0,3.32031 -12.8125,0 0,8.59375 11.5625,0 0,3.32031 -11.5625,0 0,13.92578 -3.94531,0 0,-29.16015"
         style=""
         id="path3077" />
      <path
         d="m 433.36533,446.65668 c 0.84633,0.28647 1.66664,0.89845 2.46093,1.83593 0.80727,0.93752 1.61456,2.22658 2.42188,3.86719 l 4.0039,7.96875 -4.23828,0 -3.73047,-7.48047 c -0.96355,-1.95311 -1.90105,-3.24868 -2.8125,-3.88672 -0.89845,-0.638 -2.12892,-0.95701 -3.6914,-0.95703 l -4.29688,0 0,12.32422 -3.94531,0 0,-29.16015 8.90625,0 c 3.33332,3e-5 5.82029,0.69664 7.46094,2.08984 1.6406,1.39325 2.46091,3.49612 2.46094,6.30859 -3e-5,1.83596 -0.42971,3.3594 -1.28907,4.57032 -0.84637,1.21095 -2.08335,2.05079 -3.71093,2.51953 m -9.88282,-12.2461 0,10.35157 4.96094,0 c 1.90103,10e-6 3.33332,-0.43619 4.29688,-1.3086 0.97654,-0.8854 1.46482,-2.18097 1.46484,-3.88672 -2e-5,-1.7057 -0.4883,-2.98825 -1.46484,-3.84765 -0.96356,-0.87237 -2.39585,-1.30857 -4.29688,-1.3086 l -4.96094,0"
         style=""
         id="path3079" />
      <path
         d="m 459.18564,433.84418 c -2.8646,2e-5 -5.14324,1.06773 -6.83594,3.20312 -1.67969,2.13544 -2.51954,5.04559 -2.51953,8.73047 -1e-5,3.67189 0.83984,6.57553 2.51953,8.71094 1.6927,2.13542 3.97134,3.20313 6.83594,3.20312 2.86456,1e-5 5.13019,-1.0677 6.79687,-3.20312 1.67967,-2.13541 2.51951,-5.03905 2.51953,-8.71094 -2e-5,-3.68488 -0.83986,-6.59503 -2.51953,-8.73047 -1.66668,-2.13539 -3.93231,-3.2031 -6.79687,-3.20312 m 0,-3.20313 c 4.08852,3e-5 7.35675,1.37373 9.80469,4.1211 2.44788,2.73439 3.67184,6.40627 3.67187,11.01562 -3e-5,4.59637 -1.22399,8.26824 -3.67187,11.01563 -2.44794,2.73437 -5.71617,4.10156 -9.80469,4.10156 -4.10158,0 -7.38282,-1.36719 -9.84375,-4.10156 -2.44792,-2.73437 -3.67188,-6.40624 -3.67188,-11.01563 0,-4.60935 1.22396,-8.28123 3.67188,-11.01562 2.46093,-2.74737 5.74217,-4.12107 9.84375,-4.1211"
         style=""
         id="path3081" />
      <path
         d="m 478.83408,431.1684 5.3125,0 12.92968,24.39453 0,-24.39453 3.82813,0 0,29.16015 -5.3125,0 -12.92969,-24.39453 0,24.39453 -3.82812,0 0,-29.16015"
         style=""
         id="path3083" />
      <path
         d="m 504.71298,431.1684 24.66797,0 0,3.32031 -10.35156,0 0,25.83984 -3.96485,0 0,-25.83984 -10.35156,0 0,-3.32031"
         style=""
         id="path3085" />
    </g>
  </g>
</svg>
