<?xml version="1.0" encoding="UTF-8" standalone="no"?>
<!-- Created with Inkscape (http://www.inkscape.org/) -->

<svg
   xmlns:dc="http://purl.org/dc/elements/1.1/"
   xmlns:cc="http://creativecommons.org/ns#"
   xmlns:rdf="http://www.w3.org/1999/02/22-rdf-syntax-ns#"
   xmlns:svg="http://www.w3.org/2000/svg"
   xmlns="http://www.w3.org/2000/svg"
   xmlns:xlink="http://www.w3.org/1999/xlink"
   xmlns:sodipodi="http://sodipodi.sourceforge.net/DTD/sodipodi-0.dtd"
   xmlns:inkscape="http://www.inkscape.org/namespaces/inkscape"
   id="svg4099"
   version="1.1"
   inkscape:version="0.48.2 r9819"
   width="354"
   height="354"
   xml:space="preserve"
   sodipodi:docname="CEA_logo_quadri-sur-fond-rouge_DEC.svg"
   inkscape:export-filename="/tmp/CEA_logo_quadri-sur-fond-rouge_DEC.png"
   inkscape:export-xdpi="150"
   inkscape:export-ydpi="150"><metadata
     id="metadata4105"><rdf:RDF><cc:Work
         rdf:about=""><dc:format>image/svg+xml</dc:format><dc:type
           rdf:resource="http://purl.org/dc/dcmitype/StillImage" /><dc:title /></cc:Work></rdf:RDF></metadata><defs
     id="defs4103"><linearGradient
       x1="281.53152"
       y1="107.90339"
       x2="1.9333333"
       y2="230.67006"
       gradientUnits="userSpaceOnUse"
       gradientTransform="translate(0,0.724616)"
       spreadMethod="pad"
       id="linearGradient4113"><stop
         style="stop-opacity:1;stop-color:#870e12"
         offset="0"
         id="stop4115" /><stop
         style="stop-opacity:1;stop-color:#ed1c24"
         offset="1"
         id="stop4117" /></linearGradient><clipPath
       clipPathUnits="userSpaceOnUse"
       id="clipPath4125"><path
         d="m 60.551,60.945 162.359,0 0,-6.91 -162.359,0 0,6.91 z"
         id="path4127"
         inkscape:connector-curvature="0" /></clipPath><clipPath
       clipPathUnits="userSpaceOnUse"
       id="clipPath4133"><path
         d="M 0,0 284,0 284,232 0,232 0,0 z"
         id="path4135"
         inkscape:connector-curvature="0" /></clipPath><clipPath
       clipPathUnits="userSpaceOnUse"
       id="clipPath4137"><path
         d="m 59.988,61.633 163.719,0 0,-8.219 -163.719,0 0,8.219 z"
         id="path4139"
         inkscape:connector-curvature="0" /></clipPath><linearGradient
       y2="-50.820236"
       x2="226.86917"
       y1="-50.820236"
       x1="62.994095"
       gradientTransform="translate(-2.3589969,-2.4899626)"
       gradientUnits="userSpaceOnUse"
       id="linearGradient5773"
       xlink:href="#radialGradient3833"
       inkscape:collect="always" /><radialGradient
       id="radialGradient3833"
       spreadMethod="pad"
       gradientTransform="matrix(310.776,0,0,-355.921,281.07,-6.98801)"
       gradientUnits="userSpaceOnUse"
       r="1"
       cy="0"
       cx="0"
       fy="0"
       fx="0"><stop
         id="stop3835"
         offset="0"
         style="stop-color:#007c00;stop-opacity:1;" /><stop
         style="stop-color:#35ad00;stop-opacity:1;"
         offset="0.25"
         id="stop3865" /><stop
         style="stop-color:#67db00;stop-opacity:1;"
         offset="0.5"
         id="stop3847" /><stop
         id="stop3837"
         offset="1"
         style="stop-color:#81ff28;stop-opacity:1;" /></radialGradient><linearGradient
       inkscape:collect="always"
       xlink:href="#radialGradient3833"
       id="linearGradient5510"
       gradientUnits="userSpaceOnUse"
       gradientTransform="matrix(0.99906781,0,0,0.97537301,-2.3393686,-4.5590316)"
       x1="62.994095"
       y1="-50.820236"
       x2="226.86917"
       y2="-50.820236" /><radialGradient
       inkscape:collect="always"
       xlink:href="#linearGradient4113"
       id="radialGradient5512"
       cx="82.355347"
       cy="444.31006"
       fx="82.355347"
       fy="444.31006"
       r="141.60001"
       gradientTransform="matrix(-2.0036488,-7.9405659e-7,1.3031744e-7,-3.6200877,448.24449,1609.4874)"
       gradientUnits="userSpaceOnUse" /></defs><sodipodi:namedview
     pagecolor="#ffffff"
     bordercolor="#666666"
     borderopacity="1"
     objecttolerance="10"
     gridtolerance="10"
     guidetolerance="10"
     inkscape:pageopacity="0"
     inkscape:pageshadow="2"
     inkscape:window-width="1289"
     inkscape:window-height="820"
     id="namedview4101"
     showgrid="false"
     showguides="true"
     inkscape:guide-bbox="true"
     inkscape:showpageshadow="false"
     showborder="true"
     inkscape:zoom="1.1703836"
     inkscape:cx="155.1345"
     inkscape:cy="152.3305"
     inkscape:window-x="0"
     inkscape:window-y="25"
     inkscape:window-maximized="0"
     inkscape:current-layer="g4107"
     fit-margin-top="0"
     fit-margin-left="0"
     fit-margin-right="0"
     fit-margin-bottom="0"><sodipodi:guide
       orientation="1,0"
       position="-0.6041661,375.14583"
       id="guide4398" /><sodipodi:guide
       orientation="1,0"
       position="354.04167,391.45833"
       id="guide4400" /><sodipodi:guide
       orientation="0,1"
       position="-15.104166,354"
       id="guide4402" /><sodipodi:guide
       orientation="0,1"
       position="385.34373,12.5"
       id="guide4404" /><sodipodi:guide
       orientation="-0.70710678,0.70710678"
       position="-32.467986,319.55334"
       id="guide5514" /></sodipodi:namedview><g
     id="g4107"
     inkscape:groupmode="layer"
     inkscape:label="CEA_logo_quadri-sur-fond-rouge"
     transform="matrix(1.25,0,0,-1.25,5.72375e-7,290)"><g
       id="g4111"><path
         sodipodi:nodetypes="cccccsscccscscscsccssscccsccsccsccsscccccscccccc"
         inkscape:connector-curvature="0"
         id="path4119"
         style="fill:url(#radialGradient5512);fill-opacity:1;fill-rule:nonzero;stroke:none"
         d="M 0,232 0,0.727 l 283.2,0 0,231.273 z m 200.648,-81.625 c 5.047,0 29.153,-2.246 29.153,-33.926 0,-0.383 -0.207,-25.597 0.023,-32.875 l -6.972,1.074 c -0.133,2.172 -0.239,5.004 -0.329,7.903 -4.578,-5.504 -11.882,-9.528 -23.421,-9.528 -17.454,0 -23.18,5.36 -25.977,9.102 -4.563,-2.953 -18.25,-9.074 -30.574,-9.074 -15.563,0 -22.762,7.804 -24.574,10.972 -2.622,-1.683 -16.981,-10.972 -33.903,-10.972 -27.961,0 -30.554,23.914 -30.426,33.676 -0.128,9.738 2.204,33.625 30.676,33.625 7.114,0 15.336,-2.188 21.574,-4.625 l 0.579,-8.352 C 103.168,138.91 93.445,143 83.773,143 66.578,143 60.148,129.5 60.148,116.699 c 0,-13.203 6.879,-26.273 23.625,-26.273 14.098,0 26.372,7.418 30.875,10.347 -1.664,4.586 -2.64,9.809 -2.796,14.829 -0.356,11.468 2.386,20.304 8.171,26.273 3.602,3.711 11.211,8.477 22.278,8.477 10.812,0 22.89,-3.805 24.574,-11.926 1.863,-9.004 -13.359,-20.406 -42.75,-40.176 2.148,-2.871 7.047,-7.824 18.5,-7.824 10.746,0 22.848,5.34 29.699,9.972 2.414,9.399 18.371,20.735 45.153,34.829 -4.055,5.148 -10.043,7.75 -17.829,7.75 -9.882,0 -19.804,-4.25 -22.898,-5.704 l 0.574,8.352 c 7.957,3.137 15.496,4.75 23.324,4.75 z m -58.125,-6.852 c -7.808,0 -13.863,-2.39 -17.949,-7.074 -7.894,-9.051 -5.969,-23.851 -5.949,-24 0.469,-2.746 1.176,-5.304 2.074,-7.574 14.199,8.422 25.188,17.754 25.301,17.852 10.883,8.714 13.27,11.949 12.727,14.472 -0.731,3.375 -7.778,6.324 -16.204,6.324 z m 78.329,-14.574 c -37.223,-19.722 -43.219,-28.078 -41.375,-32.222 0,0 1.714,-6.754 19.523,-6.602 7.812,0.066 13.965,2.141 18.051,6.824 7.89,9.051 5.969,23.852 5.949,24 -0.469,2.77 -1.242,5.715 -2.148,8 z" /></g><g
       transform="matrix(0.74439798,0,0,0.74439798,-0.15533559,-41.201489)"
       id="g4334"><path
         d="m 18.156,37.923 0,-29.023 6.098,0 c 5.152,0 8.918,1.168 11.301,3.5 2.398,2.332 3.601,6.016 3.601,11.051 0,5 -1.203,8.656 -3.601,10.972 -2.383,2.336 -6.149,3.5 -11.301,3.5 l -6.098,0 m -5.051,4.153 10.375,0 c 7.231,0 12.54,-1.508 15.926,-4.528 3.383,-3 5.074,-7.699 5.074,-14.097 0,-6.434 -1.699,-11.16 -5.101,-14.176 C 35.98,6.259 30.68,4.752 23.48,4.752 l -10.375,0 0,37.324"
         style="fill:#70787d;fill-opacity:1;fill-rule:nonzero;stroke:none"
         id="path4262"
         inkscape:connector-curvature="0" /><path
         d="m 52.504,42.076 23.601,0 0,-4.25 -18.55,0 0,-11.051 17.773,0 0,-4.25 -17.773,0 0,-13.523 19,0 0,-4.25 -24.051,0 0,37.324"
         style="fill:#70787d;fill-opacity:1;fill-rule:nonzero;stroke:none"
         id="path4264"
         inkscape:connector-curvature="0" /><path
         d="m 84.906,42.076 6.797,0 16.551,-31.227 0,31.227 4.902,0 0,-37.324 -6.801,0 -16.55,31.222 0,-31.222 -4.899,0 0,37.324"
         style="fill:#70787d;fill-opacity:1;fill-rule:nonzero;stroke:none"
         id="path4266"
         inkscape:connector-curvature="0" /><path
         d="m 131.18,42.076 4.25,0 -13,-42.074 -4.25,0 13,42.074"
         style="fill:#70787d;fill-opacity:1;fill-rule:nonzero;stroke:none"
         id="path4268"
         inkscape:connector-curvature="0" /><path
         d="m 168.453,39.201 0,-5.324 c -1.699,1.582 -3.515,2.765 -5.449,3.546 -1.918,0.786 -3.957,1.176 -6.125,1.176 -4.266,0 -7.531,-1.308 -9.801,-3.926 -2.266,-2.597 -3.398,-6.363 -3.398,-11.296 0,-4.918 1.132,-8.684 3.398,-11.301 2.27,-2.602 5.535,-3.903 9.801,-3.903 2.168,0 4.207,0.395 6.125,1.176 1.934,0.785 3.75,1.969 5.449,3.551 l 0,-5.273 c -1.765,-1.204 -3.641,-2.102 -5.625,-2.704 -1.965,-0.597 -4.047,-0.898 -6.25,-0.898 -5.648,0 -10.098,1.727 -13.348,5.176 -3.25,3.465 -4.875,8.191 -4.875,14.176 0,6 1.625,10.722 4.875,14.171 3.25,3.469 7.7,5.204 13.348,5.204 2.234,0 4.336,-0.301 6.301,-0.903 1.984,-0.582 3.844,-1.465 5.574,-2.648"
         style="fill:#70787d;fill-opacity:1;fill-rule:nonzero;stroke:none"
         id="path4270"
         inkscape:connector-curvature="0" /><path
         d="m 188.781,37.099 -6.851,-18.574 13.726,0 -6.875,18.574 m -2.851,4.977 5.726,0 14.223,-37.324 -5.25,0 -3.399,9.574 -16.824,0 -3.402,-9.574 -5.324,0 14.25,37.324"
         style="fill:#70787d;fill-opacity:1;fill-rule:nonzero;stroke:none"
         id="path4272"
         inkscape:connector-curvature="0" /><path
         d="m 216.355,37.923 0,-29.023 6.098,0 c 5.152,0 8.918,1.168 11.301,3.5 2.402,2.332 3.601,6.016 3.601,11.051 0,5 -1.199,8.656 -3.601,10.972 -2.383,2.336 -6.149,3.5 -11.301,3.5 l -6.098,0 m -5.05,4.153 10.375,0 c 7.234,0 12.543,-1.508 15.925,-4.528 3.383,-3 5.075,-7.699 5.075,-14.097 0,-6.434 -1.7,-11.16 -5.102,-14.176 C 234.18,6.259 228.879,4.752 221.68,4.752 l -10.375,0 0,37.324"
         style="fill:#70787d;fill-opacity:1;fill-rule:nonzero;stroke:none"
         id="path4274"
         inkscape:connector-curvature="0" /><path
         d="m 258.68,42.076 4.25,0 -13,-42.074 -4.25,0 13,42.074"
         style="fill:#70787d;fill-opacity:1;fill-rule:nonzero;stroke:none"
         id="path4276"
         inkscape:connector-curvature="0" /><path
         d="m 273.055,37.923 0,-29.023 6.101,0 c 5.149,0 8.914,1.168 11.297,3.5 2.402,2.332 3.602,6.016 3.602,11.051 0,5 -1.2,8.656 -3.602,10.972 -2.383,2.336 -6.148,3.5 -11.297,3.5 l -6.101,0 m -5.051,4.153 10.375,0 c 7.234,0 12.543,-1.508 15.926,-4.528 3.383,-3 5.074,-7.699 5.074,-14.097 0,-6.434 -1.699,-11.16 -5.098,-14.176 -3.402,-3.016 -8.703,-4.523 -15.902,-4.523 l -10.375,0 0,37.324"
         style="fill:#70787d;fill-opacity:1;fill-rule:nonzero;stroke:none"
         id="path4278"
         inkscape:connector-curvature="0" /><path
         d="m 307.406,42.076 23.598,0 0,-4.25 -18.551,0 0,-11.051 17.777,0 0,-4.25 -17.777,0 0,-13.523 19,0 0,-4.25 -24.047,0 0,37.324"
         style="fill:#70787d;fill-opacity:1;fill-rule:nonzero;stroke:none"
         id="path4280"
         inkscape:connector-curvature="0" /><path
         d="m 367.754,39.201 0,-5.324 c -1.699,1.582 -3.516,2.765 -5.449,3.546 -1.918,0.786 -3.957,1.176 -6.125,1.176 -4.266,0 -7.535,-1.308 -9.801,-3.926 -2.266,-2.597 -3.399,-6.363 -3.399,-11.296 0,-4.918 1.133,-8.684 3.399,-11.301 2.266,-2.602 5.535,-3.903 9.801,-3.903 2.168,0 4.207,0.395 6.125,1.176 1.933,0.785 3.75,1.969 5.449,3.551 l 0,-5.273 c -1.766,-1.204 -3.641,-2.102 -5.625,-2.704 -1.965,-0.597 -4.051,-0.898 -6.25,-0.898 -5.649,0 -10.098,1.727 -13.348,5.176 -3.25,3.465 -4.875,8.191 -4.875,14.176 0,6 1.625,10.722 4.875,14.171 3.25,3.469 7.699,5.204 13.348,5.204 2.234,0 4.332,-0.301 6.301,-0.903 1.984,-0.582 3.84,-1.465 5.574,-2.648"
         style="fill:#70787d;fill-opacity:1;fill-rule:nonzero;stroke:none"
         id="path4282"
         inkscape:connector-curvature="0" /></g><rect
       ry="0"
       y="-60.937485"
       x="60.400002"
       height="6.8800001"
       width="162.39999"
       id="rect3823"
       style="fill:url(#linearGradient5510);fill-opacity:1;stroke:none"
       transform="scale(1,-1)" /><path
       style="fill:#ffffff;fill-opacity:1;fill-rule:nonzero;stroke:none"
       d="m 154.57501,181.06789 1.375,0 0.85,-1.3 -0.925,0 z m -47.62501,-2.25 c 1.235,0 1.97,-0.555 2.275,-1.7 l -1.125,-0.275 c -0.18,0.543 -0.57,0.925 -1.175,0.925 -0.824,0 -1.325,-0.763 -1.325,-2.275 -0.02,-1.511 0.421,-2.275 1.35,-2.275 0.559,0 0.907,0.188 1.275,0.95 l 1.15,-0.3 c -0.387,-1.117 -1.241,-1.7 -2.425,-1.7 -1.644,0 -2.575,1.212 -2.575,3.325 0,2.113 0.931,3.325 2.575,3.325 z m 26.175,0 c 1.234,0 1.945,-0.555 2.25,-1.7 l -1.125,-0.275 c -0.18,0.543 -0.545,0.925 -1.15,0.925 -0.825,0 -1.325,-0.763 -1.325,-2.275 -0.015,-1.511 0.42,-2.275 1.35,-2.275 0.555,0 0.883,0.188 1.25,0.95 l 1.15,-0.3 c -0.382,-1.117 -1.22,-1.7 -2.4,-1.7 -1.645,0 -2.6,1.212 -2.6,3.325 0,2.113 0.955,3.325 2.6,3.325 z m 64.95001,0 c 1.039,0 1.888,-0.538 2.275,-1.475 l -1.125,-0.35 c -0.192,0.5 -0.568,0.85 -1.15,0.85 -0.535,0 -0.925,-0.225 -0.925,-0.725 0,-1.109 3.325,-0.856 3.325,-2.95 0,-1.324 -0.841,-2 -2.275,-2 -1.054,0 -2.033,0.588 -2.4,1.525 l 1.025,0.45 c 0.293,-0.61 0.673,-1 1.4,-1 0.617,0 1.075,0.225 1.075,0.85 0,1.27 -3.325,1.016 -3.325,3 0,1.156 0.983,1.825 2.1,1.825 z m -137.65001,-0.1 2.15,0 c 1.711,0 2.888,-0.944 2.9,-3.225 -0.012,-2.281 -1.189,-3.225 -2.9,-3.225 l -2.15,0 z m 6.725,0 4.275,0 0,-1.025 -3.05,0 0,-1.55 2.225,0 0,-1.025 -2.225,0 0,-1.825 3.15,0 0,-1.025 -4.375,0 z m 9.55,0 1.225,0 0,-5.425 2.8,0 0,-1.025 -4.025,0 z m 6.95,0 1.525,0 1.85,-6.45 -1.225,0 -0.375,1.4 -2.025,0 -0.4,-1.4 -1.225,0 z m 8.3,0 2.6,0 c 1.465,0 2.038,-0.833 2.05,-1.9 0.007,-0.793 -0.39,-1.453 -1.175,-1.675 l 1.425,-2.875 -1.375,0 -1.225,2.625 -1.05,0 0,-2.625 -1.25,0 z m 6.725,0 4.275,0 0,-1.025 -3.025,0 0,-1.55 2.2,0 0,-1.025 -2.2,0 0,-1.825 3.125,0 0,-1.025 -4.375,0 z m 12.35,0 1.225,0 0,-2.575 2.5,0 0,2.575 1.225,0 0,-6.45 -1.225,0 0,2.775 -2.5,0 0,-2.775 -1.225,0 z m 7.15,0 4.275,0 0,-1.025 -3.025,0 0,-1.55 2.2,0 0,-1.025 -2.2,0 0,-1.825 3.125,0 0,-1.025 -4.375,0 z m 6.125,0 2.575,0 c 1.469,0 2.038,-0.833 2.05,-1.9 0.008,-0.793 -0.386,-1.453 -1.175,-1.675 l 1.425,-2.875 -1.375,0 -1.2,2.625 -1.075,0 0,-2.625 -1.225,0 z m 12.875,0 1.25,0 0,-2.575 2.475,0 0,2.575 1.25,0 0,-6.45 -1.25,0 0,2.775 -2.475,0 0,-2.775 -1.25,0 z m 7.175,0 4.27501,0 0,-1.025 -3.05001,0 0,-1.55 2.20001,0 0,-1.025 -2.20001,0 0,-1.825 3.15001,0 0,-1.025 -4.37501,0 z m 10.97501,0 1.525,0 1.85,-6.45 -1.25,0 -0.35,1.4 -2.025,0 -0.4,-1.4 -1.225,0 z m 8.475,0 1.225,0 0,-5.425 2.825,0 0,-1.025 -4.05,0 z m 4.45,0 1.225,0 0,-1.275 -0.575,-1.325 -0.575,0 0.45,1.325 -0.525,0 z m 3.425,0 1.225,0 0,-6.45 -1.225,0 z m 3.525,0 1.3,0 2.525,-4.4 0.025,0 0,4.4 1.175,0 0,-6.45 -1.2,0 -2.65,4.6 0,-4.6 -1.175,0 z m 7.15,0 2.125,0 c 1.707,0 2.892,-0.944 2.9,-3.225 -0.008,-2.281 -1.193,-3.225 -2.9,-3.225 l -2.125,0 z m 6.7,0 1.25,0 0,-4.1 c 0,-1.047 0.418,-1.4 1.25,-1.4 0.832,0 1.225,0.353 1.225,1.4 l 0,4.1 1.25,0 0,-4.05 c 0,-1.887 -1.163,-2.5 -2.475,-2.5 -1.317,0 -2.5,0.613 -2.5,2.5 z m 12.775,0 4.6,0 0,-1.025 -1.675,0 0,-5.425 -1.25,0 0,5.425 -1.675,0 z m 6.175,0 2.57499,0 c 1.469,0 2.068,-0.833 2.075,-1.9 0.012,-0.793 -0.39,-1.453 -1.175,-1.675 l 1.425,-2.875 -1.375,0 -1.225,2.625 -1.04999,0 0,-2.625 -1.25,0 z m 6.84999,0 1.225,0 0,-6.45 -1.225,0 z m 3.55,0 4.3,0 0,-1.025 -3.05,0 0,-1.55 2.2,0 0,-1.025 -2.2,0 0,-1.825 3.125,0 0,-1.025 -4.375,0 z m -125.2,-1 0,-1.825 0.9,0 c 0.964,0 1.275,0.32 1.275,0.925 0,0.61 -0.366,0.9 -1.05,0.9 z m 32.325,0 0,-1.825 0.925,0 c 0.969,0 1.25,0.32 1.25,0.925 0,0.61 -0.366,0.9 -1.05,0.9 z m 83.72501,0 0,-1.825 0.89999,0 c 0.969,0 1.275,0.32 1.275,0.925 0,0.61 -0.37,0.9 -1.05,0.9 z m -147.57501,-0.025 0,-4.4 0.8,0 c 1.414,0 1.75,1.044 1.75,2.2 0,1.156 -0.336,2.2 -1.75,2.2 z m 121.90001,0 0,-4.4 0.825,0 c 1.418,0 1.75,1.044 1.75,2.2 0,1.156 -0.332,2.2 -1.75,2.2 z m -99.15001,-0.2 -0.75,-2.825 1.5,0 -0.725,2.825 z m 71.67501,0 -0.775,-2.825 1.5,0 z"
       id="path4119-0"
       inkscape:connector-curvature="0"
       sodipodi:nodetypes="cccccsccscsccssssccscsccssssccssssccsssscscsccccccccccccccccccccccccccccccccscccccccccccccccccccccccccccccccccccccccccccccccccscccccccccccccccccccccccccccccccccccccccccccccccccccccccccccccccccccccccccccccscsccccsssccssscccccccccccscccccccccccccccccccccccccccccssscccssscccssscccssscccssscccccccccc" /></g></svg>