<?xml version="1.0" encoding="UTF-8" standalone="no"?>
<!-- Created with Inkscape (http://www.inkscape.org/) -->
<svg
   xmlns:dc="http://purl.org/dc/elements/1.1/"
   xmlns:cc="http://web.resource.org/cc/"
   xmlns:rdf="http://www.w3.org/1999/02/22-rdf-syntax-ns#"
   xmlns:svg="http://www.w3.org/2000/svg"
   xmlns="http://www.w3.org/2000/svg"
   xmlns:sodipodi="http://sodipodi.sourceforge.net/DTD/sodipodi-0.dtd"
   xmlns:inkscape="http://www.inkscape.org/namespaces/inkscape"
   width="70.933746"
   height="111.48602"
   id="svg2248"
   sodipodi:version="0.32"
   inkscape:version="0.44.1"
   version="1.0"
   sodipodi:docbase="/home/pg155779/texmf/tex/Logos"
   sodipodi:docname="logoAFAQ.svg">
  <defs
     id="defs2250">
    <clipPath
       id="clipPath4512"
       clipPathUnits="userSpaceOnUse">
      <path
         id="path4514"
         d="M 0,0 L 595.276,0 L 595.276,841.89 L 0,841.89 L 0,0 z " />
    </clipPath>
    <clipPath
       id="clipPath4242"
       clipPathUnits="userSpaceOnUse">
      <path
         id="path4244"
         d="M 42.52,712.498 L 99.267,712.498 L 99.267,788.031 L 42.52,788.031 L 42.52,712.498 z " />
    </clipPath>
  </defs>
  <sodipodi:namedview
     id="base"
     pagecolor="#ffffff"
     bordercolor="#666666"
     borderopacity="1.0"
     inkscape:pageopacity="0.0"
     inkscape:pageshadow="2"
     inkscape:zoom="3.3815898"
     inkscape:cx="35.46685"
     inkscape:cy="55.74296"
     inkscape:document-units="px"
     inkscape:current-layer="layer1"
     inkscape:window-width="947"
     inkscape:window-height="582"
     inkscape:window-x="12"
     inkscape:window-y="68"
     width="744.09449px"
     height="1052.3622px" />
  <metadata
     id="metadata2253">
    <rdf:RDF>
      <cc:Work
         rdf:about="">
        <dc:format>image/svg+xml</dc:format>
        <dc:type
           rdf:resource="http://purl.org/dc/dcmitype/StillImage" />
      </cc:Work>
    </rdf:RDF>
  </metadata>
  <g
     inkscape:label="Calque 1"
     inkscape:groupmode="layer"
     id="layer1"
     transform="translate(-613.1046,-773.7618)">
    <g
       id="g2533">
      <path
         id="path2477"
         style="fill:white;fill-opacity:1;fill-rule:nonzero;stroke:none"
         d="M 683.28145,774.51309 L 613.85645,774.51309 L 613.85645,844.01934 L 683.28145,844.01934 L 683.28145,774.51309 z " />
      <path
         id="path2487"
         style="fill:none;stroke:#87888a;stroke-width:1.50250006;stroke-linecap:butt;stroke-linejoin:miter;stroke-miterlimit:4;stroke-dasharray:none;stroke-opacity:1"
         d="M 683.28145,774.5131 L 613.85645,774.5131 L 613.85645,844.01935 L 683.28145,844.01935 L 683.28145,774.5131 z " />
      <path
         id="path2489"
         style="fill:#87888a;fill-opacity:1;fill-rule:nonzero;stroke:none"
         d="M 635.85395,776.94809 L 616.28395,776.94809 L 616.28395,841.57184 L 635.85395,841.57184 L 635.85395,776.94809 z " />
      <path
         d="M 635.85345,793.32622 L 638.9697,793.32622 L 635.85345,784.35122 L 635.85345,780.88997 L 638.19845,780.88997 C 638.19845,780.88997 646.3097,802.62622 647.0472,804.17122 C 647.7847,805.71622 649.92345,805.75122 650.1447,805.75122 L 650.40345,805.75122 L 650.40345,806.97997 L 638.5672,806.97997 L 638.5672,805.75122 L 640.4472,805.75122 C 642.03345,805.75122 642.6972,805.01372 642.6972,804.17122 C 642.6972,803.32872 639.7847,795.88372 639.7847,795.88372 L 635.85345,795.88372 L 635.85345,793.32622 z "
         style="fill:#009c99;fill-opacity:1;fill-rule:nonzero;stroke:none"
         id="path2501" />
      <path
         d="M 635.85345,784.35135 L 635.85345,784.35135 L 632.43845,793.32635 L 635.85345,793.32635 L 635.85345,795.88385 L 631.45095,795.88385 C 631.45095,795.88385 628.68595,803.59135 628.68595,804.17135 C 628.68595,805.3301 629.6997,805.75135 630.9347,805.75135 L 632.63095,805.75135 L 632.63095,806.9801 L 621.02845,806.9801 L 621.02845,805.75135 L 621.3522,805.75135 C 623.8122,805.75135 624.95595,803.9251 625.60095,802.4676 C 625.7072,802.22885 633.20845,782.1926 633.2697,781.9776 C 633.49095,781.2051 632.87595,780.8901 632.87595,780.8901 L 635.85345,780.8901 L 635.85345,784.35135 z "
         style="fill:white;fill-opacity:1;fill-rule:nonzero;stroke:none"
         id="path2505" />
      <path
         d="M 661.0342,806.98022 L 654.5217,806.98022 L 654.5217,805.75147 C 654.5217,805.75147 658.2092,805.75147 658.2092,802.16897 L 658.2092,785.27897 C 658.2092,783.21897 656.7342,782.22397 654.5217,782.22397 L 654.5217,781.24022 L 661.0342,781.24022 L 661.0342,806.98022 z "
         style="fill:#009c99;fill-opacity:1;fill-rule:nonzero;stroke:none"
         id="path2509" />
      <path
         id="path2511"
         style="fill:#87888a;fill-opacity:1;fill-rule:nonzero;stroke:none"
         d="M 680.84395,776.9481 L 661.0352,776.9481 L 661.0352,841.5956 L 680.84395,841.5956 L 680.84395,776.9481 z " />
      <path
         d="M 661.0342,781.24047 L 675.9742,781.24047 L 675.9742,786.69297 L 674.45545,786.69297 C 674.45545,786.69297 674.45545,786.62297 674.45545,786.41172 C 674.45545,786.20172 674.56545,783.28672 670.80545,783.28672 L 663.7692,783.28672 L 663.7692,792.48797 L 669.8167,792.48797 C 670.29545,792.48797 672.36045,792.55797 672.36045,789.78422 L 672.36045,789.32797 L 674.05545,789.32797 L 674.05545,798.42172 L 672.36045,798.42172 L 672.36045,798.24547 C 672.36045,797.89422 672.5817,795.12047 669.89045,795.12047 L 663.7692,795.12047 L 663.7692,802.13422 C 663.7692,803.92547 664.1192,805.75172 667.47545,805.75172 C 667.47545,806.38297 667.4942,806.98047 667.4942,806.98047 L 661.0342,806.98047 L 661.0342,781.24047 z "
         style="fill:white;fill-opacity:1;fill-rule:nonzero;stroke:none"
         id="path2515" />
      <path
         d="M 661.0342,810.44735 C 652.95545,811.17985 649.0042,816.9686 649.0042,823.9761 C 649.0042,831.10985 655.58045,836.0586 661.0342,836.34735 L 661.0342,833.81485 C 654.8192,832.2486 653.2067,827.5361 653.2067,822.99235 C 653.2067,818.1936 654.79795,813.4611 661.0342,812.48985 L 661.0342,810.44735 z "
         style="fill:#009c99;fill-opacity:1;fill-rule:nonzero;stroke:none"
         id="path2519" />
      <path
         d="M 635.85345,822.79697 L 639.00095,822.79697 L 635.85345,813.85822 L 635.85345,810.39197 L 638.19845,810.39197 C 638.19845,810.39197 646.3097,832.12822 647.0472,833.67322 C 647.7847,835.21822 649.92345,835.25322 650.1447,835.25322 L 650.40345,835.25322 L 650.40345,836.48197 L 638.5672,836.48197 L 638.5672,835.25322 L 640.4472,835.25322 C 642.03345,835.25322 642.6972,834.51572 642.6972,833.67322 C 642.6972,832.82947 639.7847,825.38572 639.7847,825.38572 L 635.85345,825.38572 L 635.85345,822.79697 z "
         style="fill:#009c99;fill-opacity:1;fill-rule:nonzero;stroke:none"
         id="path2523" />
      <path
         d="M 635.85345,813.85847 L 635.85345,813.85847 L 632.4072,822.79722 L 635.85345,822.79722 L 635.85345,825.38597 L 631.45095,825.38597 C 631.45095,825.38597 628.68595,833.09347 628.68595,833.67347 C 628.68595,834.83222 629.6997,835.25347 630.9347,835.25347 L 632.63095,835.25347 L 632.63095,836.48222 L 620.8972,836.48222 L 620.8972,835.25347 L 621.2197,835.25347 C 623.68095,835.25347 624.8247,833.42722 625.4697,831.96972 C 625.5747,831.73097 633.0772,811.69472 633.13845,811.47972 C 633.3597,810.70722 632.87595,810.39097 632.87595,810.39097 L 635.85345,810.39097 L 635.85345,813.85847 z "
         style="fill:white;fill-opacity:1;fill-rule:nonzero;stroke:none"
         id="path2527" />
      <path
         d="M 676.2827,838.1756 C 675.74895,838.1756 672.92895,837.46935 672.06145,836.93685 C 670.17895,835.78185 668.20395,835.96185 667.8752,835.7856 C 670.1552,835.0331 676.76645,833.12435 676.6727,823.34435 C 676.56895,812.6181 668.1052,810.31435 663.1877,810.31435 C 662.45145,810.31435 661.73395,810.35935 661.03395,810.44685 L 661.03395,812.48935 C 661.6427,812.3956 662.2852,812.32935 662.96645,812.3456 C 671.67395,812.55685 672.60895,821.09685 672.60895,823.97685 C 672.60895,826.43435 672.1127,833.80435 664.29395,834.01435 C 663.1077,834.0456 662.0252,834.06435 661.03395,833.81435 L 661.03395,836.34685 C 661.43145,836.3956 661.8202,836.41935 662.19145,836.41935 C 663.40895,836.41935 664.0352,836.3031 664.80895,836.82935 C 665.43395,837.25435 665.33145,837.2481 666.2377,837.80435 C 667.9352,839.1631 669.34145,839.1931 670.9677,839.30185 C 672.8177,839.4256 675.27645,839.2356 676.28145,839.1456 L 676.2827,838.1756 z "
         style="fill:white;fill-opacity:1;fill-rule:nonzero;stroke:none"
         id="path2531" />
      <path
         id="path2465"
         style="fill:#87888a;fill-opacity:1;fill-rule:nonzero;stroke:none"
         d="M 683.28645,846.97491 L 613.85645,846.97491 L 613.85645,857.51116 L 683.28645,857.51116 L 683.28645,846.97491 z " />
      <path
         id="path2475"
         style="fill:none;stroke:#87888a;stroke-width:1.50374997;stroke-linecap:butt;stroke-linejoin:miter;stroke-miterlimit:4;stroke-dasharray:none;stroke-opacity:1"
         d="M 683.28645,846.97492 L 613.85645,846.97492 L 613.85645,857.51117 L 683.28645,857.51117 L 683.28645,846.97492 z " />
      <path
         id="path2533"
         style="fill:white;fill-opacity:1;fill-rule:nonzero;stroke:none"
         d="M 618.49895,855.82242 L 617.05645,855.82242 L 617.05645,848.42242 L 618.49895,848.42242 L 618.49895,855.82242 z " />
      <path
         d="M 625.78208,850.05129 C 625.50708,849.67879 625.15333,849.44254 624.67333,849.44254 C 624.21208,849.44254 623.76958,849.79629 623.76958,850.27629 C 623.76958,851.52379 626.70458,851.00379 626.70458,853.48629 C 626.70458,854.96879 625.78208,856.01879 624.27083,856.01879 C 623.24958,856.01879 622.50333,855.43004 621.99333,854.57629 L 622.92583,853.66379 C 623.12208,854.23254 623.64208,854.74254 624.26083,854.74254 C 624.84958,854.74254 625.21333,854.24254 625.21333,853.67254 C 625.21333,852.90754 624.50583,852.69129 623.92708,852.46504 C 622.97458,852.07379 622.27833,851.59254 622.27833,850.44379 C 622.27833,849.21754 623.19083,848.22504 624.43708,848.22504 C 625.09458,848.22504 626.00833,848.55004 626.45958,849.05004 L 625.78208,850.05129 z "
         style="fill:white;fill-opacity:1;fill-rule:nonzero;stroke:none"
         id="path2537" />
      <path
         d="M 633.51607,849.64879 C 634.78232,849.64879 635.68482,850.85629 635.68482,852.05379 C 635.68482,853.17254 634.74232,854.59629 633.51607,854.59629 C 632.28982,854.59629 631.34732,853.17254 631.34732,852.05379 C 631.34732,850.85629 632.24982,849.64879 633.51607,849.64879 M 633.51607,856.01879 C 635.67482,856.01879 637.17732,854.23254 637.17732,852.11254 C 637.17732,850.04129 635.67482,848.22504 633.51607,848.22504 C 631.35732,848.22504 629.85482,850.04129 629.85482,852.11254 C 629.85482,854.23254 631.35732,856.01879 633.51607,856.01879"
         style="fill:white;fill-opacity:1;fill-rule:nonzero;stroke:none"
         id="path2541" />
      <path
         d="M 648.5622,849.40354 C 649.28845,849.40354 649.7397,850.11979 649.7397,850.78729 C 649.7397,851.45479 649.28845,852.17104 648.5622,852.17104 C 647.83595,852.17104 647.3947,851.45479 647.3947,850.78729 C 647.3947,850.11979 647.83595,849.40354 648.5622,849.40354 M 648.27845,856.13604 L 650.24095,853.22104 C 650.7222,852.50479 651.14345,851.63104 651.14345,850.74854 C 651.14345,849.25604 650.0147,848.22604 648.5522,848.22604 C 647.03095,848.22604 645.9422,849.31479 645.9422,850.84604 C 645.9422,852.12229 646.78595,853.29979 648.1397,853.29979 C 648.34595,853.29979 648.5522,853.26104 648.7197,853.19229 L 648.7397,853.21229 L 647.2172,855.36104 L 648.27845,856.13604 z "
         style="fill:white;fill-opacity:1;fill-rule:nonzero;stroke:none"
         id="path2545" />
      <path
         d="M 657.94533,849.64879 C 659.21158,849.64879 660.11408,850.85629 660.11408,852.05379 C 660.11408,853.17254 659.17158,854.59629 657.94533,854.59629 C 656.71908,854.59629 655.77658,853.17254 655.77658,852.05379 C 655.77658,850.85629 656.67908,849.64879 657.94533,849.64879 M 657.94533,856.01879 C 660.10408,856.01879 661.60658,854.23254 661.60658,852.11254 C 661.60658,850.04129 660.10408,848.22504 657.94533,848.22504 C 655.78658,848.22504 654.28408,850.04129 654.28408,852.11254 C 654.28408,854.23254 655.78658,856.01879 657.94533,856.01879"
         style="fill:white;fill-opacity:1;fill-rule:nonzero;stroke:none"
         id="path2549" />
      <path
         d="M 668.36882,849.64879 C 669.63507,849.64879 670.53757,850.85629 670.53757,852.05379 C 670.53757,853.17254 669.59632,854.59629 668.36882,854.59629 C 667.14257,854.59629 666.20007,853.17254 666.20007,852.05379 C 666.20007,850.85629 667.10257,849.64879 668.36882,849.64879 M 668.36882,856.01879 C 670.52757,856.01879 672.03007,854.23254 672.03007,852.11254 C 672.03007,850.04129 670.52757,848.22504 668.36882,848.22504 C 666.21007,848.22504 664.70757,850.04129 664.70757,852.11254 C 664.70757,854.23254 666.21007,856.01879 668.36882,856.01879"
         style="fill:white;fill-opacity:1;fill-rule:nonzero;stroke:none"
         id="path2553" />
      <path
         d="M 676.37783,849.67842 L 676.37783,848.42217 L 678.79283,848.42217 L 678.79283,855.82217 L 677.34908,855.82217 L 677.34908,849.67842 L 676.37783,849.67842 z "
         style="fill:white;fill-opacity:1;fill-rule:nonzero;stroke:none"
         id="path2557" />
      <path
         id="path5981"
         style="fill:#87888a;fill-opacity:1;fill-rule:nonzero;stroke:none"
         d="M 683.28648,860.46733 L 613.85648,860.46733 L 613.85648,871.00357 L 683.28648,871.00357 L 683.28648,860.46733 z " />
      <g
         transform="matrix(1.25,0,0,-1.25,559.9552,1772.449)"
         id="g5985"
         clip-path="url(#clipPath4242)">
        <path
           d="M 98.665,729.585 L 43.121,729.585 L 43.121,721.156 L 98.665,721.156 L 98.665,729.585 z "
           style="fill:none;stroke:#87888a;stroke-width:1.20299995;stroke-linecap:butt;stroke-linejoin:miter;stroke-miterlimit:4;stroke-dasharray:none;stroke-opacity:1"
           id="path5987" />
      </g>
      <path
         id="path3563"
         style="fill:white;fill-opacity:1;fill-rule:nonzero;stroke:none"
         d="M 617.30333,869.3348 L 615.87708,869.3348 L 615.87708,862.01605 L 617.30333,862.01605 L 617.30333,869.3348 z " />
      <path
         d="M 624.3601,863.6282 C 624.0876,863.25945 623.73885,863.0257 623.26385,863.0257 C 622.8076,863.0257 622.3701,863.3757 622.3701,863.85195 C 622.3701,865.08445 625.2726,864.56945 625.2726,867.0257 C 625.2726,868.4907 624.3601,869.52945 622.8651,869.52945 C 621.85635,869.52945 621.1176,868.94695 620.61385,868.1032 L 621.5351,867.2007 C 621.7301,867.7632 622.24385,868.2682 622.8551,868.2682 C 623.4376,868.2682 623.7976,867.7732 623.7976,867.20945 C 623.7976,866.4532 623.09885,866.23945 622.5251,866.0157 C 621.58385,865.6282 620.8951,865.15195 620.8951,864.01695 C 620.8951,862.8032 621.7976,861.8232 623.0301,861.8232 C 623.6801,861.8232 624.58385,862.1432 625.0301,862.6382 L 624.3601,863.6282 z "
         style="fill:white;fill-opacity:1;fill-rule:nonzero;stroke:none"
         id="path3567" />
      <path
         d="M 631.8626,869.5295 C 633.9976,869.5295 635.4826,867.76325 635.4826,865.66575 C 635.4826,863.61825 633.9976,861.82325 631.8626,861.82325 C 629.7276,861.82325 628.2426,863.61825 628.2426,865.66575 C 628.2426,867.76325 629.7276,869.5295 631.8626,869.5295 M 631.8626,863.23075 C 633.1151,863.23075 634.0076,864.4245 634.0076,865.60825 C 634.0076,866.7145 633.07635,868.122 631.8626,868.122 C 630.64885,868.122 629.7176,866.7145 629.7176,865.60825 C 629.7176,864.4245 630.6101,863.23075 631.8626,863.23075"
         style="fill:white;fill-opacity:1;fill-rule:nonzero;stroke:none"
         id="path3571" />
      <path
         d="M 645.0141,863.2594 L 645.0141,862.0169 L 647.4016,862.0169 L 647.4016,869.33565 L 645.97535,869.33565 L 645.97535,863.2594 L 645.0141,863.2594 z "
         style="fill:white;fill-opacity:1;fill-rule:nonzero;stroke:none"
         id="path3575" />
      <path
         d="M 656.3797,866.8993 L 656.3797,861.88055 L 655.0797,861.88055 L 651.8172,867.4043 L 651.8172,868.0443 L 655.0397,868.0443 L 655.0397,869.33555 L 656.3797,869.33555 L 656.3797,868.0443 L 657.15595,868.0443 L 657.15595,866.8993 L 656.3797,866.8993 z M 655.0397,866.8993 L 653.4772,866.8993 L 655.02095,863.9868 L 655.0397,863.9868 L 655.0397,866.8993 z "
         style="fill:white;fill-opacity:1;fill-rule:nonzero;stroke:none"
         id="path3579" />
      <path
         d="M 662.7758,861.8229 C 660.81455,861.8229 660.1558,864.1129 660.1558,865.6854 C 660.1558,867.2479 660.83455,869.52915 662.7758,869.52915 C 664.71705,869.52915 665.39705,867.2479 665.39705,865.6854 C 665.39705,864.1129 664.7358,861.8229 662.7758,861.8229 M 662.7758,863.0654 C 663.79455,863.0654 663.9983,864.92915 663.9983,865.66665 C 663.9983,866.39415 663.79455,868.28665 662.7758,868.28665 C 661.7658,868.28665 661.5533,866.39415 661.5533,865.66665 C 661.5533,864.92915 661.7658,863.0654 662.7758,863.0654"
         style="fill:white;fill-opacity:1;fill-rule:nonzero;stroke:none"
         id="path3583" />
      <path
         d="M 670.9579,861.8229 C 668.99665,861.8229 668.33665,864.1129 668.33665,865.6854 C 668.33665,867.2479 669.01665,869.52915 670.9579,869.52915 C 672.89915,869.52915 673.57915,867.2479 673.57915,865.6854 C 673.57915,864.1129 672.9179,861.8229 670.9579,861.8229 M 670.9579,863.0654 C 671.97665,863.0654 672.1804,864.92915 672.1804,865.66665 C 672.1804,866.39415 671.97665,868.28665 670.9579,868.28665 C 669.9479,868.28665 669.73415,866.39415 669.73415,865.66665 C 669.73415,864.92915 669.9479,863.0654 670.9579,863.0654"
         style="fill:white;fill-opacity:1;fill-rule:nonzero;stroke:none"
         id="path3587" />
      <path
         d="M 677.742,863.2594 L 677.742,862.0169 L 680.1295,862.0169 L 680.1295,869.33565 L 678.70325,869.33565 L 678.70325,863.2594 L 677.742,863.2594 z "
         style="fill:white;fill-opacity:1;fill-rule:nonzero;stroke:none"
         id="path3591" />
      <path
         id="path4236"
         style="fill:#87888a;fill-opacity:1;fill-rule:nonzero;stroke:none"
         d="M 683.28645,873.95971 L 613.85645,873.95971 L 613.85645,884.49595 L 683.28645,884.49595 L 683.28645,873.95971 z " />
      <g
         transform="matrix(1.25,0,0,-1.25,559.9552,1785.941)"
         id="g4240"
         clip-path="url(#clipPath4242)">
        <path
           d="M 98.665,729.585 L 43.121,729.585 L 43.121,721.156 L 98.665,721.156 L 98.665,729.585 z "
           style="fill:none;stroke:#87888a;stroke-width:1.20299995;stroke-linecap:butt;stroke-linejoin:miter;stroke-miterlimit:4;stroke-dasharray:none;stroke-opacity:1"
           id="path4246" />
      </g>
      <path
         d="M 619.7831,883.3506 C 617.46435,883.3506 616.0231,881.57685 616.0231,879.33935 C 616.0231,877.0806 617.5156,875.34685 619.7831,875.34685 C 622.0506,875.34685 623.5431,877.0806 623.5431,879.33935 C 623.5431,881.57685 622.10185,883.3506 619.7831,883.3506 M 619.7831,876.80935 C 618.38185,876.80935 617.5556,878.0481 617.5556,879.2781 C 617.5556,880.4481 618.1406,881.88935 619.7831,881.88935 C 621.4256,881.88935 622.0106,880.4481 622.0106,879.2781 C 622.0106,878.0481 621.18435,876.80935 619.7831,876.80935"
         style="fill:white;fill-opacity:1;fill-rule:nonzero;stroke:none"
         id="path4306" />
      <path
         d="M 628.7438,878.5424 L 628.7438,875.54865 L 630.22505,875.54865 L 630.22505,883.14865 L 628.7438,883.14865 L 628.7438,879.7524 L 626.00255,879.7524 L 626.00255,883.14865 L 624.52005,883.14865 L 624.52005,875.54865 L 626.00255,875.54865 L 626.00255,878.5424 L 628.7438,878.5424 z "
         style="fill:white;fill-opacity:1;fill-rule:nonzero;stroke:none"
         id="path4310" />
      <path
         d="M 635.1443,877.222 C 634.8618,876.8395 634.4993,876.597 634.00555,876.597 C 633.5318,876.597 633.07805,876.9595 633.07805,877.45325 C 633.07805,878.73325 636.0918,878.1995 636.0918,880.7495 C 636.0918,882.272 635.1443,883.35075 633.5918,883.35075 C 632.5443,883.35075 631.77805,882.74575 631.25305,881.86825 L 632.21055,880.93075 C 632.41305,881.51575 632.9468,882.0395 633.5818,882.0395 C 634.1868,882.0395 634.5593,881.52575 634.5593,880.94075 C 634.5593,880.15575 633.8343,879.93325 633.2393,879.702 C 632.2618,879.29825 631.54555,878.8045 631.54555,877.6245 C 631.54555,876.3645 632.48305,875.347 633.76305,875.347 C 634.4393,875.347 635.37555,875.6795 635.8393,876.1945 L 635.1443,877.222 z "
         style="fill:white;fill-opacity:1;fill-rule:nonzero;stroke:none"
         id="path4314" />
      <path
         d="M 638.6719,881.5462 L 638.0469,883.1487 L 636.4844,883.1487 L 639.44815,875.34745 L 640.5969,875.34745 L 643.4794,883.1487 L 641.8969,883.1487 L 641.31315,881.5462 L 638.6719,881.5462 z M 639.9519,877.57495 L 639.9319,877.57495 L 639.09565,880.3362 L 640.8994,880.3362 L 639.9519,877.57495 z "
         style="fill:white;fill-opacity:1;fill-rule:nonzero;stroke:none"
         id="path4318" />
      <path
         d="M 647.7638,877.222 C 647.4813,876.8395 647.1188,876.597 646.62505,876.597 C 646.1513,876.597 645.69755,876.9595 645.69755,877.45325 C 645.69755,878.73325 648.7113,878.1995 648.7113,880.7495 C 648.7113,882.272 647.7638,883.35075 646.2113,883.35075 C 645.16255,883.35075 644.39755,882.74575 643.87255,881.86825 L 644.83005,880.93075 C 645.03255,881.51575 645.5663,882.0395 646.2013,882.0395 C 646.8063,882.0395 647.1788,881.52575 647.1788,880.94075 C 647.1788,880.15575 646.4538,879.93325 645.8588,879.702 C 644.8813,879.29825 644.16505,878.8045 644.16505,877.6245 C 644.16505,876.3645 645.10255,875.347 646.38255,875.347 C 647.05755,875.347 647.9963,875.6795 648.4588,876.1945 L 647.7638,877.222 z "
         style="fill:white;fill-opacity:1;fill-rule:nonzero;stroke:none"
         id="path4322" />
      <path
         d="M 653.8212,876.839 L 653.8212,875.549 L 656.3012,875.549 L 656.3012,883.149 L 654.8187,883.149 L 654.8187,876.839 L 653.8212,876.839 z "
         style="fill:white;fill-opacity:1;fill-rule:nonzero;stroke:none"
         id="path4326" />
      <path
         d="M 659.1229,877.5144 C 659.1229,876.2144 660.1004,875.3469 661.3504,875.3469 C 662.6004,875.3469 663.5779,876.2144 663.5779,877.5144 C 663.5779,878.2094 663.2054,878.8744 662.5804,879.18815 C 663.40665,879.50065 663.8104,880.24565 663.8104,881.12315 C 663.8104,882.49315 662.6304,883.35065 661.3504,883.35065 C 660.0704,883.35065 658.8904,882.49315 658.8904,881.12315 C 658.8904,880.24565 659.29415,879.50065 660.1204,879.18815 C 659.4954,878.8744 659.1229,878.2094 659.1229,877.5144 M 660.3829,880.9619 C 660.3829,881.51565 660.7354,882.12065 661.3504,882.12065 C 661.9654,882.12065 662.3179,881.51565 662.3179,880.9619 C 662.3179,880.3969 661.9654,879.7919 661.3504,879.7919 C 660.7354,879.7919 660.3829,880.3969 660.3829,880.9619 M 660.47415,877.5144 C 660.47415,878.01815 660.79665,878.58315 661.3504,878.58315 C 661.90415,878.58315 662.2279,878.01815 662.2279,877.5144 C 662.2279,877.02065 661.90415,876.45565 661.3504,876.45565 C 660.79665,876.45565 660.47415,877.02065 660.47415,877.5144"
         style="fill:white;fill-opacity:1;fill-rule:nonzero;stroke:none"
         id="path4330" />
      <path
         d="M 670.1497,879.3589 C 670.1497,880.9814 669.4447,883.35015 667.42845,883.35015 C 665.4122,883.35015 664.7072,880.9814 664.7072,879.3589 C 664.7072,877.7264 665.3922,875.34765 667.42845,875.34765 C 669.4647,875.34765 670.1497,877.7264 670.1497,879.3589 M 666.15845,879.3389 C 666.15845,880.09515 666.3797,882.06015 667.42845,882.06015 C 668.4872,882.06015 668.69845,880.09515 668.69845,879.3389 C 668.69845,878.57265 668.4872,876.63765 667.42845,876.63765 C 666.3797,876.63765 666.15845,878.57265 666.15845,879.3389"
         style="fill:white;fill-opacity:1;fill-rule:nonzero;stroke:none"
         id="path4334" />
      <path
         d="M 676.228,879.3589 C 676.228,880.9814 675.52175,883.35015 673.50675,883.35015 C 671.4905,883.35015 670.78425,880.9814 670.78425,879.3589 C 670.78425,877.7264 671.4705,875.34765 673.50675,875.34765 C 675.54175,875.34765 676.228,877.7264 676.228,879.3589 M 672.2355,879.3389 C 672.2355,880.09515 672.458,882.06015 673.50675,882.06015 C 674.56425,882.06015 674.77675,880.09515 674.77675,879.3389 C 674.77675,878.57265 674.56425,876.63765 673.50675,876.63765 C 672.458,876.63765 672.2355,878.57265 672.2355,879.3389"
         style="fill:white;fill-opacity:1;fill-rule:nonzero;stroke:none"
         id="path4338" />
      <path
         d="M 678.1327,876.839 L 678.1327,875.549 L 680.6127,875.549 L 680.6127,883.149 L 679.1302,883.149 L 679.1302,876.839 L 678.1327,876.839 z "
         style="fill:white;fill-opacity:1;fill-rule:nonzero;stroke:none"
         id="path4342" />
    </g>
  </g>
</svg>
